<svg baseProfile="full" shape-rendering="crispEdges" viewBox="0 0 256 256" xmlns="http://www.w3.org/2000/svg"><path fill="#f5f5f7" d="M0 0h256v256H0z"/><path d="M19.321 19.321h4.83v4.83h-4.83z"/><path d="M19.321 24.151h4.83v4.83h-4.83zM19.321 28.981h4.83v4.83h-4.83zM19.321 33.811h4.83v4.83h-4.83zM19.321 38.642h4.83v4.83h-4.83zM19.321 43.472h4.83v4.83h-4.83zM19.321 48.302h4.83v4.83h-4.83zM19.321 67.623h4.83v4.83h-4.83zM19.321 82.113h4.83v4.83h-4.83zM19.321 86.943h4.83v4.83h-4.83zM19.321 96.604h4.83v4.83h-4.83zM19.321 101.434h4.83v4.83h-4.83zM19.321 111.094h4.83v4.83h-4.83zM19.321 115.925h4.83v4.83h-4.83zM19.321 135.245h4.83v4.83h-4.83z"/><path d="M19.321 140.075h4.83v4.83h-4.83zM19.321 149.736h4.83v4.83h-4.83zM19.321 169.057h4.83v4.83h-4.83zM19.321 193.208h4.83v4.83h-4.83zM19.321 202.868h4.83v4.83h-4.83zM19.321 207.698h4.83v4.83h-4.83z"/><path d="M19.321 212.528h4.83v4.83h-4.83zM19.321 217.358h4.83v4.83h-4.83zM19.321 222.189h4.83v4.83h-4.83zM19.321 227.019h4.83v4.83h-4.83z"/><path d="M19.321 231.849h4.83v4.83h-4.83zM24.151 19.321h4.83v4.83h-4.83zM24.151 48.302h4.83v4.83h-4.83zM24.151 57.962h4.83v4.83h-4.83zM24.151 72.453h4.83v4.83h-4.83zM24.151 77.283h4.83v4.83h-4.83zM24.151 82.113h4.83v4.83h-4.83zM24.151 91.774h4.83v4.83h-4.83zM24.151 101.434h4.83v4.83h-4.83zM24.151 106.264h4.83v4.83h-4.83zM24.151 111.094h4.83v4.83h-4.83zM24.151 115.925h4.83v4.83h-4.83zM24.151 120.755h4.83v4.83h-4.83zM24.151 130.415h4.83v4.83h-4.83zM24.151 154.566h4.83v4.83h-4.83z"/><path d="M24.151 159.396h4.83v4.83h-4.83zM24.151 169.057h4.83v4.83h-4.83zM24.151 173.887h4.83v4.83h-4.83zM24.151 178.717h4.83v4.83h-4.83zM24.151 188.377h4.83v4.83h-4.83zM24.151 202.868h4.83v4.83h-4.83zM24.151 231.849h4.83v4.83h-4.83zM28.981 19.321h4.83v4.83h-4.83zM28.981 28.981h4.83v4.83h-4.83zM28.981 33.811h4.83v4.83h-4.83zM28.981 38.642h4.83v4.83h-4.83zM28.981 48.302h4.83v4.83h-4.83zM28.981 57.962h4.83v4.83h-4.83zM28.981 82.113h4.83v4.83h-4.83zM28.981 86.943h4.83v4.83h-4.83zM28.981 125.585h4.83v4.83h-4.83zM28.981 144.906h4.83v4.83h-4.83zM28.981 169.057h4.83v4.83h-4.83zM28.981 178.717h4.83v4.83h-4.83zM28.981 188.377h4.83v4.83h-4.83zM28.981 202.868h4.83v4.83h-4.83zM28.981 212.528h4.83v4.83h-4.83zM28.981 217.358h4.83v4.83h-4.83zM28.981 222.189h4.83v4.83h-4.83zM28.981 231.849h4.83v4.83h-4.83zM33.811 19.321h4.83v4.83h-4.83zM33.811 28.981h4.83v4.83h-4.83zM33.811 33.811h4.83v4.83h-4.83zM33.811 38.642h4.83v4.83h-4.83zM33.811 48.302h4.83v4.83h-4.83zM33.811 57.962h4.83v4.83h-4.83zM33.811 82.113h4.83v4.83h-4.83zM33.811 86.943h4.83v4.83h-4.83zM33.811 91.774h4.83v4.83h-4.83zM33.811 101.434h4.83v4.83h-4.83zM33.811 106.264h4.83v4.83h-4.83zM33.811 111.094h4.83v4.83h-4.83zM33.811 130.415h4.83v4.83h-4.83zM33.811 144.906h4.83v4.83h-4.83zM33.811 169.057h4.83v4.83h-4.83zM33.811 173.887h4.83v4.83h-4.83zM33.811 178.717h4.83v4.83h-4.83zM33.811 188.377h4.83v4.83h-4.83zM33.811 193.208h4.83v4.83h-4.83zM33.811 202.868h4.83v4.83h-4.83zM33.811 212.528h4.83v4.83h-4.83zM33.811 217.358h4.83v4.83h-4.83zM33.811 222.189h4.83v4.83h-4.83zM33.811 231.849h4.83v4.83h-4.83zM38.642 19.321h4.83v4.83h-4.83zM38.642 28.981h4.83v4.83h-4.83zM38.642 33.811h4.83v4.83h-4.83zM38.642 38.642h4.83v4.83h-4.83zM38.642 48.302h4.83v4.83h-4.83zM38.642 57.962h4.83v4.83h-4.83zM38.642 62.792h4.83v4.83h-4.83zM38.642 67.623h4.83v4.83h-4.83zM38.642 77.283h4.83v4.83h-4.83zM38.642 111.094h4.83v4.83h-4.83zM38.642 115.925h4.83v4.83h-4.83zM38.642 120.755h4.83v4.83h-4.83zM38.642 125.585h4.83v4.83h-4.83zM38.642 130.415h4.83v4.83h-4.83zM38.642 135.245h4.83v4.83h-4.83z"/><path d="M38.642 140.075h4.83v4.83h-4.83zM38.642 144.906h4.83v4.83h-4.83zM38.642 164.226h4.83v4.83h-4.83zM38.642 169.057h4.83v4.83h-4.83zM38.642 173.887h4.83v4.83h-4.83zM38.642 183.547h4.83v4.83h-4.83zM38.642 188.377h4.83v4.83h-4.83zM38.642 193.208h4.83v4.83h-4.83zM38.642 202.868h4.83v4.83h-4.83zM38.642 212.528h4.83v4.83h-4.83zM38.642 217.358h4.83v4.83h-4.83zM38.642 222.189h4.83v4.83h-4.83zM38.642 231.849h4.83v4.83h-4.83zM43.472 19.321h4.83v4.83h-4.83zM43.472 48.302h4.83v4.83h-4.83zM43.472 57.962h4.83v4.83h-4.83zM43.472 62.792h4.83v4.83h-4.83zM43.472 67.623h4.83v4.83h-4.83zM43.472 72.453h4.83v4.83h-4.83zM43.472 77.283h4.83v4.83h-4.83zM43.472 86.943h4.83v4.83h-4.83zM43.472 91.774h4.83v4.83h-4.83zM43.472 115.925h4.83v4.83h-4.83zM43.472 135.245h4.83v4.83h-4.83zM43.472 144.906h4.83v4.83h-4.83zM43.472 154.566h4.83v4.83h-4.83zM43.472 169.057h4.83v4.83h-4.83zM43.472 178.717h4.83v4.83h-4.83zM43.472 202.868h4.83v4.83h-4.83zM43.472 231.849h4.83v4.83h-4.83zM48.302 19.321h4.83v4.83h-4.83z"/><path d="M48.302 24.151h4.83v4.83h-4.83zM48.302 28.981h4.83v4.83h-4.83zM48.302 33.811h4.83v4.83h-4.83zM48.302 38.642h4.83v4.83h-4.83zM48.302 43.472h4.83v4.83h-4.83zM48.302 48.302h4.83v4.83h-4.83zM48.302 57.962h4.83v4.83h-4.83zM48.302 67.623h4.83v4.83h-4.83zM48.302 77.283h4.83v4.83h-4.83zM48.302 86.943h4.83v4.83h-4.83zM48.302 96.604h4.83v4.83h-4.83zM48.302 106.264h4.83v4.83h-4.83zM48.302 115.925h4.83v4.83h-4.83zM48.302 125.585h4.83v4.83h-4.83zM48.302 135.245h4.83v4.83h-4.83zM48.302 144.906h4.83v4.83h-4.83zM48.302 154.566h4.83v4.83h-4.83zM48.302 164.226h4.83v4.83h-4.83zM48.302 173.887h4.83v4.83h-4.83zM48.302 183.547h4.83v4.83h-4.83zM48.302 193.208h4.83v4.83h-4.83zM48.302 202.868h4.83v4.83h-4.83zM48.302 207.698h4.83v4.83h-4.83z"/><path d="M48.302 212.528h4.83v4.83h-4.83zM48.302 217.358h4.83v4.83h-4.83zM48.302 222.189h4.83v4.83h-4.83zM48.302 227.019h4.83v4.83h-4.83z"/><path d="M48.302 231.849h4.83v4.83h-4.83zM53.132 57.962h4.83v4.83h-4.83zM53.132 62.792h4.83v4.83h-4.83zM53.132 67.623h4.83v4.83h-4.83zM53.132 72.453h4.83v4.83h-4.83zM53.132 77.283h4.83v4.83h-4.83zM53.132 91.774h4.83v4.83h-4.83zM53.132 96.604h4.83v4.83h-4.83zM53.132 101.434h4.83v4.83h-4.83zM53.132 115.925h4.83v4.83h-4.83zM53.132 135.245h4.83v4.83h-4.83z"/><path d="M53.132 140.075h4.83v4.83h-4.83zM53.132 144.906h4.83v4.83h-4.83z"/><path d="M53.132 149.736h4.83v4.83h-4.83zM53.132 154.566h4.83v4.83h-4.83z"/><path d="M53.132 159.396h4.83v4.83h-4.83zM53.132 164.226h4.83v4.83h-4.83zM53.132 173.887h4.83v4.83h-4.83zM53.132 193.208h4.83v4.83h-4.83zM57.962 19.321h4.83v4.83h-4.83zM57.962 38.642h4.83v4.83h-4.83zM57.962 43.472h4.83v4.83h-4.83zM57.962 48.302h4.83v4.83h-4.83zM57.962 62.792h4.83v4.83h-4.83zM57.962 67.623h4.83v4.83h-4.83zM57.962 77.283h4.83v4.83h-4.83zM57.962 101.434h4.83v4.83h-4.83zM57.962 106.264h4.83v4.83h-4.83zM57.962 111.094h4.83v4.83h-4.83zM57.962 115.925h4.83v4.83h-4.83zM57.962 120.755h4.83v4.83h-4.83zM57.962 125.585h4.83v4.83h-4.83zM57.962 130.415h4.83v4.83h-4.83zM57.962 135.245h4.83v4.83h-4.83zM57.962 169.057h4.83v4.83h-4.83zM57.962 173.887h4.83v4.83h-4.83zM57.962 193.208h4.83v4.83h-4.83zM57.962 198.038h4.83v4.83h-4.83z"/><path d="M57.962 202.868h4.83v4.83h-4.83zM57.962 207.698h4.83v4.83h-4.83z"/><path d="M57.962 212.528h4.83v4.83h-4.83zM57.962 217.358h4.83v4.83h-4.83zM57.962 222.189h4.83v4.83h-4.83zM57.962 227.019h4.83v4.83h-4.83zM62.792 19.321h4.83v4.83h-4.83zM62.792 38.642h4.83v4.83h-4.83zM62.792 43.472h4.83v4.83h-4.83zM62.792 62.792h4.83v4.83h-4.83zM62.792 67.623h4.83v4.83h-4.83zM62.792 72.453h4.83v4.83h-4.83zM62.792 77.283h4.83v4.83h-4.83zM62.792 82.113h4.83v4.83h-4.83zM62.792 86.943h4.83v4.83h-4.83zM62.792 101.434h4.83v4.83h-4.83zM62.792 111.094h4.83v4.83h-4.83zM62.792 135.245h4.83v4.83h-4.83z"/><path d="M62.792 140.075h4.83v4.83h-4.83zM62.792 149.736h4.83v4.83h-4.83zM62.792 154.566h4.83v4.83h-4.83zM62.792 178.717h4.83v4.83h-4.83zM62.792 193.208h4.83v4.83h-4.83zM62.792 202.868h4.83v4.83h-4.83zM62.792 207.698h4.83v4.83h-4.83z"/><path d="M62.792 212.528h4.83v4.83h-4.83zM62.792 222.189h4.83v4.83h-4.83zM62.792 231.849h4.83v4.83h-4.83zM67.623 28.981h4.83v4.83h-4.83zM67.623 43.472h4.83v4.83h-4.83zM67.623 48.302h4.83v4.83h-4.83zM67.623 53.132h4.83v4.83h-4.83zM67.623 62.792h4.83v4.83h-4.83zM67.623 67.623h4.83v4.83h-4.83zM67.623 72.453h4.83v4.83h-4.83zM67.623 77.283h4.83v4.83h-4.83zM67.623 82.113h4.83v4.83h-4.83zM67.623 101.434h4.83v4.83h-4.83zM67.623 106.264h4.83v4.83h-4.83zM67.623 111.094h4.83v4.83h-4.83zM67.623 115.925h4.83v4.83h-4.83zM67.623 125.585h4.83v4.83h-4.83zM67.623 135.245h4.83v4.83h-4.83z"/><path d="M67.623 140.075h4.83v4.83h-4.83zM67.623 144.906h4.83v4.83h-4.83zM67.623 154.566h4.83v4.83h-4.83zM67.623 178.717h4.83v4.83h-4.83z"/><path d="M67.623 183.547h4.83v4.83h-4.83zM67.623 188.377h4.83v4.83h-4.83zM67.623 193.208h4.83v4.83h-4.83zM67.623 207.698h4.83v4.83h-4.83z"/><path d="M67.623 212.528h4.83v4.83h-4.83zM67.623 217.358h4.83v4.83h-4.83zM67.623 222.189h4.83v4.83h-4.83zM72.453 19.321h4.83v4.83h-4.83zM72.453 38.642h4.83v4.83h-4.83zM72.453 57.962h4.83v4.83h-4.83zM72.453 77.283h4.83v4.83h-4.83zM72.453 106.264h4.83v4.83h-4.83zM72.453 111.094h4.83v4.83h-4.83zM72.453 115.925h4.83v4.83h-4.83zM72.453 125.585h4.83v4.83h-4.83zM72.453 140.075h4.83v4.83h-4.83zM72.453 144.906h4.83v4.83h-4.83zM72.453 154.566h4.83v4.83h-4.83z"/><path d="M72.453 159.396h4.83v4.83h-4.83zM72.453 173.887h4.83v4.83h-4.83zM72.453 178.717h4.83v4.83h-4.83zM72.453 198.038h4.83v4.83h-4.83z"/><path d="M72.453 202.868h4.83v4.83h-4.83zM72.453 207.698h4.83v4.83h-4.83z"/><path d="M72.453 212.528h4.83v4.83h-4.83zM72.453 217.358h4.83v4.83h-4.83zM72.453 222.189h4.83v4.83h-4.83zM72.453 227.019h4.83v4.83h-4.83z"/><path d="M72.453 231.849h4.83v4.83h-4.83zM77.283 19.321h4.83v4.83h-4.83zM77.283 33.811h4.83v4.83h-4.83zM77.283 38.642h4.83v4.83h-4.83zM77.283 48.302h4.83v4.83h-4.83zM77.283 53.132h4.83v4.83h-4.83zM77.283 67.623h4.83v4.83h-4.83zM77.283 86.943h4.83v4.83h-4.83zM77.283 91.774h4.83v4.83h-4.83zM77.283 101.434h4.83v4.83h-4.83zM77.283 111.094h4.83v4.83h-4.83zM77.283 125.585h4.83v4.83h-4.83zM77.283 130.415h4.83v4.83h-4.83zM77.283 135.245h4.83v4.83h-4.83z"/><path d="M77.283 140.075h4.83v4.83h-4.83zM77.283 144.906h4.83v4.83h-4.83zM77.283 154.566h4.83v4.83h-4.83z"/><path d="M77.283 159.396h4.83v4.83h-4.83zM77.283 164.226h4.83v4.83h-4.83zM77.283 173.887h4.83v4.83h-4.83zM77.283 178.717h4.83v4.83h-4.83z"/><path d="M77.283 183.547h4.83v4.83h-4.83zM77.283 188.377h4.83v4.83h-4.83zM77.283 193.208h4.83v4.83h-4.83zM77.283 198.038h4.83v4.83h-4.83zM77.283 207.698h4.83v4.83h-4.83z"/><path d="M77.283 212.528h4.83v4.83h-4.83zM77.283 217.358h4.83v4.83h-4.83zM82.113 19.321h4.83v4.83h-4.83z"/><path d="M82.113 24.151h4.83v4.83h-4.83zM82.113 28.981h4.83v4.83h-4.83zM82.113 33.811h4.83v4.83h-4.83zM82.113 38.642h4.83v4.83h-4.83zM82.113 43.472h4.83v4.83h-4.83zM82.113 62.792h4.83v4.83h-4.83zM82.113 72.453h4.83v4.83h-4.83zM82.113 96.604h4.83v4.83h-4.83zM82.113 115.925h4.83v4.83h-4.83zM82.113 125.585h4.83v4.83h-4.83zM82.113 140.075h4.83v4.83h-4.83zM82.113 149.736h4.83v4.83h-4.83zM82.113 188.377h4.83v4.83h-4.83zM82.113 193.208h4.83v4.83h-4.83zM82.113 198.038h4.83v4.83h-4.83zM82.113 217.358h4.83v4.83h-4.83zM86.943 19.321h4.83v4.83h-4.83z"/><path d="M86.943 24.151h4.83v4.83h-4.83zM86.943 28.981h4.83v4.83h-4.83zM86.943 48.302h4.83v4.83h-4.83zM86.943 67.623h4.83v4.83h-4.83zM86.943 86.943h4.83v4.83h-4.83zM86.943 130.415h4.83v4.83h-4.83zM86.943 135.245h4.83v4.83h-4.83zM86.943 149.736h4.83v4.83h-4.83zM86.943 154.566h4.83v4.83h-4.83zM86.943 164.226h4.83v4.83h-4.83zM86.943 183.547h4.83v4.83h-4.83zM86.943 188.377h4.83v4.83h-4.83zM86.943 198.038h4.83v4.83h-4.83z"/><path d="M86.943 202.868h4.83v4.83h-4.83zM86.943 207.698h4.83v4.83h-4.83z"/><path d="M86.943 212.528h4.83v4.83h-4.83zM91.774 19.321h4.83v4.83h-4.83z"/><path d="M91.774 24.151h4.83v4.83h-4.83zM91.774 28.981h4.83v4.83h-4.83zM91.774 38.642h4.83v4.83h-4.83zM91.774 43.472h4.83v4.83h-4.83zM91.774 57.962h4.83v4.83h-4.83zM91.774 62.792h4.83v4.83h-4.83zM91.774 67.623h4.83v4.83h-4.83zM91.774 72.453h4.83v4.83h-4.83zM91.774 77.283h4.83v4.83h-4.83zM91.774 91.774h4.83v4.83h-4.83zM91.774 101.434h4.83v4.83h-4.83zM91.774 106.264h4.83v4.83h-4.83zM91.774 111.094h4.83v4.83h-4.83zM91.774 115.925h4.83v4.83h-4.83zM91.774 125.585h4.83v4.83h-4.83zM91.774 135.245h4.83v4.83h-4.83zM91.774 144.906h4.83v4.83h-4.83zM91.774 154.566h4.83v4.83h-4.83zM91.774 164.226h4.83v4.83h-4.83zM91.774 169.057h4.83v4.83h-4.83zM91.774 173.887h4.83v4.83h-4.83zM91.774 178.717h4.83v4.83h-4.83zM91.774 188.377h4.83v4.83h-4.83zM91.774 193.208h4.83v4.83h-4.83zM91.774 202.868h4.83v4.83h-4.83zM91.774 207.698h4.83v4.83h-4.83zM91.774 222.189h4.83v4.83h-4.83zM91.774 231.849h4.83v4.83h-4.83zM96.604 33.811h4.83v4.83h-4.83zM96.604 43.472h4.83v4.83h-4.83zM96.604 48.302h4.83v4.83h-4.83zM96.604 53.132h4.83v4.83h-4.83zM96.604 57.962h4.83v4.83h-4.83zM96.604 77.283h4.83v4.83h-4.83zM96.604 82.113h4.83v4.83h-4.83zM96.604 91.774h4.83v4.83h-4.83zM96.604 101.434h4.83v4.83h-4.83zM96.604 106.264h4.83v4.83h-4.83zM96.604 120.755h4.83v4.83h-4.83zM96.604 125.585h4.83v4.83h-4.83zM96.604 130.415h4.83v4.83h-4.83zM96.604 135.245h4.83v4.83h-4.83zM96.604 149.736h4.83v4.83h-4.83zM96.604 154.566h4.83v4.83h-4.83z"/><path d="M96.604 159.396h4.83v4.83h-4.83zM96.604 164.226h4.83v4.83h-4.83zM96.604 173.887h4.83v4.83h-4.83zM96.604 183.547h4.83v4.83h-4.83zM96.604 193.208h4.83v4.83h-4.83zM96.604 207.698h4.83v4.83h-4.83z"/><path d="M96.604 212.528h4.83v4.83h-4.83zM96.604 227.019h4.83v4.83h-4.83zM101.434 24.151h4.83v4.83h-4.83zM101.434 38.642h4.83v4.83h-4.83zM101.434 43.472h4.83v4.83h-4.83zM101.434 72.453h4.83v4.83h-4.83zM101.434 77.283h4.83v4.83h-4.83zM101.434 86.943h4.83v4.83h-4.83zM101.434 106.264h4.83v4.83h-4.83zM101.434 111.094h4.83v4.83h-4.83zM101.434 125.585h4.83v4.83h-4.83zM101.434 130.415h4.83v4.83h-4.83zM101.434 140.075h4.83v4.83h-4.83zM101.434 154.566h4.83v4.83h-4.83zM101.434 164.226h4.83v4.83h-4.83zM101.434 183.547h4.83v4.83h-4.83zM101.434 188.377h4.83v4.83h-4.83zM101.434 198.038h4.83v4.83h-4.83z"/><path d="M101.434 202.868h4.83v4.83h-4.83zM101.434 222.189h4.83v4.83h-4.83zM101.434 227.019h4.83v4.83h-4.83zM106.264 33.811h4.83v4.83h-4.83zM106.264 38.642h4.83v4.83h-4.83zM106.264 48.302h4.83v4.83h-4.83zM106.264 53.132h4.83v4.83h-4.83zM106.264 57.962h4.83v4.83h-4.83zM106.264 72.453h4.83v4.83h-4.83zM106.264 91.774h4.83v4.83h-4.83zM106.264 96.604h4.83v4.83h-4.83zM106.264 120.755h4.83v4.83h-4.83zM106.264 130.415h4.83v4.83h-4.83zM106.264 140.075h4.83v4.83h-4.83zM106.264 144.906h4.83v4.83h-4.83z"/><path d="M106.264 149.736h4.83v4.83h-4.83zM106.264 164.226h4.83v4.83h-4.83zM106.264 169.057h4.83v4.83h-4.83zM106.264 173.887h4.83v4.83h-4.83zM106.264 178.717h4.83v4.83h-4.83zM106.264 188.377h4.83v4.83h-4.83zM106.264 193.208h4.83v4.83h-4.83zM106.264 202.868h4.83v4.83h-4.83zM106.264 217.358h4.83v4.83h-4.83zM106.264 222.189h4.83v4.83h-4.83zM106.264 227.019h4.83v4.83h-4.83zM111.094 19.321h4.83v4.83h-4.83zM111.094 28.981h4.83v4.83h-4.83zM111.094 38.642h4.83v4.83h-4.83zM111.094 43.472h4.83v4.83h-4.83zM111.094 53.132h4.83v4.83h-4.83zM111.094 62.792h4.83v4.83h-4.83zM111.094 77.283h4.83v4.83h-4.83zM111.094 82.113h4.83v4.83h-4.83zM111.094 86.943h4.83v4.83h-4.83zM111.094 91.774h4.83v4.83h-4.83zM111.094 96.604h4.83v4.83h-4.83zM111.094 106.264h4.83v4.83h-4.83zM111.094 125.585h4.83v4.83h-4.83zM111.094 144.906h4.83v4.83h-4.83zM111.094 154.566h4.83v4.83h-4.83z"/><path d="M111.094 159.396h4.83v4.83h-4.83zM111.094 188.377h4.83v4.83h-4.83zM111.094 193.208h4.83v4.83h-4.83zM111.094 202.868h4.83v4.83h-4.83zM111.094 207.698h4.83v4.83h-4.83z"/><path d="M111.094 212.528h4.83v4.83h-4.83zM111.094 231.849h4.83v4.83h-4.83zM115.925 38.642h4.83v4.83h-4.83zM115.925 43.472h4.83v4.83h-4.83zM115.925 48.302h4.83v4.83h-4.83zM115.925 53.132h4.83v4.83h-4.83zM115.925 57.962h4.83v4.83h-4.83zM115.925 72.453h4.83v4.83h-4.83zM115.925 91.774h4.83v4.83h-4.83zM115.925 96.604h4.83v4.83h-4.83zM115.925 115.925h4.83v4.83h-4.83zM115.925 120.755h4.83v4.83h-4.83zM115.925 125.585h4.83v4.83h-4.83zM115.925 130.415h4.83v4.83h-4.83zM115.925 135.245h4.83v4.83h-4.83z"/><path d="M115.925 140.075h4.83v4.83h-4.83zM115.925 154.566h4.83v4.83h-4.83zM115.925 169.057h4.83v4.83h-4.83zM115.925 173.887h4.83v4.83h-4.83zM115.925 178.717h4.83v4.83h-4.83z"/><path d="M115.925 183.547h4.83v4.83h-4.83zM115.925 188.377h4.83v4.83h-4.83zM115.925 193.208h4.83v4.83h-4.83zM115.925 198.038h4.83v4.83h-4.83z"/><path d="M115.925 202.868h4.83v4.83h-4.83zM115.925 207.698h4.83v4.83h-4.83z"/><path d="M115.925 212.528h4.83v4.83h-4.83zM115.925 217.358h4.83v4.83h-4.83zM115.925 231.849h4.83v4.83h-4.83zM120.755 19.321h4.83v4.83h-4.83zM120.755 28.981h4.83v4.83h-4.83zM120.755 38.642h4.83v4.83h-4.83zM120.755 57.962h4.83v4.83h-4.83zM120.755 72.453h4.83v4.83h-4.83zM120.755 77.283h4.83v4.83h-4.83zM120.755 96.604h4.83v4.83h-4.83zM120.755 101.434h4.83v4.83h-4.83zM120.755 106.264h4.83v4.83h-4.83zM120.755 111.094h4.83v4.83h-4.83zM120.755 115.925h4.83v4.83h-4.83zM120.755 135.245h4.83v4.83h-4.83zM120.755 144.906h4.83v4.83h-4.83z"/><path d="M120.755 149.736h4.83v4.83h-4.83zM120.755 169.057h4.83v4.83h-4.83zM120.755 173.887h4.83v4.83h-4.83zM120.755 183.547h4.83v4.83h-4.83zM120.755 193.208h4.83v4.83h-4.83zM120.755 212.528h4.83v4.83h-4.83zM120.755 217.358h4.83v4.83h-4.83zM120.755 222.189h4.83v4.83h-4.83zM120.755 227.019h4.83v4.83h-4.83z"/><path d="M120.755 231.849h4.83v4.83h-4.83zM125.585 24.151h4.83v4.83h-4.83zM125.585 38.642h4.83v4.83h-4.83zM125.585 48.302h4.83v4.83h-4.83zM125.585 57.962h4.83v4.83h-4.83zM125.585 91.774h4.83v4.83h-4.83zM125.585 101.434h4.83v4.83h-4.83zM125.585 106.264h4.83v4.83h-4.83zM125.585 111.094h4.83v4.83h-4.83zM125.585 115.925h4.83v4.83h-4.83zM125.585 125.585h4.83v4.83h-4.83zM125.585 135.245h4.83v4.83h-4.83z"/><path d="M125.585 140.075h4.83v4.83h-4.83zM125.585 144.906h4.83v4.83h-4.83z"/><path d="M125.585 149.736h4.83v4.83h-4.83zM125.585 154.566h4.83v4.83h-4.83z"/><path d="M125.585 159.396h4.83v4.83h-4.83zM125.585 193.208h4.83v4.83h-4.83zM125.585 202.868h4.83v4.83h-4.83zM125.585 212.528h4.83v4.83h-4.83zM125.585 217.358h4.83v4.83h-4.83zM125.585 227.019h4.83v4.83h-4.83zM130.415 19.321h4.83v4.83h-4.83zM130.415 33.811h4.83v4.83h-4.83zM130.415 38.642h4.83v4.83h-4.83zM130.415 57.962h4.83v4.83h-4.83zM130.415 62.792h4.83v4.83h-4.83zM130.415 67.623h4.83v4.83h-4.83zM130.415 77.283h4.83v4.83h-4.83zM130.415 82.113h4.83v4.83h-4.83zM130.415 86.943h4.83v4.83h-4.83zM130.415 91.774h4.83v4.83h-4.83zM130.415 96.604h4.83v4.83h-4.83zM130.415 101.434h4.83v4.83h-4.83zM130.415 115.925h4.83v4.83h-4.83zM130.415 135.245h4.83v4.83h-4.83zM130.415 144.906h4.83v4.83h-4.83zM130.415 159.396h4.83v4.83h-4.83zM130.415 164.226h4.83v4.83h-4.83zM130.415 178.717h4.83v4.83h-4.83z"/><path d="M130.415 183.547h4.83v4.83h-4.83zM130.415 193.208h4.83v4.83h-4.83zM130.415 212.528h4.83v4.83h-4.83zM130.415 227.019h4.83v4.83h-4.83z"/><path d="M130.415 231.849h4.83v4.83h-4.83zM135.245 19.321h4.83v4.83h-4.83zM135.245 33.811h4.83v4.83h-4.83zM135.245 38.642h4.83v4.83h-4.83zM135.245 43.472h4.83v4.83h-4.83zM135.245 48.302h4.83v4.83h-4.83zM135.245 53.132h4.83v4.83h-4.83zM135.245 57.962h4.83v4.83h-4.83zM135.245 82.113h4.83v4.83h-4.83zM135.245 86.943h4.83v4.83h-4.83zM135.245 96.604h4.83v4.83h-4.83zM135.245 101.434h4.83v4.83h-4.83zM135.245 106.264h4.83v4.83h-4.83zM135.245 115.925h4.83v4.83h-4.83zM135.245 120.755h4.83v4.83h-4.83zM135.245 125.585h4.83v4.83h-4.83zM135.245 130.415h4.83v4.83h-4.83zM135.245 135.245h4.83v4.83h-4.83z"/><path d="M135.245 140.075h4.83v4.83h-4.83zM135.245 164.226h4.83v4.83h-4.83zM135.245 188.377h4.83v4.83h-4.83zM135.245 193.208h4.83v4.83h-4.83zM135.245 198.038h4.83v4.83h-4.83z"/><path d="M135.245 202.868h4.83v4.83h-4.83zM135.245 207.698h4.83v4.83h-4.83z"/><path d="M135.245 212.528h4.83v4.83h-4.83zM135.245 217.358h4.83v4.83h-4.83zM140.075 33.811h4.83v4.83h-4.83zM140.075 43.472h4.83v4.83h-4.83zM140.075 53.132h4.83v4.83h-4.83zM140.075 57.962h4.83v4.83h-4.83zM140.075 62.792h4.83v4.83h-4.83zM140.075 72.453h4.83v4.83h-4.83zM140.075 86.943h4.83v4.83h-4.83zM140.075 91.774h4.83v4.83h-4.83zM140.075 106.264h4.83v4.83h-4.83zM140.075 111.094h4.83v4.83h-4.83zM140.075 115.925h4.83v4.83h-4.83zM140.075 140.075h4.83v4.83h-4.83zM140.075 144.906h4.83v4.83h-4.83zM140.075 154.566h4.83v4.83h-4.83z"/><path d="M140.075 159.396h4.83v4.83h-4.83zM140.075 164.226h4.83v4.83h-4.83zM140.075 183.547h4.83v4.83h-4.83zM140.075 188.377h4.83v4.83h-4.83zM140.075 193.208h4.83v4.83h-4.83zM140.075 202.868h4.83v4.83h-4.83zM140.075 212.528h4.83v4.83h-4.83zM140.075 217.358h4.83v4.83h-4.83zM140.075 227.019h4.83v4.83h-4.83zM144.906 24.151h4.83v4.83h-4.83zM144.906 33.811h4.83v4.83h-4.83zM144.906 43.472h4.83v4.83h-4.83zM144.906 48.302h4.83v4.83h-4.83zM144.906 67.623h4.83v4.83h-4.83zM144.906 77.283h4.83v4.83h-4.83zM144.906 86.943h4.83v4.83h-4.83zM144.906 91.774h4.83v4.83h-4.83zM144.906 96.604h4.83v4.83h-4.83zM144.906 106.264h4.83v4.83h-4.83zM144.906 130.415h4.83v4.83h-4.83zM144.906 154.566h4.83v4.83h-4.83z"/><path d="M144.906 159.396h4.83v4.83h-4.83zM144.906 169.057h4.83v4.83h-4.83zM144.906 173.887h4.83v4.83h-4.83zM144.906 178.717h4.83v4.83h-4.83zM144.906 207.698h4.83v4.83h-4.83z"/><path d="M144.906 212.528h4.83v4.83h-4.83zM144.906 227.019h4.83v4.83h-4.83z"/><path d="M144.906 231.849h4.83v4.83h-4.83zM149.736 19.321h4.83v4.83h-4.83z"/><path d="M149.736 24.151h4.83v4.83h-4.83zM149.736 33.811h4.83v4.83h-4.83zM149.736 53.132h4.83v4.83h-4.83zM149.736 67.623h4.83v4.83h-4.83zM149.736 72.453h4.83v4.83h-4.83zM149.736 82.113h4.83v4.83h-4.83zM149.736 96.604h4.83v4.83h-4.83zM149.736 106.264h4.83v4.83h-4.83zM149.736 115.925h4.83v4.83h-4.83zM149.736 135.245h4.83v4.83h-4.83z"/><path d="M149.736 140.075h4.83v4.83h-4.83zM149.736 144.906h4.83v4.83h-4.83z"/><path d="M149.736 149.736h4.83v4.83h-4.83zM149.736 159.396h4.83v4.83h-4.83zM149.736 169.057h4.83v4.83h-4.83zM149.736 178.717h4.83v4.83h-4.83z"/><path d="M149.736 183.547h4.83v4.83h-4.83zM149.736 193.208h4.83v4.83h-4.83zM149.736 198.038h4.83v4.83h-4.83zM149.736 207.698h4.83v4.83h-4.83zM149.736 217.358h4.83v4.83h-4.83zM149.736 231.849h4.83v4.83h-4.83zM154.566 19.321h4.83v4.83h-4.83zM154.566 28.981h4.83v4.83h-4.83zM154.566 48.302h4.83v4.83h-4.83zM154.566 53.132h4.83v4.83h-4.83zM154.566 62.792h4.83v4.83h-4.83zM154.566 72.453h4.83v4.83h-4.83zM154.566 91.774h4.83v4.83h-4.83zM154.566 111.094h4.83v4.83h-4.83zM154.566 120.755h4.83v4.83h-4.83zM154.566 130.415h4.83v4.83h-4.83zM154.566 149.736h4.83v4.83h-4.83zM154.566 169.057h4.83v4.83h-4.83zM154.566 178.717h4.83v4.83h-4.83zM154.566 188.377h4.83v4.83h-4.83zM154.566 207.698h4.83v4.83h-4.83zM154.566 217.358h4.83v4.83h-4.83zM154.566 227.019h4.83v4.83h-4.83z"/><path d="M159.396 19.321h4.83v4.83h-4.83zM159.396 43.472h4.83v4.83h-4.83zM159.396 53.132h4.83v4.83h-4.83zM159.396 57.962h4.83v4.83h-4.83zM159.396 67.623h4.83v4.83h-4.83zM159.396 72.453h4.83v4.83h-4.83zM159.396 86.943h4.83v4.83h-4.83zM159.396 106.264h4.83v4.83h-4.83zM159.396 125.585h4.83v4.83h-4.83zM159.396 140.075h4.83v4.83h-4.83zM159.396 164.226h4.83v4.83h-4.83zM159.396 169.057h4.83v4.83h-4.83zM159.396 178.717h4.83v4.83h-4.83zM159.396 198.038h4.83v4.83h-4.83zM159.396 222.189h4.83v4.83h-4.83zM159.396 231.849h4.83v4.83h-4.83zM164.226 19.321h4.83v4.83h-4.83zM164.226 28.981h4.83v4.83h-4.83zM164.226 38.642h4.83v4.83h-4.83zM164.226 48.302h4.83v4.83h-4.83zM164.226 53.132h4.83v4.83h-4.83zM164.226 57.962h4.83v4.83h-4.83zM164.226 62.792h4.83v4.83h-4.83zM164.226 72.453h4.83v4.83h-4.83zM164.226 77.283h4.83v4.83h-4.83zM164.226 82.113h4.83v4.83h-4.83zM164.226 91.774h4.83v4.83h-4.83zM164.226 96.604h4.83v4.83h-4.83zM164.226 101.434h4.83v4.83h-4.83zM164.226 120.755h4.83v4.83h-4.83zM164.226 130.415h4.83v4.83h-4.83zM164.226 140.075h4.83v4.83h-4.83zM164.226 149.736h4.83v4.83h-4.83zM164.226 159.396h4.83v4.83h-4.83zM164.226 169.057h4.83v4.83h-4.83zM164.226 178.717h4.83v4.83h-4.83zM164.226 193.208h4.83v4.83h-4.83zM164.226 198.038h4.83v4.83h-4.83zM164.226 207.698h4.83v4.83h-4.83zM164.226 217.358h4.83v4.83h-4.83zM164.226 231.849h4.83v4.83h-4.83zM169.057 28.981h4.83v4.83h-4.83zM169.057 38.642h4.83v4.83h-4.83zM169.057 43.472h4.83v4.83h-4.83zM169.057 57.962h4.83v4.83h-4.83zM169.057 62.792h4.83v4.83h-4.83zM169.057 77.283h4.83v4.83h-4.83zM169.057 82.113h4.83v4.83h-4.83zM169.057 86.943h4.83v4.83h-4.83zM169.057 96.604h4.83v4.83h-4.83zM169.057 115.925h4.83v4.83h-4.83zM169.057 120.755h4.83v4.83h-4.83zM169.057 130.415h4.83v4.83h-4.83zM169.057 140.075h4.83v4.83h-4.83zM169.057 144.906h4.83v4.83h-4.83z"/><path d="M169.057 149.736h4.83v4.83h-4.83zM169.057 159.396h4.83v4.83h-4.83zM169.057 164.226h4.83v4.83h-4.83zM169.057 173.887h4.83v4.83h-4.83zM169.057 178.717h4.83v4.83h-4.83z"/><path d="M169.057 183.547h4.83v4.83h-4.83zM169.057 188.377h4.83v4.83h-4.83zM169.057 198.038h4.83v4.83h-4.83zM169.057 207.698h4.83v4.83h-4.83zM169.057 227.019h4.83v4.83h-4.83zM173.887 24.151h4.83v4.83h-4.83zM173.887 28.981h4.83v4.83h-4.83zM173.887 48.302h4.83v4.83h-4.83zM173.887 72.453h4.83v4.83h-4.83zM173.887 82.113h4.83v4.83h-4.83zM173.887 91.774h4.83v4.83h-4.83zM173.887 101.434h4.83v4.83h-4.83zM173.887 111.094h4.83v4.83h-4.83zM173.887 130.415h4.83v4.83h-4.83zM173.887 140.075h4.83v4.83h-4.83zM173.887 149.736h4.83v4.83h-4.83zM173.887 169.057h4.83v4.83h-4.83zM173.887 188.377h4.83v4.83h-4.83zM173.887 202.868h4.83v4.83h-4.83zM173.887 207.698h4.83v4.83h-4.83zM173.887 217.358h4.83v4.83h-4.83zM173.887 227.019h4.83v4.83h-4.83zM178.717 24.151h4.83v4.83h-4.83zM178.717 28.981h4.83v4.83h-4.83zM178.717 43.472h4.83v4.83h-4.83zM178.717 53.132h4.83v4.83h-4.83zM178.717 57.962h4.83v4.83h-4.83zM178.717 62.792h4.83v4.83h-4.83zM178.717 77.283h4.83v4.83h-4.83zM178.717 82.113h4.83v4.83h-4.83zM178.717 91.774h4.83v4.83h-4.83zM178.717 101.434h4.83v4.83h-4.83zM178.717 111.094h4.83v4.83h-4.83zM178.717 115.925h4.83v4.83h-4.83zM178.717 120.755h4.83v4.83h-4.83zM178.717 130.415h4.83v4.83h-4.83zM178.717 135.245h4.83v4.83h-4.83z"/><path d="M178.717 140.075h4.83v4.83h-4.83zM178.717 159.396h4.83v4.83h-4.83zM178.717 183.547h4.83v4.83h-4.83zM178.717 188.377h4.83v4.83h-4.83zM178.717 193.208h4.83v4.83h-4.83zM178.717 198.038h4.83v4.83h-4.83zM178.717 212.528h4.83v4.83h-4.83zM178.717 217.358h4.83v4.83h-4.83zM178.717 231.849h4.83v4.83h-4.83zM183.547 38.642h4.83v4.83h-4.83zM183.547 48.302h4.83v4.83h-4.83zM183.547 53.132h4.83v4.83h-4.83zM183.547 67.623h4.83v4.83h-4.83zM183.547 72.453h4.83v4.83h-4.83zM183.547 77.283h4.83v4.83h-4.83zM183.547 86.943h4.83v4.83h-4.83zM183.547 106.264h4.83v4.83h-4.83zM183.547 115.925h4.83v4.83h-4.83zM183.547 125.585h4.83v4.83h-4.83zM183.547 130.415h4.83v4.83h-4.83zM183.547 144.906h4.83v4.83h-4.83zM183.547 164.226h4.83v4.83h-4.83z"/><path d="M183.547 183.547h4.83v4.83h-4.83zM183.547 193.208h4.83v4.83h-4.83zM183.547 202.868h4.83v4.83h-4.83zM183.547 212.528h4.83v4.83h-4.83zM183.547 222.189h4.83v4.83h-4.83zM188.377 24.151h4.83v4.83h-4.83zM188.377 28.981h4.83v4.83h-4.83zM188.377 33.811h4.83v4.83h-4.83zM188.377 38.642h4.83v4.83h-4.83zM188.377 53.132h4.83v4.83h-4.83zM188.377 57.962h4.83v4.83h-4.83zM188.377 67.623h4.83v4.83h-4.83zM188.377 77.283h4.83v4.83h-4.83zM188.377 86.943h4.83v4.83h-4.83zM188.377 91.774h4.83v4.83h-4.83zM188.377 96.604h4.83v4.83h-4.83zM188.377 106.264h4.83v4.83h-4.83zM188.377 120.755h4.83v4.83h-4.83zM188.377 135.245h4.83v4.83h-4.83zM188.377 149.736h4.83v4.83h-4.83zM188.377 159.396h4.83v4.83h-4.83zM188.377 169.057h4.83v4.83h-4.83zM188.377 178.717h4.83v4.83h-4.83zM188.377 188.377h4.83v4.83h-4.83zM188.377 202.868h4.83v4.83h-4.83zM188.377 207.698h4.83v4.83h-4.83zM188.377 222.189h4.83v4.83h-4.83zM188.377 227.019h4.83v4.83h-4.83z"/><path d="M188.377 231.849h4.83v4.83h-4.83zM193.208 19.321h4.83v4.83h-4.83zM193.208 33.811h4.83v4.83h-4.83zM193.208 38.642h4.83v4.83h-4.83zM193.208 48.302h4.83v4.83h-4.83zM193.208 53.132h4.83v4.83h-4.83zM193.208 62.792h4.83v4.83h-4.83zM193.208 72.453h4.83v4.83h-4.83zM193.208 82.113h4.83v4.83h-4.83zM193.208 86.943h4.83v4.83h-4.83zM193.208 91.774h4.83v4.83h-4.83zM193.208 101.434h4.83v4.83h-4.83zM193.208 106.264h4.83v4.83h-4.83zM193.208 115.925h4.83v4.83h-4.83zM193.208 120.755h4.83v4.83h-4.83zM193.208 125.585h4.83v4.83h-4.83zM193.208 130.415h4.83v4.83h-4.83zM193.208 135.245h4.83v4.83h-4.83zM193.208 149.736h4.83v4.83h-4.83zM193.208 154.566h4.83v4.83h-4.83z"/><path d="M193.208 159.396h4.83v4.83h-4.83zM193.208 164.226h4.83v4.83h-4.83zM193.208 173.887h4.83v4.83h-4.83zM193.208 188.377h4.83v4.83h-4.83zM193.208 193.208h4.83v4.83h-4.83zM193.208 198.038h4.83v4.83h-4.83z"/><path d="M193.208 202.868h4.83v4.83h-4.83zM193.208 207.698h4.83v4.83h-4.83z"/><path d="M193.208 212.528h4.83v4.83h-4.83zM193.208 222.189h4.83v4.83h-4.83zM193.208 227.019h4.83v4.83h-4.83z"/><path d="M193.208 231.849h4.83v4.83h-4.83zM198.038 62.792h4.83v4.83h-4.83zM198.038 72.453h4.83v4.83h-4.83zM198.038 86.943h4.83v4.83h-4.83zM198.038 96.604h4.83v4.83h-4.83zM198.038 101.434h4.83v4.83h-4.83zM198.038 115.925h4.83v4.83h-4.83zM198.038 135.245h4.83v4.83h-4.83zM198.038 149.736h4.83v4.83h-4.83zM198.038 169.057h4.83v4.83h-4.83zM198.038 173.887h4.83v4.83h-4.83zM198.038 188.377h4.83v4.83h-4.83zM198.038 193.208h4.83v4.83h-4.83zM198.038 212.528h4.83v4.83h-4.83zM198.038 217.358h4.83v4.83h-4.83zM198.038 231.849h4.83v4.83h-4.83zM202.868 19.321h4.83v4.83h-4.83z"/><path d="M202.868 24.151h4.83v4.83h-4.83zM202.868 28.981h4.83v4.83h-4.83zM202.868 33.811h4.83v4.83h-4.83zM202.868 38.642h4.83v4.83h-4.83zM202.868 43.472h4.83v4.83h-4.83zM202.868 48.302h4.83v4.83h-4.83zM202.868 67.623h4.83v4.83h-4.83zM202.868 86.943h4.83v4.83h-4.83zM202.868 96.604h4.83v4.83h-4.83zM202.868 106.264h4.83v4.83h-4.83zM202.868 115.925h4.83v4.83h-4.83zM202.868 125.585h4.83v4.83h-4.83zM202.868 135.245h4.83v4.83h-4.83z"/><path d="M202.868 140.075h4.83v4.83h-4.83zM202.868 149.736h4.83v4.83h-4.83zM202.868 159.396h4.83v4.83h-4.83zM202.868 169.057h4.83v4.83h-4.83zM202.868 188.377h4.83v4.83h-4.83zM202.868 193.208h4.83v4.83h-4.83zM202.868 202.868h4.83v4.83h-4.83zM202.868 212.528h4.83v4.83h-4.83zM202.868 231.849h4.83v4.83h-4.83zM207.698 19.321h4.83v4.83h-4.83zM207.698 48.302h4.83v4.83h-4.83zM207.698 57.962h4.83v4.83h-4.83zM207.698 62.792h4.83v4.83h-4.83zM207.698 67.623h4.83v4.83h-4.83zM207.698 77.283h4.83v4.83h-4.83zM207.698 82.113h4.83v4.83h-4.83zM207.698 86.943h4.83v4.83h-4.83zM207.698 96.604h4.83v4.83h-4.83zM207.698 101.434h4.83v4.83h-4.83zM207.698 106.264h4.83v4.83h-4.83zM207.698 115.925h4.83v4.83h-4.83zM207.698 135.245h4.83v4.83h-4.83z"/><path d="M207.698 140.075h4.83v4.83h-4.83zM207.698 144.906h4.83v4.83h-4.83zM207.698 154.566h4.83v4.83h-4.83zM207.698 173.887h4.83v4.83h-4.83zM207.698 188.377h4.83v4.83h-4.83zM207.698 193.208h4.83v4.83h-4.83zM207.698 212.528h4.83v4.83h-4.83zM207.698 222.189h4.83v4.83h-4.83zM207.698 227.019h4.83v4.83h-4.83z"/><path d="M207.698 231.849h4.83v4.83h-4.83zM212.528 19.321h4.83v4.83h-4.83zM212.528 28.981h4.83v4.83h-4.83zM212.528 33.811h4.83v4.83h-4.83zM212.528 38.642h4.83v4.83h-4.83zM212.528 48.302h4.83v4.83h-4.83zM212.528 57.962h4.83v4.83h-4.83zM212.528 72.453h4.83v4.83h-4.83zM212.528 82.113h4.83v4.83h-4.83zM212.528 91.774h4.83v4.83h-4.83zM212.528 101.434h4.83v4.83h-4.83zM212.528 111.094h4.83v4.83h-4.83zM212.528 115.925h4.83v4.83h-4.83zM212.528 120.755h4.83v4.83h-4.83zM212.528 125.585h4.83v4.83h-4.83zM212.528 130.415h4.83v4.83h-4.83zM212.528 135.245h4.83v4.83h-4.83zM212.528 154.566h4.83v4.83h-4.83zM212.528 173.887h4.83v4.83h-4.83zM212.528 188.377h4.83v4.83h-4.83zM212.528 193.208h4.83v4.83h-4.83zM212.528 198.038h4.83v4.83h-4.83z"/><path d="M212.528 202.868h4.83v4.83h-4.83zM212.528 207.698h4.83v4.83h-4.83z"/><path d="M212.528 212.528h4.83v4.83h-4.83zM212.528 217.358h4.83v4.83h-4.83zM212.528 227.019h4.83v4.83h-4.83zM217.358 19.321h4.83v4.83h-4.83zM217.358 28.981h4.83v4.83h-4.83zM217.358 33.811h4.83v4.83h-4.83zM217.358 38.642h4.83v4.83h-4.83zM217.358 48.302h4.83v4.83h-4.83zM217.358 62.792h4.83v4.83h-4.83zM217.358 77.283h4.83v4.83h-4.83zM217.358 82.113h4.83v4.83h-4.83zM217.358 96.604h4.83v4.83h-4.83zM217.358 106.264h4.83v4.83h-4.83zM217.358 135.245h4.83v4.83h-4.83z"/><path d="M217.358 140.075h4.83v4.83h-4.83zM217.358 144.906h4.83v4.83h-4.83zM217.358 154.566h4.83v4.83h-4.83z"/><path d="M217.358 159.396h4.83v4.83h-4.83zM217.358 164.226h4.83v4.83h-4.83zM217.358 169.057h4.83v4.83h-4.83zM217.358 193.208h4.83v4.83h-4.83zM217.358 198.038h4.83v4.83h-4.83zM217.358 212.528h4.83v4.83h-4.83zM217.358 217.358h4.83v4.83h-4.83zM217.358 231.849h4.83v4.83h-4.83zM222.189 19.321h4.83v4.83h-4.83zM222.189 28.981h4.83v4.83h-4.83zM222.189 33.811h4.83v4.83h-4.83zM222.189 38.642h4.83v4.83h-4.83zM222.189 48.302h4.83v4.83h-4.83zM222.189 62.792h4.83v4.83h-4.83zM222.189 67.623h4.83v4.83h-4.83zM222.189 72.453h4.83v4.83h-4.83zM222.189 82.113h4.83v4.83h-4.83zM222.189 91.774h4.83v4.83h-4.83zM222.189 101.434h4.83v4.83h-4.83zM222.189 106.264h4.83v4.83h-4.83zM222.189 111.094h4.83v4.83h-4.83zM222.189 120.755h4.83v4.83h-4.83zM222.189 125.585h4.83v4.83h-4.83zM222.189 130.415h4.83v4.83h-4.83zM222.189 140.075h4.83v4.83h-4.83zM222.189 144.906h4.83v4.83h-4.83z"/><path d="M222.189 149.736h4.83v4.83h-4.83zM222.189 159.396h4.83v4.83h-4.83zM222.189 164.226h4.83v4.83h-4.83zM222.189 169.057h4.83v4.83h-4.83zM222.189 178.717h4.83v4.83h-4.83zM222.189 188.377h4.83v4.83h-4.83zM222.189 198.038h4.83v4.83h-4.83zM222.189 207.698h4.83v4.83h-4.83zM222.189 227.019h4.83v4.83h-4.83zM227.019 19.321h4.83v4.83h-4.83zM227.019 48.302h4.83v4.83h-4.83zM227.019 67.623h4.83v4.83h-4.83zM227.019 86.943h4.83v4.83h-4.83zM227.019 91.774h4.83v4.83h-4.83zM227.019 96.604h4.83v4.83h-4.83zM227.019 101.434h4.83v4.83h-4.83zM227.019 115.925h4.83v4.83h-4.83zM227.019 120.755h4.83v4.83h-4.83zM227.019 135.245h4.83v4.83h-4.83z"/><path d="M227.019 140.075h4.83v4.83h-4.83zM227.019 149.736h4.83v4.83h-4.83zM227.019 154.566h4.83v4.83h-4.83zM227.019 164.226h4.83v4.83h-4.83zM227.019 173.887h4.83v4.83h-4.83zM227.019 178.717h4.83v4.83h-4.83zM227.019 188.377h4.83v4.83h-4.83zM227.019 193.208h4.83v4.83h-4.83zM227.019 202.868h4.83v4.83h-4.83zM227.019 207.698h4.83v4.83h-4.83z"/><path d="M227.019 212.528h4.83v4.83h-4.83zM227.019 217.358h4.83v4.83h-4.83zM227.019 222.189h4.83v4.83h-4.83zM227.019 231.849h4.83v4.83h-4.83zM231.849 19.321h4.83v4.83h-4.83z"/><path d="M231.849 24.151h4.83v4.83h-4.83zM231.849 28.981h4.83v4.83h-4.83zM231.849 33.811h4.83v4.83h-4.83zM231.849 38.642h4.83v4.83h-4.83zM231.849 43.472h4.83v4.83h-4.83zM231.849 48.302h4.83v4.83h-4.83zM231.849 57.962h4.83v4.83h-4.83zM231.849 62.792h4.83v4.83h-4.83zM231.849 77.283h4.83v4.83h-4.83zM231.849 82.113h4.83v4.83h-4.83zM231.849 101.434h4.83v4.83h-4.83zM231.849 111.094h4.83v4.83h-4.83zM231.849 120.755h4.83v4.83h-4.83zM231.849 130.415h4.83v4.83h-4.83zM231.849 140.075h4.83v4.83h-4.83zM231.849 159.396h4.83v4.83h-4.83zM231.849 178.717h4.83v4.83h-4.83zM231.849 198.038h4.83v4.83h-4.83zM231.849 207.698h4.83v4.83h-4.83z"/></svg>