<svg shape-rendering="crispEdges" viewBox="0 0 256 256" xmlns="http://www.w3.org/2000/svg"><path d="m0 0h256v256h-256z" fill="#f5f5f7"/><path d="m15.754 15.754h3.938v3.938h-3.938zm0 3.938h3.938v3.938h-3.938zm0 3.939h3.938v3.938h-3.938zm0 3.938h3.938v3.938h-3.938zm0 3.939h3.938v3.938h-3.938zm0 3.938h3.938v3.938h-3.938zm0 3.939h3.938v3.938h-3.938zm0 15.753h3.938v3.938h-3.938zm0 7.877h3.938v3.938h-3.938zm0 7.877h3.938v3.938h-3.938zm0 7.877h3.938v3.938h-3.938zm0 7.877h3.938v3.938h-3.938zm0 7.877h3.938v3.938h-3.938zm0 15.754h3.938v3.938h-3.938zm0 7.877h3.938v3.938h-3.938zm0 3.938h3.938v3.938h-3.938zm0 3.939h3.938v3.938h-3.938zm0 7.877h3.938v3.938h-3.938zm0 3.938h3.938v3.938h-3.938zm0 3.939h3.938v3.938h-3.938zm0 3.938h3.938v3.938h-3.938zm0 3.939h3.938v3.938h-3.938zm0 11.815h3.938v3.938h-3.938zm0 3.938h3.938v3.938h-3.938zm0 19.693h3.938v3.938h-3.938zm0 3.938h3.938v3.938h-3.938zm0 7.877h3.938v3.938h-3.938zm0 3.939h3.938v3.938h-3.938zm0 11.815h3.938v3.938h-3.938zm0 3.938h3.938v3.938h-3.938zm0 3.939h3.938v3.938h-3.938zm0 3.938h3.938v3.938h-3.938zm0 3.939h3.938v3.938h-3.938zm0 3.938h3.938v3.938h-3.938zm0 3.939h3.938v3.938h-3.938zm3.938-220.554h3.938v3.938h-3.938zm0 23.631h3.938v3.938h-3.938zm0 7.877h3.938v3.938h-3.938zm0 11.815h3.938v3.938h-3.938zm0 23.631h3.938v3.938h-3.938zm0 11.815h3.938v3.938h-3.938zm0 3.939h3.938v3.938h-3.938zm0 7.876h3.938v3.938h-3.938zm0 3.939h3.938v3.938h-3.938zm0 3.938h3.938v3.938h-3.938zm0 3.939h3.938v3.938h-3.938zm0 15.754h3.938v3.938h-3.938zm0 3.938h3.938v3.938h-3.938zm0 11.816h3.938v3.938h-3.938zm0 7.876h3.938v3.938h-3.938zm0 11.816h3.938v3.938h-3.938zm0 7.877h3.938v3.938h-3.938zm0 7.877h3.938v3.938h-3.938zm0 3.938h3.938v3.938h-3.938zm0 11.816h3.938v3.938h-3.938zm0 11.815h3.938v3.938h-3.938zm0 23.631h3.938v3.938h-3.938zm3.939-220.554h3.938v3.938h-3.938zm0 7.877h3.938v3.938h-3.938zm0 3.938h3.938v3.938h-3.938zm0 3.939h3.938v3.938h-3.938zm0 7.877h3.938v3.938h-3.938zm0 15.753h3.938v3.938h-3.938zm0 7.877h3.938v3.938h-3.938zm0 15.754h3.938v3.938h-3.938zm0 3.939h3.938v3.938h-3.938zm0 7.877h3.938v3.938h-3.938zm0 3.938h3.938v3.938h-3.938zm0 15.754h3.938v3.938h-3.938zm0 7.877h3.938v3.938h-3.938zm0 3.938h3.938v3.938h-3.938zm0 3.939h3.938v3.938h-3.938zm0 7.877h3.938v3.938h-3.938zm0 3.938h3.938v3.938h-3.938zm0 7.877h3.938v3.938h-3.938zm0 11.815h3.938v3.938h-3.938zm0 3.939h3.938v3.938h-3.938zm0 3.938h3.938v3.938h-3.938zm0 15.754h3.938v3.938h-3.938zm0 3.939h3.938v3.938h-3.938zm0 7.877h3.938v3.938h-3.938zm0 3.938h3.938v3.938h-3.938zm0 3.939h3.938v3.938h-3.938zm0 11.815h3.938v3.938h-3.938zm0 7.877h3.938v3.938h-3.938zm0 3.938h3.938v3.938h-3.938zm0 3.939h3.938v3.938h-3.938zm0 7.877h3.938v3.938h-3.938zm3.938-220.554h3.938v3.938h-3.938zm0 7.877h3.938v3.938h-3.938zm0 3.938h3.938v3.938h-3.938zm0 3.939h3.938v3.938h-3.938zm0 7.877h3.938v3.938h-3.938zm0 7.877h3.938v3.938h-3.938zm0 3.938h3.938v3.938h-3.938z"/><path d="m27.569 55.138h3.938v3.938h-3.938zm0 3.939h3.938v3.938h-3.938zm0 15.754h3.938v3.938h-3.938zm0 3.938h3.938v3.938h-3.938zm0 3.939h3.938v3.938h-3.938zm0 11.815h3.938v3.938h-3.938zm0 3.939h3.938v3.938h-3.938zm0 3.938h3.938v3.938h-3.938z"/><path d="m27.569 106.338h3.938v3.938h-3.938zm0 7.877h3.938v3.938h-3.938zm0 3.939h3.938v3.938h-3.938zm0 7.877h3.938v3.938h-3.938zm0 3.938h3.938v3.938h-3.938zm0 7.877h3.938v3.938h-3.938zm0 7.877h3.938v3.938h-3.938zm0 3.939h3.938v3.938h-3.938zm0 3.938h3.938v3.938h-3.938zm0 3.938h3.938v3.938h-3.938zm0 3.939h3.938v3.938h-3.938zm0 7.877h3.938v3.938h-3.938zm0 3.938h3.938v3.938h-3.938zm0 3.939h3.938v3.938h-3.938zm0 3.938h3.938v3.938h-3.938zm0 19.693h3.938v3.938h-3.938zm0 11.815h3.938v3.938h-3.938zm0 7.877h3.938v3.938h-3.938zm0 3.938h3.938v3.938h-3.938zm0 3.939h3.938v3.938h-3.938zm0 7.877h3.938v3.938h-3.938zm3.939-220.554h3.938v3.938h-3.938zm0 7.877h3.938v3.938h-3.938zm0 3.938h3.938v3.938h-3.938zm0 3.939h3.938v3.938h-3.938zm0 7.877h3.938v3.938h-3.938zm0 7.877h3.938v3.938h-3.938zm0 7.876h3.938v3.938h-3.938zm0 3.939h3.938v3.938h-3.938zm0 3.938h3.938v3.938h-3.938zm0 3.939h3.938v3.938h-3.938zm0 3.938h3.938v3.938h-3.938zm0 7.877h3.938v3.938h-3.938zm0 3.939h3.938v3.938h-3.938zm0 7.877h3.938v3.938h-3.938zm0 3.938h3.938v3.938h-3.938zm0 7.877h3.938v3.938h-3.938z"/><path d="m31.508 106.338h3.938v3.938h-3.938zm0 7.877h3.938v3.938h-3.938zm0 3.939h3.938v3.938h-3.938zm0 3.938h3.938v3.938h-3.938zm0 3.939h3.938v3.938h-3.938zm0 3.938h3.938v3.938h-3.938zm0 3.939h3.938v3.938h-3.938zm0 3.938h3.938v3.938h-3.938zm0 19.692h3.938v3.938h-3.938zm0 3.939h3.938v3.938h-3.938zm0 3.938h3.938v3.938h-3.938zm0 3.939h3.938v3.938h-3.938zm0 3.938h3.938v3.938h-3.938zm0 7.877h3.938v3.938h-3.938zm0 3.939h3.938v3.938h-3.938zm0 3.938h3.938v3.938h-3.938zm0 11.816h3.938v3.938h-3.938zm0 11.815h3.938v3.938h-3.938zm0 7.877h3.938v3.938h-3.938zm0 3.938h3.938v3.938h-3.938zm0 3.939h3.938v3.938h-3.938zm0 7.877h3.938v3.938h-3.938zm3.938-220.554h3.938v3.938h-3.938zm0 23.631h3.938v3.938h-3.938zm0 7.877h3.938v3.938h-3.938zm0 15.753h3.938v3.938h-3.938zm0 3.939h3.938v3.938h-3.938zm0 11.815h3.938v3.938h-3.938zm0 11.816h3.938v3.938h-3.938zm0 3.938h3.938v3.938h-3.938zm0 3.939h3.938v3.938h-3.938zm0 3.938h3.938v3.938h-3.938zm0 7.877h3.938v3.938h-3.938zm0 7.877h3.938v3.938h-3.938zm0 15.754h3.938v3.938h-3.938zm0 3.938h3.938v3.938h-3.938zm0 11.816h3.938v3.938h-3.938zm0 7.876h3.938v3.938h-3.938zm0 3.939h3.938v3.938h-3.938zm0 3.938h3.938v3.938h-3.938zm0 27.57h3.938v3.938h-3.938zm0 3.938h3.938v3.938h-3.938zm0 15.754h3.938v3.938h-3.938zm0 23.631h3.938v3.938h-3.938zm3.939-220.554h3.938v3.938h-3.938zm0 3.938h3.938v3.938h-3.938zm0 3.939h3.938v3.938h-3.938zm0 3.938h3.938v3.938h-3.938zm0 3.939h3.938v3.938h-3.938zm0 3.938h3.938v3.938h-3.938zm0 3.939h3.938v3.938h-3.938zm0 7.877h3.938v3.938h-3.938zm0 7.876h3.938v3.938h-3.938zm0 7.877h3.938v3.938h-3.938zm0 7.877h3.938v3.938h-3.938zm0 7.877h3.938v3.938h-3.938zm0 7.877h3.938v3.938h-3.938zm0 7.877h3.938v3.938h-3.938zm0 7.877h3.938v3.938h-3.938zm0 7.877h3.938v3.938h-3.938zm0 7.877h3.938v3.938h-3.938zm0 7.877h3.938v3.938h-3.938zm0 7.877h3.938v3.938h-3.938zm0 7.877h3.938v3.938h-3.938zm0 7.877h3.938v3.938h-3.938zm0 7.876h3.938v3.938h-3.938zm0 7.877h3.938v3.938h-3.938zm0 7.877h3.938v3.938h-3.938zm0 7.877h3.938v3.938h-3.938zm0 7.877h3.938v3.938h-3.938zm0 7.877h3.938v3.938h-3.938zm0 7.877h3.938v3.938h-3.938zm0 7.877h3.938v3.938h-3.938zm0 3.938h3.938v3.938h-3.938zm0 3.939h3.938v3.938h-3.938zm0 3.938h3.938v3.938h-3.938zm0 3.939h3.938v3.938h-3.938zm0 3.938h3.938v3.938h-3.938zm0 3.939h3.938v3.938h-3.938zm3.938-177.231h3.938v3.938h-3.938zm0 3.938h3.938v3.938h-3.938zm0 3.939h3.938v3.938h-3.938zm0 3.938h3.938v3.938h-3.938zm0 3.939h3.938v3.938h-3.938zm0 15.754h3.938v3.938h-3.938zm0 3.938h3.938v3.938h-3.938zm0 3.939h3.938v3.938h-3.938zm0 7.876h3.938v3.938h-3.938zm0 11.816h3.938v3.938h-3.938zm0 15.754h3.938v3.938h-3.938zm0 3.938h3.938v3.938h-3.938zm0 7.877h3.938v3.938h-3.938zm0 3.939h3.938v3.938h-3.938zm0 7.876h3.938v3.938h-3.938zm0 3.939h3.938v3.938h-3.938zm0 15.754h3.938v3.938h-3.938zm0 3.938h3.938v3.938h-3.938zm0 3.939h3.938v3.938h-3.938zm0 15.754h3.938v3.938h-3.938zm0 3.938h3.938v3.938h-3.938zm3.939-185.108h3.938v3.938h-3.938zm0 7.877h3.938v3.938h-3.938zm0 3.939h3.938v3.938h-3.938zm0 7.877h3.938v3.938h-3.938zm0 3.938h3.938v3.938h-3.938zm0 3.939h3.938v3.938h-3.938zm0 3.938h3.938v3.938h-3.938zm0 7.877h3.938v3.938h-3.938zm0 3.938h3.938v3.938h-3.938zm0 3.939h3.938v3.938h-3.938zm0 3.938h3.938v3.938h-3.938zm0 3.939h3.938v3.938h-3.938zm0 7.877h3.938v3.938h-3.938zm0 7.877h3.938v3.938h-3.938zm0 7.877h3.938v3.938h-3.938zm0 7.876h3.938v3.938h-3.938zm0 3.939h3.938v3.938h-3.938zm0 3.938h3.938v3.938h-3.938zm0 3.939h3.938v3.938h-3.938zm0 3.938h3.938v3.938h-3.938zm0 3.939h3.938v3.938h-3.938zm0 3.938h3.938v3.938h-3.938zm0 3.939h3.938v3.938h-3.938zm0 11.815h3.938v3.938h-3.938zm0 19.692h3.938v3.938h-3.938zm0 15.754h3.938v3.938h-3.938zm0 15.754h3.938v3.938h-3.938zm0 3.939h3.938v3.938h-3.938zm0 7.876h3.938v3.938h-3.938zm0 7.877h3.938v3.938h-3.938zm0 3.939h3.938v3.938h-3.938zm0 3.938h3.938v3.938h-3.938zm0 7.877h3.938v3.938h-3.938zm3.938-216.615h3.938v3.938h-3.938zm0 3.938h3.938v3.938h-3.938zm0 3.939h3.938v3.938h-3.938zm0 3.938h3.938v3.938h-3.938zm0 7.877h3.938v3.938h-3.938zm0 15.754h3.938v3.938h-3.938z"/><path d="m51.2 55.138h3.938v3.938h-3.938zm0 7.877h3.938v3.938h-3.938zm0 7.877h3.938v3.938h-3.938zm0 7.877h3.938v3.938h-3.938zm0 11.816h3.938v3.938h-3.938zm0 7.877h3.938v3.938h-3.938zm0 7.876h3.938v3.938h-3.938zm0 3.939h3.938v3.938h-3.938zm0 3.938h3.938v3.938h-3.938zm0 3.939h3.938v3.938h-3.938zm0 3.938h3.938v3.938h-3.938zm0 3.939h3.938v3.938h-3.938zm0 3.938h3.938v3.938h-3.938zm0 11.816h3.938v3.938h-3.938zm0 7.877h3.938v3.938h-3.938zm0 27.569h3.938v3.938h-3.938zm0 11.815h3.938v3.938h-3.938zm0 19.692h3.938v3.938h-3.938zm0 3.939h3.938v3.938h-3.938zm0 3.938h3.938v3.938h-3.938zm0 3.939h3.938v3.938h-3.938zm0 7.877h3.938v3.938h-3.938zm0 3.938h3.938v3.938h-3.938zm0 3.939h3.938v3.938h-3.938zm3.938-216.616h3.938v3.938h-3.938zm0 3.939h3.938v3.938h-3.938zm0 15.754h3.938v3.938h-3.938zm0 3.938h3.938v3.938h-3.938zm0 3.939h3.938v3.938h-3.938z"/><path d="m55.138 55.138h3.938v3.938h-3.938zm0 3.939h3.938v3.938h-3.938zm0 19.692h3.938v3.938h-3.938zm0 7.877h3.938v3.938h-3.938zm0 11.816h3.938v3.938h-3.938zm0 7.876h3.938v3.938h-3.938zm0 3.939h3.938v3.938h-3.938zm0 3.938h3.938v3.938h-3.938zm0 3.939h3.938v3.938h-3.938zm0 3.938h3.938v3.938h-3.938zm0 11.816h3.938v3.938h-3.938zm0 7.877h3.938v3.938h-3.938zm0 3.938h3.938v3.938h-3.938zm0 15.754h3.938v3.938h-3.938zm0 3.938h3.938v3.938h-3.938zm0 3.939h3.938v3.938h-3.938zm0 11.815h3.938v3.938h-3.938zm0 3.939h3.938v3.938h-3.938zm0 3.938h3.938v3.938h-3.938zm0 11.816h3.938v3.938h-3.938zm0 3.938h3.938v3.938h-3.938zm0 3.938h3.938v3.938h-3.938zm0 3.939h3.938v3.938h-3.938zm0 3.938h3.938v3.938h-3.938zm0 3.939h3.938v3.938h-3.938zm0 11.815h3.938v3.938h-3.938zm3.939-216.615h3.938v3.938h-3.938zm0 7.877h3.938v3.938h-3.938zm0 7.877h3.938v3.938h-3.938zm0 3.938h3.938v3.938h-3.938zm0 27.569h3.938v3.938h-3.938zm0 3.939h3.938v3.938h-3.938zm0 7.877h3.938v3.938h-3.938zm0 19.692h3.938v3.938h-3.938zm0 11.815h3.938v3.938h-3.938zm0 11.816h3.938v3.938h-3.938zm0 3.938h3.938v3.938h-3.938zm0 3.939h3.938v3.938h-3.938zm0 19.692h3.938v3.938h-3.938zm0 7.877h3.938v3.938h-3.938zm0 3.938h3.938v3.938h-3.938zm0 11.816h3.938v3.938h-3.938zm0 7.877h3.938v3.938h-3.938zm0 11.815h3.938v3.938h-3.938zm0 3.939h3.938v3.938h-3.938zm0 11.815h3.938v3.938h-3.938zm0 27.569h3.938v3.938h-3.938zm0 3.939h3.938v3.938h-3.938zm3.938-220.554h3.938v3.938h-3.938zm0 3.938h3.938v3.938h-3.938zm0 3.939h3.938v3.938h-3.938zm0 3.938h3.938v3.938h-3.938zm0 3.939h3.938v3.938h-3.938zm0 3.938h3.938v3.938h-3.938zm0 3.939h3.938v3.938h-3.938zm0 7.877h3.938v3.938h-3.938zm0 3.938h3.938v3.938h-3.938z"/><path d="m63.015 55.138h3.938v3.938h-3.938zm0 7.877h3.938v3.938h-3.938zm0 3.939h3.938v3.938h-3.938zm0 3.938h3.938v3.938h-3.938zm0 3.939h3.938v3.938h-3.938zm0 3.938h3.938v3.938h-3.938zm0 7.877h3.938v3.938h-3.938zm0 43.323h3.938v3.938h-3.938zm0 7.877h3.938v3.938h-3.938zm0 11.816h3.938v3.938h-3.938zm0 23.63h3.938v3.938h-3.938zm0 3.939h3.938v3.938h-3.938zm0 7.877h3.938v3.938h-3.938zm0 11.815h3.938v3.938h-3.938zm0 3.939h3.938v3.938h-3.938zm0 11.815h3.938v3.938h-3.938zm0 3.938h3.938v3.938h-3.938zm0 7.877h3.938v3.938h-3.938zm0 7.877h3.938v3.938h-3.938zm0 3.939h3.938v3.938h-3.938zm3.939-216.616h3.938v3.938h-3.938zm0 3.939h3.938v3.938h-3.938zm0 27.569h3.938v3.938h-3.938z"/><path d="m66.954 55.138h3.938v3.938h-3.938zm0 7.877h3.938v3.938h-3.938zm0 7.877h3.938v3.938h-3.938zm0 7.877h3.938v3.938h-3.938zm0 3.939h3.938v3.938h-3.938zm0 7.877h3.938v3.938h-3.938zm0 23.63h3.938v3.938h-3.938zm0 3.939h3.938v3.938h-3.938zm0 11.815h3.938v3.938h-3.938zm0 15.754h3.938v3.938h-3.938zm0 7.877h3.938v3.938h-3.938zm0 3.938h3.938v3.938h-3.938zm0 3.939h3.938v3.938h-3.938zm0 3.938h3.938v3.938h-3.938zm0 15.754h3.938v3.938h-3.938zm0 7.877h3.938v3.938h-3.938zm0 3.939h3.938v3.938h-3.938zm0 3.938h3.938v3.938h-3.938zm0 11.815h3.938v3.938h-3.938zm0 3.939h3.938v3.938h-3.938zm0 3.938h3.938v3.938h-3.938zm0 3.939h3.938v3.938h-3.938zm0 7.877h3.938v3.938h-3.938zm0 3.938h3.938v3.938h-3.938zm3.938-216.615h3.938v3.938h-3.938zm0 7.877h3.938v3.938h-3.938zm0 3.938h3.938v3.938h-3.938zm0 7.877h3.938v3.938h-3.938zm0 3.939h3.938v3.938h-3.938zm0 3.938h3.938v3.938h-3.938zm0 11.815h3.938v3.938h-3.938zm0 3.939h3.938v3.938h-3.938zm0 7.877h3.938v3.938h-3.938zm0 3.938h3.938v3.938h-3.938zm0 15.754h3.938v3.938h-3.938zm0 3.939h3.938v3.938h-3.938zm0 3.938h3.938v3.938h-3.938zm0 3.939h3.938v3.938h-3.938zm0 3.938h3.938v3.938h-3.938z"/><path d="m70.892 106.338h3.938v3.938h-3.938zm0 15.754h3.938v3.938h-3.938zm0 3.939h3.938v3.938h-3.938zm0 3.938h3.938v3.938h-3.938zm0 7.877h3.938v3.938h-3.938zm0 3.939h3.938v3.938h-3.938zm0 3.938h3.938v3.938h-3.938zm0 11.815h3.938v3.938h-3.938zm0 3.939h3.938v3.938h-3.938zm0 11.815h3.938v3.938h-3.938zm0 7.877h3.938v3.938h-3.938zm0 3.939h3.938v3.938h-3.938zm0 11.815h3.938v3.938h-3.938zm0 3.939h3.938v3.938h-3.938zm0 3.938h3.938v3.938h-3.938zm0 27.569h3.938v3.938h-3.938zm0 3.939h3.938v3.938h-3.938zm3.939-220.554h3.938v3.938h-3.938zm0 11.815h3.938v3.938h-3.938zm0 3.939h3.938v3.938h-3.938zm0 11.815h3.938v3.938h-3.938zm0 15.754h3.938v3.938h-3.938zm0 3.938h3.938v3.938h-3.938zm0 3.939h3.938v3.938h-3.938zm0 11.815h3.938v3.938h-3.938zm0 11.816h3.938v3.938h-3.938zm0 11.815h3.938v3.938h-3.938z"/><path d="m74.831 106.338h3.938v3.938h-3.938zm0 11.816h3.938v3.938h-3.938zm0 7.877h3.938v3.938h-3.938zm0 7.877h3.938v3.938h-3.938zm0 7.877h3.938v3.938h-3.938zm0 3.938h3.938v3.938h-3.938zm0 7.877h3.938v3.938h-3.938zm0 7.877h3.938v3.938h-3.938zm0 3.938h3.938v3.938h-3.938zm0 7.877h3.938v3.938h-3.938zm0 15.754h3.938v3.938h-3.938zm0 7.877h3.938v3.938h-3.938zm0 15.754h3.938v3.938h-3.938zm0 11.815h3.938v3.938h-3.938zm3.938-204.8h3.938v3.938h-3.938zm0 15.754h3.938v3.938h-3.938zm0 3.939h3.938v3.938h-3.938zm0 3.938h3.938v3.938h-3.938zm0 7.877h3.938v3.938h-3.938z"/><path d="m78.769 55.138h3.938v3.938h-3.938zm0 7.877h3.938v3.938h-3.938zm0 11.816h3.938v3.938h-3.938zm0 3.938h3.938v3.938h-3.938zm0 3.939h3.938v3.938h-3.938zm0 3.938h3.938v3.938h-3.938zm0 11.816h3.938v3.938h-3.938zm0 7.876h3.938v3.938h-3.938zm0 15.754h3.938v3.938h-3.938zm0 7.877h3.938v3.938h-3.938zm0 3.939h3.938v3.938h-3.938zm0 3.938h3.938v3.938h-3.938zm0 11.816h3.938v3.938h-3.938zm0 23.63h3.938v3.938h-3.938zm0 11.816h3.938v3.938h-3.938zm0 15.754h3.938v3.938h-3.938zm0 3.938h3.938v3.938h-3.938zm0 7.877h3.938v3.938h-3.938zm0 11.815h3.938v3.938h-3.938zm0 11.816h3.938v3.938h-3.938zm3.939-216.616h3.938v3.938h-3.938zm0 3.939h3.938v3.938h-3.938zm0 23.631h3.938v3.938h-3.938zm0 3.938h3.938v3.938h-3.938z"/><path d="m82.708 55.138h3.938v3.938h-3.938zm0 3.939h3.938v3.938h-3.938zm0 7.877h3.938v3.938h-3.938zm0 11.815h3.938v3.938h-3.938zm0 3.939h3.938v3.938h-3.938zm0 7.877h3.938v3.938h-3.938zm0 7.877h3.938v3.938h-3.938zm0 15.753h3.938v3.938h-3.938zm0 3.939h3.938v3.938h-3.938zm0 3.938h3.938v3.938h-3.938zm0 7.877h3.938v3.938h-3.938zm0 7.877h3.938v3.938h-3.938zm0 11.816h3.938v3.938h-3.938zm0 7.876h3.938v3.938h-3.938zm0 3.939h3.938v3.938h-3.938zm0 3.938h3.938v3.938h-3.938zm0 3.939h3.938v3.938h-3.938zm0 7.877h3.938v3.938h-3.938zm0 3.938h3.938v3.938h-3.938zm0 11.816h3.938v3.938h-3.938zm0 3.938h3.938v3.938h-3.938zm0 3.939h3.938v3.938h-3.938zm0 3.938h3.938v3.938h-3.938zm0 3.938h3.938v3.938h-3.938zm0 15.754h3.938v3.938h-3.938zm0 11.816h3.938v3.938h-3.938zm3.938-220.554h3.938v3.938h-3.938zm0 3.938h3.938v3.938h-3.938zm0 7.877h3.938v3.938h-3.938zm0 7.877h3.938v3.938h-3.938zm0 3.939h3.938v3.938h-3.938zm0 7.877h3.938v3.938h-3.938zm0 15.753h3.938v3.938h-3.938zm0 3.939h3.938v3.938h-3.938zm0 7.877h3.938v3.938h-3.938zm0 3.938h3.938v3.938h-3.938zm0 3.939h3.938v3.938h-3.938zm0 3.938h3.938v3.938h-3.938zm0 3.939h3.938v3.938h-3.938zm0 3.938h3.938v3.938h-3.938zm0 3.939h3.938v3.938h-3.938zm0 3.938h3.938v3.938h-3.938z"/><path d="m86.646 106.338h3.938v3.938h-3.938zm0 11.816h3.938v3.938h-3.938zm0 7.877h3.938v3.938h-3.938zm0 3.938h3.938v3.938h-3.938zm0 3.939h3.938v3.938h-3.938zm0 11.815h3.938v3.938h-3.938zm0 7.877h3.938v3.938h-3.938zm0 3.938h3.938v3.938h-3.938zm0 7.877h3.938v3.938h-3.938zm0 3.939h3.938v3.938h-3.938zm0 27.569h3.938v3.938h-3.938zm0 27.569h3.938v3.938h-3.938zm0 11.816h3.938v3.938h-3.938zm3.939-212.677h3.938v3.938h-3.938zm0 7.877h3.938v3.938h-3.938zm0 3.938h3.938v3.938h-3.938zm0 11.816h3.938v3.938h-3.938zm0 3.938h3.938v3.938h-3.938zm0 11.815h3.938v3.938h-3.938zm0 7.877h3.938v3.938h-3.938zm0 3.939h3.938v3.938h-3.938zm0 15.754h3.938v3.938h-3.938zm0 3.938h3.938v3.938h-3.938zm0 15.754h3.938v3.938h-3.938zm0 7.877h3.938v3.938h-3.938zm0 11.815h3.938v3.938h-3.938zm0 7.877h3.938v3.938h-3.938zm0 7.877h3.938v3.938h-3.938zm0 3.939h3.938v3.938h-3.938zm0 7.876h3.938v3.938h-3.938zm0 3.939h3.938v3.938h-3.938zm0 3.938h3.938v3.938h-3.938zm0 11.816h3.938v3.938h-3.938zm0 7.877h3.938v3.938h-3.938zm0 11.815h3.938v3.938h-3.938zm0 7.877h3.938v3.938h-3.938zm0 19.692h3.938v3.938h-3.938zm0 11.816h3.938v3.938h-3.938zm3.938-220.554h3.938v3.938h-3.938zm0 11.815h3.938v3.938h-3.938zm0 7.877h3.938v3.938h-3.938zm0 3.939h3.938v3.938h-3.938zm0 27.569h3.938v3.938h-3.938zm0 3.938h3.938v3.938h-3.938zm0 7.877h3.938v3.938h-3.938zm0 3.939h3.938v3.938h-3.938zm0 11.815h3.938v3.938h-3.938zm0 3.939h3.938v3.938h-3.938zm0 3.938h3.938v3.938h-3.938z"/><path d="m94.523 106.338h3.938v3.938h-3.938zm0 11.816h3.938v3.938h-3.938zm0 19.692h3.938v3.938h-3.938zm0 15.754h3.938v3.938h-3.938zm0 7.877h3.938v3.938h-3.938zm0 7.877h3.938v3.938h-3.938zm0 3.938h3.938v3.938h-3.938zm0 7.877h3.938v3.938h-3.938zm0 3.939h3.938v3.938h-3.938zm0 3.938h3.938v3.938h-3.938zm0 7.877h3.938v3.938h-3.938zm0 3.939h3.938v3.938h-3.938zm0 3.938h3.938v3.938h-3.938zm0 7.877h3.938v3.938h-3.938zm0 3.938h3.938v3.938h-3.938zm0 7.877h3.938v3.938h-3.938zm0 11.816h3.938v3.938h-3.938zm3.939-212.677h3.938v3.938h-3.938zm0 7.877h3.938v3.938h-3.938zm0 15.754h3.938v3.938h-3.938zm0 3.938h3.938v3.938h-3.938z"/><path d="m98.462 55.138h3.938v3.938h-3.938zm0 3.939h3.938v3.938h-3.938zm0 3.938h3.938v3.938h-3.938zm0 3.939h3.938v3.938h-3.938zm0 7.877h3.938v3.938h-3.938zm0 3.938h3.938v3.938h-3.938zm0 7.877h3.938v3.938h-3.938zm0 11.816h3.938v3.938h-3.938zm0 3.938h3.938v3.938h-3.938z"/><path d="m98.462 106.338h3.938v3.938h-3.938zm0 3.939h3.938v3.938h-3.938zm0 7.877h3.938v3.938h-3.938zm0 15.754h3.938v3.938h-3.938zm0 3.938h3.938v3.938h-3.938zm0 11.816h3.938v3.938h-3.938zm0 19.692h3.938v3.938h-3.938zm0 3.938h3.938v3.938h-3.938zm0 15.754h3.938v3.938h-3.938zm0 7.877h3.938v3.938h-3.938zm0 11.815h3.938v3.938h-3.938zm0 7.877h3.938v3.938h-3.938zm0 3.939h3.938v3.938h-3.938zm0 3.938h3.938v3.938h-3.938zm0 3.939h3.938v3.938h-3.938zm3.938-200.862h3.938v3.938h-3.938zm0 3.939h3.938v3.938h-3.938zm0 7.877h3.938v3.938h-3.938zm0 31.507h3.938v3.938h-3.938zm0 7.877h3.938v3.938h-3.938zm0 7.877h3.938v3.938h-3.938zm0 15.754h3.938v3.938h-3.938z"/><path d="m102.4 106.338h3.938v3.938h-3.938zm0 7.877h3.938v3.938h-3.938zm0 3.939h3.938v3.938h-3.938zm0 3.938h3.938v3.938h-3.938zm0 11.816h3.938v3.938h-3.938zm0 3.938h3.938v3.938h-3.938zm0 7.877h3.938v3.938h-3.938zm0 15.754h3.938v3.938h-3.938zm0 3.938h3.938v3.938h-3.938zm0 11.816h3.938v3.938h-3.938zm0 11.815h3.938v3.938h-3.938zm0 7.877h3.938v3.938h-3.938zm0 3.939h3.938v3.938h-3.938zm0 7.876h3.938v3.938h-3.938zm0 3.939h3.938v3.938h-3.938zm0 3.938h3.938v3.938h-3.938zm0 3.939h3.938v3.938h-3.938zm0 15.754h3.938v3.938h-3.938zm3.938-220.554h3.938v3.938h-3.938zm0 7.877h3.938v3.938h-3.938zm0 7.877h3.938v3.938h-3.938zm0 15.754h3.938v3.938h-3.938zm0 19.692h3.938v3.938h-3.938zm0 3.938h3.938v3.938h-3.938zm0 3.939h3.938v3.938h-3.938zm0 7.877h3.938v3.938h-3.938zm0 3.938h3.938v3.938h-3.938zm0 3.939h3.938v3.938h-3.938z"/><path d="m106.338 102.4h3.938v3.938h-3.938z"/><path d="m106.338 106.338h3.938v3.938h-3.938zm0 35.447h3.938v3.938h-3.938zm0 3.938h3.938v3.938h-3.938zm0 11.815h3.938v3.938h-3.938zm0 7.877h3.938v3.938h-3.938zm0 7.877h3.938v3.938h-3.938zm0 3.939h3.938v3.938h-3.938zm0 3.938h3.938v3.938h-3.938zm0 7.877h3.938v3.938h-3.938zm0 15.754h3.938v3.938h-3.938zm0 19.692h3.938v3.938h-3.938zm0 7.877h3.938v3.938h-3.938zm3.939-200.861h3.938v3.938h-3.938zm0 3.938h3.938v3.938h-3.938zm0 3.939h3.938v3.938h-3.938zm0 11.815h3.938v3.938h-3.938z"/><path d="m110.277 55.138h3.938v3.938h-3.938zm0 3.939h3.938v3.938h-3.938zm0 7.877h3.938v3.938h-3.938zm0 11.815h3.938v3.938h-3.938zm0 11.816h3.938v3.938h-3.938zm0 15.753h3.938v3.938h-3.938zm0 7.877h3.938v3.938h-3.938zm0 3.939h3.938v3.938h-3.938zm0 3.938h3.938v3.938h-3.938zm0 3.939h3.938v3.938h-3.938zm0 3.938h3.938v3.938h-3.938zm0 3.939h3.938v3.938h-3.938zm0 7.877h3.938v3.938h-3.938zm0 3.938h3.938v3.938h-3.938zm0 3.939h3.938v3.938h-3.938zm0 7.876h3.938v3.938h-3.938zm0 7.877h3.938v3.938h-3.938zm0 3.939h3.938v3.938h-3.938zm0 27.569h3.938v3.938h-3.938zm0 7.877h3.938v3.938h-3.938zm0 19.692h3.938v3.938h-3.938zm0 3.939h3.938v3.938h-3.938zm3.938-204.8h3.938v3.938h-3.938zm0 19.692h3.938v3.938h-3.938zm0 3.939h3.938v3.938h-3.938zm0 7.876h3.938v3.938h-3.938zm0 23.631h3.938v3.938h-3.938zm0 7.877h3.938v3.938h-3.938zm0 3.939h3.938v3.938h-3.938zm0 3.938h3.938v3.938h-3.938zm0 7.877h3.938v3.938h-3.938zm0 11.815h3.938v3.938h-3.938zm0 11.816h3.938v3.938h-3.938zm0 7.877h3.938v3.938h-3.938zm0 11.815h3.938v3.938h-3.938zm0 19.692h3.938v3.938h-3.938zm0 7.877h3.938v3.938h-3.938zm0 3.939h3.938v3.938h-3.938zm0 7.877h3.938v3.938h-3.938zm0 3.938h3.938v3.938h-3.938zm0 15.754h3.938v3.938h-3.938zm0 3.938h3.938v3.938h-3.938zm0 19.693h3.938v3.938h-3.938zm0 3.938h3.938v3.938h-3.938zm3.939-212.677h3.938v3.938h-3.938zm0 3.939h3.938v3.938h-3.938zm0 3.938h3.938v3.938h-3.938zm0 3.939h3.938v3.938h-3.938zm0 3.938h3.938v3.938h-3.938zm0 3.939h3.938v3.938h-3.938zm0 3.938h3.938v3.938h-3.938zm0 3.939h3.938v3.938h-3.938zm0 3.938h3.938v3.938h-3.938z"/><path d="m118.154 55.138h3.938v3.938h-3.938zm0 3.939h3.938v3.938h-3.938zm0 19.692h3.938v3.938h-3.938zm0 7.877h3.938v3.938h-3.938zm0 3.939h3.938v3.938h-3.938zm0 7.877h3.938v3.938h-3.938zm0 15.753h3.938v3.938h-3.938zm0 3.939h3.938v3.938h-3.938zm0 3.938h3.938v3.938h-3.938zm0 3.939h3.938v3.938h-3.938zm0 3.938h3.938v3.938h-3.938zm0 3.939h3.938v3.938h-3.938zm0 3.938h3.938v3.938h-3.938zm0 3.939h3.938v3.938h-3.938zm0 3.938h3.938v3.938h-3.938zm0 19.692h3.938v3.938h-3.938zm0 3.939h3.938v3.938h-3.938zm0 3.938h3.938v3.938h-3.938zm0 3.939h3.938v3.938h-3.938zm0 7.877h3.938v3.938h-3.938zm0 3.938h3.938v3.938h-3.938zm0 3.939h3.938v3.938h-3.938zm0 11.815h3.938v3.938h-3.938zm0 3.938h3.938v3.938h-3.938zm0 3.939h3.938v3.938h-3.938zm0 3.938h3.938v3.938h-3.938zm0 3.939h3.938v3.938h-3.938zm0 7.877h3.938v3.938h-3.938zm0 3.938h3.938v3.938h-3.938zm3.938-204.8h3.938v3.938h-3.938zm0 3.939h3.938v3.938h-3.938zm0 15.754h3.938v3.938h-3.938zm0 7.876h3.938v3.938h-3.938zm0 3.939h3.938v3.938h-3.938zm0 7.877h3.938v3.938h-3.938zm0 19.692h3.938v3.938h-3.938zm0 11.816h3.938v3.938h-3.938zm0 3.938h3.938v3.938h-3.938z"/><path d="m122.092 106.338h3.938v3.938h-3.938zm0 7.877h3.938v3.938h-3.938zm0 3.939h3.938v3.938h-3.938zm0 15.754h3.938v3.938h-3.938zm0 15.754h3.938v3.938h-3.938zm0 7.876h3.938v3.938h-3.938zm0 11.816h3.938v3.938h-3.938zm0 19.692h3.938v3.938h-3.938zm0 7.877h3.938v3.938h-3.938zm0 7.877h3.938v3.938h-3.938zm0 15.754h3.938v3.938h-3.938zm0 3.938h3.938v3.938h-3.938zm3.939-208.738h3.938v3.938h-3.938zm0 7.877h3.938v3.938h-3.938zm0 3.938h3.938v3.938h-3.938zm0 3.939h3.938v3.938h-3.938zm0 7.877h3.938v3.938h-3.938zm0 7.877h3.938v3.938h-3.938zm0 3.938h3.938v3.938h-3.938z"/><path d="m126.031 55.138h3.938v3.938h-3.938zm0 3.939h3.938v3.938h-3.938zm0 3.938h3.938v3.938h-3.938zm0 7.877h3.938v3.938h-3.938zm0 11.816h3.938v3.938h-3.938zm0 11.815h3.938v3.938h-3.938zm0 7.877h3.938v3.938h-3.938zm0 7.877h3.938v3.938h-3.938zm0 7.877h3.938v3.938h-3.938zm0 7.877h3.938v3.938h-3.938zm0 7.877h3.938v3.938h-3.938zm0 7.877h3.938v3.938h-3.938zm0 3.938h3.938v3.938h-3.938zm0 3.939h3.938v3.938h-3.938zm0 11.815h3.938v3.938h-3.938zm0 7.877h3.938v3.938h-3.938zm0 7.877h3.938v3.938h-3.938zm0 3.938h3.938v3.938h-3.938zm0 3.939h3.938v3.938h-3.938zm0 7.877h3.938v3.938h-3.938zm0 11.815h3.938v3.938h-3.938zm0 7.877h3.938v3.938h-3.938zm0 7.877h3.938v3.938h-3.938zm0 3.938h3.938v3.938h-3.938zm3.938-196.923h3.938v3.938h-3.938zm0 3.939h3.938v3.938h-3.938zm0 15.754h3.938v3.938h-3.938zm0 15.753h3.938v3.938h-3.938zm0 7.877h3.938v3.938h-3.938zm0 3.939h3.938v3.938h-3.938zm0 3.938h3.938v3.938h-3.938zm0 15.754h3.938v3.938h-3.938zm0 3.939h3.938v3.938h-3.938zm0 7.876h3.938v3.938h-3.938zm0 11.816h3.938v3.938h-3.938zm0 15.754h3.938v3.938h-3.938zm0 15.754h3.938v3.938h-3.938zm0 3.938h3.938v3.938h-3.938zm0 11.815h3.938v3.938h-3.938zm0 23.631h3.938v3.938h-3.938zm0 3.939h3.938v3.938h-3.938zm0 3.938h3.938v3.938h-3.938zm0 7.877h3.938v3.938h-3.938zm0 15.754h3.938v3.938h-3.938zm0 7.877h3.938v3.938h-3.938zm0 3.938h3.938v3.938h-3.938zm0 3.939h3.938v3.938h-3.938zm3.939-216.616h3.938v3.938h-3.938zm0 11.816h3.938v3.938h-3.938zm0 3.938h3.938v3.938h-3.938zm0 3.939h3.938v3.938h-3.938zm0 3.938h3.938v3.938h-3.938zm0 3.939h3.938v3.938h-3.938zm0 3.938h3.938v3.938h-3.938zm0 7.877h3.938v3.938h-3.938zm0 3.938h3.938v3.938h-3.938zm0 7.877h3.938v3.938h-3.938zm0 3.939h3.938v3.938h-3.938zm0 7.877h3.938v3.938h-3.938zm0 7.877h3.938v3.938h-3.938zm0 3.938h3.938v3.938h-3.938zm0 7.877h3.938v3.938h-3.938z"/><path d="m133.908 106.338h3.938v3.938h-3.938zm0 3.939h3.938v3.938h-3.938zm0 3.938h3.938v3.938h-3.938zm0 3.939h3.938v3.938h-3.938zm0 3.938h3.938v3.938h-3.938zm0 3.939h3.938v3.938h-3.938zm0 3.938h3.938v3.938h-3.938zm0 3.939h3.938v3.938h-3.938zm0 7.877h3.938v3.938h-3.938zm0 3.938h3.938v3.938h-3.938zm0 3.939h3.938v3.938h-3.938zm0 23.63h3.938v3.938h-3.938zm0 3.939h3.938v3.938h-3.938zm0 3.938h3.938v3.938h-3.938zm0 7.877h3.938v3.938h-3.938zm0 7.877h3.938v3.938h-3.938zm0 3.939h3.938v3.938h-3.938zm0 3.938h3.938v3.938h-3.938zm0 3.938h3.938v3.938h-3.938zm0 3.939h3.938v3.938h-3.938zm0 3.938h3.938v3.938h-3.938zm0 3.939h3.938v3.938h-3.938zm3.938-204.8h3.938v3.938h-3.938zm0 19.692h3.938v3.938h-3.938zm0 7.877h3.938v3.938h-3.938zm0 7.877h3.938v3.938h-3.938z"/><path d="m137.846 55.138h3.938v3.938h-3.938zm0 7.877h3.938v3.938h-3.938zm0 3.939h3.938v3.938h-3.938zm0 3.938h3.938v3.938h-3.938zm0 7.877h3.938v3.938h-3.938zm0 3.939h3.938v3.938h-3.938zm0 7.877h3.938v3.938h-3.938zm0 3.938h3.938v3.938h-3.938zm0 3.939h3.938v3.938h-3.938zm0 7.876h3.938v3.938h-3.938zm0 7.877h3.938v3.938h-3.938zm0 7.877h3.938v3.938h-3.938zm0 39.385h3.938v3.938h-3.938zm0 15.754h3.938v3.938h-3.938zm0 3.938h3.938v3.938h-3.938zm0 3.939h3.938v3.938h-3.938zm0 7.877h3.938v3.938h-3.938zm0 15.753h3.938v3.938h-3.938zm0 7.877h3.938v3.938h-3.938zm0 7.877h3.938v3.938h-3.938zm0 3.939h3.938v3.938h-3.938zm0 7.877h3.938v3.938h-3.938zm3.939-220.554h3.938v3.938h-3.938zm0 11.815h3.938v3.938h-3.938zm0 3.939h3.938v3.938h-3.938zm0 7.877h3.938v3.938h-3.938zm0 3.938h3.938v3.938h-3.938zm0 7.877h3.938v3.938h-3.938zm0 7.877h3.938v3.938h-3.938zm0 3.938h3.938v3.938h-3.938zm0 3.939h3.938v3.938h-3.938zm0 3.938h3.938v3.938h-3.938zm0 3.939h3.938v3.938h-3.938zm0 19.692h3.938v3.938h-3.938zm0 3.939h3.938v3.938h-3.938zm0 11.815h3.938v3.938h-3.938zm0 7.877h3.938v3.938h-3.938zm0 11.815h3.938v3.938h-3.938zm0 3.939h3.938v3.938h-3.938zm0 7.877h3.938v3.938h-3.938zm0 3.938h3.938v3.938h-3.938zm0 7.877h3.938v3.938h-3.938zm0 3.938h3.938v3.938h-3.938zm0 3.939h3.938v3.938h-3.938zm0 7.877h3.938v3.938h-3.938zm0 3.938h3.938v3.938h-3.938zm0 11.816h3.938v3.938h-3.938zm0 3.938h3.938v3.938h-3.938zm0 3.939h3.938v3.938h-3.938zm0 19.692h3.938v3.938h-3.938zm0 7.877h3.938v3.938h-3.938zm0 11.815h3.938v3.938h-3.938zm3.938-216.615h3.938v3.938h-3.938zm0 3.938h3.938v3.938h-3.938zm0 3.939h3.938v3.938h-3.938zm0 19.692h3.938v3.938h-3.938zm0 7.877h3.938v3.938h-3.938zm0 11.815h3.938v3.938h-3.938zm0 3.939h3.938v3.938h-3.938zm0 3.938h3.938v3.938h-3.938zm0 7.877h3.938v3.938h-3.938zm0 3.939h3.938v3.938h-3.938zm0 3.938h3.938v3.938h-3.938zm0 3.939h3.938v3.938h-3.938zm0 3.938h3.938v3.938h-3.938zm0 11.815h3.938v3.938h-3.938zm0 3.939h3.938v3.938h-3.938zm0 3.938h3.938v3.938h-3.938zm0 3.939h3.938v3.938h-3.938zm0 11.815h3.938v3.938h-3.938zm0 3.939h3.938v3.938h-3.938zm0 7.877h3.938v3.938h-3.938zm0 11.815h3.938v3.938h-3.938zm0 3.938h3.938v3.938h-3.938zm0 3.939h3.938v3.938h-3.938zm0 3.938h3.938v3.938h-3.938zm0 7.877h3.938v3.938h-3.938zm0 3.939h3.938v3.938h-3.938zm0 15.754h3.938v3.938h-3.938zm0 3.938h3.938v3.938h-3.938zm0 7.877h3.938v3.938h-3.938zm0 3.938h3.938v3.938h-3.938zm0 3.939h3.938v3.938h-3.938zm0 7.877h3.938v3.938h-3.938zm3.939-204.8h3.938v3.938h-3.938zm0 3.938h3.938v3.938h-3.938zm0 7.877h3.938v3.938h-3.938zm0 11.816h3.938v3.938h-3.938zm0 3.938h3.938v3.938h-3.938zm0 3.939h3.938v3.938h-3.938zm0 3.938h3.938v3.938h-3.938z"/><path d="m149.662 55.138h3.938v3.938h-3.938zm0 3.939h3.938v3.938h-3.938zm0 3.938h3.938v3.938h-3.938zm0 11.816h3.938v3.938h-3.938zm0 3.938h3.938v3.938h-3.938zm0 3.939h3.938v3.938h-3.938zm0 7.877h3.938v3.938h-3.938zm0 7.877h3.938v3.938h-3.938zm0 3.938h3.938v3.938h-3.938zm0 11.815h3.938v3.938h-3.938zm0 3.939h3.938v3.938h-3.938zm0 11.815h3.938v3.938h-3.938zm0 15.754h3.938v3.938h-3.938zm0 3.939h3.938v3.938h-3.938zm0 3.938h3.938v3.938h-3.938zm0 3.938h3.938v3.938h-3.938zm0 11.816h3.938v3.938h-3.938zm0 7.877h3.938v3.938h-3.938zm0 7.877h3.938v3.938h-3.938zm0 3.938h3.938v3.938h-3.938zm0 3.939h3.938v3.938h-3.938zm0 3.938h3.938v3.938h-3.938zm0 3.939h3.938v3.938h-3.938zm0 19.692h3.938v3.938h-3.938zm0 3.938h3.938v3.938h-3.938zm0 11.816h3.938v3.938h-3.938zm3.938-220.554h3.938v3.938h-3.938zm0 7.877h3.938v3.938h-3.938zm0 19.692h3.938v3.938h-3.938zm0 7.877h3.938v3.938h-3.938z"/><path d="m153.6 55.138h3.938v3.938h-3.938zm0 3.939h3.938v3.938h-3.938zm0 7.877h3.938v3.938h-3.938zm0 3.938h3.938v3.938h-3.938zm0 3.939h3.938v3.938h-3.938zm0 3.938h3.938v3.938h-3.938zm0 3.939h3.938v3.938h-3.938zm0 3.938h3.938v3.938h-3.938zm0 3.939h3.938v3.938h-3.938zm0 3.938h3.938v3.938h-3.938zm0 3.939h3.938v3.938h-3.938zm0 3.938h3.938v3.938h-3.938z"/><path d="m153.6 106.338h3.938v3.938h-3.938zm0 15.754h3.938v3.938h-3.938zm0 3.939h3.938v3.938h-3.938zm0 3.938h3.938v3.938h-3.938zm0 7.877h3.938v3.938h-3.938zm0 7.877h3.938v3.938h-3.938zm0 3.939h3.938v3.938h-3.938zm0 3.938h3.938v3.938h-3.938zm0 7.877h3.938v3.938h-3.938zm0 3.938h3.938v3.938h-3.938zm0 11.816h3.938v3.938h-3.938zm0 11.815h3.938v3.938h-3.938zm0 3.939h3.938v3.938h-3.938zm0 3.938h3.938v3.938h-3.938zm0 3.939h3.938v3.938h-3.938zm0 7.876h3.938v3.938h-3.938zm0 15.754h3.938v3.938h-3.938zm0 3.939h3.938v3.938h-3.938zm0 3.938h3.938v3.938h-3.938zm0 3.939h3.938v3.938h-3.938zm3.938-220.554h3.938v3.938h-3.938zm0 11.815h3.938v3.938h-3.938zm0 3.939h3.938v3.938h-3.938zm0 3.938h3.938v3.938h-3.938zm0 3.939h3.938v3.938h-3.938zm0 3.938h3.938v3.938h-3.938zm0 3.939h3.938v3.938h-3.938zm0 3.938h3.938v3.938h-3.938z"/><path d="m157.538 55.138h3.938v3.938h-3.938zm0 7.877h3.938v3.938h-3.938zm0 15.754h3.938v3.938h-3.938zm0 7.877h3.938v3.938h-3.938zm0 7.877h3.938v3.938h-3.938zm0 15.754h3.938v3.938h-3.938zm0 3.938h3.938v3.938h-3.938zm0 3.939h3.938v3.938h-3.938zm0 7.877h3.938v3.938h-3.938zm0 3.938h3.938v3.938h-3.938zm0 3.939h3.938v3.938h-3.938zm0 7.877h3.938v3.938h-3.938zm0 7.877h3.938v3.938h-3.938zm0 7.876h3.938v3.938h-3.938zm0 3.939h3.938v3.938h-3.938zm0 3.938h3.938v3.938h-3.938zm0 3.939h3.938v3.938h-3.938zm0 19.692h3.938v3.938h-3.938zm0 3.939h3.938v3.938h-3.938zm0 11.815h3.938v3.938h-3.938zm0 3.938h3.938v3.938h-3.938zm0 11.816h3.938v3.938h-3.938zm0 15.754h3.938v3.938h-3.938zm3.939-216.616h3.938v3.938h-3.938zm0 7.877h3.938v3.938h-3.938zm0 3.939h3.938v3.938h-3.938zm0 15.754h3.938v3.938h-3.938zm0 3.938h3.938v3.938h-3.938zm0 15.754h3.938v3.938h-3.938zm0 11.815h3.938v3.938h-3.938zm0 3.939h3.938v3.938h-3.938zm0 3.938h3.938v3.938h-3.938zm0 3.939h3.938v3.938h-3.938zm0 11.815h3.938v3.938h-3.938zm0 15.754h3.938v3.938h-3.938zm0 7.877h3.938v3.938h-3.938zm0 3.938h3.938v3.938h-3.938zm0 7.877h3.938v3.938h-3.938zm0 7.877h3.938v3.938h-3.938zm0 7.877h3.938v3.938h-3.938zm0 3.938h3.938v3.938h-3.938zm0 7.877h3.938v3.938h-3.938zm0 7.877h3.938v3.938h-3.938zm0 19.693h3.938v3.938h-3.938zm0 7.877h3.938v3.938h-3.938zm0 3.938h3.938v3.938h-3.938zm0 3.938h3.938v3.938h-3.938zm0 7.877h3.938v3.938h-3.938zm0 3.939h3.938v3.938h-3.938zm0 3.938h3.938v3.938h-3.938zm0 3.939h3.938v3.938h-3.938zm3.938-212.677h3.938v3.938h-3.938zm0 7.877h3.938v3.938h-3.938zm0 7.877h3.938v3.938h-3.938zm0 3.938h3.938v3.938h-3.938zm0 3.939h3.938v3.938h-3.938zm0 7.877h3.938v3.938h-3.938zm0 7.876h3.938v3.938h-3.938zm0 7.877h3.938v3.938h-3.938zm0 3.939h3.938v3.938h-3.938zm0 3.938h3.938v3.938h-3.938zm0 3.939h3.938v3.938h-3.938zm0 23.631h3.938v3.938h-3.938zm0 15.753h3.938v3.938h-3.938zm0 3.939h3.938v3.938h-3.938zm0 7.877h3.938v3.938h-3.938zm0 15.754h3.938v3.938h-3.938zm0 3.938h3.938v3.938h-3.938zm0 7.877h3.938v3.938h-3.938zm0 7.877h3.938v3.938h-3.938zm0 3.938h3.938v3.938h-3.938zm0 3.939h3.938v3.938h-3.938zm0 3.938h3.938v3.938h-3.938zm0 7.877h3.938v3.938h-3.938zm0 3.939h3.938v3.938h-3.938zm0 3.938h3.938v3.938h-3.938zm0 3.939h3.938v3.938h-3.938zm0 15.753h3.938v3.938h-3.938zm0 3.939h3.938v3.938h-3.938zm0 3.938h3.938v3.938h-3.938zm0 15.754h3.938v3.938h-3.938zm0 3.939h3.938v3.938h-3.938zm3.939-208.739h3.938v3.938h-3.938zm0 7.877h3.938v3.938h-3.938zm0 7.877h3.938v3.938h-3.938zm0 7.877h3.938v3.938h-3.938z"/><path d="m169.354 55.138h3.938v3.938h-3.938zm0 3.939h3.938v3.938h-3.938zm0 3.938h3.938v3.938h-3.938zm0 3.939h3.938v3.938h-3.938zm0 15.754h3.938v3.938h-3.938zm0 23.63h3.938v3.938h-3.938zm0 3.939h3.938v3.938h-3.938zm0 3.938h3.938v3.938h-3.938zm0 3.939h3.938v3.938h-3.938zm0 19.692h3.938v3.938h-3.938zm0 7.877h3.938v3.938h-3.938zm0 3.939h3.938v3.938h-3.938zm0 3.938h3.938v3.938h-3.938zm0 3.938h3.938v3.938h-3.938zm0 23.631h3.938v3.938h-3.938zm0 27.569h3.938v3.938h-3.938zm0 19.693h3.938v3.938h-3.938zm3.938-212.677h3.938v3.938h-3.938zm0 3.938h3.938v3.938h-3.938zm0 7.877h3.938v3.938h-3.938zm0 7.877h3.938v3.938h-3.938zm0 3.939h3.938v3.938h-3.938zm0 3.938h3.938v3.938h-3.938zm0 3.939h3.938v3.938h-3.938zm0 15.753h3.938v3.938h-3.938zm0 7.877h3.938v3.938h-3.938zm0 11.816h3.938v3.938h-3.938zm0 3.938h3.938v3.938h-3.938zm0 3.939h3.938v3.938h-3.938zm0 3.938h3.938v3.938h-3.938zm0 11.815h3.938v3.938h-3.938zm0 3.939h3.938v3.938h-3.938zm0 7.877h3.938v3.938h-3.938zm0 19.692h3.938v3.938h-3.938zm0 3.939h3.938v3.938h-3.938zm0 15.753h3.938v3.938h-3.938zm0 3.939h3.938v3.938h-3.938zm0 3.938h3.938v3.938h-3.938zm0 11.816h3.938v3.938h-3.938zm0 3.938h3.938v3.938h-3.938zm0 3.939h3.938v3.938h-3.938zm0 3.938h3.938v3.938h-3.938zm0 15.754h3.938v3.938h-3.938zm0 7.877h3.938v3.938h-3.938zm0 15.754h3.938v3.938h-3.938zm3.939-212.677h3.938v3.938h-3.938zm0 3.938h3.938v3.938h-3.938zm0 11.816h3.938v3.938h-3.938zm0 11.815h3.938v3.938h-3.938zm0 3.939h3.938v3.938h-3.938zm0 3.938h3.938v3.938h-3.938z"/><path d="m177.231 55.138h3.938v3.938h-3.938zm0 3.939h3.938v3.938h-3.938zm0 3.938h3.938v3.938h-3.938zm0 3.939h3.938v3.938h-3.938zm0 7.877h3.938v3.938h-3.938zm0 3.938h3.938v3.938h-3.938zm0 7.877h3.938v3.938h-3.938zm0 7.877h3.938v3.938h-3.938zm0 3.939h3.938v3.938h-3.938zm0 3.938h3.938v3.938h-3.938z"/><path d="m177.231 106.338h3.938v3.938h-3.938zm0 11.816h3.938v3.938h-3.938zm0 7.877h3.938v3.938h-3.938zm0 7.877h3.938v3.938h-3.938zm0 11.815h3.938v3.938h-3.938zm0 3.939h3.938v3.938h-3.938zm0 7.876h3.938v3.938h-3.938zm0 3.939h3.938v3.938h-3.938zm0 19.692h3.938v3.938h-3.938zm0 11.816h3.938v3.938h-3.938zm0 7.877h3.938v3.938h-3.938zm0 7.876h3.938v3.938h-3.938zm0 3.939h3.938v3.938h-3.938zm0 3.938h3.938v3.938h-3.938zm0 3.939h3.938v3.938h-3.938zm0 3.938h3.938v3.938h-3.938zm0 3.939h3.938v3.938h-3.938zm0 3.938h3.938v3.938h-3.938zm3.938-216.615h3.938v3.938h-3.938zm0 7.877h3.938v3.938h-3.938zm0 7.877h3.938v3.938h-3.938zm0 7.877h3.938v3.938h-3.938zm0 3.938h3.938v3.938h-3.938zm0 3.939h3.938v3.938h-3.938zm0 3.938h3.938v3.938h-3.938zm0 7.877h3.938v3.938h-3.938zm0 3.938h3.938v3.938h-3.938zm0 3.939h3.938v3.938h-3.938zm0 11.815h3.938v3.938h-3.938zm0 3.939h3.938v3.938h-3.938zm0 11.815h3.938v3.938h-3.938zm0 3.939h3.938v3.938h-3.938zm0 7.876h3.938v3.938h-3.938zm0 3.939h3.938v3.938h-3.938zm0 3.938h3.938v3.938h-3.938zm0 3.939h3.938v3.938h-3.938zm0 7.877h3.938v3.938h-3.938zm0 3.938h3.938v3.938h-3.938zm0 11.816h3.938v3.938h-3.938zm0 3.938h3.938v3.938h-3.938zm0 7.877h3.938v3.938h-3.938zm0 7.877h3.938v3.938h-3.938zm0 7.877h3.938v3.938h-3.938zm0 3.938h3.938v3.938h-3.938zm0 3.939h3.938v3.938h-3.938zm0 3.938h3.938v3.938h-3.938zm0 3.939h3.938v3.938h-3.938zm0 7.877h3.938v3.938h-3.938zm0 15.753h3.938v3.938h-3.938zm0 7.877h3.938v3.938h-3.938zm0 3.939h3.938v3.938h-3.938zm0 3.938h3.938v3.938h-3.938zm3.939-192.984h3.938v3.938h-3.938zm0 3.938h3.938v3.938h-3.938zm0 7.877h3.938v3.938h-3.938zm0 11.815h3.938v3.938h-3.938zm0 11.816h3.938v3.938h-3.938zm0 11.815h3.938v3.938h-3.938zm0 7.877h3.938v3.938h-3.938zm0 11.816h3.938v3.938h-3.938zm0 3.938h3.938v3.938h-3.938zm0 19.692h3.938v3.938h-3.938zm0 15.754h3.938v3.938h-3.938zm0 11.816h3.938v3.938h-3.938zm0 3.938h3.938v3.938h-3.938zm0 3.938h3.938v3.938h-3.938zm0 3.939h3.938v3.938h-3.938zm0 7.877h3.938v3.938h-3.938zm0 7.877h3.938v3.938h-3.938zm0 3.938h3.938v3.938h-3.938zm0 3.939h3.938v3.938h-3.938zm0 7.877h3.938v3.938h-3.938zm0 3.938h3.938v3.938h-3.938zm0 3.939h3.938v3.938h-3.938zm0 15.753h3.938v3.938h-3.938zm0 3.939h3.938v3.938h-3.938zm0 15.754h3.938v3.938h-3.938zm3.938-220.554h3.938v3.938h-3.938zm0 3.938h3.938v3.938h-3.938zm0 3.939h3.938v3.938h-3.938zm0 3.938h3.938v3.938h-3.938zm0 11.816h3.938v3.938h-3.938zm0 3.938h3.938v3.938h-3.938zm0 3.939h3.938v3.938h-3.938zm0 11.815h3.938v3.938h-3.938zm0 3.938h3.938v3.938h-3.938zm0 15.754h3.938v3.938h-3.938zm0 7.877h3.938v3.938h-3.938zm0 15.754h3.938v3.938h-3.938z"/><path d="m189.046 106.338h3.938v3.938h-3.938zm0 3.939h3.938v3.938h-3.938zm0 3.938h3.938v3.938h-3.938zm0 11.816h3.938v3.938h-3.938zm0 7.877h3.938v3.938h-3.938zm0 11.815h3.938v3.938h-3.938zm0 3.939h3.938v3.938h-3.938zm0 3.938h3.938v3.938h-3.938zm0 3.938h3.938v3.938h-3.938zm0 11.816h3.938v3.938h-3.938zm0 3.938h3.938v3.938h-3.938zm0 7.877h3.938v3.938h-3.938zm0 11.816h3.938v3.938h-3.938zm0 3.938h3.938v3.938h-3.938zm0 3.939h3.938v3.938h-3.938zm0 3.938h3.938v3.938h-3.938zm0 3.938h3.938v3.938h-3.938zm0 11.816h3.938v3.938h-3.938zm0 7.877h3.938v3.938h-3.938zm3.939-212.677h3.938v3.938h-3.938zm0 3.938h3.938v3.938h-3.938zm0 3.939h3.938v3.938h-3.938zm0 3.938h3.938v3.938h-3.938zm0 7.877h3.938v3.938h-3.938zm0 43.323h3.938v3.938h-3.938zm0 11.816h3.938v3.938h-3.938zm0 3.938h3.938v3.938h-3.938zm0 15.754h3.938v3.938h-3.938zm0 15.754h3.938v3.938h-3.938zm0 3.938h3.938v3.938h-3.938zm0 3.939h3.938v3.938h-3.938zm0 3.938h3.938v3.938h-3.938zm0 3.939h3.938v3.938h-3.938zm0 15.753h3.938v3.938h-3.938zm0 11.816h3.938v3.938h-3.938zm0 3.938h3.938v3.938h-3.938zm0 3.939h3.938v3.938h-3.938zm0 3.938h3.938v3.938h-3.938zm0 19.693h3.938v3.938h-3.938zm0 3.938h3.938v3.938h-3.938zm0 15.754h3.938v3.938h-3.938zm0 15.754h3.938v3.938h-3.938zm3.938-220.554h3.938v3.938h-3.938zm0 7.877h3.938v3.938h-3.938zm0 11.815h3.938v3.938h-3.938zm0 3.939h3.938v3.938h-3.938zm0 7.877h3.938v3.938h-3.938zm0 3.938h3.938v3.938h-3.938zm0 11.815h3.938v3.938h-3.938zm0 11.816h3.938v3.938h-3.938zm0 3.938h3.938v3.938h-3.938zm0 3.939h3.938v3.938h-3.938zm0 11.815h3.938v3.938h-3.938zm0 3.939h3.938v3.938h-3.938zm0 3.938h3.938v3.938h-3.938z"/><path d="m196.923 106.338h3.938v3.938h-3.938zm0 23.631h3.938v3.938h-3.938zm0 15.754h3.938v3.938h-3.938zm0 3.939h3.938v3.938h-3.938zm0 3.938h3.938v3.938h-3.938zm0 19.692h3.938v3.938h-3.938zm0 7.877h3.938v3.938h-3.938zm0 7.877h3.938v3.938h-3.938zm0 3.939h3.938v3.938h-3.938zm0 3.938h3.938v3.938h-3.938zm0 3.939h3.938v3.938h-3.938zm0 3.938h3.938v3.938h-3.938zm0 11.815h3.938v3.938h-3.938zm0 3.939h3.938v3.938h-3.938zm0 3.938h3.938v3.938h-3.938zm0 7.877h3.938v3.938h-3.938zm0 3.939h3.938v3.938h-3.938zm3.939-220.554h3.938v3.938h-3.938zm0 3.938h3.938v3.938h-3.938zm0 3.939h3.938v3.938h-3.938zm0 3.938h3.938v3.938h-3.938zm0 3.939h3.938v3.938h-3.938zm0 11.815h3.938v3.938h-3.938zm0 3.939h3.938v3.938h-3.938zm0 11.815h3.938v3.938h-3.938zm0 7.877h3.938v3.938h-3.938zm0 7.877h3.938v3.938h-3.938zm0 7.877h3.938v3.938h-3.938zm0 3.938h3.938v3.938h-3.938zm0 11.816h3.938v3.938h-3.938zm0 3.938h3.938v3.938h-3.938zm0 19.692h3.938v3.938h-3.938zm0 3.939h3.938v3.938h-3.938zm0 3.938h3.938v3.938h-3.938zm0 7.877h3.938v3.938h-3.938zm0 11.816h3.938v3.938h-3.938zm0 3.938h3.938v3.938h-3.938zm0 7.877h3.938v3.938h-3.938zm0 3.938h3.938v3.938h-3.938zm0 3.939h3.938v3.938h-3.938zm0 3.938h3.938v3.938h-3.938zm0 3.939h3.938v3.938h-3.938zm0 7.877h3.938v3.938h-3.938zm0 7.877h3.938v3.938h-3.938zm0 3.938h3.938v3.938h-3.938zm0 7.877h3.938v3.938h-3.938zm0 15.754h3.938v3.938h-3.938zm0 7.877h3.938v3.938h-3.938zm3.938-189.046h3.938v3.938h-3.938zm0 3.938h3.938v3.938h-3.938zm0 7.877h3.938v3.938h-3.938zm0 15.754h3.938v3.938h-3.938zm0 7.877h3.938v3.938h-3.938zm0 7.877h3.938v3.938h-3.938zm0 7.877h3.938v3.938h-3.938zm0 7.877h3.938v3.938h-3.938zm0 3.938h3.938v3.938h-3.938z"/><path d="m204.8 106.338h3.938v3.938h-3.938zm0 7.877h3.938v3.938h-3.938zm0 3.939h3.938v3.938h-3.938zm0 3.938h3.938v3.938h-3.938zm0 3.939h3.938v3.938h-3.938zm0 3.938h3.938v3.938h-3.938zm0 3.939h3.938v3.938h-3.938zm0 3.938h3.938v3.938h-3.938zm0 3.939h3.938v3.938h-3.938zm0 7.877h3.938v3.938h-3.938zm0 7.876h3.938v3.938h-3.938zm0 7.877h3.938v3.938h-3.938zm0 15.754h3.938v3.938h-3.938zm0 7.877h3.938v3.938h-3.938zm0 3.939h3.938v3.938h-3.938zm0 11.815h3.938v3.938h-3.938zm0 3.938h3.938v3.938h-3.938zm0 3.939h3.938v3.938h-3.938zm0 3.938h3.938v3.938h-3.938zm0 3.939h3.938v3.938h-3.938zm0 7.877h3.938v3.938h-3.938zm0 7.877h3.938v3.938h-3.938zm3.938-189.046h3.938v3.938h-3.938zm0 7.876h3.938v3.938h-3.938zm0 15.754h3.938v3.938h-3.938zm0 3.939h3.938v3.938h-3.938zm0 15.754h3.938v3.938h-3.938zm0 3.938h3.938v3.938h-3.938zm0 3.939h3.938v3.938h-3.938zm0 3.938h3.938v3.938h-3.938zm0 7.877h3.938v3.938h-3.938zm0 3.938h3.938v3.938h-3.938zm0 3.939h3.938v3.938h-3.938zm0 15.754h3.938v3.938h-3.938zm0 7.877h3.938v3.938h-3.938zm0 7.877h3.938v3.938h-3.938zm0 7.876h3.938v3.938h-3.938zm0 7.877h3.938v3.938h-3.938zm0 3.939h3.938v3.938h-3.938zm0 15.754h3.938v3.938h-3.938zm0 3.938h3.938v3.938h-3.938zm0 3.939h3.938v3.938h-3.938zm0 3.938h3.938v3.938h-3.938zm0 7.877h3.938v3.938h-3.938zm0 15.754h3.938v3.938h-3.938zm0 3.938h3.938v3.938h-3.938zm0 11.816h3.938v3.938h-3.938zm3.939-220.554h3.938v3.938h-3.938zm0 3.938h3.938v3.938h-3.938zm0 3.939h3.938v3.938h-3.938zm0 3.938h3.938v3.938h-3.938zm0 3.939h3.938v3.938h-3.938zm0 3.938h3.938v3.938h-3.938zm0 3.939h3.938v3.938h-3.938zm0 7.877h3.938v3.938h-3.938zm0 3.938h3.938v3.938h-3.938zm0 15.754h3.938v3.938h-3.938zm0 3.938h3.938v3.938h-3.938zm0 3.939h3.938v3.938h-3.938zm0 15.754h3.938v3.938h-3.938zm0 3.938h3.938v3.938h-3.938zm0 3.939h3.938v3.938h-3.938zm0 7.876h3.938v3.938h-3.938zm0 3.939h3.938v3.938h-3.938zm0 3.938h3.938v3.938h-3.938zm0 3.939h3.938v3.938h-3.938zm0 7.877h3.938v3.938h-3.938zm0 7.877h3.938v3.938h-3.938zm0 7.877h3.938v3.938h-3.938zm0 7.877h3.938v3.938h-3.938zm0 3.938h3.938v3.938h-3.938zm0 3.938h3.938v3.938h-3.938zm0 3.939h3.938v3.938h-3.938zm0 7.877h3.938v3.938h-3.938zm0 3.938h3.938v3.938h-3.938zm0 7.877h3.938v3.938h-3.938zm0 11.816h3.938v3.938h-3.938zm0 3.938h3.938v3.938h-3.938zm0 3.939h3.938v3.938h-3.938zm0 3.938h3.938v3.938h-3.938zm0 7.877h3.938v3.938h-3.938zm0 7.877h3.938v3.938h-3.938zm0 7.877h3.938v3.938h-3.938zm0 3.938h3.938v3.938h-3.938zm0 3.939h3.938v3.938h-3.938zm3.938-220.554h3.938v3.938h-3.938zm0 23.631h3.938v3.938h-3.938zm0 19.692h3.938v3.938h-3.938zm0 3.938h3.938v3.938h-3.938zm0 7.877h3.938v3.938h-3.938zm0 19.693h3.938v3.938h-3.938zm0 11.815h3.938v3.938h-3.938z"/><path d="m216.615 106.338h3.938v3.938h-3.938zm0 11.816h3.938v3.938h-3.938zm0 15.754h3.938v3.938h-3.938zm0 7.877h3.938v3.938h-3.938zm0 3.938h3.938v3.938h-3.938zm0 3.939h3.938v3.938h-3.938zm0 3.938h3.938v3.938h-3.938zm0 11.815h3.938v3.938h-3.938zm0 3.939h3.938v3.938h-3.938zm0 3.938h3.938v3.938h-3.938zm0 3.939h3.938v3.938h-3.938zm0 3.938h3.938v3.938h-3.938zm0 15.754h3.938v3.938h-3.938zm0 7.877h3.938v3.938h-3.938zm0 15.754h3.938v3.938h-3.938zm0 3.938h3.938v3.938h-3.938zm0 3.939h3.938v3.938h-3.938zm0 7.877h3.938v3.938h-3.938zm3.939-220.554h3.938v3.938h-3.938zm0 7.877h3.938v3.938h-3.938zm0 3.938h3.938v3.938h-3.938zm0 3.939h3.938v3.938h-3.938zm0 7.877h3.938v3.938h-3.938zm0 7.877h3.938v3.938h-3.938zm0 3.938h3.938v3.938h-3.938zm0 11.815h3.938v3.938h-3.938zm0 3.939h3.938v3.938h-3.938zm0 3.938h3.938v3.938h-3.938zm0 3.939h3.938v3.938h-3.938zm0 3.938h3.938v3.938h-3.938zm0 11.816h3.938v3.938h-3.938zm0 3.938h3.938v3.938h-3.938zm0 3.939h3.938v3.938h-3.938zm0 3.938h3.938v3.938h-3.938zm0 7.877h3.938v3.938h-3.938zm0 7.877h3.938v3.938h-3.938zm0 3.938h3.938v3.938h-3.938zm0 3.939h3.938v3.938h-3.938zm0 3.938h3.938v3.938h-3.938zm0 3.939h3.938v3.938h-3.938zm0 3.938h3.938v3.938h-3.938zm0 7.877h3.938v3.938h-3.938zm0 7.877h3.938v3.938h-3.938zm0 15.754h3.938v3.938h-3.938zm0 3.938h3.938v3.938h-3.938zm0 3.939h3.938v3.938h-3.938zm0 15.754h3.938v3.938h-3.938zm0 3.938h3.938v3.938h-3.938zm0 3.939h3.938v3.938h-3.938zm0 3.938h3.938v3.938h-3.938zm0 3.938h3.938v3.938h-3.938zm0 3.939h3.938v3.938h-3.938zm0 3.938h3.938v3.938h-3.938zm0 3.939h3.938v3.938h-3.938zm0 7.877h3.938v3.938h-3.938zm0 7.877h3.938v3.938h-3.938zm3.938-220.554h3.938v3.938h-3.938zm0 7.877h3.938v3.938h-3.938zm0 3.938h3.938v3.938h-3.938zm0 3.939h3.938v3.938h-3.938zm0 7.877h3.938v3.938h-3.938zm0 7.877h3.938v3.938h-3.938zm0 3.938h3.938v3.938h-3.938z"/><path d="m224.492 55.138h3.938v3.938h-3.938zm0 11.816h3.938v3.938h-3.938zm0 7.877h3.938v3.938h-3.938zm0 7.877h3.938v3.938h-3.938zm0 3.938h3.938v3.938h-3.938zm0 3.939h3.938v3.938h-3.938zm0 3.938h3.938v3.938h-3.938zm0 11.815h3.938v3.938h-3.938zm0 7.877h3.938v3.938h-3.938zm0 27.57h3.938v3.938h-3.938zm0 3.938h3.938v3.938h-3.938zm0 3.939h3.938v3.938h-3.938zm0 7.876h3.938v3.938h-3.938zm0 3.939h3.938v3.938h-3.938zm0 3.938h3.938v3.938h-3.938zm0 15.754h3.938v3.938h-3.938zm0 3.939h3.938v3.938h-3.938zm0 11.815h3.938v3.938h-3.938zm0 7.877h3.938v3.938h-3.938zm0 7.877h3.938v3.938h-3.938zm0 3.938h3.938v3.938h-3.938zm0 3.939h3.938v3.938h-3.938zm3.939-204.8h3.938v3.938h-3.938zm0 7.877h3.938v3.938h-3.938zm0 3.938h3.938v3.938h-3.938zm0 3.939h3.938v3.938h-3.938zm0 7.877h3.938v3.938h-3.938zm0 15.753h3.938v3.938h-3.938zm0 3.939h3.938v3.938h-3.938zm0 15.754h3.938v3.938h-3.938zm0 15.754h3.938v3.938h-3.938zm0 7.877h3.938v3.938h-3.938zm0 7.876h3.938v3.938h-3.938zm0 7.877h3.938v3.938h-3.938zm0 7.877h3.938v3.938h-3.938zm0 7.877h3.938v3.938h-3.938zm0 3.939h3.938v3.938h-3.938zm0 3.938h3.938v3.938h-3.938zm0 7.877h3.938v3.938h-3.938zm0 7.877h3.938v3.938h-3.938zm0 7.877h3.938v3.938h-3.938zm0 3.938h3.938v3.938h-3.938zm0 3.939h3.938v3.938h-3.938zm0 7.877h3.938v3.938h-3.938zm0 3.938h3.938v3.938h-3.938zm0 3.939h3.938v3.938h-3.938zm0 15.754h3.938v3.938h-3.938zm0 11.815h3.938v3.938h-3.938zm0 3.938h3.938v3.938h-3.938zm0 7.877h3.938v3.938h-3.938zm0 3.939h3.938v3.938h-3.938zm0 3.938h3.938v3.938h-3.938zm0 3.939h3.938v3.938h-3.938zm3.938-220.554h3.938v3.938h-3.938zm0 23.631h3.938v3.938h-3.938zm0 7.877h3.938v3.938h-3.938zm0 3.938h3.938v3.938h-3.938zm0 19.692h3.938v3.938h-3.938zm0 3.939h3.938v3.938h-3.938zm0 3.938h3.938v3.938h-3.938zm0 31.508h3.938v3.938h-3.938zm0 7.877h3.938v3.938h-3.938zm0 3.938h3.938v3.938h-3.938zm0 3.939h3.938v3.938h-3.938zm0 3.938h3.938v3.938h-3.938zm0 7.877h3.938v3.938h-3.938zm0 3.939h3.938v3.938h-3.938zm0 7.877h3.938v3.938h-3.938zm0 3.938h3.938v3.938h-3.938zm0 3.938h3.938v3.938h-3.938zm0 3.939h3.938v3.938h-3.938zm0 15.754h3.938v3.938h-3.938zm0 3.938h3.938v3.938h-3.938zm0 15.754h3.938v3.938h-3.938zm0 7.877h3.938v3.938h-3.938zm0 7.877h3.938v3.938h-3.938zm0 7.877h3.938v3.938h-3.938zm0 7.877h3.938v3.938h-3.938zm0 3.938h3.938v3.938h-3.938zm3.939-216.615h3.938v3.938h-3.938zm0 3.938h3.938v3.938h-3.938zm0 3.939h3.938v3.938h-3.938zm0 3.938h3.938v3.938h-3.938zm0 3.939h3.938v3.938h-3.938zm0 3.938h3.938v3.938h-3.938zm0 3.939h3.938v3.938h-3.938zm0 15.753h3.938v3.938h-3.938zm0 3.939h3.938v3.938h-3.938zm0 3.938h3.938v3.938h-3.938zm0 11.816h3.938v3.938h-3.938zm0 3.938h3.938v3.938h-3.938zm0 3.939h3.938v3.938h-3.938zm0 3.938h3.938v3.938h-3.938zm0 3.939h3.938v3.938h-3.938zm0 7.877h3.938v3.938h-3.938zm0 11.815h3.938v3.938h-3.938zm0 15.754h3.938v3.938h-3.938zm0 3.938h3.938v3.938h-3.938zm0 3.939h3.938v3.938h-3.938zm0 15.754h3.938v3.938h-3.938zm0 3.938h3.938v3.938h-3.938zm0 3.938h3.938v3.938h-3.938zm0 11.816h3.938v3.938h-3.938zm0 7.877h3.938v3.938h-3.938zm0 3.938h3.938v3.938h-3.938zm0 3.939h3.938v3.938h-3.938zm0 11.815h3.938v3.938h-3.938zm0 3.939h3.938v3.938h-3.938zm0 3.938h3.938v3.938h-3.938zm0 11.815h3.938v3.938h-3.938zm0 3.939h3.938v3.938h-3.938zm0 7.877h3.938v3.938h-3.938zm0 3.938h3.938v3.938h-3.938z"/></svg>