<svg viewBox="0 0 1287 1287" version="1.1" xmlns="http://www.w3.org/2000/svg" xmlns:xlink="http://www.w3.org/1999/xlink"><style>#text{fill:#000}@media (prefers-color-scheme:dark){#text{fill:#fff}}</style><g><g transform="translate(664.886076, 1117.481013)"><path d="M165.818329,104.54021 C154.575409,149.635522 108.901379,177.079925 63.800805,165.834375 C18.7186452,154.591456 -8.72575752,108.914794 2.52242286,63.8221123 C13.7600811,18.7215388 59.4341119,-8.72549446 104.521533,2.51742484 C149.619476,13.7603441 177.061248,59.4422666 165.818329,104.54021 Z" id="Path" fill="#F7931A"/><path d="M121.270168,72.1845926 C122.945821,60.9837619 114.417617,54.9624604 102.756442,50.945629 L106.539155,35.7726859 L97.3033366,33.4709652 L93.6205835,48.2440665 C91.1925969,47.6390427 88.6988469,47.068216 86.2208801,46.5026503 L89.9299387,31.6322191 L80.6993809,29.3304984 L76.9140368,44.4981804 C74.9043058,44.0404668 72.9314023,43.5880142 71.0163706,43.1118869 L71.0268928,43.0645372 L58.2898279,39.8842168 L55.8329055,49.7487342 C55.8329055,49.7487342 62.6854569,51.3191653 62.5407773,51.4164953 C66.2814023,52.3503362 66.9574506,54.8256725 66.8443374,56.7880538 C56.4800178,98.3531843 66.8443374,56.7880538 56.4800178,98.3531843 C56.0223042,99.4895767 54.8622369,101.194165 52.2474822,100.547053 C52.339551,100.68121 45.5343493,98.8714003 45.5343493,98.8714003 L40.9493216,109.443532 L52.9682496,112.439715 C55.2042069,113.00002 57.395445,113.58663 59.5524862,114.139043 L55.7303145,129.485601 L64.9556112,131.787322 L68.7409553,116.603857 C71.2610107,117.287797 73.707411,117.919126 76.1012006,118.513627 L72.3290091,133.626068 L81.5648279,135.927789 L85.3869996,120.610166 C101.13603,123.590566 112.978712,122.38841 117.963582,108.144047 C121.980413,96.6749011 117.763661,90.0590981 109.477466,85.7450158 C115.51192,84.3534612 120.05749,80.3839794 121.270168,72.1845926 L121.270168,72.1845926 Z M100.167992,101.775514 C97.3138588,113.24466 78.0030795,107.044482 71.7423991,105.489834 L76.8140763,85.1584059 C83.0747567,86.7209454 103.151023,89.8144581 100.167992,101.775514 Z M103.024757,72.0188687 C100.420524,82.4515823 84.3479371,77.1510483 79.1342108,75.8515625 L83.7323912,57.4114913 C88.9461175,58.7109771 105.736841,61.1363331 103.024757,72.0188687 Z" fill="#FFF"/></g><path d="M203.13768,300.399037 L203.13768,231.365531 L79.068373,231.365531 L79.068373,183.981585 L179.720625,183.981585 L179.720625,114.948079 L79.068373,114.948079 L79.068373,69.606545 L203.13768,69.606545 L203.13768,0.5730392 L9.63886,0.9815215 L9.63886,300.399037 L203.13768,300.399037 Z M308.309013,300.399037 L308.309013,0.164557 L238.8795,0.164557 L238.8795,300.399037 L308.309013,300.399037 Z M418.821077,300.399037 L418.821077,125.568619 L517.419202,300.399037 L592.600272,300.399037 L592.600272,0.5730392 L523.170759,0.5730392 L523.170759,175.81194 L424.98346,1.3900038 L349.391565,1.3900038 L349.391565,300.399037 L418.821077,300.399037 Z M130.010737,628.454758 C145.622107,628.182437 160.343355,624.982659 174.174481,618.855425 C188.005607,612.72819 200.056489,604.490464 210.327126,594.142246 C220.597764,583.794028 228.677333,571.675721 234.565832,557.787323 C240.454331,543.898925 243.261639,529.193563 242.987755,513.671236 L242.987755,328.220278 L173.558243,328.220278 L173.558243,514.079718 C173.558243,520.343113 172.462708,526.198026 170.271638,531.644457 C168.080569,537.090887 164.930907,541.856514 160.822651,545.941337 C156.714396,550.026159 151.921432,553.294018 146.443758,555.744911 C140.966085,558.195805 135.214527,559.421252 129.189086,559.421252 C116.864321,559.421252 106.182857,555.200268 97.144696,546.758301 C88.106535,537.771691 83.587454,527.287312 83.587454,515.305165 L83.587454,328.220278 L14.157941,328.220278 L14.157941,515.713647 C14.431825,531.235974 17.513016,545.805176 23.401515,559.421252 C29.290014,573.037328 37.711938,585.291797 48.667285,596.184658 C59.348748,606.532876 71.536572,614.49828 85.230756,620.080871 C98.92494,625.663463 113.440775,628.454758 128.778261,628.454758 L130.010737,628.454758 Z M353.910645,628.454758 L353.910645,453.62434 L452.50877,628.454758 L527.68984,628.454758 L527.68984,328.628761 L458.260327,328.628761 L458.260327,503.867661 L360.073028,329.445725 L284.481133,329.445725 L284.481133,628.454758 L353.910645,628.454758 Z M625.877139,628.454758 C646.418415,627.365472 665.453331,622.804087 682.981886,614.770602 C700.510442,606.737117 715.779457,596.048497 728.788932,582.704742 C741.798406,569.360988 752.000574,553.906741 759.395433,536.342003 C766.790292,518.777265 770.487722,499.918999 770.487722,479.767206 C770.487722,459.343092 766.721821,440.144425 759.19002,422.171204 C751.658219,404.197984 741.387581,388.403335 728.378106,374.787259 C715.368631,361.171183 700.031145,350.142161 682.365648,341.700194 C664.700151,333.258227 645.870648,328.4926 625.877139,327.403314 L625.877139,326.994832 L556.447626,326.994832 L556.447626,628.454758 L625.877139,628.454758 Z M625.877139,559.01277 L625.877139,396.43682 C636.558603,397.526106 646.418415,400.453563 655.456577,405.219189 C664.494738,409.984816 672.437365,416.11205 679.284457,423.600892 C686.131549,431.089734 691.47228,439.667862 695.306652,449.335276 C699.141023,459.00269 701.058209,469.146667 701.058209,479.767206 C701.058209,490.115424 699.141023,499.918999 695.306652,509.177931 C691.47228,518.436863 686.20002,526.538428 679.489869,533.482627 C672.779719,540.426826 664.837093,546.145578 655.661989,550.638883 C646.486886,555.132188 636.558603,557.923484 625.877139,559.01277 Z M240.933628,956.51048 L240.933628,887.476974 L116.453495,887.476974 L242.57693,654.642071 L16.622894,654.233589 L16.622894,723.675577 L126.313308,723.675577 L0.189873,956.51048 L240.933628,956.51048 Z M420.053554,956.51048 L454.562898,806.188999 L494.412973,956.51048 L563.020835,956.51048 L652.169972,654.642071 L579.453855,654.642071 L530.565619,820.894361 L486.196463,654.642071 L417.999426,654.642071 L379.792653,821.711326 L323.920383,654.642071 L250.79344,654.642071 L351.034867,956.51048 L420.053554,956.51048 Z M713.7938,956.51048 L726.118566,920.155556 L821.019261,920.155556 L832.933201,956.51048 L906.06014,956.51048 L808.694495,656.684482 L742.962412,656.684482 L640.256032,956.51048 L713.7938,956.51048 Z M798.834683,851.12205 L749.946446,851.12205 L775.006803,778.412203 L798.834683,851.12205 Z M996.03093,956.51048 L996.03093,781.680062 L1094.62906,956.51048 L1169.81013,956.51048 L1169.81013,656.684482 L1100.38061,656.684482 L1100.38061,831.923383 L1002.19331,657.501447 L926.60142,657.501447 L926.60142,956.51048 L996.03093,956.51048 Z M240.933628,1284.5662 L240.933628,1215.5327 L116.453495,1215.5327 L242.57693,982.69779 L16.622894,982.28931 L16.622894,1051.7313 L126.313308,1051.7313 L0.189873,1284.5662 L240.933628,1284.5662 Z M353.088994,1284.5662 L353.088994,984.33172 L283.659482,984.33172 L283.659482,1284.5662 L353.088994,1284.5662 Z M521.938283,1284.97468 C529.88091,1284.97468 537.892007,1284.36196 545.971576,1283.13651 C554.051144,1281.91107 561.9253,1279.93674 569.594043,1277.21352 L569.594043,1284.5662 L639.434381,1284.5662 L639.434381,1116.67998 L509.202692,1116.67998 L509.202692,1185.71349 L569.594043,1185.71349 L569.594043,1200.82733 C561.651416,1206.54608 553.02408,1210.63091 543.712035,1213.0818 C534.39999,1215.5327 525.019474,1216.41774 515.570487,1215.73694 C506.1215,1215.05613 496.946397,1212.7414 488.045177,1208.79274 C479.143958,1204.84408 471.13286,1199.32956 464.011885,1192.2492 C456.069258,1184.35188 450.043817,1175.36527 445.935562,1165.28937 C441.827307,1155.21348 439.773179,1145.00142 439.773179,1134.6532 C439.773179,1124.30498 441.827307,1114.09293 445.935562,1104.01703 C450.043817,1093.94113 456.069258,1084.95452 464.011885,1077.0572 C471.954511,1069.15988 480.992673,1063.23688 491.126369,1059.28822 C501.260065,1055.33956 511.530703,1053.36523 521.938283,1053.36523 C532.345863,1053.36523 542.616501,1055.33956 552.750197,1059.28822 C562.883893,1063.23688 571.922054,1069.15988 579.864681,1077.0572 L629.163743,1028.03933 C614.374025,1013.33396 597.66712,1002.30494 579.04303,994.95226 C560.41894,987.59958 541.384024,983.92324 521.938283,983.92324 C502.492542,983.92324 483.457626,987.59958 464.833536,994.95226 C446.209445,1002.30494 429.502541,1013.33396 414.712822,1028.03933 C399.923104,1042.74469 388.899286,1059.3563 381.641368,1077.87416 C374.38345,1096.39203 370.754492,1115.31837 370.754492,1134.6532 C370.754492,1153.98803 374.38345,1172.8463 381.641368,1191.228 C388.899286,1209.6097 399.923104,1226.15323 414.712822,1240.8586 C429.502541,1255.56396 446.209445,1266.59298 464.833536,1273.94566 C483.457626,1281.29834 502.492542,1284.97468 521.938283,1284.97468 L521.938283,1284.97468 Z"/></g></svg>
