<svg width="249.879" height="317.864" xml:space="preserve" style="clip-rule:evenodd;fill-rule:evenodd;stroke-linecap:round;stroke-linejoin:round;stroke-miterlimit:1.5" xmlns="http://www.w3.org/2000/svg"><path d="M697.789 1253.71c-128.342 44.98-342.634 66.68-370.739 39.89-64.72-61.69-90.913-114.03-84.629-127.15 2.363-4.94 23.962-4.16 14.807-30.93-1.042-3.04 15.637-26.16 6.305-35.89-11.245-11.73-22.895 19.17-22.895 19.17s3.861-60.19-13.372-58.56c-19.77 1.86-14.929 50.33-14.929 50.33s-12.289-51.32-32.907-39.59c-11.81 6.72 10.461 53.19 10.461 53.19s-20.038-37.75-36.065-31.61c-18.767 7.18 12.963 37.47 17.863 56.16 1.483 5.66 11.506 16.06 14.812 19.64 4.525 4.9 25.931 11.53 26.166 12.23 11.669 34.41 84.691 139.92 107.769 146.1 48.046 12.87 245.994 22.58 384.819-28.67z" style="fill:#181312;fill-rule:nonzero" transform="matrix(-.14165 .07619 .09775 .18036 126.293 -161.73)"/><path d="M1726.88 1746.8c-10.12 12.83-11.98 25.58-6.69 38.26" style="fill:none;stroke:#cecccb;stroke-width:3.63px" transform="matrix(.75097 -.02394 .02358 .7396 -1146.605 -1213.202)"/><path d="M1726.88 1746.8c-10.12 12.83-11.98 25.58-6.69 38.26" style="fill:none;stroke:#cecccb;stroke-width:3.86px" transform="matrix(-.64589 -.02159 -.0251 .75086 1381.093 -1235.306)"/><path d="M1726.88 1746.8c-10.12 12.83-11.98 25.58-6.69 38.26" style="fill:none;stroke:#cecccb;stroke-width:2.66px" transform="matrix(-1.03864 -.03472 -.0334 .99944 2086.963 -1653.322)"/><path d="M1726.88 1746.8c-10.12 12.83-11.98 25.58-6.69 38.26" style="fill:none;stroke:#cecccb;stroke-width:2.66px" transform="matrix(1.02718 -.15767 .15172 .98842 -1859.074 -1421.574)"/><ellipse cx="937.754" cy="1999.31" rx="449.149" ry="124.914" style="fill:#cdcdcd" transform="matrix(-.27817 0 0 .1484 385.793 2.616)"/><path d="M773.316 1818.39c-32.798 58.81-51.875 135.09-55.902 193.9-22.011 9.82-95.456-27.17-73.876 21.2 3.533 7.91 18.751 6.66 108.865 4.68-.687-69.89 16.432-139.79 55.376-209.69z" style="fill:#151515" transform="matrix(-.2331 0 0 .36722 313.233 -449.686)"/><path d="M719.37 1815.65c-32.797 58.8 44.435 141.62 40.407 200.43-22.011 9.82-103.85-28.28-82.27 20.08 3.533 7.92 30.846 4.22 120.961 2.24-.687-69.9-50.8-139.55-11.856-209.45z" style="fill:#151515" transform="matrix(.2331 0 0 .36722 -80.767 -447.395)"/><path d="M2431.7 792.132c-9.69 1.571-15.4 9.824-13.84 19.468l1.71 10.57-11.05 1.792-1.53-9.448c-1.57-9.644-9.6-15.669-19.28-14.098-9.69 1.571-15.45 9.831-13.88 19.475l1.53 9.448-.05.007c-15.63 2.534-25.3 15.947-22.78 31.501l24.51 151.173c2.52 15.56 15.93 25.18 31.56 22.64h.05l1.42 8.8c1.57 9.64 9.64 15.66 19.33 14.09 9.69-1.57 15.4-9.82 13.84-19.47l-1.43-8.8 11.05-1.79 1.25 7.68c1.56 9.64 9.59 15.67 19.28 14.1 9.69-1.57 15.4-9.83 13.83-19.47l-1.34-8.33c35.39-9.12 56.98-37.328 51.64-70.271-3.78-23.331-19.36-38.353-42.34-43.567 6.66-10.339 9.1-22.894 6.88-36.582-4.18-25.806-22.96-43.531-48.49-48.813l-2.59-16.007c-1.57-9.643-9.59-15.669-19.28-14.098z" style="fill:#f3932e" transform="translate(-2339.128 -791.884)"/><path d="M699.834 1508.76c-219.307-39.91-481.238-345.23-457.413-342.31 5.43.66 23.962-4.16 14.807-30.93-1.042-3.04 15.637-26.16 6.305-35.89-11.245-11.73-22.895 19.17-22.895 19.17s3.861-60.19-13.372-58.56c-19.77 1.86-14.929 50.33-14.929 50.33s-12.289-51.32-32.907-39.59c-11.81 6.72 10.461 53.19 10.461 53.19s-20.038-37.75-36.065-31.61c-18.767 7.18 12.963 37.47 17.863 56.16 1.483 5.66 11.506 16.06 14.812 19.64 4.525 4.9 25.931 11.53 26.166 12.23 11.669 34.41 280.948 364.58 452.782 367.05 3.422.05 5.753.23 9.402.14 24.161-.59 36.563-20.41 24.983-39.02z" style="fill:#181312;fill-rule:nonzero" transform="matrix(.14883 -.06097 -.07836 -.18958 78.933 461.008)"/><path d="M64.853 48.623c4.109-2.869 10.412-2.673 7.14-6.619-1.295-1.561-5.447-.693-9.556 2.176-4.11 2.868-6.354 6.466-5.336 8.22 2.354 4.057 3.642-.908 7.752-3.777zm55.285-5.503c4.458-2.292 10.677-1.252 7.964-5.601-1.073-1.721-5.304-1.418-9.761.873-4.457 2.291-7.164 5.555-6.39 7.43 1.788 4.336 3.73-.411 8.187-2.703z"/><circle cx="480.768" cy="1226.3" r="66.96" style="fill:#fff" transform="matrix(.11188 .24115 .24115 -.11188 -260.417 110.508)"/><circle cx="480.768" cy="1226.3" r="66.96" transform="matrix(.04491 .0968 .0968 -.04491 -43.727 92.958)"/><circle cx="480.768" cy="1226.3" r="66.96" style="fill:#fff" transform="matrix(.01433 .03089 .03089 -.01433 49.863 92.188)"/><circle cx="480.768" cy="1226.3" r="66.96" style="fill:#fff" transform="matrix(.14978 .21963 .21963 -.14978 -206.747 168.468)"/><circle cx="480.768" cy="1226.3" r="66.96" transform="matrix(.06012 .08816 .08816 -.06012 4.153 115.758)"/><circle cx="480.768" cy="1226.3" r="66.96" style="fill:#fff" transform="matrix(.01918 .02813 .02813 -.01918 96.363 99.708)"/><path d="M117.216 137.399c-6.459.933-14.446-8.303-11.904 5.415 1.005 5.429 6.682 9.199 13.14 8.265 6.46-.933 10.834-6.156 10.264-11.648-1.32-12.697-5.042-2.966-11.5-2.032z"/></svg>