<svg width="100" height="119" xmlns="http://www.w3.org/2000/svg"><g fill-rule="nonzero" stroke="#888" stroke-width=".125" fill="none"><path d="M29.157 1c1.275.196 2.55.883 3.825 1.079-.098.294-.098.392.098.294.392-.294.588-.785.98-.883.196 0-.098.49 0 .687.294.196.687.098.98.196.687.098 1.374.098 1.864.392.294.196.392.589.392.883 0 .098-.196 0-.196 0-.196.098-.588.294-.392.392.098.196.588-.196.686 0 .295.49.197 1.079 0 1.569-.196.49-1.569.784-1.176 1.275.49.686 2.353-1.079 2.451-.196.098.588-.98 1.667-.392 1.863.686.294.686-1.373 1.373-1.471.588-.098 2.844 1.863 3.334 1.667.098 0 2.06-2.255 2.746-1.079 1.373 2.55-5.492 5.198-1.765 5.59.784.098 1.373-.883 2.157-.883.98.098-.098 2.942 2.06 1.471.49-.294.784-2.745 1.666-3.236 1.275-.686 2.648-.98 3.237.392-.099-.294-.197-.784-.099-.882.589-.687 1.373-.98 1.864-1.57.588-.686.686-1.764 1.275-2.45.196-.197 1.47.293 2.647.686.49-.098.98-.196 1.177-.196.447 0 .437.581.483 1.15.078-.892.075-2.04.301-2.72.083-.248.375-.224.74-.082l.015.006-.068-.12c-.098-.588.784-1.078 1.177-1.569.392-.294-.294 1.177.098 1.275.686.196 1.373-.098 1.961.098.588.196-.784.981-.588 1.57.196.686 1.078.784 1.373 1.47.184.185-1.775 1.252-3.314 1.706.459.59.781 1.616 1.548 1.53.687 0 1.471-.49 2.256-.294.294.098-.392.589-.392.883.098.784.392 1.569.686 2.353.294.785 1.275 1.079 2.06 1.373.588.196.98.294 1.274.196.196 1.57 1.765 4.61 1.961 5.59.295 2.353-2.843 3.922-2.157 5.786.392 1.176 4.119 1.667 4.119 3.138 0 1.47-1.177 1.96-.294 3.04.294.49.98.686 1.176 1.274.294.49-.098 1.177 0 1.668.098.294.49.196.589.392.49.686-.687 2.353-.981 2.942-.588.882.883 1.373 1.177 2.255.196.49-.49 1.079-.196 1.471.392.588 1.274.392 1.667.785 1.373 1.274.784 8.433-.393 8.63-1.274.293-3.334-5.1-4.412-2.06-.196.49 1.569.882 1.176 1.177-1.176.98-2.843 1.078-4.02 1.765-.196.098 0 .588-.196.686-.785.392-1.864-.196-2.452.294-.49.393-.294 1.177-.784 1.57-.197.195-.393-.491-.687-.393-.882.196-.98 1.373-1.569 1.765-.294.294-.882-.196-1.177.098-.294.196 0 .785-.294 1.079-.392.49-1.47-.392-1.765-.392-2.452.392-2.844 2.255-3.628 3.824-.196.392-.196-.98-.589-1.275-.294-.392-.882-.49-1.373-.588-.882-.196.981 2.942 2.942 4.217.196.098.883.196.981.784.294 1.373-.98.883-1.177 1.962-.098.294 2.06 3.922 2.354 4.216 1.667 1.667 2.06.49 3.138 1.57.686.686.784 1.764 1.47 2.353 1.57 1.078 5.786 2.55 5.688 5.099-.098 2.648-.686 2.06-2.745 1.57a.54.54 0 0 0-.49.293c-.197.98.392 2.06-.59 2.844-.882.687-5 1.667-5.098 3.236 0 0 2.353 3.236 2.353 3.334.098.098-1.275 1.275-.784 1.667 1.078.981 2.157-.49 1.274 2.746 0 .196-.196.49-.392.49-3.138-.882-.686-2.451-2.157-2.55-.785 0-1.471.687-2.256.59-.392-.099-.294-.785-.588-.883-.588-.196-1.177.294-1.667.098-.196-.098.196-.687 0-.687-1.177.098-.098 1.667-.392 1.765-1.373.393-3.629-.196-4.904.295-.392.196-.196.882-.588 1.078-.392.294-.882-.196-1.275.098-.294.098.098.589-.098.785-.098.098-3.432.98-3.824.784-.196-.196 0-.686-.196-.882-.098-.196-.589-.196-.687-.392-.098-.197.49-.099.392-.295-.392-1.274-3.138.295-3.922-.588 0 0 .196-.098.196-.196-.588-.392 0 1.275-.196 1.961 0 .392-1.863 2.648-2.55 1.961-.392-.392.687-.98.393-1.373-.099-.098-.393.295-.589.295-.196 0-.49-.098-.588-.295-.196-.294.49-.686 0-1.078-.392-.294-.589-.785-.98-.98-.295-.197-.687.293-1.08.195-.196-.196 0-.686-.196-.882-.49-.393-.392 1.373-1.961.882-1.079-.392-1.765-1.47-2.844-1.765-.098 0-3.334.196-3.334.196-.392-.196-.392-.882-.784-1.078-.099-.197.196.49 0 .588-.197.098-.589 0-.687-.196-.098-.294.392-.687.196-.883-1.47-1.47-3.138 1.177-2.844 1.275.589.098 1.177-.098 1.766 0 .392.098-.687.196-.981.392-.196.098.098.589 0 .687-2.452 1.275-.687-.589-2.648-.49-.294 0-4.805 1.078-5.1.49-.097-.196.59-.294.491-.392-.882-.687-1.275 2.255-1.275-1.177-.098-1.373.883-2.648.981-4.02 0-.197-.392-.197-.392-.491-.098-.49.098-.98.294-1.471l1.373-2.256c.098-.588.196-2.745.49-3.432.785-1.569 2.746-2.746 3.825-4.609.392-.686-5.492-1.373-5.884-1.667-.294-.294-.098-.882-.392-1.177-.49-.392-3.629.883-3.825.589-.098-.294.294-.687.098-.883-2.942-2.647-.98 1.373-2.157.098-.98-.98-1.471-3.236-2.256-3.726-.294-.294-.882 0-1.078-.294-1.08-1.962 2.843-2.746 1.47-4.413-.196-.294-2.55-.49-3.04-2.55-.882-3.628 3.629-3.432 2.256-5.687-.294-.49-1.177-.393-1.373-.981-.098-.392.687-.785.589-1.177 0-.294-.589.098-.785-.098-.098-.098-1.47-2.157-1.373-2.451.098-.393.785-.393.883-.785.294-1.667-2.55-2.255-1.667-2.452.294-.098.49.295.686.295l1.863-1.667c.098-.49-1.176.098-.784-.687.294-.686.98-1.177 1.275-1.863.882-2.157-1.275-3.726-1.864-4.805-.098-.196.098-.49.197-.687 0-.196-.197-.49 0-.588.49-.294 1.078 0 1.667-.196.196-.098-.196-.687 0-.589.588.197.98.883 1.667.883.686.098 3.334-.784 3.628-1.47.294-.687-1.863-.785-.98-1.374 1.568-1.078 3.432-1.47 3.04-3.922-.099-1.373-3.727-.785-2.844-2.256.098-.294.588 0 .588-.196.098-.294-.392-.588-.294-.882 0-.197.294-.197.49-.197.686 0 1.275.295 1.961.295.785 0 .098-1.57.393-2.354.196-.686 1.863-3.824 1.667-5.491.294-.099.588-.295.882-.687.392-.392-.49-.196-1.373-.196-.196-.196-.49-.098-.686-.098-.196 0-.294-.098-.392-.196-.785-.98 1.373-4.02 2.157-4.413.49-.294 1.079.294 1.569.294 7.355-.294-7.649-.882 3.53-.588.098 0 .393.098.49.196.589 1.079.981 5.59 3.433 4.609.784-.294-.785-7.06 1.47-7.06.197 0 .197.588.491.686.294.196.785.196 1.177.196.98.196 2.06-.785 2.942-.392.686.294.686 1.274 1.078 1.863.49.784 3.138 5.786 3.138 2.451 0-.686-1.47-.49-2.059-1.078-.98-.883-.784-3.138-2.648-3.433-.294 0-2.55.49-2.353-.882.098-.883 1.47-3.628.588-4.707-.294-.294-2.451.784-2.745-.294-.099-.196.588 0 .686-.196.196-.197-.686-.589-.49-.589.98-.294 2.647.687 2.942-1.275 0-.196-2.256-2.647-2.452-3.04C27.098 2.471 27 1.687 27 1c.686.098 1.863 0 2.157 0Zm33.08 4.323.02.012c.753.44 1.437.939 1.124.47-.209-.314-.67-.376-1.098-.47l-.047-.012Z"/><path d="M41.317 104.555c-.098.392 0 .882-.196 1.275-.098.392-.392.686-.589 1.078 0 .196 1.864 1.57.687 1.962-2.06.49-1.373-2.354-3.138-1.08-1.373.982.392 2.06.588 2.55.098.393-.49.687-.49 1.08.098.391.49.588.686.882.098.392-.686.784-1.078.588-.687-.392-.294-1.961-1.079-2.06-2.648-.49-1.373 1.472-2.942.981-2.55-.588-.98-2.55-2.255-2.745-1.667-.294-.589 2.353-.589 2.55-.392 1.764-2.746 2.353-2.746 4.51 0 .98 1.962.589.295 1.863-.589.49-.785-1.176-1.177-1.667-.294-.294-.98-.098-1.079-.49-.098-.392.589-.686.687-1.079 0-.196-.196-.392-.295-.392-1.078-.392-2.647-.686-3.334-1.961-.098-.392.196-.785.196-1.079 0-.588.099-1.177-.098-1.765-.098-.098-.294.098-.49.196-.49.392-.882.785-1.373 1.177-.49.392-1.275.588-1.47 1.177-.099.392.784.588.686 1.078 0 .49-2.746 3.335-2.844 3.335-.883 0-1.57-1.177-2.452-.981-1.275.294-3.922 2.255-4.903.49-.392-.588-.392-1.275-.882-1.765-.099-.196-.49.392-.589.196-.098-.294.392-.784.196-1.079-.098-.294-.686 0-.882-.196-.589-.98.784-.882.686-1.47-.098-.49-.686-.687-.686-1.177-.098-.295.686-.883.294-.981-1.275-.588-4.02-.588-4.903.785-.196.196-.098.392-.098.686.098.196.588.392.49.588-.588 1.177-1.961 1.667-3.138 1.373-.098 0 .392-.196.392-.392 0-1.275.98-.785 1.079-1.079.49-1.569-.785-2.942.392-4.413.687-.98 2.452-.98 2.844-2.059.294-.588-.294-1.47 0-2.157.392-.785 1.765-.49 2.354-1.177.686-.588 1.47-2.55 2.353-3.236.49-.392.98.686 1.079-.687 0-.49-1.471.49-1.57 0-.195-.49.59-.882.883-1.274 0 0 .196.098.196 0 0-.197-.392-.589-.196-.687 2.746-.784 1.57 2.942 4.903-.49.099 0 .295-.196.393-.392l.196-.197c.196-.098.392-.098.588.099.098.098-.588.196-.49.392.294.588 4.805-.49 5.1-.49 1.96-.099.195 1.765 2.647.49.098-.098-.196-.589 0-.687.294-.196 1.373-.294.98-.392-.588-.098-1.176.098-1.765 0-.294-.098 1.373-2.746 2.844-1.275.196.196-.294.589-.196.883.098.196.49.294.687.196.196-.098-.099-.785 0-.588.392.196.392.882.784 1.078 0 0 3.236-.196 3.334-.196.98.196 1.667 1.177 2.55 1.667v.098c0 .687 1.275.883.882 1.863-.098.197-.49.099-.588.197-.294.49-1.275 4.02-1.079 4.118.196.098 3.433.393 3.53.393.197.196-.294.49-.097.686.49.588 1.078.98 1.765 1.275 1.569.784 1.863-1.863 2.942-1.667.294 0 .49.098.686.196l-.098.882c-.098.295-.196.49 0 .589Z"/><path d="M33.374 96.023c0 .687 1.275.883.882 1.863-.098.197-.49.099-.588.197-.098.294-.392 1.078-.686 1.96l.49 1.08v1.176c.98.098 2.55.295 2.648.295.196.196-.295.49-.098.686.49.588 1.078.98 1.765 1.275 1.569.784 1.863-1.863 2.942-1.667 2.059.294-.098 1.373.588 1.667 1.569.784.196-.196 1.765 0 .785.098 1.57 2.157 3.138 1.275l1.275-2.648c.784-.588 4.217-.196 5.1-.294 1.47-.098 2.647-1.373 4.118-1.373.392 0-.687.49-.785.882-.49 2.06.785.687 1.57 1.864.196.294-.295.686-.099 1.078.098.196.393-.196.589 0 1.863 1.373 2.353 1.57 4.903 1.962 2.942.392 5.982.49 9.022.98.784.098 1.569.687 2.353.785.785.098 1.57-.49 2.354-.393.49.099.784.785 1.275.785.196.098.098-.49.294-.588.49-.49 1.275-.687 1.765-1.275.392-.294.098-.98.392-1.275 1.863-1.471 3.825.392 5.59-.392.588-.294.686-1.177 1.275-1.373.098-.098 3.334.392 3.432.294.294-.098-.294-.49-.392-.785-.197-.98.196-1.569.882-1.765 1.765-1.96 2.55-2.255 3.432-3.726.196-.392-1.569-2.452-1.078-3.432.686-1.373 2.353.098 2.157-1.863-.098-1.668-3.04-1.471-2.452-1.962 1.373-1.176 4.904.393 5.492-.686.098-.392-1.275-3.53.098-4.119-1.177-1.275-2.157-2.55-3.04-4.02-.784-1.275 2.06-3.335 0-4.806-.294-.196-.686.393-.98.393-.49-.098-1.472-1.373-2.158-1.177-.49.196-.686.98-1.275 1.275-.392.098-.882-.098-1.275-.098-2.647-.294-4.903-2.452-7.747-2.452-.49 0-.882.589-1.372.589-.197-.099 0-.589-.197-.687-.392-.196-.98-.392-1.274-.098-.098.196.098 3.04-.098 3.236-.197.294-.883-.392-1.275-.098l-.785 2.55c-.686.196-1.373-.687-2.06-.687-.391 0-.293.785-.686.883-2.059.784-3.236-1.275-4.805-2.06h-.098c.098.295.196.589.196.883-.098 2.648-.686 2.06-2.745 1.57a.54.54 0 0 0-.49.293c-.197.98.392 2.06-.59 2.844-.882.687-5 1.667-5.098 3.236 0 0 2.353 3.236 2.353 3.334.098.098-1.275 1.275-.784 1.667 1.078.981 2.157-.49 1.274 2.746 0 .196-.196.49-.392.49-3.138-.882-.686-2.451-2.157-2.55-.785 0-1.471.687-2.256.59-.392-.099-.294-.785-.588-.883-.588-.196-1.177.294-1.667.098-.196-.098.196-.687 0-.687-1.177.098-.098 1.667-.392 1.765-1.373.393-3.629-.196-4.904.295-.392.196-.196.882-.588 1.078-.392.294-.882-.196-1.275.098-.294.098.098.589-.098.785-.098.098-3.432.98-3.824.784-.196-.196 0-.686-.196-.882-.098-.196-.589-.196-.687-.392-.098-.197.49-.099.392-.295-.392-1.274-3.138.295-3.922-.588 0 0 .196-.098.196-.196-.588-.392 0 1.275-.196 1.961 0 .392-1.863 2.648-2.55 1.961-.392-.392.687-.98.393-1.373-.099-.098-.393.295-.589.295-.196 0-.49-.098-.588-.295-.196-.294.49-.686 0-1.078-.392-.294-.589-.785-.98-.98-.295-.197-.687.293-1.08.195-.196-.196 0-.686-.196-.882-.49-.393-.392 1.373-1.961.882-.098-.098-.196-.098-.294-.098v.098Z"/></g></svg>
