<svg height="1400" viewBox="0 0 1400 1400" width="1400" xmlns="http://www.w3.org/2000/svg" xmlns:xlink="http://www.w3.org/1999/xlink"><linearGradient id="a" x1="0%" x2="0%" y1="0%" y2="100%"><stop offset="0" stop-color="#f9aa4b"/><stop offset="1" stop-color="#f7931a"/></linearGradient><g fill="none"><path d="m0 0h1400v1400h-1400z" fill="#fff" stroke="#000" stroke-linecap="square" stroke-opacity=".490196" stroke-width=".1"/><g transform="translate(779.886076 1170.481013)"><path d="m165.818329 104.54021c-11.24292 45.095312-56.91695 72.539715-102.017524 61.294165-45.0821598-11.242919-72.52656252-56.919581-61.27838214-102.0122627 11.23765824-45.1005735 56.91168904-72.54760676 101.99911014-61.30468746 45.097943 11.24291926 72.539715 56.92484176 61.296796 102.02278516z" fill="url(#a)"/><path d="m121.270168 72.1845926c1.675653-11.2008307-6.852551-17.2221322-18.513726-21.2389636l3.782713-15.1729431-9.2358184-2.3017207-3.6827531 14.7731013c-2.4279866-.6050238-4.9217366-1.1758505-7.3997034-1.7414162l3.7090586-14.8704312-9.2305578-2.3017207-3.7853441 15.167682c-2.009731-.4577136-3.9826345-.9101662-5.8976662-1.3862935l.0105222-.0473497-12.7370649-3.1803204-2.4569224 9.8645174s6.8525514 1.5704311 6.7078718 1.6677611c3.740625.9338409 4.4166733 3.4091772 4.3035601 5.3715585-10.3643196 41.5651305 0 0-10.3643196 41.5651305-.4577136 1.1363924-1.6177809 2.8409807-4.2325356 2.1938687.0920688.134157-6.7131329-1.6756527-6.7131329-1.6756527l-4.5850277 10.5721317 12.018928 2.996183c2.2359573.560305 4.4271954 1.146915 6.5842366 1.699328l-3.8221717 15.346558 9.2252967 2.301721 3.7853441-15.183465c2.5200554.68394 4.9664557 1.315269 7.3602453 1.90977l-3.7721915 15.112441 9.2358188 2.301721 3.8221717-15.317623c15.7490304 2.9804 27.5917124 1.778244 32.5765824-12.466119 4.016831-11.4691459-.199921-18.0849489-8.486116-22.3990312 6.034454-1.3915546 10.580024-5.3610364 11.792702-13.5604232zm-21.102176 29.5909214c-2.8541332 11.469146-22.1649125 5.268968-28.4255929 3.71432l5.0716772-20.3314281c6.2606804 1.5625395 26.3369467 4.6560522 23.3539157 16.6171081zm2.856765-29.7566453c-2.604233 10.4327136-18.6768199 5.1321796-23.8905462 3.8326938l4.5981804-18.4400712c5.2137263 1.2994858 22.0044498 3.7248418 19.2923658 14.6073774z" fill="#fff"/></g><path d="m318.13768 353.399037v-69.033506h-124.069307v-47.383946h100.652252v-69.033506h-100.652252v-45.341534h124.069307v-69.0335058l-193.49882.4084823v299.4175155zm105.171333 0v-300.23448h-69.429513v300.23448zm110.512064 0v-174.830418l98.598125 174.830418h75.18107v-299.8259978h-69.429513v175.2389008l-98.187299-174.4219362h-75.591895v299.0090332zm-288.81034 328.055721c15.61137-.272321 30.332618-3.472099 44.163744-9.599333 13.831126-6.127235 25.882008-14.364961 36.152645-24.713179 10.270638-10.348218 18.350207-22.466525 24.238706-36.354923s8.695807-28.59376 8.421923-44.116087v-185.450958h-69.429512v185.85944c0 6.263395-1.095535 12.118308-3.286605 17.564739-2.191069 5.44643-5.340731 10.212057-9.448987 14.29688-4.108255 4.084822-8.901219 7.352681-14.378893 9.803574-5.477673 2.450894-11.229231 3.676341-17.254672 3.676341-12.324765 0-23.006229-4.220984-32.04439-12.662951-9.038161-8.98661-13.557242-19.470989-13.557242-31.453136v-187.084887h-69.429513v187.493369c.273884 15.522327 3.355075 30.091529 9.243574 43.707605s14.310423 25.870545 25.26577 36.763406c10.681463 10.348218 22.869287 18.313622 36.563471 23.896213 13.694184 5.582592 28.210019 8.373887 43.547505 8.373887zm223.899908 0v-174.830418l98.598125 174.830418h75.18107v-299.825997h-69.429513v175.2389l-98.187299-174.421936h-75.591895v299.009033zm271.966494 0c20.541276-1.089286 39.576192-5.650671 57.104747-13.684156 17.528556-8.033485 32.797571-18.722105 45.807046-32.06586 13.009474-13.343754 23.211642-28.798001 30.606501-46.362739s11.092289-36.423004 11.092289-56.574797c0-20.424114-3.765901-39.622781-11.297702-57.596002-7.531801-17.97322-17.802439-33.767869-30.811914-47.383945s-28.346961-24.645098-46.012458-33.087065-36.495-13.207594-56.488509-14.29688v-.408482h-69.429513v301.459926zm0-69.441988v-162.57595c10.681464 1.089286 20.541276 4.016743 29.579438 8.782369 9.038161 4.765627 16.980788 10.892861 23.82788 18.381703s12.187823 16.06697 16.022195 25.734384c3.834371 9.667414 5.751557 19.811391 5.751557 30.43193 0 10.348218-1.917186 20.151793-5.751557 29.410725-3.834372 9.258932-9.106632 17.360497-15.816783 24.304696-6.71015 6.944199-14.652776 12.662951-23.82788 17.156256-9.175103 4.493305-19.103386 7.284601-29.78485 8.373887zm-384.943511 397.49771v-69.033506h-124.480133l126.123435-232.834903-225.954036-.408482v69.441988h109.690414l-126.123435 232.834903zm179.119926 0 34.509344-150.321481 39.850075 150.321481h68.607862l89.149137-301.868409h-72.716117l-48.888236 166.25229-44.369156-166.25229h-68.197037l-38.206773 167.069255-55.87227-167.069255h-73.126943l100.241427 301.868409zm293.740246 0 12.324766-36.354924h94.900695l11.91394 36.354924h73.126939l-97.365645-299.825998h-65.732083l-102.70638 299.825998zm85.040883-105.38843h-48.888237l25.060357-72.709847zm197.196247 105.38843v-174.830418l98.59813 174.830418h75.18107v-299.825998h-69.42952v175.238901l-98.1873-174.421936h-75.59189v299.009033zm-755.097302 328.05572v-69.0335h-124.480133l126.123435-232.83491-225.954036-.40848v69.44199h109.690414l-126.123435 232.8349zm112.155366 0v-300.23448h-69.429512v300.23448zm168.849289.40848c7.942627 0 15.953724-.61272 24.033293-1.83817 8.079568-1.22544 15.953724-3.19977 23.622467-5.92299v7.35268h69.840338v-167.88622h-130.231689v69.03351h60.391351v15.11384c-7.942627 5.71875-16.569963 9.80358-25.882008 12.25447-9.312045 2.4509-18.692561 3.33594-28.141548 2.65514-9.448987-.68081-18.62409-2.99554-27.52531-6.9442-8.901219-3.94866-16.912317-9.46318-24.033292-16.54354-7.942627-7.89732-13.968068-16.88393-18.076323-26.95983-4.108255-10.07589-6.162383-20.28795-6.162383-30.63617s2.054128-20.56027 6.162383-30.63617 10.133696-19.06251 18.076323-26.95983c7.942626-7.89732 16.980788-13.82032 27.114484-17.76898s20.404334-5.92299 30.811914-5.92299 20.678218 1.97433 30.811914 5.92299 19.171857 9.87166 27.114484 17.76898l49.299062-49.01787c-14.789718-14.70537-31.496623-25.73439-50.120713-33.08707s-37.659006-11.02902-57.104747-11.02902-38.480657 3.67634-57.104747 11.02902c-18.624091 7.35268-35.330995 18.3817-50.120714 33.08707-14.789718 14.70536-25.813536 31.31697-33.071454 49.83483-7.257918 18.51787-10.886876 37.44421-10.886876 56.77904s3.628958 38.1931 10.886876 56.5748 18.281736 34.92523 33.071454 49.6306c14.789719 14.70536 31.496623 25.73438 50.120714 33.08706 18.62409 7.35268 37.659006 11.02902 57.104747 11.02902z" fill="#000"/></g></svg>