<svg width="0" height="0" xmlns="http://www.w3.org/2000/svg" xmlns:xlink="http://www.w3.org/1999/xlink">
<symbol id="logo-horizontal" viewBox="0 0 134 12"><g><path d="m133.83629 9.42089615c-.443181 1.77759655-2.24359 2.85941795-4.021394 2.41613355-1.777078-.4431808-2.858899-2.24369331-2.415511-4.02118615.442973-1.77780392 2.243382-2.85972904 4.020668-2.41654828 1.7777.44318074 2.859418 2.24390065 2.416237 4.02160088z" fill="#f7931a"/><path d="m132.080261 8.14548127c.066052-.44152167-.270118-.67887327-.729786-.83721136l.14911-.598097-.364064-.09073074-.145169.58233577c-.095708-.02384922-.194008-.04635044-.291687-.06864427l.146207-.58617239-.363857-.09073074-.149213.59788961c-.079221-.01804245-.15699-.03587751-.232478-.05464581l.000415-.00186647-.502078-.12536395-.096849.388846s.270119.06190429.264416.0657409c.14745.03681075.174099.13438518.16964.21173961-.408547 1.63844151 0 0-.408547 1.63844151-.018043.04479506-.063771.11198765-.166841.08647935.003629.0052883-.264623-.06605197-.264623-.06605197l-.180735.41673922.47377.11810549c.088138.02208645.174514.04520983.259541.06698521l-.150665.60494066.363649.0907308.149213-.59851181c.099338.02695999.195771.05184613.290131.07528059l-.148694.59571212.364063.0907307.150665-.6038001c.620806.1174834 1.087628.070096 1.284125-.49139764.158338-.45209828-.007881-.71288434-.334511-.88293965.23787-.05485322.41705-.21132484.464852-.53453364zm-.831819 1.16643431c-.112506.45209828-.873711.20769561-1.120499.14641348l.199919-.80143754c.246788.06159322 1.038167.18353532.92058.65502406zm.11261-1.17296693c-.102656.41124353-.736215.20230362-.941733.15107964l.181254-.72688279c.205518.05122398.867385.14682825.760479.57580315z" fill="#fff"/><path d="m7.63783784 11.9027027v-2.74054053h-4.8972973v-1.88108109h3.97297298v-2.74054054h-3.97297298v-1.8h4.8972973v-2.74054054l-7.63783784.01621621v11.88648649zm4.15135136.0162162v-11.9189189h-2.74054056v11.9189189zm4.3621621-.0162162v-6.94054054l3.8918919 6.94054054h2.9675677v-11.9027027h-2.7405407v6.95675676l-3.8756756-6.92432432h-2.9837838v11.87027026zm12.9405406.0162162c.6162162-.0108108 1.1972973-.1378378 1.7432432-.3810811.545946-.2432432 1.0216217-.5702702 1.4270271-.9810811.4054054-.4108107.7243243-.89189179.9567568-1.44324315.2324323-.55135136.3432431-1.13513518.3324324-1.75135139v-7.36216216h-2.7405406v7.37837838c0 .24864864-.0432432.48108108-.1297297.6972973s-.2108108.4054054-.372973.56756753c-.1621622.16216224-.3513513.29189191-.5675676.38918922-.2162162.0972973-.4432432.14594596-.681081.14594596-.4864866 0-.9081082-.16756761-1.2648649-.50270271-.3567568-.35675676-.5351352-.77297298-.5351352-1.24864865v-7.42702703h-2.7405405v7.44324325c.0108108.61621621.1324324 1.1945946.3648649 1.73513514.2324324.54054054.5648648 1.02702711.9972973 1.45945951.4216216.4108107.9027027.727027 1.4432433.9486486.5405405.2216216 1.1135134.3324324 1.7189189.3324324zm8.8378378-.0162162v-6.94054054l3.8918919 6.94054054h2.9675676v-11.9027027h-2.7405406v6.95675676l-3.8756756-6.92432432h-2.9837838v11.87027026zm10.7351352.0648649c.8108108-.0432433 1.5621621-.2243243 2.254054-.5432433.6918919-.3189189 1.2945946-.7432432 1.8081081-1.272973.5135135-.52972968.9162162-1.1432432 1.2081082-1.84054049.2918919-.69729729.4378377-1.44594595.4378377-2.24594594 0-.81081081-.1486486-1.57297297-.4459459-2.28648649-.2972973-.71351351-.7027027-1.34054054-1.2162162-1.88108108s-1.1189189-.97837838-1.8162162-1.31351351c-.6972973-.33513514-1.4405406-.52432432-2.2297297-.56756757v-.01621622h-2.7405406v11.9675676zm0-2.74978378v-6.4540541c.4216216.04324325.8108108.15945946 1.1675675.34864865.3567568.18918919.6702703.43243244.9405405.72972973.2702703.2972973.4810812.63783784.6324325 1.02162163.1513513.38378378.227027.78648648.227027 1.2081081 0 .41081082-.0756757.8-.227027 1.16756758-.1513513.36756756-.3594594.68918919-.6243243.96486486-.2648648.27567567-.5783784.5027027-.9405406.68108112-.3621621.17837833-.754054.28918914-1.1756756.33243243zm15.2918919 2.78221618v-2.74054053h-4.9135135l4.9783783-9.24324326-8.9189189-.01621621v2.75675676h4.3297297l-4.9783784 9.24324324zm7.0702702-.0162162 1.3621622-5.96756759 1.572973 5.96756759h2.708108l3.518919-11.9837838h-2.8702703l-1.9297297 6.60000001-1.7513513-6.60000001h-2.691892l-1.508108 6.63243243-2.2054055-6.63243243h-2.8864865l3.9567568 11.9837838zm10.5932433-.0810811.4864864-1.4432432h3.745946l.4702703 1.4432432h2.8864865l-3.8432433-11.9027027h-2.5945945l-4.0540541 11.9027027zm3.3567567-4.18970272h-1.9297297l.9891892-2.88648648zm7.7837838 4.18970272v-6.94054054l3.8918917 6.94054054h2.9675678v-11.9027027h-2.7405405v6.95675676l-3.8756757-6.92432432h-2.9837838v11.87027026zm17.3189192.0972973v-2.74054053h-4.913513l4.978377-9.24324326-8.918918-.01621621v2.75675676h4.32973l-4.978379 9.24324324zm3.81081-.0810811v-11.9189189h-2.74054v11.9189189zm7.281081.0324324c.313514 0 .62973-.0243243.948649-.072973.318919-.0486486.62973-.127027.932433-.2351351v.2918919h2.756756v-6.66486483h-5.14054v2.74054054h2.383784v.59999996c-.313514.22702708-.654054.38918923-1.021622.48648653-.367567.0972973-.737838.13243245-1.11081.10540544-.372974-.0270271-.735136-.11891895-1.086488-.27567573-.351351-.15675678-.667566-.37567566-.948648-.65675674-.313513-.31351351-.551351-.67027027-.713513-1.07027027-.162163-.4-.243243-.80540541-.243243-1.21621621 0-.41081082.08108-.81621623.243243-1.21621622.162162-.4.4-.75675676.713513-1.07027028.313513-.31351351.67027-.54864864 1.07027-.7054054.4-.15675675.805405-.23513513 1.216216-.23513513s.816217.07837838 1.216217.23513513c.4.15675676.756756.39189189 1.07027.7054054l1.945946-1.94594594c-.583784-.58378379-1.243243-1.02162162-1.978379-1.31351352-.735134-.29189188-1.486486-.43783783-2.254054-.43783783-.767567 0-1.518919.14594595-2.254054.43783783-.735134.2918919-1.394594.72972973-1.978377 1.31351352-.583784.58378379-1.01892 1.24324324-1.305407 1.97837838-.286486.73513513-.429729 1.48648649-.429729 2.25405406 0 .76756756.143243 1.51621621.429729 2.24594594.286487.72972975.721623 1.38648646 1.305407 1.97027027.583783.5837838 1.243243 1.0216216 1.978377 1.3135135.735135.2918919 1.486487.4378378 2.254054.4378378z" fill="currentColor"/></g></symbol>
<symbol id="logo-square" viewBox="0 0 1400 1400"><path d="m0 0h1400v1400h-1400z" fill="#fff" stroke="#000" stroke-linecap="square" stroke-opacity=".490196" stroke-width=".1"/><g transform="translate(779.886076 1170.481013)"><path d="m165.818329 104.54021c-11.24292 45.095312-56.91695 72.539715-102.017524 61.294165-45.0821598-11.242919-72.52656252-56.919581-61.27838214-102.0122627 11.23765824-45.1005735 56.91168904-72.54760676 101.99911014-61.30468746 45.097943 11.24291926 72.539715 56.92484176 61.296796 102.02278516z" fill="#f7931a"/><path d="m121.270168 72.1845926c1.675653-11.2008307-6.852551-17.2221322-18.513726-21.2389636l3.782713-15.1729431-9.2358184-2.3017207-3.6827531 14.7731013c-2.4279866-.6050238-4.9217366-1.1758505-7.3997034-1.7414162l3.7090586-14.8704312-9.2305578-2.3017207-3.7853441 15.167682c-2.009731-.4577136-3.9826345-.9101662-5.8976662-1.3862935l.0105222-.0473497-12.7370649-3.1803204-2.4569224 9.8645174s6.8525514 1.5704311 6.7078718 1.6677611c3.740625.9338409 4.4166733 3.4091772 4.3035601 5.3715585-10.3643196 41.5651305 0 0-10.3643196 41.5651305-.4577136 1.1363924-1.6177809 2.8409807-4.2325356 2.1938687.0920688.134157-6.7131329-1.6756527-6.7131329-1.6756527l-4.5850277 10.5721317 12.018928 2.996183c2.2359573.560305 4.4271954 1.146915 6.5842366 1.699328l-3.8221717 15.346558 9.2252967 2.301721 3.7853441-15.183465c2.5200554.68394 4.9664557 1.315269 7.3602453 1.90977l-3.7721915 15.112441 9.2358188 2.301721 3.8221717-15.317623c15.7490304 2.9804 27.5917124 1.778244 32.5765824-12.466119 4.016831-11.4691459-.199921-18.0849489-8.486116-22.3990312 6.034454-1.3915546 10.580024-5.3610364 11.792702-13.5604232zm-21.102176 29.5909214c-2.8541332 11.469146-22.1649125 5.268968-28.4255929 3.71432l5.0716772-20.3314281c6.2606804 1.5625395 26.3369467 4.6560522 23.3539157 16.6171081zm2.856765-29.7566453c-2.604233 10.4327136-18.6768199 5.1321796-23.8905462 3.8326938l4.5981804-18.4400712c5.2137263 1.2994858 22.0044498 3.7248418 19.2923658 14.6073774z" fill="#fff"/></g><path d="m318.13768 353.399037v-69.033506h-124.069307v-47.383946h100.652252v-69.033506h-100.652252v-45.341534h124.069307v-69.0335058l-193.49882.4084823v299.4175155zm105.171333 0v-300.23448h-69.429513v300.23448zm110.512064 0v-174.830418l98.598125 174.830418h75.18107v-299.8259978h-69.429513v175.2389008l-98.187299-174.4219362h-75.591895v299.0090332zm-288.81034 328.055721c15.61137-.272321 30.332618-3.472099 44.163744-9.599333 13.831126-6.127235 25.882008-14.364961 36.152645-24.713179 10.270638-10.348218 18.350207-22.466525 24.238706-36.354923s8.695807-28.59376 8.421923-44.116087v-185.450958h-69.429512v185.85944c0 6.263395-1.095535 12.118308-3.286605 17.564739-2.191069 5.44643-5.340731 10.212057-9.448987 14.29688-4.108255 4.084822-8.901219 7.352681-14.378893 9.803574-5.477673 2.450894-11.229231 3.676341-17.254672 3.676341-12.324765 0-23.006229-4.220984-32.04439-12.662951-9.038161-8.98661-13.557242-19.470989-13.557242-31.453136v-187.084887h-69.429513v187.493369c.273884 15.522327 3.355075 30.091529 9.243574 43.707605s14.310423 25.870545 25.26577 36.763406c10.681463 10.348218 22.869287 18.313622 36.563471 23.896213 13.694184 5.582592 28.210019 8.373887 43.547505 8.373887zm223.899908 0v-174.830418l98.598125 174.830418h75.18107v-299.825997h-69.429513v175.2389l-98.187299-174.421936h-75.591895v299.009033zm271.966494 0c20.541276-1.089286 39.576192-5.650671 57.104747-13.684156 17.528556-8.033485 32.797571-18.722105 45.807046-32.06586 13.009474-13.343754 23.211642-28.798001 30.606501-46.362739s11.092289-36.423004 11.092289-56.574797c0-20.424114-3.765901-39.622781-11.297702-57.596002-7.531801-17.97322-17.802439-33.767869-30.811914-47.383945s-28.346961-24.645098-46.012458-33.087065-36.495-13.207594-56.488509-14.29688v-.408482h-69.429513v301.459926zm0-69.441988v-162.57595c10.681464 1.089286 20.541276 4.016743 29.579438 8.782369 9.038161 4.765627 16.980788 10.892861 23.82788 18.381703s12.187823 16.06697 16.022195 25.734384c3.834371 9.667414 5.751557 19.811391 5.751557 30.43193 0 10.348218-1.917186 20.151793-5.751557 29.410725-3.834372 9.258932-9.106632 17.360497-15.816783 24.304696-6.71015 6.944199-14.652776 12.662951-23.82788 17.156256-9.175103 4.493305-19.103386 7.284601-29.78485 8.373887zm-384.943511 397.49771v-69.033506h-124.480133l126.123435-232.834903-225.954036-.408482v69.441988h109.690414l-126.123435 232.834903zm179.119926 0 34.509344-150.321481 39.850075 150.321481h68.607862l89.149137-301.868409h-72.716117l-48.888236 166.25229-44.369156-166.25229h-68.197037l-38.206773 167.069255-55.87227-167.069255h-73.126943l100.241427 301.868409zm293.740246 0 12.324766-36.354924h94.900695l11.91394 36.354924h73.126939l-97.365645-299.825998h-65.732083l-102.70638 299.825998zm85.040883-105.38843h-48.888237l25.060357-72.709847zm197.196247 105.38843v-174.830418l98.59813 174.830418h75.18107v-299.825998h-69.42952v175.238901l-98.1873-174.421936h-75.59189v299.009033zm-755.097302 328.05572v-69.0335h-124.480133l126.123435-232.83491-225.954036-.40848v69.44199h109.690414l-126.123435 232.8349zm112.155366 0v-300.23448h-69.429512v300.23448zm168.849289.40848c7.942627 0 15.953724-.61272 24.033293-1.83817 8.079568-1.22544 15.953724-3.19977 23.622467-5.92299v7.35268h69.840338v-167.88622h-130.231689v69.03351h60.391351v15.11384c-7.942627 5.71875-16.569963 9.80358-25.882008 12.25447-9.312045 2.4509-18.692561 3.33594-28.141548 2.65514-9.448987-.68081-18.62409-2.99554-27.52531-6.9442-8.901219-3.94866-16.912317-9.46318-24.033292-16.54354-7.942627-7.89732-13.968068-16.88393-18.076323-26.95983-4.108255-10.07589-6.162383-20.28795-6.162383-30.63617s2.054128-20.56027 6.162383-30.63617 10.133696-19.06251 18.076323-26.95983c7.942626-7.89732 16.980788-13.82032 27.114484-17.76898s20.404334-5.92299 30.811914-5.92299 20.678218 1.97433 30.811914 5.92299 19.171857 9.87166 27.114484 17.76898l49.299062-49.01787c-14.789718-14.70537-31.496623-25.73439-50.120713-33.08707s-37.659006-11.02902-57.104747-11.02902-38.480657 3.67634-57.104747 11.02902c-18.624091 7.35268-35.330995 18.3817-50.120714 33.08707-14.789718 14.70536-25.813536 31.31697-33.071454 49.83483-7.257918 18.51787-10.886876 37.44421-10.886876 56.77904s3.628958 38.1931 10.886876 56.5748 18.281736 34.92523 33.071454 49.6306c14.789719 14.70536 31.496623 25.73438 50.120714 33.08706 18.62409 7.35268 37.659006 11.02902 57.104747 11.02902z" fill="#000"/></symbol>
<symbol id="github" viewBox="0 0 25 24"><path clip-rule="evenodd" d="M12.75.3c-6.6 0-12 5.4-12 12 0 5.325 3.45 9.825 8.175 11.4.6.075.825-.225.825-.6v-2.025C6.375 21.825 5.7 19.5 5.7 19.5c-.525-1.35-1.35-1.725-1.35-1.725-1.125-.75.075-.75.075-.75 1.2.075 1.875 1.2 1.875 1.2 1.05 1.8 2.775 1.275 3.525.975a2.59 2.59 0 0 1 .75-1.575c-2.7-.3-5.475-1.35-5.475-5.925 0-1.275.45-2.4 1.2-3.225-.15-.3-.525-1.5.15-3.15 0 0 .975-.3 3.3 1.2.975-.3 1.95-.375 3-.375s2.025.15 3 .375c2.325-1.575 3.3-1.275 3.3-1.275.675 1.65.225 2.85.15 3.15.75.825 1.2 1.875 1.2 3.225 0 4.575-2.775 5.625-5.475 5.925.45.375.825 1.125.825 2.25v3.3c0 .3.225.675.825.6a12.015 12.015 0 0 0 8.175-11.4c0-6.6-5.4-12-12-12z" fill="currentColor" fill-rule="evenodd"></path></symbol>
<symbol id="twitter" viewBox="0 0 37 37"><path d="M36 18c0 9.945-8.055 18-18 18S0 27.945 0 18 8.055 0 18 0s18 8.055 18 18zm-21.294 9.495c7.983 0 12.348-6.615 12.348-12.348 0-.189 0-.378-.009-.558a8.891 8.891 0 0 0 2.169-2.25 8.808 8.808 0 0 1-2.493.684 4.337 4.337 0 0 0 1.908-2.403 8.788 8.788 0 0 1-2.754 1.053 4.319 4.319 0 0 0-3.168-1.368 4.34 4.34 0 0 0-4.338 4.338c0 .342.036.675.117.99a12.311 12.311 0 0 1-8.946-4.536 4.353 4.353 0 0 0-.585 2.178 4.32 4.32 0 0 0 1.935 3.609 4.263 4.263 0 0 1-1.962-.54v.054a4.345 4.345 0 0 0 3.483 4.257 4.326 4.326 0 0 1-1.962.072 4.333 4.333 0 0 0 4.05 3.015 8.724 8.724 0 0 1-6.426 1.791 12.091 12.091 0 0 0 6.633 1.962z" fill="currentColor"></path></symbol>
<symbol id="telegram" viewBox="0 0 24 24"><path d="m12 24c6.629 0 12-5.371 12-12s-5.371-12-12-12-12 5.371-12 12 5.371 12 12 12zm-6.509-12.26 11.57-4.461c.537-.194 1.006.131.832.943l.001-.001-1.97 9.281c-.146.658-.537.818-1.084.508l-3-2.211-1.447 1.394c-.16.16-.295.295-.605.295l.213-3.053 5.56-5.023c.242-.213-.054-.333-.373-.121l-6.871 4.326-2.962-.924c-.643-.204-.657-.643.136-.953z" fill="currentColor"/></symbol>
<symbol id="url" viewBox="0 0 24 24"><path d="m12 0c6.627417 0 12 5.372583 12 12s-5.372583 12-12 12-12-5.372583-12-12 5.372583-12 12-12zm1.329782 9.0323458c-.0667318-.04744337-.1733195-.04194992-.2358077.01157441-.3929297.33651004-.7775387.7680243-1.0313191 1.31869039-.039856.0864557-.0100125.1903023.0685346.2385976.2945239.1811073.5605079.4462613.7388753.7980766l.0458813.090899c.1205149.2630637.2198069.6859546.14089 1.1366062l-.0318931.1668805c-.1566542.6076256-.7340498 1.1681654-1.2008139 1.6776821l-.1196965.1295672c-.4424545.4787276-1.2897918 1.3937266-1.6486396 1.7820331-.70850482.7659092-1.87983297.7785705-2.60295448.0281429-.7231215-.7504277-.73507553-1.9910642-.02657066-2.7569734l1.08010589-1.1764779.03056112-.0440384c.02431195-.047604.02959038-.1044534.01326107-.1574857-.23982939-.7793931-.30553493-1.8290518-.15415424-2.63946662.0042158-.02259068-.02202204-.03701464-.03724886-.02056369l-2.25753587 2.44046891-.14769908.1689201c-1.32886698 1.6084784-1.26742081 4.0882066.17560106 5.6165848 1.5096465 1.5666591 3.95500755 1.5401907 5.43414495-.0587827l.0844852-.0971774c.602752-.678021 2.4443687-2.5054057 2.8436233-3.2389285l.0505873-.1061753.0042636-.0019012.1091501-.2291667c.3717884-.8497628.4323405-1.8001215.2304719-2.7275976l-.0010817-.0004994-.0544076-.2079177c-.2428287-.8299915-.784576-1.63245089-1.5006143-2.1415716zm4.5528854-2.84399015c-1.5092608-1.59595493-3.9662842-1.58267314-5.4600457.02946621l-2.347696 2.53377232-.0045784.00521156c-1.67658954 1.83444806-1.31173065 4.87020156.6035082 6.21500466.0631065.0443313.1470637.0355354.2012699-.0204651.4032052-.4166025.7443021-.8201284 1.0429768-1.3333391.045694-.0785179.0172739-.1804036-.0593911-.2243244-.2503981-.1434483-.4997369-.3944937-.6689195-.6720437l-.0777395-.140491-.06737-.1570582c-.122297-.3185258-.1689689-.662693-.1226219-1.0178318l.0313383-.1783571.0502283-.1822542c.1919467-.54292.7377411-1.05125446 1.1646833-1.52493933-.0009981-.00035183-.0019686-.00073299-.0029667-.00108482l1.7773804-1.91826552.1155026-.1144016c.7142057-.64859865 1.7955626-.61652266 2.4735565.10041614.7228969.74896972.7348472 1.98719595.0265624 2.75161713l-1.0765819 1.1706738-.0309666.0447917c-.0244734.0484392-.0291939.1062996-.0117051.1598886.2478789.7601111.3088504 1.8318899.1427383 2.6416392-.0046582.022664.0217934.0374998.0371264.0209342l2.2912993-2.4729341.1461554-.1668792c1.3149775-1.5890449 1.2541597-4.03882228-.1737437-5.54874635z" fill="currentColor" fill-rule="evenodd"/></symbol>
<symbol id="close" viewBox="0 0 24 24"><path d="M0,22.2739 L21.9971,0 M22.2738,22.2739 L0,0" stroke="currentColor" stroke-width="2"></path></symbol>
</svg>
