<svg shape-rendering="crispEdges" viewBox="0 0 256 256" xmlns="http://www.w3.org/2000/svg"><path d="m0 0h256v256h-256z" fill="#f5f5f7"/><path d="m19.320755 19.320755h4.830189v4.830189h-4.830189z"/><path d="m19.320755 24.150943h4.830189v4.830189h-4.830189z"/><path d="m19.320755 28.981132h4.830189v4.830189h-4.830189z"/><path d="m19.320755 33.811321h4.830189v4.830189h-4.830189z"/><path d="m19.320755 38.641509h4.830189v4.830189h-4.830189z"/><path d="m19.320755 43.471698h4.830189v4.830189h-4.830189z"/><path d="m19.320755 48.301887h4.830189v4.830189h-4.830189z"/><path d="m19.320755 67.622642h4.830189v4.830189h-4.830189z"/><path d="m19.320755 82.113208h4.830189v4.830189h-4.830189z"/><path d="m19.320755 86.943396h4.830189v4.830189h-4.830189z"/><path d="m19.320755 96.603774h4.830189v4.830189h-4.830189z"/><path d="m19.320755 101.433962h4.830189v4.830189h-4.830189z"/><path d="m19.320755 111.09434h4.830189v4.830189h-4.830189z"/><path d="m19.320755 115.924528h4.830189v4.830189h-4.830189z"/><path d="m19.320755 135.245283h4.830189v4.830189h-4.830189z"/><path d="m19.320755 140.075472h4.830189v4.830189h-4.830189z"/><path d="m19.320755 149.735849h4.830189v4.830189h-4.830189z"/><path d="m19.320755 169.056604h4.830189v4.830189h-4.830189z"/><path d="m19.320755 193.207547h4.830189v4.830189h-4.830189z"/><path d="m19.320755 202.867925h4.830189v4.830189h-4.830189z"/><path d="m19.320755 207.698113h4.830189v4.830189h-4.830189z"/><path d="m19.320755 212.528302h4.830189v4.830189h-4.830189z"/><path d="m19.320755 217.358491h4.830189v4.830189h-4.830189z"/><path d="m19.320755 222.188679h4.830189v4.830189h-4.830189z"/><path d="m19.320755 227.018868h4.830189v4.830189h-4.830189z"/><path d="m19.320755 231.849057h4.830189v4.830189h-4.830189z"/><path d="m24.150943 19.320755h4.830189v4.830189h-4.830189z"/><path d="m24.150943 48.301887h4.830189v4.830189h-4.830189z"/><path d="m24.150943 57.962264h4.830189v4.830189h-4.830189z"/><path d="m24.150943 72.45283h4.830189v4.830189h-4.830189z"/><path d="m24.150943 77.283019h4.830189v4.830189h-4.830189z"/><path d="m24.150943 82.113208h4.830189v4.830189h-4.830189z"/><path d="m24.150943 91.773585h4.830189v4.830189h-4.830189z"/><path d="m24.150943 101.433962h4.830189v4.830189h-4.830189z"/><path d="m24.150943 106.264151h4.830189v4.830189h-4.830189z"/><path d="m24.150943 111.09434h4.830189v4.830189h-4.830189z"/><path d="m24.150943 115.924528h4.830189v4.830189h-4.830189z"/><path d="m24.150943 120.754717h4.830189v4.830189h-4.830189z"/><path d="m24.150943 130.415094h4.830189v4.830189h-4.830189z"/><path d="m24.150943 154.566038h4.830189v4.830189h-4.830189z"/><path d="m24.150943 159.396226h4.830189v4.830189h-4.830189z"/><path d="m24.150943 169.056604h4.830189v4.830189h-4.830189z"/><path d="m24.150943 173.886792h4.830189v4.830189h-4.830189z"/><path d="m24.150943 178.716981h4.830189v4.830189h-4.830189z"/><path d="m24.150943 188.377358h4.830189v4.830189h-4.830189z"/><path d="m24.150943 202.867925h4.830189v4.830189h-4.830189z"/><path d="m24.150943 231.849057h4.830189v4.830189h-4.830189z"/><path d="m28.981132 19.320755h4.830189v4.830189h-4.830189z"/><path d="m28.981132 28.981132h4.830189v4.830189h-4.830189z"/><path d="m28.981132 33.811321h4.830189v4.830189h-4.830189z"/><path d="m28.981132 38.641509h4.830189v4.830189h-4.830189z"/><path d="m28.981132 48.301887h4.830189v4.830189h-4.830189z"/><path d="m28.981132 57.962264h4.830189v4.830189h-4.830189z"/><path d="m28.981132 82.113208h4.830189v4.830189h-4.830189z"/><path d="m28.981132 86.943396h4.830189v4.830189h-4.830189z"/><path d="m28.981132 125.584906h4.830189v4.830189h-4.830189z"/><path d="m28.981132 144.90566h4.830189v4.830189h-4.830189z"/><path d="m28.981132 169.056604h4.830189v4.830189h-4.830189z"/><path d="m28.981132 178.716981h4.830189v4.830189h-4.830189z"/><path d="m28.981132 188.377358h4.830189v4.830189h-4.830189z"/><path d="m28.981132 202.867925h4.830189v4.830189h-4.830189z"/><path d="m28.981132 212.528302h4.830189v4.830189h-4.830189z"/><path d="m28.981132 217.358491h4.830189v4.830189h-4.830189z"/><path d="m28.981132 222.188679h4.830189v4.830189h-4.830189z"/><path d="m28.981132 231.849057h4.830189v4.830189h-4.830189z"/><path d="m33.811321 19.320755h4.830189v4.830189h-4.830189z"/><path d="m33.811321 28.981132h4.830189v4.830189h-4.830189z"/><path d="m33.811321 33.811321h4.830189v4.830189h-4.830189z"/><path d="m33.811321 38.641509h4.830189v4.830189h-4.830189z"/><path d="m33.811321 48.301887h4.830189v4.830189h-4.830189z"/><path d="m33.811321 57.962264h4.830189v4.830189h-4.830189z"/><path d="m33.811321 82.113208h4.830189v4.830189h-4.830189z"/><path d="m33.811321 86.943396h4.830189v4.830189h-4.830189z"/><path d="m33.811321 91.773585h4.830189v4.830189h-4.830189z"/><path d="m33.811321 101.433962h4.830189v4.830189h-4.830189z"/><path d="m33.811321 106.264151h4.830189v4.830189h-4.830189z"/><path d="m33.811321 111.09434h4.830189v4.830189h-4.830189z"/><path d="m33.811321 130.415094h4.830189v4.830189h-4.830189z"/><path d="m33.811321 144.90566h4.830189v4.830189h-4.830189z"/><path d="m33.811321 169.056604h4.830189v4.830189h-4.830189z"/><path d="m33.811321 173.886792h4.830189v4.830189h-4.830189z"/><path d="m33.811321 178.716981h4.830189v4.830189h-4.830189z"/><path d="m33.811321 188.377358h4.830189v4.830189h-4.830189z"/><path d="m33.811321 193.207547h4.830189v4.830189h-4.830189z"/><path d="m33.811321 202.867925h4.830189v4.830189h-4.830189z"/><path d="m33.811321 212.528302h4.830189v4.830189h-4.830189z"/><path d="m33.811321 217.358491h4.830189v4.830189h-4.830189z"/><path d="m33.811321 222.188679h4.830189v4.830189h-4.830189z"/><path d="m33.811321 231.849057h4.830189v4.830189h-4.830189z"/><path d="m38.641509 19.320755h4.830189v4.830189h-4.830189z"/><path d="m38.641509 28.981132h4.830189v4.830189h-4.830189z"/><path d="m38.641509 33.811321h4.830189v4.830189h-4.830189z"/><path d="m38.641509 38.641509h4.830189v4.830189h-4.830189z"/><path d="m38.641509 48.301887h4.830189v4.830189h-4.830189z"/><path d="m38.641509 57.962264h4.830189v4.830189h-4.830189z"/><path d="m38.641509 62.792453h4.830189v4.830189h-4.830189z"/><path d="m38.641509 67.622642h4.830189v4.830189h-4.830189z"/><path d="m38.641509 77.283019h4.830189v4.830189h-4.830189z"/><path d="m38.641509 111.09434h4.830189v4.830189h-4.830189z"/><path d="m38.641509 115.924528h4.830189v4.830189h-4.830189z"/><path d="m38.641509 120.754717h4.830189v4.830189h-4.830189z"/><path d="m38.641509 125.584906h4.830189v4.830189h-4.830189z"/><path d="m38.641509 130.415094h4.830189v4.830189h-4.830189z"/><path d="m38.641509 135.245283h4.830189v4.830189h-4.830189z"/><path d="m38.641509 140.075472h4.830189v4.830189h-4.830189z"/><path d="m38.641509 144.90566h4.830189v4.830189h-4.830189z"/><path d="m38.641509 164.226415h4.830189v4.830189h-4.830189z"/><path d="m38.641509 169.056604h4.830189v4.830189h-4.830189z"/><path d="m38.641509 173.886792h4.830189v4.830189h-4.830189z"/><path d="m38.641509 183.54717h4.830189v4.830189h-4.830189z"/><path d="m38.641509 188.377358h4.830189v4.830189h-4.830189z"/><path d="m38.641509 193.207547h4.830189v4.830189h-4.830189z"/><path d="m38.641509 202.867925h4.830189v4.830189h-4.830189z"/><path d="m38.641509 212.528302h4.830189v4.830189h-4.830189z"/><path d="m38.641509 217.358491h4.830189v4.830189h-4.830189z"/><path d="m38.641509 222.188679h4.830189v4.830189h-4.830189z"/><path d="m38.641509 231.849057h4.830189v4.830189h-4.830189z"/><path d="m43.471698 19.320755h4.830189v4.830189h-4.830189z"/><path d="m43.471698 48.301887h4.830189v4.830189h-4.830189z"/><path d="m43.471698 57.962264h4.830189v4.830189h-4.830189z"/><path d="m43.471698 62.792453h4.830189v4.830189h-4.830189z"/><path d="m43.471698 67.622642h4.830189v4.830189h-4.830189z"/><path d="m43.471698 72.45283h4.830189v4.830189h-4.830189z"/><path d="m43.471698 77.283019h4.830189v4.830189h-4.830189z"/><path d="m43.471698 86.943396h4.830189v4.830189h-4.830189z"/><path d="m43.471698 91.773585h4.830189v4.830189h-4.830189z"/><path d="m43.471698 115.924528h4.830189v4.830189h-4.830189z"/><path d="m43.471698 135.245283h4.830189v4.830189h-4.830189z"/><path d="m43.471698 144.90566h4.830189v4.830189h-4.830189z"/><path d="m43.471698 154.566038h4.830189v4.830189h-4.830189z"/><path d="m43.471698 169.056604h4.830189v4.830189h-4.830189z"/><path d="m43.471698 178.716981h4.830189v4.830189h-4.830189z"/><path d="m43.471698 202.867925h4.830189v4.830189h-4.830189z"/><path d="m43.471698 231.849057h4.830189v4.830189h-4.830189z"/><path d="m48.301887 19.320755h4.830189v4.830189h-4.830189z"/><path d="m48.301887 24.150943h4.830189v4.830189h-4.830189z"/><path d="m48.301887 28.981132h4.830189v4.830189h-4.830189z"/><path d="m48.301887 33.811321h4.830189v4.830189h-4.830189z"/><path d="m48.301887 38.641509h4.830189v4.830189h-4.830189z"/><path d="m48.301887 43.471698h4.830189v4.830189h-4.830189z"/><path d="m48.301887 48.301887h4.830189v4.830189h-4.830189z"/><path d="m48.301887 57.962264h4.830189v4.830189h-4.830189z"/><path d="m48.301887 67.622642h4.830189v4.830189h-4.830189z"/><path d="m48.301887 77.283019h4.830189v4.830189h-4.830189z"/><path d="m48.301887 86.943396h4.830189v4.830189h-4.830189z"/><path d="m48.301887 96.603774h4.830189v4.830189h-4.830189z"/><path d="m48.301887 106.264151h4.830189v4.830189h-4.830189z"/><path d="m48.301887 115.924528h4.830189v4.830189h-4.830189z"/><path d="m48.301887 125.584906h4.830189v4.830189h-4.830189z"/><path d="m48.301887 135.245283h4.830189v4.830189h-4.830189z"/><path d="m48.301887 144.90566h4.830189v4.830189h-4.830189z"/><path d="m48.301887 154.566038h4.830189v4.830189h-4.830189z"/><path d="m48.301887 164.226415h4.830189v4.830189h-4.830189z"/><path d="m48.301887 173.886792h4.830189v4.830189h-4.830189z"/><path d="m48.301887 183.54717h4.830189v4.830189h-4.830189z"/><path d="m48.301887 193.207547h4.830189v4.830189h-4.830189z"/><path d="m48.301887 202.867925h4.830189v4.830189h-4.830189z"/><path d="m48.301887 207.698113h4.830189v4.830189h-4.830189z"/><path d="m48.301887 212.528302h4.830189v4.830189h-4.830189z"/><path d="m48.301887 217.358491h4.830189v4.830189h-4.830189z"/><path d="m48.301887 222.188679h4.830189v4.830189h-4.830189z"/><path d="m48.301887 227.018868h4.830189v4.830189h-4.830189z"/><path d="m48.301887 231.849057h4.830189v4.830189h-4.830189z"/><path d="m53.132075 57.962264h4.830189v4.830189h-4.830189z"/><path d="m53.132075 62.792453h4.830189v4.830189h-4.830189z"/><path d="m53.132075 67.622642h4.830189v4.830189h-4.830189z"/><path d="m53.132075 72.45283h4.830189v4.830189h-4.830189z"/><path d="m53.132075 77.283019h4.830189v4.830189h-4.830189z"/><path d="m53.132075 91.773585h4.830189v4.830189h-4.830189z"/><path d="m53.132075 96.603774h4.830189v4.830189h-4.830189z"/><path d="m53.132075 101.433962h4.830189v4.830189h-4.830189z"/><path d="m53.132075 115.924528h4.830189v4.830189h-4.830189z"/><path d="m53.132075 135.245283h4.830189v4.830189h-4.830189z"/><path d="m53.132075 140.075472h4.830189v4.830189h-4.830189z"/><path d="m53.132075 144.90566h4.830189v4.830189h-4.830189z"/><path d="m53.132075 149.735849h4.830189v4.830189h-4.830189z"/><path d="m53.132075 154.566038h4.830189v4.830189h-4.830189z"/><path d="m53.132075 159.396226h4.830189v4.830189h-4.830189z"/><path d="m53.132075 164.226415h4.830189v4.830189h-4.830189z"/><path d="m53.132075 173.886792h4.830189v4.830189h-4.830189z"/><path d="m53.132075 193.207547h4.830189v4.830189h-4.830189z"/><path d="m57.962264 19.320755h4.830189v4.830189h-4.830189z"/><path d="m57.962264 38.641509h4.830189v4.830189h-4.830189z"/><path d="m57.962264 43.471698h4.830189v4.830189h-4.830189z"/><path d="m57.962264 48.301887h4.830189v4.830189h-4.830189z"/><path d="m57.962264 62.792453h4.830189v4.830189h-4.830189z"/><path d="m57.962264 67.622642h4.830189v4.830189h-4.830189z"/><path d="m57.962264 77.283019h4.830189v4.830189h-4.830189z"/><path d="m57.962264 101.433962h4.830189v4.830189h-4.830189z"/><path d="m57.962264 106.264151h4.830189v4.830189h-4.830189z"/><path d="m57.962264 111.09434h4.830189v4.830189h-4.830189z"/><path d="m57.962264 115.924528h4.830189v4.830189h-4.830189z"/><path d="m57.962264 120.754717h4.830189v4.830189h-4.830189z"/><path d="m57.962264 125.584906h4.830189v4.830189h-4.830189z"/><path d="m57.962264 130.415094h4.830189v4.830189h-4.830189z"/><path d="m57.962264 135.245283h4.830189v4.830189h-4.830189z"/><path d="m57.962264 169.056604h4.830189v4.830189h-4.830189z"/><path d="m57.962264 173.886792h4.830189v4.830189h-4.830189z"/><path d="m57.962264 193.207547h4.830189v4.830189h-4.830189z"/><path d="m57.962264 198.037736h4.830189v4.830189h-4.830189z"/><path d="m57.962264 202.867925h4.830189v4.830189h-4.830189z"/><path d="m57.962264 207.698113h4.830189v4.830189h-4.830189z"/><path d="m57.962264 212.528302h4.830189v4.830189h-4.830189z"/><path d="m57.962264 217.358491h4.830189v4.830189h-4.830189z"/><path d="m57.962264 222.188679h4.830189v4.830189h-4.830189z"/><path d="m57.962264 227.018868h4.830189v4.830189h-4.830189z"/><path d="m62.792453 19.320755h4.830189v4.830189h-4.830189z"/><path d="m62.792453 38.641509h4.830189v4.830189h-4.830189z"/><path d="m62.792453 43.471698h4.830189v4.830189h-4.830189z"/><path d="m62.792453 62.792453h4.830189v4.830189h-4.830189z"/><path d="m62.792453 67.622642h4.830189v4.830189h-4.830189z"/><path d="m62.792453 72.45283h4.830189v4.830189h-4.830189z"/><path d="m62.792453 77.283019h4.830189v4.830189h-4.830189z"/><path d="m62.792453 82.113208h4.830189v4.830189h-4.830189z"/><path d="m62.792453 86.943396h4.830189v4.830189h-4.830189z"/><path d="m62.792453 101.433962h4.830189v4.830189h-4.830189z"/><path d="m62.792453 111.09434h4.830189v4.830189h-4.830189z"/><path d="m62.792453 135.245283h4.830189v4.830189h-4.830189z"/><path d="m62.792453 140.075472h4.830189v4.830189h-4.830189z"/><path d="m62.792453 149.735849h4.830189v4.830189h-4.830189z"/><path d="m62.792453 154.566038h4.830189v4.830189h-4.830189z"/><path d="m62.792453 178.716981h4.830189v4.830189h-4.830189z"/><path d="m62.792453 193.207547h4.830189v4.830189h-4.830189z"/><path d="m62.792453 202.867925h4.830189v4.830189h-4.830189z"/><path d="m62.792453 207.698113h4.830189v4.830189h-4.830189z"/><path d="m62.792453 212.528302h4.830189v4.830189h-4.830189z"/><path d="m62.792453 222.188679h4.830189v4.830189h-4.830189z"/><path d="m62.792453 231.849057h4.830189v4.830189h-4.830189z"/><path d="m67.622642 28.981132h4.830189v4.830189h-4.830189z"/><path d="m67.622642 43.471698h4.830189v4.830189h-4.830189z"/><path d="m67.622642 48.301887h4.830189v4.830189h-4.830189z"/><path d="m67.622642 53.132075h4.830189v4.830189h-4.830189z"/><path d="m67.622642 62.792453h4.830189v4.830189h-4.830189z"/><path d="m67.622642 67.622642h4.830189v4.830189h-4.830189z"/><path d="m67.622642 72.45283h4.830189v4.830189h-4.830189z"/><path d="m67.622642 77.283019h4.830189v4.830189h-4.830189z"/><path d="m67.622642 82.113208h4.830189v4.830189h-4.830189z"/><path d="m67.622642 101.433962h4.830189v4.830189h-4.830189z"/><path d="m67.622642 106.264151h4.830189v4.830189h-4.830189z"/><path d="m67.622642 111.09434h4.830189v4.830189h-4.830189z"/><path d="m67.622642 115.924528h4.830189v4.830189h-4.830189z"/><path d="m67.622642 125.584906h4.830189v4.830189h-4.830189z"/><path d="m67.622642 135.245283h4.830189v4.830189h-4.830189z"/><path d="m67.622642 140.075472h4.830189v4.830189h-4.830189z"/><path d="m67.622642 144.90566h4.830189v4.830189h-4.830189z"/><path d="m67.622642 154.566038h4.830189v4.830189h-4.830189z"/><path d="m67.622642 178.716981h4.830189v4.830189h-4.830189z"/><path d="m67.622642 183.54717h4.830189v4.830189h-4.830189z"/><path d="m67.622642 188.377358h4.830189v4.830189h-4.830189z"/><path d="m67.622642 193.207547h4.830189v4.830189h-4.830189z"/><path d="m67.622642 207.698113h4.830189v4.830189h-4.830189z"/><path d="m67.622642 212.528302h4.830189v4.830189h-4.830189z"/><path d="m67.622642 217.358491h4.830189v4.830189h-4.830189z"/><path d="m67.622642 222.188679h4.830189v4.830189h-4.830189z"/><path d="m72.45283 19.320755h4.830189v4.830189h-4.830189z"/><path d="m72.45283 38.641509h4.830189v4.830189h-4.830189z"/><path d="m72.45283 57.962264h4.830189v4.830189h-4.830189z"/><path d="m72.45283 77.283019h4.830189v4.830189h-4.830189z"/><path d="m72.45283 106.264151h4.830189v4.830189h-4.830189z"/><path d="m72.45283 111.09434h4.830189v4.830189h-4.830189z"/><path d="m72.45283 115.924528h4.830189v4.830189h-4.830189z"/><path d="m72.45283 125.584906h4.830189v4.830189h-4.830189z"/><path d="m72.45283 140.075472h4.830189v4.830189h-4.830189z"/><path d="m72.45283 144.90566h4.830189v4.830189h-4.830189z"/><path d="m72.45283 154.566038h4.830189v4.830189h-4.830189z"/><path d="m72.45283 159.396226h4.830189v4.830189h-4.830189z"/><path d="m72.45283 173.886792h4.830189v4.830189h-4.830189z"/><path d="m72.45283 178.716981h4.830189v4.830189h-4.830189z"/><path d="m72.45283 198.037736h4.830189v4.830189h-4.830189z"/><path d="m72.45283 202.867925h4.830189v4.830189h-4.830189z"/><path d="m72.45283 207.698113h4.830189v4.830189h-4.830189z"/><path d="m72.45283 212.528302h4.830189v4.830189h-4.830189z"/><path d="m72.45283 217.358491h4.830189v4.830189h-4.830189z"/><path d="m72.45283 222.188679h4.830189v4.830189h-4.830189z"/><path d="m72.45283 227.018868h4.830189v4.830189h-4.830189z"/><path d="m72.45283 231.849057h4.830189v4.830189h-4.830189z"/><path d="m77.283019 19.320755h4.830189v4.830189h-4.830189z"/><path d="m77.283019 33.811321h4.830189v4.830189h-4.830189z"/><path d="m77.283019 38.641509h4.830189v4.830189h-4.830189z"/><path d="m77.283019 48.301887h4.830189v4.830189h-4.830189z"/><path d="m77.283019 53.132075h4.830189v4.830189h-4.830189z"/><path d="m77.283019 67.622642h4.830189v4.830189h-4.830189z"/><path d="m77.283019 86.943396h4.830189v4.830189h-4.830189z"/><path d="m77.283019 91.773585h4.830189v4.830189h-4.830189z"/><path d="m77.283019 101.433962h4.830189v4.830189h-4.830189z"/><path d="m77.283019 111.09434h4.830189v4.830189h-4.830189z"/><path d="m77.283019 125.584906h4.830189v4.830189h-4.830189z"/><path d="m77.283019 130.415094h4.830189v4.830189h-4.830189z"/><path d="m77.283019 135.245283h4.830189v4.830189h-4.830189z"/><path d="m77.283019 140.075472h4.830189v4.830189h-4.830189z"/><path d="m77.283019 144.90566h4.830189v4.830189h-4.830189z"/><path d="m77.283019 154.566038h4.830189v4.830189h-4.830189z"/><path d="m77.283019 159.396226h4.830189v4.830189h-4.830189z"/><path d="m77.283019 164.226415h4.830189v4.830189h-4.830189z"/><path d="m77.283019 173.886792h4.830189v4.830189h-4.830189z"/><path d="m77.283019 178.716981h4.830189v4.830189h-4.830189z"/><path d="m77.283019 183.54717h4.830189v4.830189h-4.830189z"/><path d="m77.283019 188.377358h4.830189v4.830189h-4.830189z"/><path d="m77.283019 193.207547h4.830189v4.830189h-4.830189z"/><path d="m77.283019 198.037736h4.830189v4.830189h-4.830189z"/><path d="m77.283019 207.698113h4.830189v4.830189h-4.830189z"/><path d="m77.283019 212.528302h4.830189v4.830189h-4.830189z"/><path d="m77.283019 217.358491h4.830189v4.830189h-4.830189z"/><path d="m82.113208 19.320755h4.830189v4.830189h-4.830189z"/><path d="m82.113208 24.150943h4.830189v4.830189h-4.830189z"/><path d="m82.113208 28.981132h4.830189v4.830189h-4.830189z"/><path d="m82.113208 33.811321h4.830189v4.830189h-4.830189z"/><path d="m82.113208 38.641509h4.830189v4.830189h-4.830189z"/><path d="m82.113208 43.471698h4.830189v4.830189h-4.830189z"/><path d="m82.113208 62.792453h4.830189v4.830189h-4.830189z"/><path d="m82.113208 72.45283h4.830189v4.830189h-4.830189z"/><path d="m82.113208 96.603774h4.830189v4.830189h-4.830189z"/><path d="m82.113208 115.924528h4.830189v4.830189h-4.830189z"/><path d="m82.113208 125.584906h4.830189v4.830189h-4.830189z"/><path d="m82.113208 140.075472h4.830189v4.830189h-4.830189z"/><path d="m82.113208 149.735849h4.830189v4.830189h-4.830189z"/><path d="m82.113208 188.377358h4.830189v4.830189h-4.830189z"/><path d="m82.113208 193.207547h4.830189v4.830189h-4.830189z"/><path d="m82.113208 198.037736h4.830189v4.830189h-4.830189z"/><path d="m82.113208 217.358491h4.830189v4.830189h-4.830189z"/><path d="m86.943396 19.320755h4.830189v4.830189h-4.830189z"/><path d="m86.943396 24.150943h4.830189v4.830189h-4.830189z"/><path d="m86.943396 28.981132h4.830189v4.830189h-4.830189z"/><path d="m86.943396 48.301887h4.830189v4.830189h-4.830189z"/><path d="m86.943396 67.622642h4.830189v4.830189h-4.830189z"/><path d="m86.943396 86.943396h4.830189v4.830189h-4.830189z"/><path d="m86.943396 130.415094h4.830189v4.830189h-4.830189z"/><path d="m86.943396 135.245283h4.830189v4.830189h-4.830189z"/><path d="m86.943396 149.735849h4.830189v4.830189h-4.830189z"/><path d="m86.943396 154.566038h4.830189v4.830189h-4.830189z"/><path d="m86.943396 164.226415h4.830189v4.830189h-4.830189z"/><path d="m86.943396 183.54717h4.830189v4.830189h-4.830189z"/><path d="m86.943396 188.377358h4.830189v4.830189h-4.830189z"/><path d="m86.943396 198.037736h4.830189v4.830189h-4.830189z"/><path d="m86.943396 202.867925h4.830189v4.830189h-4.830189z"/><path d="m86.943396 207.698113h4.830189v4.830189h-4.830189z"/><path d="m86.943396 212.528302h4.830189v4.830189h-4.830189z"/><path d="m91.773585 19.320755h4.830189v4.830189h-4.830189z"/><path d="m91.773585 24.150943h4.830189v4.830189h-4.830189z"/><path d="m91.773585 28.981132h4.830189v4.830189h-4.830189z"/><path d="m91.773585 38.641509h4.830189v4.830189h-4.830189z"/><path d="m91.773585 43.471698h4.830189v4.830189h-4.830189z"/><path d="m91.773585 57.962264h4.830189v4.830189h-4.830189z"/><path d="m91.773585 62.792453h4.830189v4.830189h-4.830189z"/><path d="m91.773585 67.622642h4.830189v4.830189h-4.830189z"/><path d="m91.773585 72.45283h4.830189v4.830189h-4.830189z"/><path d="m91.773585 77.283019h4.830189v4.830189h-4.830189z"/><path d="m91.773585 91.773585h4.830189v4.830189h-4.830189z"/><path d="m91.773585 101.433962h4.830189v4.830189h-4.830189z"/><path d="m91.773585 106.264151h4.830189v4.830189h-4.830189z"/><path d="m91.773585 111.09434h4.830189v4.830189h-4.830189z"/><path d="m91.773585 115.924528h4.830189v4.830189h-4.830189z"/><path d="m91.773585 125.584906h4.830189v4.830189h-4.830189z"/><path d="m91.773585 135.245283h4.830189v4.830189h-4.830189z"/><path d="m91.773585 144.90566h4.830189v4.830189h-4.830189z"/><path d="m91.773585 154.566038h4.830189v4.830189h-4.830189z"/><path d="m91.773585 164.226415h4.830189v4.830189h-4.830189z"/><path d="m91.773585 169.056604h4.830189v4.830189h-4.830189z"/><path d="m91.773585 173.886792h4.830189v4.830189h-4.830189z"/><path d="m91.773585 178.716981h4.830189v4.830189h-4.830189z"/><path d="m91.773585 188.377358h4.830189v4.830189h-4.830189z"/><path d="m91.773585 193.207547h4.830189v4.830189h-4.830189z"/><path d="m91.773585 202.867925h4.830189v4.830189h-4.830189z"/><path d="m91.773585 207.698113h4.830189v4.830189h-4.830189z"/><path d="m91.773585 222.188679h4.830189v4.830189h-4.830189z"/><path d="m91.773585 231.849057h4.830189v4.830189h-4.830189z"/><path d="m96.603774 33.811321h4.830189v4.830189h-4.830189z"/><path d="m96.603774 43.471698h4.830189v4.830189h-4.830189z"/><path d="m96.603774 48.301887h4.830189v4.830189h-4.830189z"/><path d="m96.603774 53.132075h4.830189v4.830189h-4.830189z"/><path d="m96.603774 57.962264h4.830189v4.830189h-4.830189z"/><path d="m96.603774 77.283019h4.830189v4.830189h-4.830189z"/><path d="m96.603774 82.113208h4.830189v4.830189h-4.830189z"/><path d="m96.603774 91.773585h4.830189v4.830189h-4.830189z"/><path d="m96.603774 101.433962h4.830189v4.830189h-4.830189z"/><path d="m96.603774 106.264151h4.830189v4.830189h-4.830189z"/><path d="m96.603774 120.754717h4.830189v4.830189h-4.830189z"/><path d="m96.603774 125.584906h4.830189v4.830189h-4.830189z"/><path d="m96.603774 130.415094h4.830189v4.830189h-4.830189z"/><path d="m96.603774 135.245283h4.830189v4.830189h-4.830189z"/><path d="m96.603774 149.735849h4.830189v4.830189h-4.830189z"/><path d="m96.603774 154.566038h4.830189v4.830189h-4.830189z"/><path d="m96.603774 159.396226h4.830189v4.830189h-4.830189z"/><path d="m96.603774 164.226415h4.830189v4.830189h-4.830189z"/><path d="m96.603774 173.886792h4.830189v4.830189h-4.830189z"/><path d="m96.603774 183.54717h4.830189v4.830189h-4.830189z"/><path d="m96.603774 193.207547h4.830189v4.830189h-4.830189z"/><path d="m96.603774 207.698113h4.830189v4.830189h-4.830189z"/><path d="m96.603774 212.528302h4.830189v4.830189h-4.830189z"/><path d="m96.603774 227.018868h4.830189v4.830189h-4.830189z"/><path d="m101.433962 24.150943h4.830189v4.830189h-4.830189z"/><path d="m101.433962 38.641509h4.830189v4.830189h-4.830189z"/><path d="m101.433962 43.471698h4.830189v4.830189h-4.830189z"/><path d="m101.433962 72.45283h4.830189v4.830189h-4.830189z"/><path d="m101.433962 77.283019h4.830189v4.830189h-4.830189z"/><path d="m101.433962 86.943396h4.830189v4.830189h-4.830189z"/><path d="m101.433962 106.264151h4.830189v4.830189h-4.830189z"/><path d="m101.433962 111.09434h4.830189v4.830189h-4.830189z"/><path d="m101.433962 125.584906h4.830189v4.830189h-4.830189z"/><path d="m101.433962 130.415094h4.830189v4.830189h-4.830189z"/><path d="m101.433962 140.075472h4.830189v4.830189h-4.830189z"/><path d="m101.433962 154.566038h4.830189v4.830189h-4.830189z"/><path d="m101.433962 164.226415h4.830189v4.830189h-4.830189z"/><path d="m101.433962 183.54717h4.830189v4.830189h-4.830189z"/><path d="m101.433962 188.377358h4.830189v4.830189h-4.830189z"/><path d="m101.433962 198.037736h4.830189v4.830189h-4.830189z"/><path d="m101.433962 202.867925h4.830189v4.830189h-4.830189z"/><path d="m101.433962 222.188679h4.830189v4.830189h-4.830189z"/><path d="m101.433962 227.018868h4.830189v4.830189h-4.830189z"/><path d="m106.264151 33.811321h4.830189v4.830189h-4.830189z"/><path d="m106.264151 38.641509h4.830189v4.830189h-4.830189z"/><path d="m106.264151 48.301887h4.830189v4.830189h-4.830189z"/><path d="m106.264151 53.132075h4.830189v4.830189h-4.830189z"/><path d="m106.264151 57.962264h4.830189v4.830189h-4.830189z"/><path d="m106.264151 72.45283h4.830189v4.830189h-4.830189z"/><path d="m106.264151 91.773585h4.830189v4.830189h-4.830189z"/><path d="m106.264151 96.603774h4.830189v4.830189h-4.830189z"/><path d="m106.264151 120.754717h4.830189v4.830189h-4.830189z"/><path d="m106.264151 130.415094h4.830189v4.830189h-4.830189z"/><path d="m106.264151 140.075472h4.830189v4.830189h-4.830189z"/><path d="m106.264151 144.90566h4.830189v4.830189h-4.830189z"/><path d="m106.264151 149.735849h4.830189v4.830189h-4.830189z"/><path d="m106.264151 164.226415h4.830189v4.830189h-4.830189z"/><path d="m106.264151 169.056604h4.830189v4.830189h-4.830189z"/><path d="m106.264151 173.886792h4.830189v4.830189h-4.830189z"/><path d="m106.264151 178.716981h4.830189v4.830189h-4.830189z"/><path d="m106.264151 188.377358h4.830189v4.830189h-4.830189z"/><path d="m106.264151 193.207547h4.830189v4.830189h-4.830189z"/><path d="m106.264151 202.867925h4.830189v4.830189h-4.830189z"/><path d="m106.264151 217.358491h4.830189v4.830189h-4.830189z"/><path d="m106.264151 222.188679h4.830189v4.830189h-4.830189z"/><path d="m106.264151 227.018868h4.830189v4.830189h-4.830189z"/><path d="m111.09434 19.320755h4.830189v4.830189h-4.830189z"/><path d="m111.09434 28.981132h4.830189v4.830189h-4.830189z"/><path d="m111.09434 38.641509h4.830189v4.830189h-4.830189z"/><path d="m111.09434 43.471698h4.830189v4.830189h-4.830189z"/><path d="m111.09434 53.132075h4.830189v4.830189h-4.830189z"/><path d="m111.09434 62.792453h4.830189v4.830189h-4.830189z"/><path d="m111.09434 77.283019h4.830189v4.830189h-4.830189z"/><path d="m111.09434 82.113208h4.830189v4.830189h-4.830189z"/><path d="m111.09434 86.943396h4.830189v4.830189h-4.830189z"/><path d="m111.09434 91.773585h4.830189v4.830189h-4.830189z"/><path d="m111.09434 96.603774h4.830189v4.830189h-4.830189z"/><path d="m111.09434 106.264151h4.830189v4.830189h-4.830189z"/><path d="m111.09434 125.584906h4.830189v4.830189h-4.830189z"/><path d="m111.09434 144.90566h4.830189v4.830189h-4.830189z"/><path d="m111.09434 154.566038h4.830189v4.830189h-4.830189z"/><path d="m111.09434 159.396226h4.830189v4.830189h-4.830189z"/><path d="m111.09434 188.377358h4.830189v4.830189h-4.830189z"/><path d="m111.09434 193.207547h4.830189v4.830189h-4.830189z"/><path d="m111.09434 202.867925h4.830189v4.830189h-4.830189z"/><path d="m111.09434 207.698113h4.830189v4.830189h-4.830189z"/><path d="m111.09434 212.528302h4.830189v4.830189h-4.830189z"/><path d="m111.09434 231.849057h4.830189v4.830189h-4.830189z"/><path d="m115.924528 38.641509h4.830189v4.830189h-4.830189z"/><path d="m115.924528 43.471698h4.830189v4.830189h-4.830189z"/><path d="m115.924528 48.301887h4.830189v4.830189h-4.830189z"/><path d="m115.924528 53.132075h4.830189v4.830189h-4.830189z"/><path d="m115.924528 57.962264h4.830189v4.830189h-4.830189z"/><path d="m115.924528 72.45283h4.830189v4.830189h-4.830189z"/><path d="m115.924528 91.773585h4.830189v4.830189h-4.830189z"/><path d="m115.924528 96.603774h4.830189v4.830189h-4.830189z"/><path d="m115.924528 115.924528h4.830189v4.830189h-4.830189z"/><path d="m115.924528 120.754717h4.830189v4.830189h-4.830189z"/><path d="m115.924528 125.584906h4.830189v4.830189h-4.830189z"/><path d="m115.924528 130.415094h4.830189v4.830189h-4.830189z"/><path d="m115.924528 135.245283h4.830189v4.830189h-4.830189z"/><path d="m115.924528 140.075472h4.830189v4.830189h-4.830189z"/><path d="m115.924528 154.566038h4.830189v4.830189h-4.830189z"/><path d="m115.924528 169.056604h4.830189v4.830189h-4.830189z"/><path d="m115.924528 173.886792h4.830189v4.830189h-4.830189z"/><path d="m115.924528 178.716981h4.830189v4.830189h-4.830189z"/><path d="m115.924528 183.54717h4.830189v4.830189h-4.830189z"/><path d="m115.924528 188.377358h4.830189v4.830189h-4.830189z"/><path d="m115.924528 193.207547h4.830189v4.830189h-4.830189z"/><path d="m115.924528 198.037736h4.830189v4.830189h-4.830189z"/><path d="m115.924528 202.867925h4.830189v4.830189h-4.830189z"/><path d="m115.924528 207.698113h4.830189v4.830189h-4.830189z"/><path d="m115.924528 212.528302h4.830189v4.830189h-4.830189z"/><path d="m115.924528 217.358491h4.830189v4.830189h-4.830189z"/><path d="m115.924528 231.849057h4.830189v4.830189h-4.830189z"/><path d="m120.754717 19.320755h4.830189v4.830189h-4.830189z"/><path d="m120.754717 28.981132h4.830189v4.830189h-4.830189z"/><path d="m120.754717 38.641509h4.830189v4.830189h-4.830189z"/><path d="m120.754717 57.962264h4.830189v4.830189h-4.830189z"/><path d="m120.754717 72.45283h4.830189v4.830189h-4.830189z"/><path d="m120.754717 77.283019h4.830189v4.830189h-4.830189z"/><path d="m120.754717 96.603774h4.830189v4.830189h-4.830189z"/><path d="m120.754717 101.433962h4.830189v4.830189h-4.830189z"/><path d="m120.754717 106.264151h4.830189v4.830189h-4.830189z"/><path d="m120.754717 111.09434h4.830189v4.830189h-4.830189z"/><path d="m120.754717 115.924528h4.830189v4.830189h-4.830189z"/><path d="m120.754717 135.245283h4.830189v4.830189h-4.830189z"/><path d="m120.754717 144.90566h4.830189v4.830189h-4.830189z"/><path d="m120.754717 149.735849h4.830189v4.830189h-4.830189z"/><path d="m120.754717 169.056604h4.830189v4.830189h-4.830189z"/><path d="m120.754717 173.886792h4.830189v4.830189h-4.830189z"/><path d="m120.754717 183.54717h4.830189v4.830189h-4.830189z"/><path d="m120.754717 193.207547h4.830189v4.830189h-4.830189z"/><path d="m120.754717 212.528302h4.830189v4.830189h-4.830189z"/><path d="m120.754717 217.358491h4.830189v4.830189h-4.830189z"/><path d="m120.754717 222.188679h4.830189v4.830189h-4.830189z"/><path d="m120.754717 227.018868h4.830189v4.830189h-4.830189z"/><path d="m120.754717 231.849057h4.830189v4.830189h-4.830189z"/><path d="m125.584906 24.150943h4.830189v4.830189h-4.830189z"/><path d="m125.584906 38.641509h4.830189v4.830189h-4.830189z"/><path d="m125.584906 48.301887h4.830189v4.830189h-4.830189z"/><path d="m125.584906 57.962264h4.830189v4.830189h-4.830189z"/><path d="m125.584906 91.773585h4.830189v4.830189h-4.830189z"/><path d="m125.584906 101.433962h4.830189v4.830189h-4.830189z"/><path d="m125.584906 106.264151h4.830189v4.830189h-4.830189z"/><path d="m125.584906 111.09434h4.830189v4.830189h-4.830189z"/><path d="m125.584906 115.924528h4.830189v4.830189h-4.830189z"/><path d="m125.584906 125.584906h4.830189v4.830189h-4.830189z"/><path d="m125.584906 135.245283h4.830189v4.830189h-4.830189z"/><path d="m125.584906 140.075472h4.830189v4.830189h-4.830189z"/><path d="m125.584906 144.90566h4.830189v4.830189h-4.830189z"/><path d="m125.584906 149.735849h4.830189v4.830189h-4.830189z"/><path d="m125.584906 154.566038h4.830189v4.830189h-4.830189z"/><path d="m125.584906 159.396226h4.830189v4.830189h-4.830189z"/><path d="m125.584906 193.207547h4.830189v4.830189h-4.830189z"/><path d="m125.584906 202.867925h4.830189v4.830189h-4.830189z"/><path d="m125.584906 212.528302h4.830189v4.830189h-4.830189z"/><path d="m125.584906 217.358491h4.830189v4.830189h-4.830189z"/><path d="m125.584906 227.018868h4.830189v4.830189h-4.830189z"/><path d="m130.415094 19.320755h4.830189v4.830189h-4.830189z"/><path d="m130.415094 33.811321h4.830189v4.830189h-4.830189z"/><path d="m130.415094 38.641509h4.830189v4.830189h-4.830189z"/><path d="m130.415094 57.962264h4.830189v4.830189h-4.830189z"/><path d="m130.415094 62.792453h4.830189v4.830189h-4.830189z"/><path d="m130.415094 67.622642h4.830189v4.830189h-4.830189z"/><path d="m130.415094 77.283019h4.830189v4.830189h-4.830189z"/><path d="m130.415094 82.113208h4.830189v4.830189h-4.830189z"/><path d="m130.415094 86.943396h4.830189v4.830189h-4.830189z"/><path d="m130.415094 91.773585h4.830189v4.830189h-4.830189z"/><path d="m130.415094 96.603774h4.830189v4.830189h-4.830189z"/><path d="m130.415094 101.433962h4.830189v4.830189h-4.830189z"/><path d="m130.415094 115.924528h4.830189v4.830189h-4.830189z"/><path d="m130.415094 135.245283h4.830189v4.830189h-4.830189z"/><path d="m130.415094 144.90566h4.830189v4.830189h-4.830189z"/><path d="m130.415094 159.396226h4.830189v4.830189h-4.830189z"/><path d="m130.415094 164.226415h4.830189v4.830189h-4.830189z"/><path d="m130.415094 178.716981h4.830189v4.830189h-4.830189z"/><path d="m130.415094 183.54717h4.830189v4.830189h-4.830189z"/><path d="m130.415094 193.207547h4.830189v4.830189h-4.830189z"/><path d="m130.415094 212.528302h4.830189v4.830189h-4.830189z"/><path d="m130.415094 227.018868h4.830189v4.830189h-4.830189z"/><path d="m130.415094 231.849057h4.830189v4.830189h-4.830189z"/><path d="m135.245283 19.320755h4.830189v4.830189h-4.830189z"/><path d="m135.245283 33.811321h4.830189v4.830189h-4.830189z"/><path d="m135.245283 38.641509h4.830189v4.830189h-4.830189z"/><path d="m135.245283 43.471698h4.830189v4.830189h-4.830189z"/><path d="m135.245283 48.301887h4.830189v4.830189h-4.830189z"/><path d="m135.245283 53.132075h4.830189v4.830189h-4.830189z"/><path d="m135.245283 57.962264h4.830189v4.830189h-4.830189z"/><path d="m135.245283 82.113208h4.830189v4.830189h-4.830189z"/><path d="m135.245283 86.943396h4.830189v4.830189h-4.830189z"/><path d="m135.245283 96.603774h4.830189v4.830189h-4.830189z"/><path d="m135.245283 101.433962h4.830189v4.830189h-4.830189z"/><path d="m135.245283 106.264151h4.830189v4.830189h-4.830189z"/><path d="m135.245283 115.924528h4.830189v4.830189h-4.830189z"/><path d="m135.245283 120.754717h4.830189v4.830189h-4.830189z"/><path d="m135.245283 125.584906h4.830189v4.830189h-4.830189z"/><path d="m135.245283 130.415094h4.830189v4.830189h-4.830189z"/><path d="m135.245283 135.245283h4.830189v4.830189h-4.830189z"/><path d="m135.245283 140.075472h4.830189v4.830189h-4.830189z"/><path d="m135.245283 164.226415h4.830189v4.830189h-4.830189z"/><path d="m135.245283 188.377358h4.830189v4.830189h-4.830189z"/><path d="m135.245283 193.207547h4.830189v4.830189h-4.830189z"/><path d="m135.245283 198.037736h4.830189v4.830189h-4.830189z"/><path d="m135.245283 202.867925h4.830189v4.830189h-4.830189z"/><path d="m135.245283 207.698113h4.830189v4.830189h-4.830189z"/><path d="m135.245283 212.528302h4.830189v4.830189h-4.830189z"/><path d="m135.245283 217.358491h4.830189v4.830189h-4.830189z"/><path d="m140.075472 33.811321h4.830189v4.830189h-4.830189z"/><path d="m140.075472 43.471698h4.830189v4.830189h-4.830189z"/><path d="m140.075472 53.132075h4.830189v4.830189h-4.830189z"/><path d="m140.075472 57.962264h4.830189v4.830189h-4.830189z"/><path d="m140.075472 62.792453h4.830189v4.830189h-4.830189z"/><path d="m140.075472 72.45283h4.830189v4.830189h-4.830189z"/><path d="m140.075472 86.943396h4.830189v4.830189h-4.830189z"/><path d="m140.075472 91.773585h4.830189v4.830189h-4.830189z"/><path d="m140.075472 106.264151h4.830189v4.830189h-4.830189z"/><path d="m140.075472 111.09434h4.830189v4.830189h-4.830189z"/><path d="m140.075472 115.924528h4.830189v4.830189h-4.830189z"/><path d="m140.075472 140.075472h4.830189v4.830189h-4.830189z"/><path d="m140.075472 144.90566h4.830189v4.830189h-4.830189z"/><path d="m140.075472 154.566038h4.830189v4.830189h-4.830189z"/><path d="m140.075472 159.396226h4.830189v4.830189h-4.830189z"/><path d="m140.075472 164.226415h4.830189v4.830189h-4.830189z"/><path d="m140.075472 183.54717h4.830189v4.830189h-4.830189z"/><path d="m140.075472 188.377358h4.830189v4.830189h-4.830189z"/><path d="m140.075472 193.207547h4.830189v4.830189h-4.830189z"/><path d="m140.075472 202.867925h4.830189v4.830189h-4.830189z"/><path d="m140.075472 212.528302h4.830189v4.830189h-4.830189z"/><path d="m140.075472 217.358491h4.830189v4.830189h-4.830189z"/><path d="m140.075472 227.018868h4.830189v4.830189h-4.830189z"/><path d="m144.90566 24.150943h4.830189v4.830189h-4.830189z"/><path d="m144.90566 33.811321h4.830189v4.830189h-4.830189z"/><path d="m144.90566 43.471698h4.830189v4.830189h-4.830189z"/><path d="m144.90566 48.301887h4.830189v4.830189h-4.830189z"/><path d="m144.90566 67.622642h4.830189v4.830189h-4.830189z"/><path d="m144.90566 77.283019h4.830189v4.830189h-4.830189z"/><path d="m144.90566 86.943396h4.830189v4.830189h-4.830189z"/><path d="m144.90566 91.773585h4.830189v4.830189h-4.830189z"/><path d="m144.90566 96.603774h4.830189v4.830189h-4.830189z"/><path d="m144.90566 106.264151h4.830189v4.830189h-4.830189z"/><path d="m144.90566 130.415094h4.830189v4.830189h-4.830189z"/><path d="m144.90566 154.566038h4.830189v4.830189h-4.830189z"/><path d="m144.90566 159.396226h4.830189v4.830189h-4.830189z"/><path d="m144.90566 169.056604h4.830189v4.830189h-4.830189z"/><path d="m144.90566 173.886792h4.830189v4.830189h-4.830189z"/><path d="m144.90566 178.716981h4.830189v4.830189h-4.830189z"/><path d="m144.90566 207.698113h4.830189v4.830189h-4.830189z"/><path d="m144.90566 212.528302h4.830189v4.830189h-4.830189z"/><path d="m144.90566 227.018868h4.830189v4.830189h-4.830189z"/><path d="m144.90566 231.849057h4.830189v4.830189h-4.830189z"/><path d="m149.735849 19.320755h4.830189v4.830189h-4.830189z"/><path d="m149.735849 24.150943h4.830189v4.830189h-4.830189z"/><path d="m149.735849 33.811321h4.830189v4.830189h-4.830189z"/><path d="m149.735849 53.132075h4.830189v4.830189h-4.830189z"/><path d="m149.735849 67.622642h4.830189v4.830189h-4.830189z"/><path d="m149.735849 72.45283h4.830189v4.830189h-4.830189z"/><path d="m149.735849 82.113208h4.830189v4.830189h-4.830189z"/><path d="m149.735849 96.603774h4.830189v4.830189h-4.830189z"/><path d="m149.735849 106.264151h4.830189v4.830189h-4.830189z"/><path d="m149.735849 115.924528h4.830189v4.830189h-4.830189z"/><path d="m149.735849 135.245283h4.830189v4.830189h-4.830189z"/><path d="m149.735849 140.075472h4.830189v4.830189h-4.830189z"/><path d="m149.735849 144.90566h4.830189v4.830189h-4.830189z"/><path d="m149.735849 149.735849h4.830189v4.830189h-4.830189z"/><path d="m149.735849 159.396226h4.830189v4.830189h-4.830189z"/><path d="m149.735849 169.056604h4.830189v4.830189h-4.830189z"/><path d="m149.735849 178.716981h4.830189v4.830189h-4.830189z"/><path d="m149.735849 183.54717h4.830189v4.830189h-4.830189z"/><path d="m149.735849 193.207547h4.830189v4.830189h-4.830189z"/><path d="m149.735849 198.037736h4.830189v4.830189h-4.830189z"/><path d="m149.735849 207.698113h4.830189v4.830189h-4.830189z"/><path d="m149.735849 217.358491h4.830189v4.830189h-4.830189z"/><path d="m149.735849 231.849057h4.830189v4.830189h-4.830189z"/><path d="m154.566038 19.320755h4.830189v4.830189h-4.830189z"/><path d="m154.566038 28.981132h4.830189v4.830189h-4.830189z"/><path d="m154.566038 48.301887h4.830189v4.830189h-4.830189z"/><path d="m154.566038 53.132075h4.830189v4.830189h-4.830189z"/><path d="m154.566038 62.792453h4.830189v4.830189h-4.830189z"/><path d="m154.566038 72.45283h4.830189v4.830189h-4.830189z"/><path d="m154.566038 91.773585h4.830189v4.830189h-4.830189z"/><path d="m154.566038 111.09434h4.830189v4.830189h-4.830189z"/><path d="m154.566038 120.754717h4.830189v4.830189h-4.830189z"/><path d="m154.566038 130.415094h4.830189v4.830189h-4.830189z"/><path d="m154.566038 149.735849h4.830189v4.830189h-4.830189z"/><path d="m154.566038 169.056604h4.830189v4.830189h-4.830189z"/><path d="m154.566038 178.716981h4.830189v4.830189h-4.830189z"/><path d="m154.566038 188.377358h4.830189v4.830189h-4.830189z"/><path d="m154.566038 207.698113h4.830189v4.830189h-4.830189z"/><path d="m154.566038 217.358491h4.830189v4.830189h-4.830189z"/><path d="m154.566038 227.018868h4.830189v4.830189h-4.830189z"/><path d="m159.396226 19.320755h4.830189v4.830189h-4.830189z"/><path d="m159.396226 43.471698h4.830189v4.830189h-4.830189z"/><path d="m159.396226 53.132075h4.830189v4.830189h-4.830189z"/><path d="m159.396226 57.962264h4.830189v4.830189h-4.830189z"/><path d="m159.396226 67.622642h4.830189v4.830189h-4.830189z"/><path d="m159.396226 72.45283h4.830189v4.830189h-4.830189z"/><path d="m159.396226 86.943396h4.830189v4.830189h-4.830189z"/><path d="m159.396226 106.264151h4.830189v4.830189h-4.830189z"/><path d="m159.396226 125.584906h4.830189v4.830189h-4.830189z"/><path d="m159.396226 140.075472h4.830189v4.830189h-4.830189z"/><path d="m159.396226 164.226415h4.830189v4.830189h-4.830189z"/><path d="m159.396226 169.056604h4.830189v4.830189h-4.830189z"/><path d="m159.396226 178.716981h4.830189v4.830189h-4.830189z"/><path d="m159.396226 198.037736h4.830189v4.830189h-4.830189z"/><path d="m159.396226 222.188679h4.830189v4.830189h-4.830189z"/><path d="m159.396226 231.849057h4.830189v4.830189h-4.830189z"/><path d="m164.226415 19.320755h4.830189v4.830189h-4.830189z"/><path d="m164.226415 28.981132h4.830189v4.830189h-4.830189z"/><path d="m164.226415 38.641509h4.830189v4.830189h-4.830189z"/><path d="m164.226415 48.301887h4.830189v4.830189h-4.830189z"/><path d="m164.226415 53.132075h4.830189v4.830189h-4.830189z"/><path d="m164.226415 57.962264h4.830189v4.830189h-4.830189z"/><path d="m164.226415 62.792453h4.830189v4.830189h-4.830189z"/><path d="m164.226415 72.45283h4.830189v4.830189h-4.830189z"/><path d="m164.226415 77.283019h4.830189v4.830189h-4.830189z"/><path d="m164.226415 82.113208h4.830189v4.830189h-4.830189z"/><path d="m164.226415 91.773585h4.830189v4.830189h-4.830189z"/><path d="m164.226415 96.603774h4.830189v4.830189h-4.830189z"/><path d="m164.226415 101.433962h4.830189v4.830189h-4.830189z"/><path d="m164.226415 120.754717h4.830189v4.830189h-4.830189z"/><path d="m164.226415 130.415094h4.830189v4.830189h-4.830189z"/><path d="m164.226415 140.075472h4.830189v4.830189h-4.830189z"/><path d="m164.226415 149.735849h4.830189v4.830189h-4.830189z"/><path d="m164.226415 159.396226h4.830189v4.830189h-4.830189z"/><path d="m164.226415 169.056604h4.830189v4.830189h-4.830189z"/><path d="m164.226415 178.716981h4.830189v4.830189h-4.830189z"/><path d="m164.226415 193.207547h4.830189v4.830189h-4.830189z"/><path d="m164.226415 198.037736h4.830189v4.830189h-4.830189z"/><path d="m164.226415 207.698113h4.830189v4.830189h-4.830189z"/><path d="m164.226415 217.358491h4.830189v4.830189h-4.830189z"/><path d="m164.226415 231.849057h4.830189v4.830189h-4.830189z"/><path d="m169.056604 28.981132h4.830189v4.830189h-4.830189z"/><path d="m169.056604 38.641509h4.830189v4.830189h-4.830189z"/><path d="m169.056604 43.471698h4.830189v4.830189h-4.830189z"/><path d="m169.056604 57.962264h4.830189v4.830189h-4.830189z"/><path d="m169.056604 62.792453h4.830189v4.830189h-4.830189z"/><path d="m169.056604 77.283019h4.830189v4.830189h-4.830189z"/><path d="m169.056604 82.113208h4.830189v4.830189h-4.830189z"/><path d="m169.056604 86.943396h4.830189v4.830189h-4.830189z"/><path d="m169.056604 96.603774h4.830189v4.830189h-4.830189z"/><path d="m169.056604 115.924528h4.830189v4.830189h-4.830189z"/><path d="m169.056604 120.754717h4.830189v4.830189h-4.830189z"/><path d="m169.056604 130.415094h4.830189v4.830189h-4.830189z"/><path d="m169.056604 140.075472h4.830189v4.830189h-4.830189z"/><path d="m169.056604 144.90566h4.830189v4.830189h-4.830189z"/><path d="m169.056604 149.735849h4.830189v4.830189h-4.830189z"/><path d="m169.056604 159.396226h4.830189v4.830189h-4.830189z"/><path d="m169.056604 164.226415h4.830189v4.830189h-4.830189z"/><path d="m169.056604 173.886792h4.830189v4.830189h-4.830189z"/><path d="m169.056604 178.716981h4.830189v4.830189h-4.830189z"/><path d="m169.056604 183.54717h4.830189v4.830189h-4.830189z"/><path d="m169.056604 188.377358h4.830189v4.830189h-4.830189z"/><path d="m169.056604 198.037736h4.830189v4.830189h-4.830189z"/><path d="m169.056604 207.698113h4.830189v4.830189h-4.830189z"/><path d="m169.056604 227.018868h4.830189v4.830189h-4.830189z"/><path d="m173.886792 24.150943h4.830189v4.830189h-4.830189z"/><path d="m173.886792 28.981132h4.830189v4.830189h-4.830189z"/><path d="m173.886792 48.301887h4.830189v4.830189h-4.830189z"/><path d="m173.886792 72.45283h4.830189v4.830189h-4.830189z"/><path d="m173.886792 82.113208h4.830189v4.830189h-4.830189z"/><path d="m173.886792 91.773585h4.830189v4.830189h-4.830189z"/><path d="m173.886792 101.433962h4.830189v4.830189h-4.830189z"/><path d="m173.886792 111.09434h4.830189v4.830189h-4.830189z"/><path d="m173.886792 130.415094h4.830189v4.830189h-4.830189z"/><path d="m173.886792 140.075472h4.830189v4.830189h-4.830189z"/><path d="m173.886792 149.735849h4.830189v4.830189h-4.830189z"/><path d="m173.886792 169.056604h4.830189v4.830189h-4.830189z"/><path d="m173.886792 188.377358h4.830189v4.830189h-4.830189z"/><path d="m173.886792 202.867925h4.830189v4.830189h-4.830189z"/><path d="m173.886792 207.698113h4.830189v4.830189h-4.830189z"/><path d="m173.886792 217.358491h4.830189v4.830189h-4.830189z"/><path d="m173.886792 227.018868h4.830189v4.830189h-4.830189z"/><path d="m178.716981 24.150943h4.830189v4.830189h-4.830189z"/><path d="m178.716981 28.981132h4.830189v4.830189h-4.830189z"/><path d="m178.716981 43.471698h4.830189v4.830189h-4.830189z"/><path d="m178.716981 53.132075h4.830189v4.830189h-4.830189z"/><path d="m178.716981 57.962264h4.830189v4.830189h-4.830189z"/><path d="m178.716981 62.792453h4.830189v4.830189h-4.830189z"/><path d="m178.716981 77.283019h4.830189v4.830189h-4.830189z"/><path d="m178.716981 82.113208h4.830189v4.830189h-4.830189z"/><path d="m178.716981 91.773585h4.830189v4.830189h-4.830189z"/><path d="m178.716981 101.433962h4.830189v4.830189h-4.830189z"/><path d="m178.716981 111.09434h4.830189v4.830189h-4.830189z"/><path d="m178.716981 115.924528h4.830189v4.830189h-4.830189z"/><path d="m178.716981 120.754717h4.830189v4.830189h-4.830189z"/><path d="m178.716981 130.415094h4.830189v4.830189h-4.830189z"/><path d="m178.716981 135.245283h4.830189v4.830189h-4.830189z"/><path d="m178.716981 140.075472h4.830189v4.830189h-4.830189z"/><path d="m178.716981 159.396226h4.830189v4.830189h-4.830189z"/><path d="m178.716981 183.54717h4.830189v4.830189h-4.830189z"/><path d="m178.716981 188.377358h4.830189v4.830189h-4.830189z"/><path d="m178.716981 193.207547h4.830189v4.830189h-4.830189z"/><path d="m178.716981 198.037736h4.830189v4.830189h-4.830189z"/><path d="m178.716981 212.528302h4.830189v4.830189h-4.830189z"/><path d="m178.716981 217.358491h4.830189v4.830189h-4.830189z"/><path d="m178.716981 231.849057h4.830189v4.830189h-4.830189z"/><path d="m183.54717 38.641509h4.830189v4.830189h-4.830189z"/><path d="m183.54717 48.301887h4.830189v4.830189h-4.830189z"/><path d="m183.54717 53.132075h4.830189v4.830189h-4.830189z"/><path d="m183.54717 67.622642h4.830189v4.830189h-4.830189z"/><path d="m183.54717 72.45283h4.830189v4.830189h-4.830189z"/><path d="m183.54717 77.283019h4.830189v4.830189h-4.830189z"/><path d="m183.54717 86.943396h4.830189v4.830189h-4.830189z"/><path d="m183.54717 106.264151h4.830189v4.830189h-4.830189z"/><path d="m183.54717 115.924528h4.830189v4.830189h-4.830189z"/><path d="m183.54717 125.584906h4.830189v4.830189h-4.830189z"/><path d="m183.54717 130.415094h4.830189v4.830189h-4.830189z"/><path d="m183.54717 144.90566h4.830189v4.830189h-4.830189z"/><path d="m183.54717 164.226415h4.830189v4.830189h-4.830189z"/><path d="m183.54717 183.54717h4.830189v4.830189h-4.830189z"/><path d="m183.54717 193.207547h4.830189v4.830189h-4.830189z"/><path d="m183.54717 202.867925h4.830189v4.830189h-4.830189z"/><path d="m183.54717 212.528302h4.830189v4.830189h-4.830189z"/><path d="m183.54717 222.188679h4.830189v4.830189h-4.830189z"/><path d="m188.377358 24.150943h4.830189v4.830189h-4.830189z"/><path d="m188.377358 28.981132h4.830189v4.830189h-4.830189z"/><path d="m188.377358 33.811321h4.830189v4.830189h-4.830189z"/><path d="m188.377358 38.641509h4.830189v4.830189h-4.830189z"/><path d="m188.377358 53.132075h4.830189v4.830189h-4.830189z"/><path d="m188.377358 57.962264h4.830189v4.830189h-4.830189z"/><path d="m188.377358 67.622642h4.830189v4.830189h-4.830189z"/><path d="m188.377358 77.283019h4.830189v4.830189h-4.830189z"/><path d="m188.377358 86.943396h4.830189v4.830189h-4.830189z"/><path d="m188.377358 91.773585h4.830189v4.830189h-4.830189z"/><path d="m188.377358 96.603774h4.830189v4.830189h-4.830189z"/><path d="m188.377358 106.264151h4.830189v4.830189h-4.830189z"/><path d="m188.377358 120.754717h4.830189v4.830189h-4.830189z"/><path d="m188.377358 135.245283h4.830189v4.830189h-4.830189z"/><path d="m188.377358 149.735849h4.830189v4.830189h-4.830189z"/><path d="m188.377358 159.396226h4.830189v4.830189h-4.830189z"/><path d="m188.377358 169.056604h4.830189v4.830189h-4.830189z"/><path d="m188.377358 178.716981h4.830189v4.830189h-4.830189z"/><path d="m188.377358 188.377358h4.830189v4.830189h-4.830189z"/><path d="m188.377358 202.867925h4.830189v4.830189h-4.830189z"/><path d="m188.377358 207.698113h4.830189v4.830189h-4.830189z"/><path d="m188.377358 222.188679h4.830189v4.830189h-4.830189z"/><path d="m188.377358 227.018868h4.830189v4.830189h-4.830189z"/><path d="m188.377358 231.849057h4.830189v4.830189h-4.830189z"/><path d="m193.207547 19.320755h4.830189v4.830189h-4.830189z"/><path d="m193.207547 33.811321h4.830189v4.830189h-4.830189z"/><path d="m193.207547 38.641509h4.830189v4.830189h-4.830189z"/><path d="m193.207547 48.301887h4.830189v4.830189h-4.830189z"/><path d="m193.207547 53.132075h4.830189v4.830189h-4.830189z"/><path d="m193.207547 62.792453h4.830189v4.830189h-4.830189z"/><path d="m193.207547 72.45283h4.830189v4.830189h-4.830189z"/><path d="m193.207547 82.113208h4.830189v4.830189h-4.830189z"/><path d="m193.207547 86.943396h4.830189v4.830189h-4.830189z"/><path d="m193.207547 91.773585h4.830189v4.830189h-4.830189z"/><path d="m193.207547 101.433962h4.830189v4.830189h-4.830189z"/><path d="m193.207547 106.264151h4.830189v4.830189h-4.830189z"/><path d="m193.207547 115.924528h4.830189v4.830189h-4.830189z"/><path d="m193.207547 120.754717h4.830189v4.830189h-4.830189z"/><path d="m193.207547 125.584906h4.830189v4.830189h-4.830189z"/><path d="m193.207547 130.415094h4.830189v4.830189h-4.830189z"/><path d="m193.207547 135.245283h4.830189v4.830189h-4.830189z"/><path d="m193.207547 149.735849h4.830189v4.830189h-4.830189z"/><path d="m193.207547 154.566038h4.830189v4.830189h-4.830189z"/><path d="m193.207547 159.396226h4.830189v4.830189h-4.830189z"/><path d="m193.207547 164.226415h4.830189v4.830189h-4.830189z"/><path d="m193.207547 173.886792h4.830189v4.830189h-4.830189z"/><path d="m193.207547 188.377358h4.830189v4.830189h-4.830189z"/><path d="m193.207547 193.207547h4.830189v4.830189h-4.830189z"/><path d="m193.207547 198.037736h4.830189v4.830189h-4.830189z"/><path d="m193.207547 202.867925h4.830189v4.830189h-4.830189z"/><path d="m193.207547 207.698113h4.830189v4.830189h-4.830189z"/><path d="m193.207547 212.528302h4.830189v4.830189h-4.830189z"/><path d="m193.207547 222.188679h4.830189v4.830189h-4.830189z"/><path d="m193.207547 227.018868h4.830189v4.830189h-4.830189z"/><path d="m193.207547 231.849057h4.830189v4.830189h-4.830189z"/><path d="m198.037736 62.792453h4.830189v4.830189h-4.830189z"/><path d="m198.037736 72.45283h4.830189v4.830189h-4.830189z"/><path d="m198.037736 86.943396h4.830189v4.830189h-4.830189z"/><path d="m198.037736 96.603774h4.830189v4.830189h-4.830189z"/><path d="m198.037736 101.433962h4.830189v4.830189h-4.830189z"/><path d="m198.037736 115.924528h4.830189v4.830189h-4.830189z"/><path d="m198.037736 135.245283h4.830189v4.830189h-4.830189z"/><path d="m198.037736 149.735849h4.830189v4.830189h-4.830189z"/><path d="m198.037736 169.056604h4.830189v4.830189h-4.830189z"/><path d="m198.037736 173.886792h4.830189v4.830189h-4.830189z"/><path d="m198.037736 188.377358h4.830189v4.830189h-4.830189z"/><path d="m198.037736 193.207547h4.830189v4.830189h-4.830189z"/><path d="m198.037736 212.528302h4.830189v4.830189h-4.830189z"/><path d="m198.037736 217.358491h4.830189v4.830189h-4.830189z"/><path d="m198.037736 231.849057h4.830189v4.830189h-4.830189z"/><path d="m202.867925 19.320755h4.830189v4.830189h-4.830189z"/><path d="m202.867925 24.150943h4.830189v4.830189h-4.830189z"/><path d="m202.867925 28.981132h4.830189v4.830189h-4.830189z"/><path d="m202.867925 33.811321h4.830189v4.830189h-4.830189z"/><path d="m202.867925 38.641509h4.830189v4.830189h-4.830189z"/><path d="m202.867925 43.471698h4.830189v4.830189h-4.830189z"/><path d="m202.867925 48.301887h4.830189v4.830189h-4.830189z"/><path d="m202.867925 67.622642h4.830189v4.830189h-4.830189z"/><path d="m202.867925 86.943396h4.830189v4.830189h-4.830189z"/><path d="m202.867925 96.603774h4.830189v4.830189h-4.830189z"/><path d="m202.867925 106.264151h4.830189v4.830189h-4.830189z"/><path d="m202.867925 115.924528h4.830189v4.830189h-4.830189z"/><path d="m202.867925 125.584906h4.830189v4.830189h-4.830189z"/><path d="m202.867925 135.245283h4.830189v4.830189h-4.830189z"/><path d="m202.867925 140.075472h4.830189v4.830189h-4.830189z"/><path d="m202.867925 149.735849h4.830189v4.830189h-4.830189z"/><path d="m202.867925 159.396226h4.830189v4.830189h-4.830189z"/><path d="m202.867925 169.056604h4.830189v4.830189h-4.830189z"/><path d="m202.867925 188.377358h4.830189v4.830189h-4.830189z"/><path d="m202.867925 193.207547h4.830189v4.830189h-4.830189z"/><path d="m202.867925 202.867925h4.830189v4.830189h-4.830189z"/><path d="m202.867925 212.528302h4.830189v4.830189h-4.830189z"/><path d="m202.867925 231.849057h4.830189v4.830189h-4.830189z"/><path d="m207.698113 19.320755h4.830189v4.830189h-4.830189z"/><path d="m207.698113 48.301887h4.830189v4.830189h-4.830189z"/><path d="m207.698113 57.962264h4.830189v4.830189h-4.830189z"/><path d="m207.698113 62.792453h4.830189v4.830189h-4.830189z"/><path d="m207.698113 67.622642h4.830189v4.830189h-4.830189z"/><path d="m207.698113 77.283019h4.830189v4.830189h-4.830189z"/><path d="m207.698113 82.113208h4.830189v4.830189h-4.830189z"/><path d="m207.698113 86.943396h4.830189v4.830189h-4.830189z"/><path d="m207.698113 96.603774h4.830189v4.830189h-4.830189z"/><path d="m207.698113 101.433962h4.830189v4.830189h-4.830189z"/><path d="m207.698113 106.264151h4.830189v4.830189h-4.830189z"/><path d="m207.698113 115.924528h4.830189v4.830189h-4.830189z"/><path d="m207.698113 135.245283h4.830189v4.830189h-4.830189z"/><path d="m207.698113 140.075472h4.830189v4.830189h-4.830189z"/><path d="m207.698113 144.90566h4.830189v4.830189h-4.830189z"/><path d="m207.698113 154.566038h4.830189v4.830189h-4.830189z"/><path d="m207.698113 173.886792h4.830189v4.830189h-4.830189z"/><path d="m207.698113 188.377358h4.830189v4.830189h-4.830189z"/><path d="m207.698113 193.207547h4.830189v4.830189h-4.830189z"/><path d="m207.698113 212.528302h4.830189v4.830189h-4.830189z"/><path d="m207.698113 222.188679h4.830189v4.830189h-4.830189z"/><path d="m207.698113 227.018868h4.830189v4.830189h-4.830189z"/><path d="m207.698113 231.849057h4.830189v4.830189h-4.830189z"/><path d="m212.528302 19.320755h4.830189v4.830189h-4.830189z"/><path d="m212.528302 28.981132h4.830189v4.830189h-4.830189z"/><path d="m212.528302 33.811321h4.830189v4.830189h-4.830189z"/><path d="m212.528302 38.641509h4.830189v4.830189h-4.830189z"/><path d="m212.528302 48.301887h4.830189v4.830189h-4.830189z"/><path d="m212.528302 57.962264h4.830189v4.830189h-4.830189z"/><path d="m212.528302 72.45283h4.830189v4.830189h-4.830189z"/><path d="m212.528302 82.113208h4.830189v4.830189h-4.830189z"/><path d="m212.528302 91.773585h4.830189v4.830189h-4.830189z"/><path d="m212.528302 101.433962h4.830189v4.830189h-4.830189z"/><path d="m212.528302 111.09434h4.830189v4.830189h-4.830189z"/><path d="m212.528302 115.924528h4.830189v4.830189h-4.830189z"/><path d="m212.528302 120.754717h4.830189v4.830189h-4.830189z"/><path d="m212.528302 125.584906h4.830189v4.830189h-4.830189z"/><path d="m212.528302 130.415094h4.830189v4.830189h-4.830189z"/><path d="m212.528302 135.245283h4.830189v4.830189h-4.830189z"/><path d="m212.528302 154.566038h4.830189v4.830189h-4.830189z"/><path d="m212.528302 173.886792h4.830189v4.830189h-4.830189z"/><path d="m212.528302 188.377358h4.830189v4.830189h-4.830189z"/><path d="m212.528302 193.207547h4.830189v4.830189h-4.830189z"/><path d="m212.528302 198.037736h4.830189v4.830189h-4.830189z"/><path d="m212.528302 202.867925h4.830189v4.830189h-4.830189z"/><path d="m212.528302 207.698113h4.830189v4.830189h-4.830189z"/><path d="m212.528302 212.528302h4.830189v4.830189h-4.830189z"/><path d="m212.528302 217.358491h4.830189v4.830189h-4.830189z"/><path d="m212.528302 227.018868h4.830189v4.830189h-4.830189z"/><path d="m217.358491 19.320755h4.830189v4.830189h-4.830189z"/><path d="m217.358491 28.981132h4.830189v4.830189h-4.830189z"/><path d="m217.358491 33.811321h4.830189v4.830189h-4.830189z"/><path d="m217.358491 38.641509h4.830189v4.830189h-4.830189z"/><path d="m217.358491 48.301887h4.830189v4.830189h-4.830189z"/><path d="m217.358491 62.792453h4.830189v4.830189h-4.830189z"/><path d="m217.358491 77.283019h4.830189v4.830189h-4.830189z"/><path d="m217.358491 82.113208h4.830189v4.830189h-4.830189z"/><path d="m217.358491 96.603774h4.830189v4.830189h-4.830189z"/><path d="m217.358491 106.264151h4.830189v4.830189h-4.830189z"/><path d="m217.358491 135.245283h4.830189v4.830189h-4.830189z"/><path d="m217.358491 140.075472h4.830189v4.830189h-4.830189z"/><path d="m217.358491 144.90566h4.830189v4.830189h-4.830189z"/><path d="m217.358491 154.566038h4.830189v4.830189h-4.830189z"/><path d="m217.358491 159.396226h4.830189v4.830189h-4.830189z"/><path d="m217.358491 164.226415h4.830189v4.830189h-4.830189z"/><path d="m217.358491 169.056604h4.830189v4.830189h-4.830189z"/><path d="m217.358491 193.207547h4.830189v4.830189h-4.830189z"/><path d="m217.358491 198.037736h4.830189v4.830189h-4.830189z"/><path d="m217.358491 212.528302h4.830189v4.830189h-4.830189z"/><path d="m217.358491 217.358491h4.830189v4.830189h-4.830189z"/><path d="m217.358491 231.849057h4.830189v4.830189h-4.830189z"/><path d="m222.188679 19.320755h4.830189v4.830189h-4.830189z"/><path d="m222.188679 28.981132h4.830189v4.830189h-4.830189z"/><path d="m222.188679 33.811321h4.830189v4.830189h-4.830189z"/><path d="m222.188679 38.641509h4.830189v4.830189h-4.830189z"/><path d="m222.188679 48.301887h4.830189v4.830189h-4.830189z"/><path d="m222.188679 62.792453h4.830189v4.830189h-4.830189z"/><path d="m222.188679 67.622642h4.830189v4.830189h-4.830189z"/><path d="m222.188679 72.45283h4.830189v4.830189h-4.830189z"/><path d="m222.188679 82.113208h4.830189v4.830189h-4.830189z"/><path d="m222.188679 91.773585h4.830189v4.830189h-4.830189z"/><path d="m222.188679 101.433962h4.830189v4.830189h-4.830189z"/><path d="m222.188679 106.264151h4.830189v4.830189h-4.830189z"/><path d="m222.188679 111.09434h4.830189v4.830189h-4.830189z"/><path d="m222.188679 120.754717h4.830189v4.830189h-4.830189z"/><path d="m222.188679 125.584906h4.830189v4.830189h-4.830189z"/><path d="m222.188679 130.415094h4.830189v4.830189h-4.830189z"/><path d="m222.188679 140.075472h4.830189v4.830189h-4.830189z"/><path d="m222.188679 144.90566h4.830189v4.830189h-4.830189z"/><path d="m222.188679 149.735849h4.830189v4.830189h-4.830189z"/><path d="m222.188679 159.396226h4.830189v4.830189h-4.830189z"/><path d="m222.188679 164.226415h4.830189v4.830189h-4.830189z"/><path d="m222.188679 169.056604h4.830189v4.830189h-4.830189z"/><path d="m222.188679 178.716981h4.830189v4.830189h-4.830189z"/><path d="m222.188679 188.377358h4.830189v4.830189h-4.830189z"/><path d="m222.188679 198.037736h4.830189v4.830189h-4.830189z"/><path d="m222.188679 207.698113h4.830189v4.830189h-4.830189z"/><path d="m222.188679 227.018868h4.830189v4.830189h-4.830189z"/><path d="m227.018868 19.320755h4.830189v4.830189h-4.830189z"/><path d="m227.018868 48.301887h4.830189v4.830189h-4.830189z"/><path d="m227.018868 67.622642h4.830189v4.830189h-4.830189z"/><path d="m227.018868 86.943396h4.830189v4.830189h-4.830189z"/><path d="m227.018868 91.773585h4.830189v4.830189h-4.830189z"/><path d="m227.018868 96.603774h4.830189v4.830189h-4.830189z"/><path d="m227.018868 101.433962h4.830189v4.830189h-4.830189z"/><path d="m227.018868 115.924528h4.830189v4.830189h-4.830189z"/><path d="m227.018868 120.754717h4.830189v4.830189h-4.830189z"/><path d="m227.018868 135.245283h4.830189v4.830189h-4.830189z"/><path d="m227.018868 140.075472h4.830189v4.830189h-4.830189z"/><path d="m227.018868 149.735849h4.830189v4.830189h-4.830189z"/><path d="m227.018868 154.566038h4.830189v4.830189h-4.830189z"/><path d="m227.018868 164.226415h4.830189v4.830189h-4.830189z"/><path d="m227.018868 173.886792h4.830189v4.830189h-4.830189z"/><path d="m227.018868 178.716981h4.830189v4.830189h-4.830189z"/><path d="m227.018868 188.377358h4.830189v4.830189h-4.830189z"/><path d="m227.018868 193.207547h4.830189v4.830189h-4.830189z"/><path d="m227.018868 202.867925h4.830189v4.830189h-4.830189z"/><path d="m227.018868 207.698113h4.830189v4.830189h-4.830189z"/><path d="m227.018868 212.528302h4.830189v4.830189h-4.830189z"/><path d="m227.018868 217.358491h4.830189v4.830189h-4.830189z"/><path d="m227.018868 222.188679h4.830189v4.830189h-4.830189z"/><path d="m227.018868 231.849057h4.830189v4.830189h-4.830189z"/><path d="m231.849057 19.320755h4.830189v4.830189h-4.830189z"/><path d="m231.849057 24.150943h4.830189v4.830189h-4.830189z"/><path d="m231.849057 28.981132h4.830189v4.830189h-4.830189z"/><path d="m231.849057 33.811321h4.830189v4.830189h-4.830189z"/><path d="m231.849057 38.641509h4.830189v4.830189h-4.830189z"/><path d="m231.849057 43.471698h4.830189v4.830189h-4.830189z"/><path d="m231.849057 48.301887h4.830189v4.830189h-4.830189z"/><path d="m231.849057 57.962264h4.830189v4.830189h-4.830189z"/><path d="m231.849057 62.792453h4.830189v4.830189h-4.830189z"/><path d="m231.849057 77.283019h4.830189v4.830189h-4.830189z"/><path d="m231.849057 82.113208h4.830189v4.830189h-4.830189z"/><path d="m231.849057 101.433962h4.830189v4.830189h-4.830189z"/><path d="m231.849057 111.09434h4.830189v4.830189h-4.830189z"/><path d="m231.849057 120.754717h4.830189v4.830189h-4.830189z"/><path d="m231.849057 130.415094h4.830189v4.830189h-4.830189z"/><path d="m231.849057 140.075472h4.830189v4.830189h-4.830189z"/><path d="m231.849057 159.396226h4.830189v4.830189h-4.830189z"/><path d="m231.849057 178.716981h4.830189v4.830189h-4.830189z"/><path d="m231.849057 198.037736h4.830189v4.830189h-4.830189z"/><path d="m231.849057 207.698113h4.830189v4.830189h-4.830189z"/></svg>