<svg baseProfile="full" shape-rendering="crispEdges" viewBox="0 0 256 256" xmlns="http://www.w3.org/2000/svg"><path fill="#f5f5f7" d="M0 0h256v256H0z"/><path d="M15.754 15.754h3.938v3.938h-3.938zM15.754 19.692h3.938v3.938h-3.938zM15.754 23.631h3.938v3.938h-3.938zM15.754 27.569h3.938v3.938h-3.938zM15.754 31.508h3.938v3.938h-3.938zM15.754 35.446h3.938v3.938h-3.938zM15.754 39.385h3.938v3.938h-3.938zM15.754 55.138h3.938v3.938h-3.938zM15.754 63.015h3.938v3.938h-3.938zM15.754 70.892h3.938v3.938h-3.938zM15.754 78.769h3.938v3.938h-3.938zM15.754 86.646h3.938v3.938h-3.938zM15.754 94.523h3.938v3.938h-3.938zM15.754 110.277h3.938v3.938h-3.938zM15.754 118.154h3.938v3.938h-3.938zM15.754 122.092h3.938v3.938h-3.938zM15.754 126.031h3.938v3.938h-3.938zM15.754 133.908h3.938v3.938h-3.938zM15.754 137.846h3.938v3.938h-3.938zM15.754 141.785h3.938v3.938h-3.938zM15.754 145.723h3.938v3.938h-3.938zM15.754 149.662h3.938v3.938h-3.938zM15.754 161.477h3.938v3.938h-3.938zM15.754 165.415h3.938v3.938h-3.938zM15.754 185.108h3.938v3.938h-3.938zM15.754 189.046h3.938v3.938h-3.938zM15.754 196.923h3.938v3.938h-3.938zM15.754 200.862h3.938v3.938h-3.938zM15.754 212.677h3.938v3.938h-3.938zM15.754 216.615h3.938v3.938h-3.938zM15.754 220.554h3.938v3.938h-3.938zM15.754 224.492h3.938v3.938h-3.938zM15.754 228.431h3.938v3.938h-3.938zM15.754 232.369h3.938v3.938h-3.938zM15.754 236.308h3.938v3.938h-3.938zM19.692 15.754h3.938v3.938h-3.938zM19.692 39.385h3.938v3.938h-3.938zM19.692 47.262h3.938V51.2h-3.938zM19.692 59.077h3.938v3.938h-3.938zM19.692 82.708h3.938v3.938h-3.938zM19.692 94.523h3.938v3.938h-3.938zM19.692 98.462h3.938v3.938h-3.938zM19.692 106.338h3.938v3.938h-3.938zM19.692 110.277h3.938v3.938h-3.938zM19.692 114.215h3.938v3.938h-3.938zM19.692 118.154h3.938v3.938h-3.938zM19.692 133.908h3.938v3.938h-3.938zM19.692 137.846h3.938v3.938h-3.938zM19.692 149.662h3.938v3.938h-3.938zM19.692 157.538h3.938v3.938h-3.938zM19.692 169.354h3.938v3.938h-3.938zM19.692 177.231h3.938v3.938h-3.938zM19.692 185.108h3.938v3.938h-3.938zM19.692 189.046h3.938v3.938h-3.938zM19.692 200.862h3.938v3.938h-3.938zM19.692 212.677h3.938v3.938h-3.938zM19.692 236.308h3.938v3.938h-3.938zM23.631 15.754h3.938v3.938h-3.938zM23.631 23.631h3.938v3.938h-3.938zM23.631 27.569h3.938v3.938h-3.938zM23.631 31.508h3.938v3.938h-3.938zM23.631 39.385h3.938v3.938h-3.938zM23.631 55.138h3.938v3.938h-3.938zM23.631 63.015h3.938v3.938h-3.938zM23.631 78.769h3.938v3.938h-3.938zM23.631 82.708h3.938v3.938h-3.938zM23.631 90.585h3.938v3.938h-3.938zM23.631 94.523h3.938v3.938h-3.938zM23.631 110.277h3.938v3.938h-3.938zM23.631 118.154h3.938v3.938h-3.938zM23.631 122.092h3.938v3.938h-3.938zM23.631 126.031h3.938v3.938h-3.938zM23.631 133.908h3.938v3.938h-3.938zM23.631 137.846h3.938v3.938h-3.938zM23.631 145.723h3.938v3.938h-3.938zM23.631 157.538h3.938v3.938h-3.938zM23.631 161.477h3.938v3.938h-3.938zM23.631 165.415h3.938v3.938h-3.938zM23.631 181.169h3.938v3.938h-3.938zM23.631 185.108h3.938v3.938h-3.938zM23.631 192.985h3.938v3.938h-3.938zM23.631 196.923h3.938v3.938h-3.938zM23.631 200.862h3.938v3.938h-3.938zM23.631 212.677h3.938v3.938h-3.938zM23.631 220.554h3.938v3.938h-3.938zM23.631 224.492h3.938v3.938h-3.938zM23.631 228.431h3.938v3.938h-3.938zM23.631 236.308h3.938v3.938h-3.938zM27.569 15.754h3.938v3.938h-3.938zM27.569 23.631h3.938v3.938h-3.938zM27.569 27.569h3.938v3.938h-3.938zM27.569 31.508h3.938v3.938h-3.938zM27.569 39.385h3.938v3.938h-3.938zM27.569 47.262h3.938V51.2h-3.938zM27.569 51.2h3.938v3.938h-3.938z"/><path d="M27.569 55.138h3.938v3.938h-3.938zM27.569 59.077h3.938v3.938h-3.938zM27.569 74.831h3.938v3.938h-3.938zM27.569 78.769h3.938v3.938h-3.938zM27.569 82.708h3.938v3.938h-3.938zM27.569 94.523h3.938v3.938h-3.938zM27.569 98.462h3.938v3.938h-3.938zM27.569 102.4h3.938v3.938h-3.938z"/><path d="M27.569 106.338h3.938v3.938h-3.938zM27.569 114.215h3.938v3.938h-3.938zM27.569 118.154h3.938v3.938h-3.938zM27.569 126.031h3.938v3.938h-3.938zM27.569 129.969h3.938v3.938h-3.938zM27.569 137.846h3.938v3.938h-3.938zM27.569 145.723h3.938v3.938h-3.938zM27.569 149.662h3.938v3.938h-3.938zM27.569 153.6h3.938v3.938h-3.938zM27.569 157.538h3.938v3.938h-3.938zM27.569 161.477h3.938v3.938h-3.938zM27.569 169.354h3.938v3.938h-3.938zM27.569 173.292h3.938v3.938h-3.938zM27.569 177.231h3.938v3.938h-3.938zM27.569 181.169h3.938v3.938h-3.938zM27.569 200.862h3.938v3.938h-3.938zM27.569 212.677h3.938v3.938h-3.938zM27.569 220.554h3.938v3.938h-3.938zM27.569 224.492h3.938v3.938h-3.938zM27.569 228.431h3.938v3.938h-3.938zM27.569 236.308h3.938v3.938h-3.938zM31.508 15.754h3.938v3.938h-3.938zM31.508 23.631h3.938v3.938h-3.938zM31.508 27.569h3.938v3.938h-3.938zM31.508 31.508h3.938v3.938h-3.938zM31.508 39.385h3.938v3.938h-3.938zM31.508 47.262h3.938V51.2h-3.938zM31.508 55.138h3.938v3.938h-3.938zM31.508 59.077h3.938v3.938h-3.938zM31.508 63.015h3.938v3.938h-3.938zM31.508 66.954h3.938v3.938h-3.938zM31.508 70.892h3.938v3.938h-3.938zM31.508 78.769h3.938v3.938h-3.938zM31.508 82.708h3.938v3.938h-3.938zM31.508 90.585h3.938v3.938h-3.938zM31.508 94.523h3.938v3.938h-3.938zM31.508 102.4h3.938v3.938h-3.938z"/><path d="M31.508 106.338h3.938v3.938h-3.938zM31.508 114.215h3.938v3.938h-3.938zM31.508 118.154h3.938v3.938h-3.938zM31.508 122.092h3.938v3.938h-3.938zM31.508 126.031h3.938v3.938h-3.938zM31.508 129.969h3.938v3.938h-3.938zM31.508 133.908h3.938v3.938h-3.938zM31.508 137.846h3.938v3.938h-3.938zM31.508 157.538h3.938v3.938h-3.938zM31.508 161.477h3.938v3.938h-3.938zM31.508 165.415h3.938v3.938h-3.938zM31.508 169.354h3.938v3.938h-3.938zM31.508 173.292h3.938v3.938h-3.938zM31.508 181.169h3.938v3.938h-3.938zM31.508 185.108h3.938v3.938h-3.938zM31.508 189.046h3.938v3.938h-3.938zM31.508 200.862h3.938v3.938h-3.938zM31.508 212.677h3.938v3.938h-3.938zM31.508 220.554h3.938v3.938h-3.938zM31.508 224.492h3.938v3.938h-3.938zM31.508 228.431h3.938v3.938h-3.938zM31.508 236.308h3.938v3.938h-3.938zM35.446 15.754h3.938v3.938h-3.938zM35.446 39.385h3.938v3.938h-3.938zM35.446 47.262h3.938V51.2h-3.938zM35.446 63.015h3.938v3.938h-3.938zM35.446 66.954h3.938v3.938h-3.938zM35.446 78.769h3.938v3.938h-3.938zM35.446 90.585h3.938v3.938h-3.938zM35.446 94.523h3.938v3.938h-3.938zM35.446 98.462h3.938v3.938h-3.938zM35.446 102.4h3.938v3.938h-3.938zM35.446 110.277h3.938v3.938h-3.938zM35.446 118.154h3.938v3.938h-3.938zM35.446 133.908h3.938v3.938h-3.938zM35.446 137.846h3.938v3.938h-3.938zM35.446 149.662h3.938v3.938h-3.938zM35.446 157.538h3.938v3.938h-3.938zM35.446 161.477h3.938v3.938h-3.938zM35.446 165.415h3.938v3.938h-3.938zM35.446 192.985h3.938v3.938h-3.938zM35.446 196.923h3.938v3.938h-3.938zM35.446 212.677h3.938v3.938h-3.938zM35.446 236.308h3.938v3.938h-3.938zM39.385 15.754h3.938v3.938h-3.938zM39.385 19.692h3.938v3.938h-3.938zM39.385 23.631h3.938v3.938h-3.938zM39.385 27.569h3.938v3.938h-3.938zM39.385 31.508h3.938v3.938h-3.938zM39.385 35.446h3.938v3.938h-3.938zM39.385 39.385h3.938v3.938h-3.938zM39.385 47.262h3.938V51.2h-3.938zM39.385 55.138h3.938v3.938h-3.938zM39.385 63.015h3.938v3.938h-3.938zM39.385 70.892h3.938v3.938h-3.938zM39.385 78.769h3.938v3.938h-3.938zM39.385 86.646h3.938v3.938h-3.938zM39.385 94.523h3.938v3.938h-3.938zM39.385 102.4h3.938v3.938h-3.938zM39.385 110.277h3.938v3.938h-3.938zM39.385 118.154h3.938v3.938h-3.938zM39.385 126.031h3.938v3.938h-3.938zM39.385 133.908h3.938v3.938h-3.938zM39.385 141.785h3.938v3.938h-3.938zM39.385 149.662h3.938v3.938h-3.938zM39.385 157.538h3.938v3.938h-3.938zM39.385 165.415h3.938v3.938h-3.938zM39.385 173.292h3.938v3.938h-3.938zM39.385 181.169h3.938v3.938h-3.938zM39.385 189.046h3.938v3.938h-3.938zM39.385 196.923h3.938v3.938h-3.938zM39.385 204.8h3.938v3.938h-3.938zM39.385 212.677h3.938v3.938h-3.938zM39.385 216.615h3.938v3.938h-3.938zM39.385 220.554h3.938v3.938h-3.938zM39.385 224.492h3.938v3.938h-3.938zM39.385 228.431h3.938v3.938h-3.938zM39.385 232.369h3.938v3.938h-3.938zM39.385 236.308h3.938v3.938h-3.938zM43.323 59.077h3.938v3.938h-3.938zM43.323 63.015h3.938v3.938h-3.938zM43.323 66.954h3.938v3.938h-3.938zM43.323 70.892h3.938v3.938h-3.938zM43.323 74.831h3.938v3.938h-3.938zM43.323 90.585h3.938v3.938h-3.938zM43.323 94.523h3.938v3.938h-3.938zM43.323 98.462h3.938v3.938h-3.938zM43.323 106.338h3.938v3.938h-3.938zM43.323 118.154h3.938v3.938h-3.938zM43.323 133.908h3.938v3.938h-3.938zM43.323 137.846h3.938v3.938h-3.938zM43.323 145.723h3.938v3.938h-3.938zM43.323 149.662h3.938v3.938h-3.938zM43.323 157.538h3.938v3.938h-3.938zM43.323 161.477h3.938v3.938h-3.938zM43.323 177.231h3.938v3.938h-3.938zM43.323 181.169h3.938v3.938h-3.938zM43.323 185.108h3.938v3.938h-3.938zM43.323 200.862h3.938v3.938h-3.938zM43.323 204.8h3.938v3.938h-3.938zM47.262 19.692H51.2v3.938h-3.938zM47.262 27.569H51.2v3.938h-3.938zM47.262 31.508H51.2v3.938h-3.938zM47.262 39.385H51.2v3.938h-3.938zM47.262 43.323H51.2v3.938h-3.938zM47.262 47.262H51.2V51.2h-3.938zM47.262 51.2H51.2v3.938h-3.938zM47.262 59.077H51.2v3.938h-3.938zM47.262 63.015H51.2v3.938h-3.938zM47.262 66.954H51.2v3.938h-3.938zM47.262 70.892H51.2v3.938h-3.938zM47.262 74.831H51.2v3.938h-3.938zM47.262 82.708H51.2v3.938h-3.938zM47.262 90.585H51.2v3.938h-3.938zM47.262 98.462H51.2v3.938h-3.938zM47.262 106.338H51.2v3.938h-3.938zM47.262 110.277H51.2v3.938h-3.938zM47.262 114.215H51.2v3.938h-3.938zM47.262 118.154H51.2v3.938h-3.938zM47.262 122.092H51.2v3.938h-3.938zM47.262 126.031H51.2v3.938h-3.938zM47.262 129.969H51.2v3.938h-3.938zM47.262 133.908H51.2v3.938h-3.938zM47.262 145.723H51.2v3.938h-3.938zM47.262 165.415H51.2v3.938h-3.938zM47.262 181.169H51.2v3.938h-3.938zM47.262 196.923H51.2v3.938h-3.938zM47.262 200.862H51.2v3.938h-3.938zM47.262 208.738H51.2v3.938h-3.938zM47.262 216.615H51.2v3.938h-3.938zM47.262 220.554H51.2v3.938h-3.938zM47.262 224.492H51.2v3.938h-3.938zM47.262 232.369H51.2v3.938h-3.938zM51.2 15.754h3.938v3.938H51.2zM51.2 19.692h3.938v3.938H51.2zM51.2 23.631h3.938v3.938H51.2zM51.2 27.569h3.938v3.938H51.2zM51.2 35.446h3.938v3.938H51.2zM51.2 51.2h3.938v3.938H51.2z"/><path d="M51.2 55.138h3.938v3.938H51.2zM51.2 63.015h3.938v3.938H51.2zM51.2 70.892h3.938v3.938H51.2zM51.2 78.769h3.938v3.938H51.2zM51.2 90.585h3.938v3.938H51.2zM51.2 98.462h3.938v3.938H51.2zM51.2 106.338h3.938v3.938H51.2zM51.2 110.277h3.938v3.938H51.2zM51.2 114.215h3.938v3.938H51.2zM51.2 118.154h3.938v3.938H51.2zM51.2 122.092h3.938v3.938H51.2zM51.2 126.031h3.938v3.938H51.2zM51.2 129.969h3.938v3.938H51.2zM51.2 141.785h3.938v3.938H51.2zM51.2 149.662h3.938v3.938H51.2zM51.2 177.231h3.938v3.938H51.2zM51.2 189.046h3.938v3.938H51.2zM51.2 208.738h3.938v3.938H51.2zM51.2 212.677h3.938v3.938H51.2zM51.2 216.615h3.938v3.938H51.2zM51.2 220.554h3.938v3.938H51.2zM51.2 228.431h3.938v3.938H51.2zM51.2 232.369h3.938v3.938H51.2zM51.2 236.308h3.938v3.938H51.2zM55.138 19.692h3.938v3.938h-3.938zM55.138 23.631h3.938v3.938h-3.938zM55.138 39.385h3.938v3.938h-3.938zM55.138 43.323h3.938v3.938h-3.938zM55.138 47.262h3.938V51.2h-3.938z"/><path d="M55.138 55.138h3.938v3.938h-3.938zM55.138 59.077h3.938v3.938h-3.938zM55.138 78.769h3.938v3.938h-3.938zM55.138 86.646h3.938v3.938h-3.938zM55.138 98.462h3.938v3.938h-3.938zM55.138 106.338h3.938v3.938h-3.938zM55.138 110.277h3.938v3.938h-3.938zM55.138 114.215h3.938v3.938h-3.938zM55.138 118.154h3.938v3.938h-3.938zM55.138 122.092h3.938v3.938h-3.938zM55.138 133.908h3.938v3.938h-3.938zM55.138 141.785h3.938v3.938h-3.938zM55.138 145.723h3.938v3.938h-3.938zM55.138 161.477h3.938v3.938h-3.938zM55.138 165.415h3.938v3.938h-3.938zM55.138 169.354h3.938v3.938h-3.938zM55.138 181.169h3.938v3.938h-3.938zM55.138 185.108h3.938v3.938h-3.938zM55.138 189.046h3.938v3.938h-3.938zM55.138 200.862h3.938v3.938h-3.938zM55.138 204.8h3.938v3.938h-3.938zM55.138 208.738h3.938v3.938h-3.938zM55.138 212.677h3.938v3.938h-3.938zM55.138 216.615h3.938v3.938h-3.938zM55.138 220.554h3.938v3.938h-3.938zM55.138 232.369h3.938v3.938h-3.938zM59.077 15.754h3.938v3.938h-3.938zM59.077 23.631h3.938v3.938h-3.938zM59.077 31.508h3.938v3.938h-3.938zM59.077 35.446h3.938v3.938h-3.938zM59.077 63.015h3.938v3.938h-3.938zM59.077 66.954h3.938v3.938h-3.938zM59.077 74.831h3.938v3.938h-3.938zM59.077 94.523h3.938v3.938h-3.938zM59.077 106.338h3.938v3.938h-3.938zM59.077 118.154h3.938v3.938h-3.938zM59.077 122.092h3.938v3.938h-3.938zM59.077 126.031h3.938v3.938h-3.938zM59.077 145.723h3.938v3.938h-3.938zM59.077 153.6h3.938v3.938h-3.938zM59.077 157.538h3.938v3.938h-3.938zM59.077 169.354h3.938v3.938h-3.938zM59.077 177.231h3.938v3.938h-3.938zM59.077 189.046h3.938v3.938h-3.938zM59.077 192.985h3.938v3.938h-3.938zM59.077 204.8h3.938v3.938h-3.938zM59.077 232.369h3.938v3.938h-3.938zM59.077 236.308h3.938v3.938h-3.938zM63.015 15.754h3.938v3.938h-3.938zM63.015 19.692h3.938v3.938h-3.938zM63.015 23.631h3.938v3.938h-3.938zM63.015 27.569h3.938v3.938h-3.938zM63.015 31.508h3.938v3.938h-3.938zM63.015 35.446h3.938v3.938h-3.938zM63.015 39.385h3.938v3.938h-3.938zM63.015 47.262h3.938V51.2h-3.938zM63.015 51.2h3.938v3.938h-3.938z"/><path d="M63.015 55.138h3.938v3.938h-3.938zM63.015 63.015h3.938v3.938h-3.938zM63.015 66.954h3.938v3.938h-3.938zM63.015 70.892h3.938v3.938h-3.938zM63.015 74.831h3.938v3.938h-3.938zM63.015 78.769h3.938v3.938h-3.938zM63.015 86.646h3.938v3.938h-3.938zM63.015 129.969h3.938v3.938h-3.938zM63.015 137.846h3.938v3.938h-3.938zM63.015 149.662h3.938v3.938h-3.938zM63.015 173.292h3.938v3.938h-3.938zM63.015 177.231h3.938v3.938h-3.938zM63.015 185.108h3.938v3.938h-3.938zM63.015 196.923h3.938v3.938h-3.938zM63.015 200.862h3.938v3.938h-3.938zM63.015 212.677h3.938v3.938h-3.938zM63.015 216.615h3.938v3.938h-3.938zM63.015 224.492h3.938v3.938h-3.938zM63.015 232.369h3.938v3.938h-3.938zM63.015 236.308h3.938v3.938h-3.938zM66.954 19.692h3.938v3.938h-3.938zM66.954 23.631h3.938v3.938h-3.938zM66.954 51.2h3.938v3.938h-3.938z"/><path d="M66.954 55.138h3.938v3.938h-3.938zM66.954 63.015h3.938v3.938h-3.938zM66.954 70.892h3.938v3.938h-3.938zM66.954 78.769h3.938v3.938h-3.938zM66.954 82.708h3.938v3.938h-3.938zM66.954 90.585h3.938v3.938h-3.938zM66.954 114.215h3.938v3.938h-3.938zM66.954 118.154h3.938v3.938h-3.938zM66.954 129.969h3.938v3.938h-3.938zM66.954 145.723h3.938v3.938h-3.938zM66.954 153.6h3.938v3.938h-3.938zM66.954 157.538h3.938v3.938h-3.938zM66.954 161.477h3.938v3.938h-3.938zM66.954 165.415h3.938v3.938h-3.938zM66.954 181.169h3.938v3.938h-3.938zM66.954 189.046h3.938v3.938h-3.938zM66.954 192.985h3.938v3.938h-3.938zM66.954 196.923h3.938v3.938h-3.938zM66.954 208.738h3.938v3.938h-3.938zM66.954 212.677h3.938v3.938h-3.938zM66.954 216.615h3.938v3.938h-3.938zM66.954 220.554h3.938v3.938h-3.938zM66.954 228.431h3.938v3.938h-3.938zM66.954 232.369h3.938v3.938h-3.938zM70.892 15.754h3.938v3.938h-3.938zM70.892 23.631h3.938v3.938h-3.938zM70.892 27.569h3.938v3.938h-3.938zM70.892 35.446h3.938v3.938h-3.938zM70.892 39.385h3.938v3.938h-3.938zM70.892 43.323h3.938v3.938h-3.938zM70.892 55.138h3.938v3.938h-3.938zM70.892 59.077h3.938v3.938h-3.938zM70.892 66.954h3.938v3.938h-3.938zM70.892 70.892h3.938v3.938h-3.938zM70.892 86.646h3.938v3.938h-3.938zM70.892 90.585h3.938v3.938h-3.938zM70.892 94.523h3.938v3.938h-3.938zM70.892 98.462h3.938v3.938h-3.938zM70.892 102.4h3.938v3.938h-3.938z"/><path d="M70.892 106.338h3.938v3.938h-3.938zM70.892 122.092h3.938v3.938h-3.938zM70.892 126.031h3.938v3.938h-3.938zM70.892 129.969h3.938v3.938h-3.938zM70.892 137.846h3.938v3.938h-3.938zM70.892 141.785h3.938v3.938h-3.938zM70.892 145.723h3.938v3.938h-3.938zM70.892 157.538h3.938v3.938h-3.938zM70.892 161.477h3.938v3.938h-3.938zM70.892 173.292h3.938v3.938h-3.938zM70.892 181.169h3.938v3.938h-3.938zM70.892 185.108h3.938v3.938h-3.938zM70.892 196.923h3.938v3.938h-3.938zM70.892 200.862h3.938v3.938h-3.938zM70.892 204.8h3.938v3.938h-3.938zM70.892 232.369h3.938v3.938h-3.938zM70.892 236.308h3.938v3.938h-3.938zM74.831 15.754h3.938v3.938h-3.938zM74.831 27.569h3.938v3.938h-3.938zM74.831 31.508h3.938v3.938h-3.938zM74.831 43.323h3.938v3.938h-3.938zM74.831 59.077h3.938v3.938h-3.938zM74.831 63.015h3.938v3.938h-3.938zM74.831 66.954h3.938v3.938h-3.938zM74.831 78.769h3.938v3.938h-3.938zM74.831 90.585h3.938v3.938h-3.938zM74.831 102.4h3.938v3.938h-3.938z"/><path d="M74.831 106.338h3.938v3.938h-3.938zM74.831 118.154h3.938v3.938h-3.938zM74.831 126.031h3.938v3.938h-3.938zM74.831 133.908h3.938v3.938h-3.938zM74.831 141.785h3.938v3.938h-3.938zM74.831 145.723h3.938v3.938h-3.938zM74.831 153.6h3.938v3.938h-3.938zM74.831 161.477h3.938v3.938h-3.938zM74.831 165.415h3.938v3.938h-3.938zM74.831 173.292h3.938v3.938h-3.938zM74.831 189.046h3.938v3.938h-3.938zM74.831 196.923h3.938v3.938h-3.938zM74.831 212.677h3.938v3.938h-3.938zM74.831 224.492h3.938v3.938h-3.938zM78.769 19.692h3.938v3.938h-3.938zM78.769 35.446h3.938v3.938h-3.938zM78.769 39.385h3.938v3.938h-3.938zM78.769 43.323h3.938v3.938h-3.938zM78.769 51.2h3.938v3.938h-3.938z"/><path d="M78.769 55.138h3.938v3.938h-3.938zM78.769 63.015h3.938v3.938h-3.938zM78.769 74.831h3.938v3.938h-3.938zM78.769 78.769h3.938v3.938h-3.938zM78.769 82.708h3.938v3.938h-3.938zM78.769 86.646h3.938v3.938h-3.938zM78.769 98.462h3.938v3.938h-3.938zM78.769 106.338h3.938v3.938h-3.938zM78.769 122.092h3.938v3.938h-3.938zM78.769 129.969h3.938v3.938h-3.938zM78.769 133.908h3.938v3.938h-3.938zM78.769 137.846h3.938v3.938h-3.938zM78.769 149.662h3.938v3.938h-3.938zM78.769 173.292h3.938v3.938h-3.938zM78.769 185.108h3.938v3.938h-3.938zM78.769 200.862h3.938v3.938h-3.938zM78.769 204.8h3.938v3.938h-3.938zM78.769 212.677h3.938v3.938h-3.938zM78.769 224.492h3.938v3.938h-3.938zM78.769 236.308h3.938v3.938h-3.938zM82.708 19.692h3.938v3.938h-3.938zM82.708 23.631h3.938v3.938h-3.938zM82.708 47.262h3.938V51.2h-3.938zM82.708 51.2h3.938v3.938h-3.938z"/><path d="M82.708 55.138h3.938v3.938h-3.938zM82.708 59.077h3.938v3.938h-3.938zM82.708 66.954h3.938v3.938h-3.938zM82.708 78.769h3.938v3.938h-3.938zM82.708 82.708h3.938v3.938h-3.938zM82.708 90.585h3.938v3.938h-3.938zM82.708 98.462h3.938v3.938h-3.938zM82.708 114.215h3.938v3.938h-3.938zM82.708 118.154h3.938v3.938h-3.938zM82.708 122.092h3.938v3.938h-3.938zM82.708 129.969h3.938v3.938h-3.938zM82.708 137.846h3.938v3.938h-3.938zM82.708 149.662h3.938v3.938h-3.938zM82.708 157.538h3.938v3.938h-3.938zM82.708 161.477h3.938v3.938h-3.938zM82.708 165.415h3.938v3.938h-3.938zM82.708 169.354h3.938v3.938h-3.938zM82.708 177.231h3.938v3.938h-3.938zM82.708 181.169h3.938v3.938h-3.938zM82.708 192.985h3.938v3.938h-3.938zM82.708 196.923h3.938v3.938h-3.938zM82.708 200.862h3.938v3.938h-3.938zM82.708 204.8h3.938v3.938h-3.938zM82.708 208.738h3.938v3.938h-3.938zM82.708 224.492h3.938v3.938h-3.938zM82.708 236.308h3.938v3.938h-3.938zM86.646 15.754h3.938v3.938h-3.938zM86.646 19.692h3.938v3.938h-3.938zM86.646 27.569h3.938v3.938h-3.938zM86.646 35.446h3.938v3.938h-3.938zM86.646 39.385h3.938v3.938h-3.938zM86.646 47.262h3.938V51.2h-3.938zM86.646 63.015h3.938v3.938h-3.938zM86.646 66.954h3.938v3.938h-3.938zM86.646 74.831h3.938v3.938h-3.938zM86.646 78.769h3.938v3.938h-3.938zM86.646 82.708h3.938v3.938h-3.938zM86.646 86.646h3.938v3.938h-3.938zM86.646 90.585h3.938v3.938h-3.938zM86.646 94.523h3.938v3.938h-3.938zM86.646 98.462h3.938v3.938h-3.938zM86.646 102.4h3.938v3.938h-3.938z"/><path d="M86.646 106.338h3.938v3.938h-3.938zM86.646 118.154h3.938v3.938h-3.938zM86.646 126.031h3.938v3.938h-3.938zM86.646 129.969h3.938v3.938h-3.938zM86.646 133.908h3.938v3.938h-3.938zM86.646 145.723h3.938v3.938h-3.938zM86.646 153.6h3.938v3.938h-3.938zM86.646 157.538h3.938v3.938h-3.938zM86.646 165.415h3.938v3.938h-3.938zM86.646 169.354h3.938v3.938h-3.938zM86.646 196.923h3.938v3.938h-3.938zM86.646 224.492h3.938v3.938h-3.938zM86.646 236.308h3.938v3.938h-3.938zM90.585 23.631h3.938v3.938h-3.938zM90.585 31.508h3.938v3.938h-3.938zM90.585 35.446h3.938v3.938h-3.938zM90.585 47.262h3.938V51.2h-3.938zM90.585 51.2h3.938v3.938h-3.938zM90.585 63.015h3.938v3.938h-3.938zM90.585 70.892h3.938v3.938h-3.938zM90.585 74.831h3.938v3.938h-3.938zM90.585 90.585h3.938v3.938h-3.938zM90.585 94.523h3.938v3.938h-3.938zM90.585 110.277h3.938v3.938h-3.938zM90.585 118.154h3.938v3.938h-3.938zM90.585 129.969h3.938v3.938h-3.938zM90.585 137.846h3.938v3.938h-3.938zM90.585 145.723h3.938v3.938h-3.938zM90.585 149.662h3.938v3.938h-3.938zM90.585 157.538h3.938v3.938h-3.938zM90.585 161.477h3.938v3.938h-3.938zM90.585 165.415h3.938v3.938h-3.938zM90.585 177.231h3.938v3.938h-3.938zM90.585 185.108h3.938v3.938h-3.938zM90.585 196.923h3.938v3.938h-3.938zM90.585 204.8h3.938v3.938h-3.938zM90.585 224.492h3.938v3.938h-3.938zM90.585 236.308h3.938v3.938h-3.938zM94.523 15.754h3.938v3.938h-3.938zM94.523 27.569h3.938v3.938h-3.938zM94.523 35.446h3.938v3.938h-3.938zM94.523 39.385h3.938v3.938h-3.938zM94.523 66.954h3.938v3.938h-3.938zM94.523 70.892h3.938v3.938h-3.938zM94.523 78.769h3.938v3.938h-3.938zM94.523 82.708h3.938v3.938h-3.938zM94.523 94.523h3.938v3.938h-3.938zM94.523 98.462h3.938v3.938h-3.938zM94.523 102.4h3.938v3.938h-3.938z"/><path d="M94.523 106.338h3.938v3.938h-3.938zM94.523 118.154h3.938v3.938h-3.938zM94.523 137.846h3.938v3.938h-3.938zM94.523 153.6h3.938v3.938h-3.938zM94.523 161.477h3.938v3.938h-3.938zM94.523 169.354h3.938v3.938h-3.938zM94.523 173.292h3.938v3.938h-3.938zM94.523 181.169h3.938v3.938h-3.938zM94.523 185.108h3.938v3.938h-3.938zM94.523 189.046h3.938v3.938h-3.938zM94.523 196.923h3.938v3.938h-3.938zM94.523 200.862h3.938v3.938h-3.938zM94.523 204.8h3.938v3.938h-3.938zM94.523 212.677h3.938v3.938h-3.938zM94.523 216.615h3.938v3.938h-3.938zM94.523 224.492h3.938v3.938h-3.938zM94.523 236.308h3.938v3.938h-3.938zM98.462 23.631h3.938v3.938h-3.938zM98.462 31.508h3.938v3.938h-3.938zM98.462 47.262h3.938V51.2h-3.938zM98.462 51.2h3.938v3.938h-3.938z"/><path d="M98.462 55.138h3.938v3.938h-3.938zM98.462 59.077h3.938v3.938h-3.938zM98.462 63.015h3.938v3.938h-3.938zM98.462 66.954h3.938v3.938h-3.938zM98.462 74.831h3.938v3.938h-3.938zM98.462 78.769h3.938v3.938h-3.938zM98.462 86.646h3.938v3.938h-3.938zM98.462 98.462h3.938v3.938h-3.938zM98.462 102.4h3.938v3.938h-3.938z"/><path d="M98.462 106.338h3.938v3.938h-3.938zM98.462 110.277h3.938v3.938h-3.938zM98.462 118.154h3.938v3.938h-3.938zM98.462 133.908h3.938v3.938h-3.938zM98.462 137.846h3.938v3.938h-3.938zM98.462 149.662h3.938v3.938h-3.938zM98.462 169.354h3.938v3.938h-3.938zM98.462 173.292h3.938v3.938h-3.938zM98.462 189.046h3.938v3.938h-3.938zM98.462 196.923h3.938v3.938h-3.938zM98.462 208.738h3.938v3.938h-3.938zM98.462 216.615h3.938v3.938h-3.938zM98.462 220.554h3.938v3.938h-3.938zM98.462 224.492h3.938v3.938h-3.938zM98.462 228.431h3.938v3.938h-3.938zM102.4 27.569h3.938v3.938H102.4zM102.4 31.508h3.938v3.938H102.4zM102.4 39.385h3.938v3.938H102.4zM102.4 70.892h3.938v3.938H102.4zM102.4 78.769h3.938v3.938H102.4zM102.4 86.646h3.938v3.938H102.4zM102.4 102.4h3.938v3.938H102.4z"/><path d="M102.4 106.338h3.938v3.938H102.4zM102.4 114.215h3.938v3.938H102.4zM102.4 118.154h3.938v3.938H102.4zM102.4 122.092h3.938v3.938H102.4zM102.4 133.908h3.938v3.938H102.4zM102.4 137.846h3.938v3.938H102.4zM102.4 145.723h3.938v3.938H102.4zM102.4 161.477h3.938v3.938H102.4zM102.4 165.415h3.938v3.938H102.4zM102.4 177.231h3.938v3.938H102.4zM102.4 189.046h3.938v3.938H102.4zM102.4 196.923h3.938v3.938H102.4zM102.4 200.862h3.938v3.938H102.4zM102.4 208.738h3.938v3.938H102.4zM102.4 212.677h3.938v3.938H102.4zM102.4 216.615h3.938v3.938H102.4zM102.4 220.554h3.938v3.938H102.4zM102.4 236.308h3.938v3.938H102.4zM106.338 15.754h3.938v3.938h-3.938zM106.338 23.631h3.938v3.938h-3.938zM106.338 31.508h3.938v3.938h-3.938zM106.338 47.262h3.938V51.2h-3.938zM106.338 66.954h3.938v3.938h-3.938zM106.338 70.892h3.938v3.938h-3.938zM106.338 74.831h3.938v3.938h-3.938zM106.338 82.708h3.938v3.938h-3.938zM106.338 86.646h3.938v3.938h-3.938zM106.338 90.585h3.938v3.938h-3.938z"/><path d="M106.338 102.4h3.938v3.938h-3.938z"/><path d="M106.338 106.338h3.938v3.938h-3.938zM106.338 141.785h3.938v3.938h-3.938zM106.338 145.723h3.938v3.938h-3.938zM106.338 157.538h3.938v3.938h-3.938zM106.338 165.415h3.938v3.938h-3.938zM106.338 173.292h3.938v3.938h-3.938zM106.338 177.231h3.938v3.938h-3.938zM106.338 181.169h3.938v3.938h-3.938zM106.338 189.046h3.938v3.938h-3.938zM106.338 204.8h3.938v3.938h-3.938zM106.338 224.492h3.938v3.938h-3.938zM106.338 232.369h3.938v3.938h-3.938zM110.277 31.508h3.938v3.938h-3.938zM110.277 35.446h3.938v3.938h-3.938zM110.277 39.385h3.938v3.938h-3.938zM110.277 51.2h3.938v3.938h-3.938z"/><path d="M110.277 55.138h3.938v3.938h-3.938zM110.277 59.077h3.938v3.938h-3.938zM110.277 66.954h3.938v3.938h-3.938zM110.277 78.769h3.938v3.938h-3.938zM110.277 90.585h3.938v3.938h-3.938zM110.277 106.338h3.938v3.938h-3.938zM110.277 114.215h3.938v3.938h-3.938zM110.277 118.154h3.938v3.938h-3.938zM110.277 122.092h3.938v3.938h-3.938zM110.277 126.031h3.938v3.938h-3.938zM110.277 129.969h3.938v3.938h-3.938zM110.277 133.908h3.938v3.938h-3.938zM110.277 141.785h3.938v3.938h-3.938zM110.277 145.723h3.938v3.938h-3.938zM110.277 149.662h3.938v3.938h-3.938zM110.277 157.538h3.938v3.938h-3.938zM110.277 165.415h3.938v3.938h-3.938zM110.277 169.354h3.938v3.938h-3.938zM110.277 196.923h3.938v3.938h-3.938zM110.277 204.8h3.938v3.938h-3.938zM110.277 224.492h3.938v3.938h-3.938zM110.277 228.431h3.938v3.938h-3.938zM114.215 23.631h3.938v3.938h-3.938zM114.215 43.323h3.938v3.938h-3.938zM114.215 47.262h3.938V51.2h-3.938zM114.215 55.138h3.938v3.938h-3.938zM114.215 78.769h3.938v3.938h-3.938zM114.215 86.646h3.938v3.938h-3.938zM114.215 90.585h3.938v3.938h-3.938zM114.215 94.523h3.938v3.938h-3.938zM114.215 102.4h3.938v3.938h-3.938zM114.215 114.215h3.938v3.938h-3.938zM114.215 126.031h3.938v3.938h-3.938zM114.215 133.908h3.938v3.938h-3.938zM114.215 145.723h3.938v3.938h-3.938zM114.215 165.415h3.938v3.938h-3.938zM114.215 173.292h3.938v3.938h-3.938zM114.215 177.231h3.938v3.938h-3.938zM114.215 185.108h3.938v3.938h-3.938zM114.215 189.046h3.938v3.938h-3.938zM114.215 204.8h3.938v3.938h-3.938zM114.215 208.738h3.938v3.938h-3.938zM114.215 228.431h3.938v3.938h-3.938zM114.215 232.369h3.938v3.938h-3.938zM118.154 19.692h3.938v3.938h-3.938zM118.154 23.631h3.938v3.938h-3.938zM118.154 27.569h3.938v3.938h-3.938zM118.154 31.508h3.938v3.938h-3.938zM118.154 35.446h3.938v3.938h-3.938zM118.154 39.385h3.938v3.938h-3.938zM118.154 43.323h3.938v3.938h-3.938zM118.154 47.262h3.938V51.2h-3.938zM118.154 51.2h3.938v3.938h-3.938z"/><path d="M118.154 55.138h3.938v3.938h-3.938zM118.154 59.077h3.938v3.938h-3.938zM118.154 78.769h3.938v3.938h-3.938zM118.154 86.646h3.938v3.938h-3.938zM118.154 90.585h3.938v3.938h-3.938zM118.154 98.462h3.938v3.938h-3.938zM118.154 114.215h3.938v3.938h-3.938zM118.154 118.154h3.938v3.938h-3.938zM118.154 122.092h3.938v3.938h-3.938zM118.154 126.031h3.938v3.938h-3.938zM118.154 129.969h3.938v3.938h-3.938zM118.154 133.908h3.938v3.938h-3.938zM118.154 137.846h3.938v3.938h-3.938zM118.154 141.785h3.938v3.938h-3.938zM118.154 145.723h3.938v3.938h-3.938zM118.154 165.415h3.938v3.938h-3.938zM118.154 169.354h3.938v3.938h-3.938zM118.154 173.292h3.938v3.938h-3.938zM118.154 177.231h3.938v3.938h-3.938zM118.154 185.108h3.938v3.938h-3.938zM118.154 189.046h3.938v3.938h-3.938zM118.154 192.985h3.938v3.938h-3.938zM118.154 204.8h3.938v3.938h-3.938zM118.154 208.738h3.938v3.938h-3.938zM118.154 212.677h3.938v3.938h-3.938zM118.154 216.615h3.938v3.938h-3.938zM118.154 220.554h3.938v3.938h-3.938zM118.154 228.431h3.938v3.938h-3.938zM118.154 232.369h3.938v3.938h-3.938zM122.092 27.569h3.938v3.938h-3.938zM122.092 31.508h3.938v3.938h-3.938zM122.092 47.262h3.938V51.2h-3.938zM122.092 55.138h3.938v3.938h-3.938zM122.092 59.077h3.938v3.938h-3.938zM122.092 66.954h3.938v3.938h-3.938zM122.092 86.646h3.938v3.938h-3.938zM122.092 98.462h3.938v3.938h-3.938zM122.092 102.4h3.938v3.938h-3.938z"/><path d="M122.092 106.338h3.938v3.938h-3.938zM122.092 114.215h3.938v3.938h-3.938zM122.092 118.154h3.938v3.938h-3.938zM122.092 133.908h3.938v3.938h-3.938zM122.092 149.662h3.938v3.938h-3.938zM122.092 157.538h3.938v3.938h-3.938zM122.092 169.354h3.938v3.938h-3.938zM122.092 189.046h3.938v3.938h-3.938zM122.092 196.923h3.938v3.938h-3.938zM122.092 204.8h3.938v3.938h-3.938zM122.092 220.554h3.938v3.938h-3.938zM122.092 224.492h3.938v3.938h-3.938zM126.031 15.754h3.938v3.938h-3.938zM126.031 23.631h3.938v3.938h-3.938zM126.031 27.569h3.938v3.938h-3.938zM126.031 31.508h3.938v3.938h-3.938zM126.031 39.385h3.938v3.938h-3.938zM126.031 47.262h3.938V51.2h-3.938zM126.031 51.2h3.938v3.938h-3.938z"/><path d="M126.031 55.138h3.938v3.938h-3.938zM126.031 59.077h3.938v3.938h-3.938zM126.031 63.015h3.938v3.938h-3.938zM126.031 70.892h3.938v3.938h-3.938zM126.031 82.708h3.938v3.938h-3.938zM126.031 94.523h3.938v3.938h-3.938zM126.031 102.4h3.938v3.938h-3.938zM126.031 110.277h3.938v3.938h-3.938zM126.031 118.154h3.938v3.938h-3.938zM126.031 126.031h3.938v3.938h-3.938zM126.031 133.908h3.938v3.938h-3.938zM126.031 141.785h3.938v3.938h-3.938zM126.031 145.723h3.938v3.938h-3.938zM126.031 149.662h3.938v3.938h-3.938zM126.031 161.477h3.938v3.938h-3.938zM126.031 169.354h3.938v3.938h-3.938zM126.031 177.231h3.938v3.938h-3.938zM126.031 181.169h3.938v3.938h-3.938zM126.031 185.108h3.938v3.938h-3.938zM126.031 192.985h3.938v3.938h-3.938zM126.031 204.8h3.938v3.938h-3.938zM126.031 212.677h3.938v3.938h-3.938zM126.031 220.554h3.938v3.938h-3.938zM126.031 224.492h3.938v3.938h-3.938zM129.969 27.569h3.938v3.938h-3.938zM129.969 31.508h3.938v3.938h-3.938zM129.969 47.262h3.938V51.2h-3.938zM129.969 63.015h3.938v3.938h-3.938zM129.969 70.892h3.938v3.938h-3.938zM129.969 74.831h3.938v3.938h-3.938zM129.969 78.769h3.938v3.938h-3.938zM129.969 94.523h3.938v3.938h-3.938zM129.969 98.462h3.938v3.938h-3.938zM129.969 106.338h3.938v3.938h-3.938zM129.969 118.154h3.938v3.938h-3.938zM129.969 133.908h3.938v3.938h-3.938zM129.969 149.662h3.938v3.938h-3.938zM129.969 153.6h3.938v3.938h-3.938zM129.969 165.415h3.938v3.938h-3.938zM129.969 189.046h3.938v3.938h-3.938zM129.969 192.985h3.938v3.938h-3.938zM129.969 196.923h3.938v3.938h-3.938zM129.969 204.8h3.938v3.938h-3.938zM129.969 220.554h3.938v3.938h-3.938zM129.969 228.431h3.938v3.938h-3.938zM129.969 232.369h3.938v3.938h-3.938zM129.969 236.308h3.938v3.938h-3.938zM133.908 19.692h3.938v3.938h-3.938zM133.908 31.508h3.938v3.938h-3.938zM133.908 35.446h3.938v3.938h-3.938zM133.908 39.385h3.938v3.938h-3.938zM133.908 43.323h3.938v3.938h-3.938zM133.908 47.262h3.938V51.2h-3.938zM133.908 51.2h3.938v3.938h-3.938zM133.908 59.077h3.938v3.938h-3.938zM133.908 63.015h3.938v3.938h-3.938zM133.908 70.892h3.938v3.938h-3.938zM133.908 74.831h3.938v3.938h-3.938zM133.908 82.708h3.938v3.938h-3.938zM133.908 90.585h3.938v3.938h-3.938zM133.908 94.523h3.938v3.938h-3.938zM133.908 102.4h3.938v3.938h-3.938z"/><path d="M133.908 106.338h3.938v3.938h-3.938zM133.908 110.277h3.938v3.938h-3.938zM133.908 114.215h3.938v3.938h-3.938zM133.908 118.154h3.938v3.938h-3.938zM133.908 122.092h3.938v3.938h-3.938zM133.908 126.031h3.938v3.938h-3.938zM133.908 129.969h3.938v3.938h-3.938zM133.908 133.908h3.938v3.938h-3.938zM133.908 141.785h3.938v3.938h-3.938zM133.908 145.723h3.938v3.938h-3.938zM133.908 149.662h3.938v3.938h-3.938zM133.908 173.292h3.938v3.938h-3.938zM133.908 177.231h3.938v3.938h-3.938zM133.908 181.169h3.938v3.938h-3.938zM133.908 189.046h3.938v3.938h-3.938zM133.908 196.923h3.938v3.938h-3.938zM133.908 200.862h3.938v3.938h-3.938zM133.908 204.8h3.938v3.938h-3.938zM133.908 208.738h3.938v3.938h-3.938zM133.908 212.677h3.938v3.938h-3.938zM133.908 216.615h3.938v3.938h-3.938zM133.908 220.554h3.938v3.938h-3.938zM137.846 15.754h3.938v3.938h-3.938zM137.846 35.446h3.938v3.938h-3.938zM137.846 43.323h3.938v3.938h-3.938zM137.846 51.2h3.938v3.938h-3.938z"/><path d="M137.846 55.138h3.938v3.938h-3.938zM137.846 63.015h3.938v3.938h-3.938zM137.846 66.954h3.938v3.938h-3.938zM137.846 70.892h3.938v3.938h-3.938zM137.846 78.769h3.938v3.938h-3.938zM137.846 82.708h3.938v3.938h-3.938zM137.846 90.585h3.938v3.938h-3.938zM137.846 94.523h3.938v3.938h-3.938zM137.846 98.462h3.938v3.938h-3.938zM137.846 106.338h3.938v3.938h-3.938zM137.846 114.215h3.938v3.938h-3.938zM137.846 122.092h3.938v3.938h-3.938zM137.846 161.477h3.938v3.938h-3.938zM137.846 177.231h3.938v3.938h-3.938zM137.846 181.169h3.938v3.938h-3.938zM137.846 185.108h3.938v3.938h-3.938zM137.846 192.985h3.938v3.938h-3.938zM137.846 208.738h3.938v3.938h-3.938zM137.846 216.615h3.938v3.938h-3.938zM137.846 224.492h3.938v3.938h-3.938zM137.846 228.431h3.938v3.938h-3.938zM137.846 236.308h3.938v3.938h-3.938zM141.785 15.754h3.938v3.938h-3.938zM141.785 27.569h3.938v3.938h-3.938zM141.785 31.508h3.938v3.938h-3.938zM141.785 39.385h3.938v3.938h-3.938zM141.785 43.323h3.938v3.938h-3.938zM141.785 51.2h3.938v3.938h-3.938zM141.785 59.077h3.938v3.938h-3.938zM141.785 63.015h3.938v3.938h-3.938zM141.785 66.954h3.938v3.938h-3.938zM141.785 70.892h3.938v3.938h-3.938zM141.785 74.831h3.938v3.938h-3.938zM141.785 94.523h3.938v3.938h-3.938zM141.785 98.462h3.938v3.938h-3.938zM141.785 110.277h3.938v3.938h-3.938zM141.785 118.154h3.938v3.938h-3.938zM141.785 129.969h3.938v3.938h-3.938zM141.785 133.908h3.938v3.938h-3.938zM141.785 141.785h3.938v3.938h-3.938zM141.785 145.723h3.938v3.938h-3.938zM141.785 153.6h3.938v3.938h-3.938zM141.785 157.538h3.938v3.938h-3.938zM141.785 161.477h3.938v3.938h-3.938zM141.785 169.354h3.938v3.938h-3.938zM141.785 173.292h3.938v3.938h-3.938zM141.785 185.108h3.938v3.938h-3.938zM141.785 189.046h3.938v3.938h-3.938zM141.785 192.985h3.938v3.938h-3.938zM141.785 212.677h3.938v3.938h-3.938zM141.785 220.554h3.938v3.938h-3.938zM141.785 232.369h3.938v3.938h-3.938zM145.723 15.754h3.938v3.938h-3.938zM145.723 19.692h3.938v3.938h-3.938zM145.723 23.631h3.938v3.938h-3.938zM145.723 43.323h3.938v3.938h-3.938zM145.723 51.2h3.938v3.938h-3.938zM145.723 63.015h3.938v3.938h-3.938zM145.723 66.954h3.938v3.938h-3.938zM145.723 70.892h3.938v3.938h-3.938zM145.723 78.769h3.938v3.938h-3.938zM145.723 82.708h3.938v3.938h-3.938zM145.723 86.646h3.938v3.938h-3.938zM145.723 90.585h3.938v3.938h-3.938zM145.723 94.523h3.938v3.938h-3.938zM145.723 106.338h3.938v3.938h-3.938zM145.723 110.277h3.938v3.938h-3.938zM145.723 114.215h3.938v3.938h-3.938zM145.723 118.154h3.938v3.938h-3.938zM145.723 129.969h3.938v3.938h-3.938zM145.723 133.908h3.938v3.938h-3.938zM145.723 141.785h3.938v3.938h-3.938zM145.723 153.6h3.938v3.938h-3.938zM145.723 157.538h3.938v3.938h-3.938zM145.723 161.477h3.938v3.938h-3.938zM145.723 165.415h3.938v3.938h-3.938zM145.723 173.292h3.938v3.938h-3.938zM145.723 177.231h3.938v3.938h-3.938zM145.723 192.985h3.938v3.938h-3.938zM145.723 196.923h3.938v3.938h-3.938zM145.723 204.8h3.938v3.938h-3.938zM145.723 208.738h3.938v3.938h-3.938zM145.723 212.677h3.938v3.938h-3.938zM145.723 220.554h3.938v3.938h-3.938zM149.662 15.754h3.938v3.938h-3.938zM149.662 19.692h3.938v3.938h-3.938zM149.662 27.569h3.938v3.938h-3.938zM149.662 39.385h3.938v3.938h-3.938zM149.662 43.323h3.938v3.938h-3.938zM149.662 47.262h3.938V51.2h-3.938zM149.662 51.2h3.938v3.938h-3.938z"/><path d="M149.662 55.138h3.938v3.938h-3.938zM149.662 59.077h3.938v3.938h-3.938zM149.662 63.015h3.938v3.938h-3.938zM149.662 74.831h3.938v3.938h-3.938zM149.662 78.769h3.938v3.938h-3.938zM149.662 82.708h3.938v3.938h-3.938zM149.662 90.585h3.938v3.938h-3.938zM149.662 98.462h3.938v3.938h-3.938zM149.662 102.4h3.938v3.938h-3.938zM149.662 114.215h3.938v3.938h-3.938zM149.662 118.154h3.938v3.938h-3.938zM149.662 129.969h3.938v3.938h-3.938zM149.662 145.723h3.938v3.938h-3.938zM149.662 149.662h3.938v3.938h-3.938zM149.662 153.6h3.938v3.938h-3.938zM149.662 157.538h3.938v3.938h-3.938zM149.662 169.354h3.938v3.938h-3.938zM149.662 177.231h3.938v3.938h-3.938zM149.662 185.108h3.938v3.938h-3.938zM149.662 189.046h3.938v3.938h-3.938zM149.662 192.985h3.938v3.938h-3.938zM149.662 196.923h3.938v3.938h-3.938zM149.662 200.862h3.938v3.938h-3.938zM149.662 220.554h3.938v3.938h-3.938zM149.662 224.492h3.938v3.938h-3.938zM149.662 236.308h3.938v3.938h-3.938zM153.6 15.754h3.938v3.938H153.6zM153.6 23.631h3.938v3.938H153.6zM153.6 43.323h3.938v3.938H153.6zM153.6 51.2h3.938v3.938H153.6z"/><path d="M153.6 55.138h3.938v3.938H153.6zM153.6 59.077h3.938v3.938H153.6zM153.6 66.954h3.938v3.938H153.6zM153.6 70.892h3.938v3.938H153.6zM153.6 74.831h3.938v3.938H153.6zM153.6 78.769h3.938v3.938H153.6zM153.6 82.708h3.938v3.938H153.6zM153.6 86.646h3.938v3.938H153.6zM153.6 90.585h3.938v3.938H153.6zM153.6 94.523h3.938v3.938H153.6zM153.6 98.462h3.938v3.938H153.6zM153.6 102.4h3.938v3.938H153.6z"/><path d="M153.6 106.338h3.938v3.938H153.6zM153.6 122.092h3.938v3.938H153.6zM153.6 126.031h3.938v3.938H153.6zM153.6 129.969h3.938v3.938H153.6zM153.6 137.846h3.938v3.938H153.6zM153.6 145.723h3.938v3.938H153.6zM153.6 149.662h3.938v3.938H153.6zM153.6 153.6h3.938v3.938H153.6zM153.6 161.477h3.938v3.938H153.6zM153.6 165.415h3.938v3.938H153.6zM153.6 177.231h3.938v3.938H153.6zM153.6 189.046h3.938v3.938H153.6zM153.6 192.985h3.938v3.938H153.6zM153.6 196.923h3.938v3.938H153.6zM153.6 200.862h3.938v3.938H153.6zM153.6 208.738h3.938v3.938H153.6zM153.6 224.492h3.938v3.938H153.6zM153.6 228.431h3.938v3.938H153.6zM153.6 232.369h3.938v3.938H153.6zM153.6 236.308h3.938v3.938H153.6zM157.538 15.754h3.938v3.938h-3.938zM157.538 27.569h3.938v3.938h-3.938zM157.538 31.508h3.938v3.938h-3.938zM157.538 35.446h3.938v3.938h-3.938zM157.538 39.385h3.938v3.938h-3.938zM157.538 43.323h3.938v3.938h-3.938zM157.538 47.262h3.938V51.2h-3.938zM157.538 51.2h3.938v3.938h-3.938z"/><path d="M157.538 55.138h3.938v3.938h-3.938zM157.538 63.015h3.938v3.938h-3.938zM157.538 78.769h3.938v3.938h-3.938zM157.538 86.646h3.938v3.938h-3.938zM157.538 94.523h3.938v3.938h-3.938zM157.538 110.277h3.938v3.938h-3.938zM157.538 114.215h3.938v3.938h-3.938zM157.538 118.154h3.938v3.938h-3.938zM157.538 126.031h3.938v3.938h-3.938zM157.538 129.969h3.938v3.938h-3.938zM157.538 133.908h3.938v3.938h-3.938zM157.538 141.785h3.938v3.938h-3.938zM157.538 149.662h3.938v3.938h-3.938zM157.538 157.538h3.938v3.938h-3.938zM157.538 161.477h3.938v3.938h-3.938zM157.538 165.415h3.938v3.938h-3.938zM157.538 169.354h3.938v3.938h-3.938zM157.538 189.046h3.938v3.938h-3.938zM157.538 192.985h3.938v3.938h-3.938zM157.538 204.8h3.938v3.938h-3.938zM157.538 208.738h3.938v3.938h-3.938zM157.538 220.554h3.938v3.938h-3.938zM157.538 236.308h3.938v3.938h-3.938zM161.477 19.692h3.938v3.938h-3.938zM161.477 27.569h3.938v3.938h-3.938zM161.477 31.508h3.938v3.938h-3.938zM161.477 47.262h3.938V51.2h-3.938zM161.477 51.2h3.938v3.938h-3.938zM161.477 66.954h3.938v3.938h-3.938zM161.477 78.769h3.938v3.938h-3.938zM161.477 82.708h3.938v3.938h-3.938zM161.477 86.646h3.938v3.938h-3.938zM161.477 90.585h3.938v3.938h-3.938zM161.477 102.4h3.938v3.938h-3.938zM161.477 118.154h3.938v3.938h-3.938zM161.477 126.031h3.938v3.938h-3.938zM161.477 129.969h3.938v3.938h-3.938zM161.477 137.846h3.938v3.938h-3.938zM161.477 145.723h3.938v3.938h-3.938zM161.477 153.6h3.938v3.938h-3.938zM161.477 157.538h3.938v3.938h-3.938zM161.477 165.415h3.938v3.938h-3.938zM161.477 173.292h3.938v3.938h-3.938zM161.477 192.985h3.938v3.938h-3.938zM161.477 200.862h3.938v3.938h-3.938zM161.477 204.8h3.938v3.938h-3.938zM161.477 208.738h3.938v3.938h-3.938zM161.477 216.615h3.938v3.938h-3.938zM161.477 220.554h3.938v3.938h-3.938zM161.477 224.492h3.938v3.938h-3.938zM161.477 228.431h3.938v3.938h-3.938zM165.415 15.754h3.938v3.938h-3.938zM165.415 23.631h3.938v3.938h-3.938zM165.415 31.508h3.938v3.938h-3.938zM165.415 35.446h3.938v3.938h-3.938zM165.415 39.385h3.938v3.938h-3.938zM165.415 47.262h3.938V51.2h-3.938zM165.415 55.138h3.938v3.938h-3.938zM165.415 63.015h3.938v3.938h-3.938zM165.415 66.954h3.938v3.938h-3.938zM165.415 70.892h3.938v3.938h-3.938zM165.415 74.831h3.938v3.938h-3.938zM165.415 98.462h3.938v3.938h-3.938zM165.415 114.215h3.938v3.938h-3.938zM165.415 118.154h3.938v3.938h-3.938zM165.415 126.031h3.938v3.938h-3.938zM165.415 141.785h3.938v3.938h-3.938zM165.415 145.723h3.938v3.938h-3.938zM165.415 153.6h3.938v3.938h-3.938zM165.415 161.477h3.938v3.938h-3.938zM165.415 165.415h3.938v3.938h-3.938zM165.415 169.354h3.938v3.938h-3.938zM165.415 173.292h3.938v3.938h-3.938zM165.415 181.169h3.938v3.938h-3.938zM165.415 185.108h3.938v3.938h-3.938zM165.415 189.046h3.938v3.938h-3.938zM165.415 192.985h3.938v3.938h-3.938zM165.415 208.738h3.938v3.938h-3.938zM165.415 212.677h3.938v3.938h-3.938zM165.415 216.615h3.938v3.938h-3.938zM165.415 232.369h3.938v3.938h-3.938zM165.415 236.308h3.938v3.938h-3.938zM169.354 27.569h3.938v3.938h-3.938zM169.354 35.446h3.938v3.938h-3.938zM169.354 43.323h3.938v3.938h-3.938zM169.354 51.2h3.938v3.938h-3.938z"/><path d="M169.354 55.138h3.938v3.938h-3.938zM169.354 59.077h3.938v3.938h-3.938zM169.354 63.015h3.938v3.938h-3.938zM169.354 66.954h3.938v3.938h-3.938zM169.354 82.708h3.938v3.938h-3.938zM169.354 106.338h3.938v3.938h-3.938zM169.354 110.277h3.938v3.938h-3.938zM169.354 114.215h3.938v3.938h-3.938zM169.354 118.154h3.938v3.938h-3.938zM169.354 137.846h3.938v3.938h-3.938zM169.354 145.723h3.938v3.938h-3.938zM169.354 149.662h3.938v3.938h-3.938zM169.354 153.6h3.938v3.938h-3.938zM169.354 157.538h3.938v3.938h-3.938zM169.354 181.169h3.938v3.938h-3.938zM169.354 208.738h3.938v3.938h-3.938zM169.354 228.431h3.938v3.938h-3.938zM173.292 15.754h3.938v3.938h-3.938zM173.292 19.692h3.938v3.938h-3.938zM173.292 27.569h3.938v3.938h-3.938zM173.292 35.446h3.938v3.938h-3.938zM173.292 39.385h3.938v3.938h-3.938zM173.292 43.323h3.938v3.938h-3.938zM173.292 47.262h3.938V51.2h-3.938zM173.292 63.015h3.938v3.938h-3.938zM173.292 70.892h3.938v3.938h-3.938zM173.292 82.708h3.938v3.938h-3.938zM173.292 86.646h3.938v3.938h-3.938zM173.292 90.585h3.938v3.938h-3.938zM173.292 94.523h3.938v3.938h-3.938zM173.292 106.338h3.938v3.938h-3.938zM173.292 110.277h3.938v3.938h-3.938zM173.292 118.154h3.938v3.938h-3.938zM173.292 137.846h3.938v3.938h-3.938zM173.292 141.785h3.938v3.938h-3.938zM173.292 157.538h3.938v3.938h-3.938zM173.292 161.477h3.938v3.938h-3.938zM173.292 165.415h3.938v3.938h-3.938zM173.292 177.231h3.938v3.938h-3.938zM173.292 181.169h3.938v3.938h-3.938zM173.292 185.108h3.938v3.938h-3.938zM173.292 189.046h3.938v3.938h-3.938zM173.292 204.8h3.938v3.938h-3.938zM173.292 212.677h3.938v3.938h-3.938zM173.292 228.431h3.938v3.938h-3.938zM177.231 15.754h3.938v3.938h-3.938zM177.231 19.692h3.938v3.938h-3.938zM177.231 31.508h3.938v3.938h-3.938zM177.231 43.323h3.938v3.938h-3.938zM177.231 47.262h3.938V51.2h-3.938zM177.231 51.2h3.938v3.938h-3.938z"/><path d="M177.231 55.138h3.938v3.938h-3.938zM177.231 59.077h3.938v3.938h-3.938zM177.231 63.015h3.938v3.938h-3.938zM177.231 66.954h3.938v3.938h-3.938zM177.231 74.831h3.938v3.938h-3.938zM177.231 78.769h3.938v3.938h-3.938zM177.231 86.646h3.938v3.938h-3.938zM177.231 94.523h3.938v3.938h-3.938zM177.231 98.462h3.938v3.938h-3.938zM177.231 102.4h3.938v3.938h-3.938z"/><path d="M177.231 106.338h3.938v3.938h-3.938zM177.231 118.154h3.938v3.938h-3.938zM177.231 126.031h3.938v3.938h-3.938zM177.231 133.908h3.938v3.938h-3.938zM177.231 145.723h3.938v3.938h-3.938zM177.231 149.662h3.938v3.938h-3.938zM177.231 157.538h3.938v3.938h-3.938zM177.231 161.477h3.938v3.938h-3.938zM177.231 181.169h3.938v3.938h-3.938zM177.231 192.985h3.938v3.938h-3.938zM177.231 200.862h3.938v3.938h-3.938zM177.231 208.738h3.938v3.938h-3.938zM177.231 212.677h3.938v3.938h-3.938zM177.231 216.615h3.938v3.938h-3.938zM177.231 220.554h3.938v3.938h-3.938zM177.231 224.492h3.938v3.938h-3.938zM177.231 228.431h3.938v3.938h-3.938zM177.231 232.369h3.938v3.938h-3.938zM181.169 15.754h3.938v3.938h-3.938zM181.169 23.631h3.938v3.938h-3.938zM181.169 31.508h3.938v3.938h-3.938zM181.169 39.385h3.938v3.938h-3.938zM181.169 43.323h3.938v3.938h-3.938zM181.169 47.262h3.938V51.2h-3.938zM181.169 51.2h3.938v3.938h-3.938zM181.169 59.077h3.938v3.938h-3.938zM181.169 63.015h3.938v3.938h-3.938zM181.169 66.954h3.938v3.938h-3.938zM181.169 78.769h3.938v3.938h-3.938zM181.169 82.708h3.938v3.938h-3.938zM181.169 94.523h3.938v3.938h-3.938zM181.169 98.462h3.938v3.938h-3.938zM181.169 106.338h3.938v3.938h-3.938zM181.169 110.277h3.938v3.938h-3.938zM181.169 114.215h3.938v3.938h-3.938zM181.169 118.154h3.938v3.938h-3.938zM181.169 126.031h3.938v3.938h-3.938zM181.169 129.969h3.938v3.938h-3.938zM181.169 141.785h3.938v3.938h-3.938zM181.169 145.723h3.938v3.938h-3.938zM181.169 153.6h3.938v3.938h-3.938zM181.169 161.477h3.938v3.938h-3.938zM181.169 169.354h3.938v3.938h-3.938zM181.169 173.292h3.938v3.938h-3.938zM181.169 177.231h3.938v3.938h-3.938zM181.169 181.169h3.938v3.938h-3.938zM181.169 185.108h3.938v3.938h-3.938zM181.169 192.985h3.938v3.938h-3.938zM181.169 208.738h3.938v3.938h-3.938zM181.169 216.615h3.938v3.938h-3.938zM181.169 220.554h3.938v3.938h-3.938zM181.169 224.492h3.938v3.938h-3.938zM185.108 31.508h3.938v3.938h-3.938zM185.108 35.446h3.938v3.938h-3.938zM185.108 43.323h3.938v3.938h-3.938zM185.108 55.138h3.938v3.938h-3.938zM185.108 66.954h3.938v3.938h-3.938zM185.108 78.769h3.938v3.938h-3.938zM185.108 86.646h3.938v3.938h-3.938zM185.108 98.462h3.938v3.938h-3.938zM185.108 102.4h3.938v3.938h-3.938zM185.108 122.092h3.938v3.938h-3.938zM185.108 137.846h3.938v3.938h-3.938zM185.108 149.662h3.938v3.938h-3.938zM185.108 153.6h3.938v3.938h-3.938zM185.108 157.538h3.938v3.938h-3.938zM185.108 161.477h3.938v3.938h-3.938zM185.108 169.354h3.938v3.938h-3.938zM185.108 177.231h3.938v3.938h-3.938zM185.108 181.169h3.938v3.938h-3.938zM185.108 185.108h3.938v3.938h-3.938zM185.108 192.985h3.938v3.938h-3.938zM185.108 196.923h3.938v3.938h-3.938zM185.108 200.862h3.938v3.938h-3.938zM185.108 216.615h3.938v3.938h-3.938zM185.108 220.554h3.938v3.938h-3.938zM185.108 236.308h3.938v3.938h-3.938zM189.046 15.754h3.938v3.938h-3.938zM189.046 19.692h3.938v3.938h-3.938zM189.046 23.631h3.938v3.938h-3.938zM189.046 27.569h3.938v3.938h-3.938zM189.046 39.385h3.938v3.938h-3.938zM189.046 43.323h3.938v3.938h-3.938zM189.046 47.262h3.938V51.2h-3.938zM189.046 59.077h3.938v3.938h-3.938zM189.046 63.015h3.938v3.938h-3.938zM189.046 78.769h3.938v3.938h-3.938zM189.046 86.646h3.938v3.938h-3.938zM189.046 102.4h3.938v3.938h-3.938z"/><path d="M189.046 106.338h3.938v3.938h-3.938zM189.046 110.277h3.938v3.938h-3.938zM189.046 114.215h3.938v3.938h-3.938zM189.046 126.031h3.938v3.938h-3.938zM189.046 133.908h3.938v3.938h-3.938zM189.046 145.723h3.938v3.938h-3.938zM189.046 149.662h3.938v3.938h-3.938zM189.046 153.6h3.938v3.938h-3.938zM189.046 157.538h3.938v3.938h-3.938zM189.046 169.354h3.938v3.938h-3.938zM189.046 173.292h3.938v3.938h-3.938zM189.046 181.169h3.938v3.938h-3.938zM189.046 192.985h3.938v3.938h-3.938zM189.046 196.923h3.938v3.938h-3.938zM189.046 200.862h3.938v3.938h-3.938zM189.046 204.8h3.938v3.938h-3.938zM189.046 208.738h3.938v3.938h-3.938zM189.046 220.554h3.938v3.938h-3.938zM189.046 228.431h3.938v3.938h-3.938zM192.985 15.754h3.938v3.938h-3.938zM192.985 19.692h3.938v3.938h-3.938zM192.985 23.631h3.938v3.938h-3.938zM192.985 27.569h3.938v3.938h-3.938zM192.985 35.446h3.938v3.938h-3.938zM192.985 78.769h3.938v3.938h-3.938zM192.985 90.585h3.938v3.938h-3.938zM192.985 94.523h3.938v3.938h-3.938zM192.985 110.277h3.938v3.938h-3.938zM192.985 126.031h3.938v3.938h-3.938zM192.985 129.969h3.938v3.938h-3.938zM192.985 133.908h3.938v3.938h-3.938zM192.985 137.846h3.938v3.938h-3.938zM192.985 141.785h3.938v3.938h-3.938zM192.985 157.538h3.938v3.938h-3.938zM192.985 169.354h3.938v3.938h-3.938zM192.985 173.292h3.938v3.938h-3.938zM192.985 177.231h3.938v3.938h-3.938zM192.985 181.169h3.938v3.938h-3.938zM192.985 200.862h3.938v3.938h-3.938zM192.985 204.8h3.938v3.938h-3.938zM192.985 220.554h3.938v3.938h-3.938zM192.985 236.308h3.938v3.938h-3.938zM196.923 15.754h3.938v3.938h-3.938zM196.923 23.631h3.938v3.938h-3.938zM196.923 35.446h3.938v3.938h-3.938zM196.923 39.385h3.938v3.938h-3.938zM196.923 47.262h3.938V51.2h-3.938zM196.923 51.2h3.938v3.938h-3.938zM196.923 63.015h3.938v3.938h-3.938zM196.923 74.831h3.938v3.938h-3.938zM196.923 78.769h3.938v3.938h-3.938zM196.923 82.708h3.938v3.938h-3.938zM196.923 94.523h3.938v3.938h-3.938zM196.923 98.462h3.938v3.938h-3.938zM196.923 102.4h3.938v3.938h-3.938z"/><path d="M196.923 106.338h3.938v3.938h-3.938zM196.923 129.969h3.938v3.938h-3.938zM196.923 145.723h3.938v3.938h-3.938zM196.923 149.662h3.938v3.938h-3.938zM196.923 153.6h3.938v3.938h-3.938zM196.923 173.292h3.938v3.938h-3.938zM196.923 181.169h3.938v3.938h-3.938zM196.923 189.046h3.938v3.938h-3.938zM196.923 192.985h3.938v3.938h-3.938zM196.923 196.923h3.938v3.938h-3.938zM196.923 200.862h3.938v3.938h-3.938zM196.923 204.8h3.938v3.938h-3.938zM196.923 216.615h3.938v3.938h-3.938zM196.923 220.554h3.938v3.938h-3.938zM196.923 224.492h3.938v3.938h-3.938zM196.923 232.369h3.938v3.938h-3.938zM196.923 236.308h3.938v3.938h-3.938zM200.862 15.754h3.938v3.938h-3.938zM200.862 19.692h3.938v3.938h-3.938zM200.862 23.631h3.938v3.938h-3.938zM200.862 27.569h3.938v3.938h-3.938zM200.862 31.508h3.938v3.938h-3.938zM200.862 43.323h3.938v3.938h-3.938zM200.862 47.262h3.938V51.2h-3.938zM200.862 59.077h3.938v3.938h-3.938zM200.862 66.954h3.938v3.938h-3.938zM200.862 74.831h3.938v3.938h-3.938zM200.862 82.708h3.938v3.938h-3.938zM200.862 86.646h3.938v3.938h-3.938zM200.862 98.462h3.938v3.938h-3.938zM200.862 102.4h3.938v3.938h-3.938zM200.862 122.092h3.938v3.938h-3.938zM200.862 126.031h3.938v3.938h-3.938zM200.862 129.969h3.938v3.938h-3.938zM200.862 137.846h3.938v3.938h-3.938zM200.862 149.662h3.938v3.938h-3.938zM200.862 153.6h3.938v3.938h-3.938zM200.862 161.477h3.938v3.938h-3.938zM200.862 165.415h3.938v3.938h-3.938zM200.862 169.354h3.938v3.938h-3.938zM200.862 173.292h3.938v3.938h-3.938zM200.862 177.231h3.938v3.938h-3.938zM200.862 185.108h3.938v3.938h-3.938zM200.862 192.985h3.938v3.938h-3.938zM200.862 196.923h3.938v3.938h-3.938zM200.862 204.8h3.938v3.938h-3.938zM200.862 220.554h3.938v3.938h-3.938zM200.862 228.431h3.938v3.938h-3.938zM204.8 39.385h3.938v3.938H204.8zM204.8 43.323h3.938v3.938H204.8zM204.8 51.2h3.938v3.938H204.8zM204.8 66.954h3.938v3.938H204.8zM204.8 74.831h3.938v3.938H204.8zM204.8 82.708h3.938v3.938H204.8zM204.8 90.585h3.938v3.938H204.8zM204.8 98.462h3.938v3.938H204.8zM204.8 102.4h3.938v3.938H204.8z"/><path d="M204.8 106.338h3.938v3.938H204.8zM204.8 114.215h3.938v3.938H204.8zM204.8 118.154h3.938v3.938H204.8zM204.8 122.092h3.938v3.938H204.8zM204.8 126.031h3.938v3.938H204.8zM204.8 129.969h3.938v3.938H204.8zM204.8 133.908h3.938v3.938H204.8zM204.8 137.846h3.938v3.938H204.8zM204.8 141.785h3.938v3.938H204.8zM204.8 149.662h3.938v3.938H204.8zM204.8 157.538h3.938v3.938H204.8zM204.8 165.415h3.938v3.938H204.8zM204.8 181.169h3.938v3.938H204.8zM204.8 189.046h3.938v3.938H204.8zM204.8 192.985h3.938v3.938H204.8zM204.8 204.8h3.938v3.938H204.8zM204.8 208.738h3.938v3.938H204.8zM204.8 212.677h3.938v3.938H204.8zM204.8 216.615h3.938v3.938H204.8zM204.8 220.554h3.938v3.938H204.8zM204.8 228.431h3.938v3.938H204.8zM204.8 236.308h3.938v3.938H204.8zM208.738 47.262h3.938V51.2h-3.938zM208.738 55.138h3.938v3.938h-3.938zM208.738 70.892h3.938v3.938h-3.938zM208.738 74.831h3.938v3.938h-3.938zM208.738 90.585h3.938v3.938h-3.938zM208.738 94.523h3.938v3.938h-3.938zM208.738 98.462h3.938v3.938h-3.938zM208.738 102.4h3.938v3.938h-3.938zM208.738 110.277h3.938v3.938h-3.938zM208.738 114.215h3.938v3.938h-3.938zM208.738 118.154h3.938v3.938h-3.938zM208.738 133.908h3.938v3.938h-3.938zM208.738 141.785h3.938v3.938h-3.938zM208.738 149.662h3.938v3.938h-3.938zM208.738 157.538h3.938v3.938h-3.938zM208.738 165.415h3.938v3.938h-3.938zM208.738 169.354h3.938v3.938h-3.938zM208.738 185.108h3.938v3.938h-3.938zM208.738 189.046h3.938v3.938h-3.938zM208.738 192.985h3.938v3.938h-3.938zM208.738 196.923h3.938v3.938h-3.938zM208.738 204.8h3.938v3.938h-3.938zM208.738 220.554h3.938v3.938h-3.938zM208.738 224.492h3.938v3.938h-3.938zM208.738 236.308h3.938v3.938h-3.938zM212.677 15.754h3.938v3.938h-3.938zM212.677 19.692h3.938v3.938h-3.938zM212.677 23.631h3.938v3.938h-3.938zM212.677 27.569h3.938v3.938h-3.938zM212.677 31.508h3.938v3.938h-3.938zM212.677 35.446h3.938v3.938h-3.938zM212.677 39.385h3.938v3.938h-3.938zM212.677 47.262h3.938V51.2h-3.938zM212.677 51.2h3.938v3.938h-3.938zM212.677 66.954h3.938v3.938h-3.938zM212.677 70.892h3.938v3.938h-3.938zM212.677 74.831h3.938v3.938h-3.938zM212.677 90.585h3.938v3.938h-3.938zM212.677 94.523h3.938v3.938h-3.938zM212.677 98.462h3.938v3.938h-3.938zM212.677 106.338h3.938v3.938h-3.938zM212.677 110.277h3.938v3.938h-3.938zM212.677 114.215h3.938v3.938h-3.938zM212.677 118.154h3.938v3.938h-3.938zM212.677 126.031h3.938v3.938h-3.938zM212.677 133.908h3.938v3.938h-3.938zM212.677 141.785h3.938v3.938h-3.938zM212.677 149.662h3.938v3.938h-3.938zM212.677 153.6h3.938v3.938h-3.938zM212.677 157.538h3.938v3.938h-3.938zM212.677 161.477h3.938v3.938h-3.938zM212.677 169.354h3.938v3.938h-3.938zM212.677 173.292h3.938v3.938h-3.938zM212.677 181.169h3.938v3.938h-3.938zM212.677 192.985h3.938v3.938h-3.938zM212.677 196.923h3.938v3.938h-3.938zM212.677 200.862h3.938v3.938h-3.938zM212.677 204.8h3.938v3.938h-3.938zM212.677 212.677h3.938v3.938h-3.938zM212.677 220.554h3.938v3.938h-3.938zM212.677 228.431h3.938v3.938h-3.938zM212.677 232.369h3.938v3.938h-3.938zM212.677 236.308h3.938v3.938h-3.938zM216.615 15.754h3.938v3.938h-3.938zM216.615 39.385h3.938v3.938h-3.938zM216.615 59.077h3.938v3.938h-3.938zM216.615 63.015h3.938v3.938h-3.938zM216.615 70.892h3.938v3.938h-3.938zM216.615 90.585h3.938v3.938h-3.938zM216.615 102.4h3.938v3.938h-3.938z"/><path d="M216.615 106.338h3.938v3.938h-3.938zM216.615 118.154h3.938v3.938h-3.938zM216.615 133.908h3.938v3.938h-3.938zM216.615 141.785h3.938v3.938h-3.938zM216.615 145.723h3.938v3.938h-3.938zM216.615 149.662h3.938v3.938h-3.938zM216.615 153.6h3.938v3.938h-3.938zM216.615 165.415h3.938v3.938h-3.938zM216.615 169.354h3.938v3.938h-3.938zM216.615 173.292h3.938v3.938h-3.938zM216.615 177.231h3.938v3.938h-3.938zM216.615 181.169h3.938v3.938h-3.938zM216.615 196.923h3.938v3.938h-3.938zM216.615 204.8h3.938v3.938h-3.938zM216.615 220.554h3.938v3.938h-3.938zM216.615 224.492h3.938v3.938h-3.938zM216.615 228.431h3.938v3.938h-3.938zM216.615 236.308h3.938v3.938h-3.938zM220.554 15.754h3.938v3.938h-3.938zM220.554 23.631h3.938v3.938h-3.938zM220.554 27.569h3.938v3.938h-3.938zM220.554 31.508h3.938v3.938h-3.938zM220.554 39.385h3.938v3.938h-3.938zM220.554 47.262h3.938V51.2h-3.938zM220.554 51.2h3.938v3.938h-3.938zM220.554 63.015h3.938v3.938h-3.938zM220.554 66.954h3.938v3.938h-3.938zM220.554 70.892h3.938v3.938h-3.938zM220.554 74.831h3.938v3.938h-3.938zM220.554 78.769h3.938v3.938h-3.938zM220.554 90.585h3.938v3.938h-3.938zM220.554 94.523h3.938v3.938h-3.938zM220.554 98.462h3.938v3.938h-3.938zM220.554 102.4h3.938v3.938h-3.938zM220.554 110.277h3.938v3.938h-3.938zM220.554 118.154h3.938v3.938h-3.938zM220.554 122.092h3.938v3.938h-3.938zM220.554 126.031h3.938v3.938h-3.938zM220.554 129.969h3.938v3.938h-3.938zM220.554 133.908h3.938v3.938h-3.938zM220.554 137.846h3.938v3.938h-3.938zM220.554 145.723h3.938v3.938h-3.938zM220.554 153.6h3.938v3.938h-3.938zM220.554 169.354h3.938v3.938h-3.938zM220.554 173.292h3.938v3.938h-3.938zM220.554 177.231h3.938v3.938h-3.938zM220.554 192.985h3.938v3.938h-3.938zM220.554 196.923h3.938v3.938h-3.938zM220.554 200.862h3.938v3.938h-3.938zM220.554 204.8h3.938v3.938h-3.938zM220.554 208.738h3.938v3.938h-3.938zM220.554 212.677h3.938v3.938h-3.938zM220.554 216.615h3.938v3.938h-3.938zM220.554 220.554h3.938v3.938h-3.938zM220.554 228.431h3.938v3.938h-3.938zM220.554 236.308h3.938v3.938h-3.938zM224.492 15.754h3.938v3.938h-3.938zM224.492 23.631h3.938v3.938h-3.938zM224.492 27.569h3.938v3.938h-3.938zM224.492 31.508h3.938v3.938h-3.938zM224.492 39.385h3.938v3.938h-3.938zM224.492 47.262h3.938V51.2h-3.938zM224.492 51.2h3.938v3.938h-3.938z"/><path d="M224.492 55.138h3.938v3.938h-3.938zM224.492 66.954h3.938v3.938h-3.938zM224.492 74.831h3.938v3.938h-3.938zM224.492 82.708h3.938v3.938h-3.938zM224.492 86.646h3.938v3.938h-3.938zM224.492 90.585h3.938v3.938h-3.938zM224.492 94.523h3.938v3.938h-3.938zM224.492 106.338h3.938v3.938h-3.938zM224.492 114.215h3.938v3.938h-3.938zM224.492 141.785h3.938v3.938h-3.938zM224.492 145.723h3.938v3.938h-3.938zM224.492 149.662h3.938v3.938h-3.938zM224.492 157.538h3.938v3.938h-3.938zM224.492 161.477h3.938v3.938h-3.938zM224.492 165.415h3.938v3.938h-3.938zM224.492 181.169h3.938v3.938h-3.938zM224.492 185.108h3.938v3.938h-3.938zM224.492 196.923h3.938v3.938h-3.938zM224.492 204.8h3.938v3.938h-3.938zM224.492 212.677h3.938v3.938h-3.938zM224.492 216.615h3.938v3.938h-3.938zM224.492 220.554h3.938v3.938h-3.938zM228.431 15.754h3.938v3.938h-3.938zM228.431 23.631h3.938v3.938h-3.938zM228.431 27.569h3.938v3.938h-3.938zM228.431 31.508h3.938v3.938h-3.938zM228.431 39.385h3.938v3.938h-3.938zM228.431 55.138h3.938v3.938h-3.938zM228.431 59.077h3.938v3.938h-3.938zM228.431 74.831h3.938v3.938h-3.938zM228.431 90.585h3.938v3.938h-3.938zM228.431 98.462h3.938v3.938h-3.938zM228.431 106.338h3.938v3.938h-3.938zM228.431 114.215h3.938v3.938h-3.938zM228.431 122.092h3.938v3.938h-3.938zM228.431 129.969h3.938v3.938h-3.938zM228.431 133.908h3.938v3.938h-3.938zM228.431 137.846h3.938v3.938h-3.938zM228.431 145.723h3.938v3.938h-3.938zM228.431 153.6h3.938v3.938h-3.938zM228.431 161.477h3.938v3.938h-3.938zM228.431 165.415h3.938v3.938h-3.938zM228.431 169.354h3.938v3.938h-3.938zM228.431 177.231h3.938v3.938h-3.938zM228.431 181.169h3.938v3.938h-3.938zM228.431 185.108h3.938v3.938h-3.938zM228.431 200.862h3.938v3.938h-3.938zM228.431 212.677h3.938v3.938h-3.938zM228.431 216.615h3.938v3.938h-3.938zM228.431 224.492h3.938v3.938h-3.938zM228.431 228.431h3.938v3.938h-3.938zM228.431 232.369h3.938v3.938h-3.938zM228.431 236.308h3.938v3.938h-3.938zM232.369 15.754h3.938v3.938h-3.938zM232.369 39.385h3.938v3.938h-3.938zM232.369 47.262h3.938V51.2h-3.938zM232.369 51.2h3.938v3.938h-3.938zM232.369 70.892h3.938v3.938h-3.938zM232.369 74.831h3.938v3.938h-3.938zM232.369 78.769h3.938v3.938h-3.938zM232.369 110.277h3.938v3.938h-3.938zM232.369 118.154h3.938v3.938h-3.938zM232.369 122.092h3.938v3.938h-3.938zM232.369 126.031h3.938v3.938h-3.938zM232.369 129.969h3.938v3.938h-3.938zM232.369 137.846h3.938v3.938h-3.938zM232.369 141.785h3.938v3.938h-3.938zM232.369 149.662h3.938v3.938h-3.938zM232.369 153.6h3.938v3.938h-3.938zM232.369 157.538h3.938v3.938h-3.938zM232.369 161.477h3.938v3.938h-3.938zM232.369 177.231h3.938v3.938h-3.938zM232.369 181.169h3.938v3.938h-3.938zM232.369 196.923h3.938v3.938h-3.938zM232.369 204.8h3.938v3.938h-3.938zM232.369 212.677h3.938v3.938h-3.938zM232.369 220.554h3.938v3.938h-3.938zM232.369 228.431h3.938v3.938h-3.938zM232.369 232.369h3.938v3.938h-3.938zM236.308 15.754h3.938v3.938h-3.938zM236.308 19.692h3.938v3.938h-3.938zM236.308 23.631h3.938v3.938h-3.938zM236.308 27.569h3.938v3.938h-3.938zM236.308 31.508h3.938v3.938h-3.938zM236.308 35.446h3.938v3.938h-3.938zM236.308 39.385h3.938v3.938h-3.938zM236.308 55.138h3.938v3.938h-3.938zM236.308 59.077h3.938v3.938h-3.938zM236.308 63.015h3.938v3.938h-3.938zM236.308 74.831h3.938v3.938h-3.938zM236.308 78.769h3.938v3.938h-3.938zM236.308 82.708h3.938v3.938h-3.938zM236.308 86.646h3.938v3.938h-3.938zM236.308 90.585h3.938v3.938h-3.938zM236.308 98.462h3.938v3.938h-3.938zM236.308 110.277h3.938v3.938h-3.938zM236.308 126.031h3.938v3.938h-3.938zM236.308 129.969h3.938v3.938h-3.938zM236.308 133.908h3.938v3.938h-3.938zM236.308 149.662h3.938v3.938h-3.938zM236.308 153.6h3.938v3.938h-3.938zM236.308 157.538h3.938v3.938h-3.938zM236.308 169.354h3.938v3.938h-3.938zM236.308 177.231h3.938v3.938h-3.938zM236.308 181.169h3.938v3.938h-3.938zM236.308 185.108h3.938v3.938h-3.938zM236.308 196.923h3.938v3.938h-3.938zM236.308 200.862h3.938v3.938h-3.938zM236.308 204.8h3.938v3.938h-3.938zM236.308 216.615h3.938v3.938h-3.938zM236.308 220.554h3.938v3.938h-3.938zM236.308 228.431h3.938v3.938h-3.938zM236.308 232.369h3.938v3.938h-3.938z"/></svg>