<svg height="700pt" preserveAspectRatio="xMidYMid meet" viewBox="0 0 700 700" width="700pt" xmlns="http://www.w3.org/2000/svg"><g transform="matrix(.1 0 0 -.1 0 700)"><path d="m622 5983 3-748 483-3 482-2v175 175h-310-310v120 120h250 250v170 170h-250-250v115 115h310 310v170 170h-485-485z"/><path d="m1770 5980v-750l173 2 172 3 3 748 2 747h-175-175z"/><path d="m2320 5980v-750h175 175l2 433 3 434 244-434 245-433h188 188v750 750h-175-175l-2-432-3-432-241 430-242 429-191 3-191 2z"/><path d="m3360 4346v-756h169c201 0 296 12 401 49 114 40 184 85 281 181 72 71 93 100 132 180 26 52 53 121 61 152 89 353-92 726-428 878-119 54-165 62-398 67l-218 5zm486 364c37-18 81-51 113-85 231-244 109-618-222-680l-37-7v407 408l43-7c23-4 69-20 103-36z"/><path d="m650 4583c0-412 3-518 15-563 66-247 290-422 544-424 108-1 175 16 273 66 147 76 265 229 297 386 7 34 11 230 11 547v495h-175-174l-3-504-3-504-30-44c-60-86-187-122-281-79-53 24-109 91-123 146-7 29-11 204-11 514v471h-170-170z"/><path d="m2000 4340v-750h170 170v437c0 240 3 433 7 429 5-4 116-200 249-434l241-427 186-3 187-2v750 750h-170-170v-431c0-245-4-428-9-425s-116 197-247 431l-239 425h-187-188z"/><path d="m660 3290v-170h271c254 0 271-1 265-17-4-10-144-271-311-580-168-310-305-565-305-568s270-5 600-5h600v175 175l-309 2-310 3 309 570c170 314 310 573 310 578 0 4-252 7-560 7h-560z"/><path d="m1832 3448c3-7 116-347 252-756l248-742 171 2 172 3 85 367c46 202 87 365 89 362 3-3 49-168 102-367l95-362 171-3 171-2 11 32c27 85 431 1462 431 1469 0 5-81 9-179 9-162 0-180-2-185-17-3-10-55-189-117-398-61-209-114-385-118-392-3-7-55 172-115 398l-109 409h-171-171l-94-410c-52-226-97-407-101-403s-68 189-141 411l-134 402h-183c-143 0-183-3-180-12z"/><path d="m4285 3438c-28-78-505-1475-505-1481 0-4 82-6 182-5l182 3 31 88 30 87 239-2 239-3 30-87 29-88h179c114 0 179 4 179 10 0 9-302 945-436 1353l-46 137h-164c-123 0-166-3-169-12zm226-780 55-173-114-3c-63-1-117 0-120 2-5 6 111 346 119 346 3 0 30-78 60-172z"/><path d="m5210 2700v-750l173 2 172 3 5 427 5 427 241-427 241-427 186-3 187-2v750 750h-170-170v-431c0-236-4-428-8-425-5 3-116 197-248 431l-239 425h-187-188z"/><path d="m660 1650v-170h271c254 0 271-1 265-17-4-10-144-271-311-580-168-310-305-565-305-568s270-5 600-5h600v175 175l-310 2-309 3 309 570c170 314 310 573 310 578 0 4-252 7-560 7h-560z"/><path d="m3100 1809c-170-17-325-92-451-218-89-89-139-170-182-296-29-83-31-100-32-225 0-234 57-376 217-538 82-82 180-143 298-183 89-31 103-33 230-33 90 1 152 6 188 16 49 14 52 14 52-3 0-18 11-19 175-19h175v420 420h-325-325v-170-170h151 150l-3-42c-3-42-5-44-63-73-56-28-68-30-170-30-103 0-114 2-175 31-169 81-263 267-225 445 61 293 399 422 644 246l48-35 122 122 123 123-44 37c-155 133-364 197-578 175z"/><path d="m1992 1063 3-748 173-3 172-2v750 750h-175-175z"/></g></svg>