<svg width="283.377" height="314.82" xml:space="preserve" style="clip-rule:evenodd;fill-rule:evenodd;stroke-linecap:round;stroke-linejoin:round;stroke-miterlimit:1.5" xmlns="http://www.w3.org/2000/svg"><ellipse cx="937.754" cy="1999.31" rx="449.149" ry="124.914" style="fill:#cdcdcd" transform="matrix(-.27817 0 0 .1484 419.291 -.428)"/><path d="M773.316 1818.39c-32.798 58.81-51.875 135.09-55.902 193.9-22.011 9.82-95.456-27.17-73.876 21.2 3.533 7.91 18.751 6.66 108.865 4.68-.687-69.89 16.432-139.79 55.376-209.69z" style="fill:#151515" transform="matrix(-.2331 0 0 .36722 346.731 -452.728)"/><path d="M719.37 1815.65c-32.797 58.8 44.435 141.62 40.407 200.43-22.011 9.82-103.85-28.28-82.27 20.08 3.533 7.92 30.846 4.22 120.961 2.24-.687-69.9-50.8-139.55-11.856-209.45z" style="fill:#151515" transform="matrix(.2331 0 0 .36722 -47.279 -450.437)"/><path d="M697.789 1253.71c-128.342 44.98-342.634 66.68-370.739 39.89-64.72-61.69-90.913-114.03-84.629-127.15 2.363-4.94 23.742-8.15 14.587-34.91-4.092-11.97-16.37-12.74-16.37-12.74s3.861-60.19-13.372-58.56c-19.77 1.86-14.929 50.33-14.929 50.33s-12.289-51.32-32.907-39.59c-11.81 6.72 10.461 53.19 10.461 53.19s-1.974-4.33-6.407-2.01c-6.92 3.62-16.695 7.87-11.795 26.56 1.483 5.66 6.076 12.79 12.441 15.59 3.199 1.41 6.075 6.58 9.381 10.16 4.526 4.9 18.921 5.42 19.156 6.12 11.669 34.41 84.691 139.92 107.769 146.1 48.046 12.87 245.994 22.58 384.819-28.67z" style="fill:#181312;fill-rule:nonzero" transform="matrix(-.16006 .01582 .02082 .20408 254.641 -144.648)"/><path d="M2431.7 792.132c-9.69 1.571-15.4 9.824-13.84 19.468l1.71 10.57-11.05 1.792-1.53-9.448c-1.57-9.644-9.6-15.669-19.28-14.098-9.69 1.571-15.45 9.831-13.88 19.475l1.53 9.448-.05.007c-15.63 2.534-25.3 15.947-22.78 31.501l24.51 151.173c2.52 15.56 15.93 25.18 31.56 22.64h.05l1.42 8.8c1.57 9.64 9.64 15.66 19.33 14.09 9.69-1.57 15.4-9.82 13.84-19.47l-1.43-8.8 11.05-1.79 1.25 7.68c1.56 9.64 9.59 15.67 19.28 14.1 9.69-1.57 15.4-9.83 13.83-19.47l-1.34-8.33c35.39-9.12 56.98-37.328 51.64-70.271-3.78-23.331-19.36-38.353-42.34-43.567 6.66-10.339 9.1-22.894 6.88-36.582-4.18-25.806-22.96-43.531-48.49-48.813l-2.59-16.007c-1.57-9.643-9.59-15.669-19.28-14.098z" style="fill:#f3932e" transform="translate(-2304.22 -791.884)"/><path d="M149.765 133.311c-6.459.934-13.859-4.24-12.113 3.97.69 3.25 6.108 5.225 12.566 4.291 6.459-.933 11.093-4.361 10.838-7.673-.591-7.658-4.833-1.521-11.291-.588zm-38.191-76.123c4.743-1.62 10.746.313 8.693-4.384-.811-1.859-5.041-2.174-9.784-.555-4.743 1.62-7.895 4.455-7.403 6.423 1.14 4.55 3.751.135 8.494-1.484zm46.74-.232c4.82-1.374 10.715.863 8.906-3.933-.715-1.898-4.923-2.429-9.743-1.055-4.82 1.374-8.113 4.044-7.722 6.035.905 4.602 3.74.327 8.559-1.047z"/><circle cx="480.768" cy="1226.3" r="66.96" style="fill:#fff" transform="matrix(-.26584 0 0 .26584 248.464 -232.152)"/><circle cx="480.768" cy="1226.3" r="66.96" transform="matrix(-.10671 0 0 .10671 181.054 -33.052)"/><circle cx="480.768" cy="1226.3" r="66.96" style="fill:#fff" transform="matrix(-.03405 0 0 .03405 142.362 52.172)"/><ellipse cx="713.566" cy="1492.58" rx="51.968" ry="26.115" style="fill:#f3932e" transform="matrix(-.36242 0 0 .26584 377.111 -284.008)"/><circle cx="480.768" cy="1226.3" r="66.96" style="fill:#fff" transform="matrix(-.26584 0 0 .26584 291.054 -233.282)"/><circle cx="480.768" cy="1226.3" r="66.96" transform="matrix(-.10671 0 0 .10671 223.644 -34.182)"/><circle cx="480.768" cy="1226.3" r="66.96" style="fill:#fff" transform="matrix(-.03405 0 0 .03405 184.952 51.042)"/><ellipse cx="713.566" cy="1492.58" rx="51.968" ry="26.115" style="fill:#f3932e" transform="matrix(-.36242 0 0 .26584 419.701 -285.128)"/><path d="M697.789 1253.71c-128.342 44.98-342.634 66.68-370.739 39.89-64.72-61.69-90.913-114.03-84.629-127.15 2.363-4.94 23.742-8.15 14.587-34.91-4.092-11.97-16.37-12.74-16.37-12.74s3.861-60.19-13.372-58.56c-19.77 1.86-14.929 50.33-14.929 50.33s-12.289-51.32-32.907-39.59c-11.81 6.72 10.461 53.19 10.461 53.19s-1.974-4.33-6.407-2.01c-6.92 3.62-16.695 7.87-11.795 26.56 1.483 5.66 6.076 12.79 12.441 15.59 3.199 1.41 6.075 6.58 9.381 10.16 4.526 4.9 18.921 5.42 19.156 6.12 11.669 34.41 84.691 139.92 107.769 146.1 48.046 12.87 245.994 22.58 384.819-28.67 29.195-16.66 26.46-31.42-7.466-44.31z" style="fill:#181312;fill-rule:nonzero" transform="matrix(.17074 -.0092 .01193 .23519 -42.669 -148.458)"/></svg>