<svg width="249.879" height="317.283" xml:space="preserve" style="clip-rule:evenodd;fill-rule:evenodd;stroke-linecap:round;stroke-linejoin:round;stroke-miterlimit:1.5" xmlns="http://www.w3.org/2000/svg"><path d="M697.789 1253.71c-128.342 44.98-342.634 66.68-370.739 39.89-64.72-61.69-90.913-114.03-84.629-127.15 2.363-4.94 23.962-4.16 14.807-30.93-1.042-3.04 14.129-17.76 4.797-27.5-11.245-11.72-21.387 10.78-21.387 10.78s3.861-60.19-13.372-58.56c-19.77 1.86-14.929 50.33-14.929 50.33s-9.923-14.83-20.805-9.51c-12.384 6.06-1.641 23.11-1.641 23.11s-7.228-17.51-21.961-9.64c-12.894 6.9 1.771 24.42 3.759 34.19 1.16 5.7 11.506 16.06 14.812 19.64 4.525 4.9 25.931 11.53 26.166 12.23 11.669 34.41 84.691 139.92 107.769 146.1 48.046 12.87 245.994 22.58 384.819-28.67z" style="fill:#181312;fill-rule:nonzero" transform="matrix(-.16006 .01582 .02082 .20408 226.883 -144.65)"/><ellipse cx="937.754" cy="1999.31" rx="449.149" ry="124.914" style="fill:#cdcdcd" transform="matrix(-.27817 0 0 .1484 385.793 2.035)"/><path d="M773.316 1818.39c-32.798 58.81-51.875 135.09-55.902 193.9-22.011 9.82-95.456-27.17-73.876 21.2 3.533 7.91 18.751 6.66 108.865 4.68-.687-69.89 16.432-139.79 55.376-209.69z" style="fill:#151515" transform="matrix(-.2331 0 0 .36722 315.273 -449.94)"/><path d="M719.37 1815.65c-32.797 58.8 44.435 141.62 40.407 200.43-22.011 9.82-103.85-28.28-82.27 20.08 3.533 7.92 30.846 4.22 120.961 2.24-.687-69.9-50.8-139.55-11.856-209.45z" style="fill:#151515" transform="matrix(.2331 0 0 .36722 -78.737 -447.65)"/><path d="M2426.43 413.071c-9.69 1.571-15.4 9.824-13.84 19.468l1.72 10.57-11.06 1.792-1.53-9.448c-1.56-9.644-9.59-15.669-19.28-14.098-9.69 1.571-15.44 9.831-13.88 19.474l1.53 9.449-.04.007c-15.63 2.534-25.31 15.947-22.79 31.501l24.51 151.174c2.53 15.554 15.94 25.178 31.57 22.644l.04-.007 1.43 8.802c1.56 9.643 9.63 15.661 19.32 14.09 9.69-1.571 15.4-9.823 13.84-19.467l-1.43-8.802 11.06-1.792 1.24 7.68c1.57 9.644 9.59 15.668 19.28 14.097 9.69-1.571 15.41-9.823 13.84-19.467l-1.35-8.326c35.39-9.12 56.99-37.331 51.65-70.274-3.79-23.331-19.37-38.353-42.35-43.567 6.67-10.339 9.1-22.894 6.89-36.582-4.19-25.806-22.96-43.531-48.49-48.813l-2.6-16.007c-1.56-9.643-9.59-15.669-19.28-14.098z" style="fill:#f3932e" transform="translate(-2326.718 -412.823)"/><path d="M126.457 132.9c-6.459.933-12.408-4.417-12.113 3.97.5 14.209 6.556 20.2 12.901 18.575 4.946-1.266 8.718-19.094 10.503-21.958 3.025-4.85-4.833-1.521-11.291-.588zM86.376 52.359c4.743-1.62 10.746.313 8.693-4.384-.811-1.859-5.041-2.174-9.784-.555-4.743 1.62-7.895 4.455-7.403 6.423 1.14 4.55 3.751.135 8.494-1.484zm48.935-3.426c4.963-.7 10.496 2.325 9.362-2.674-.449-1.978-4.544-3.082-9.507-2.382-4.962.7-8.59 2.894-8.476 4.919.264 4.683 3.659.837 8.621.137z"/><circle cx="480.768" cy="1226.3" r="66.96" style="fill:#fff" transform="matrix(-.26584 0 0 .26584 220.336 -231.641)"/><circle cx="480.768" cy="1226.3" r="66.96" transform="matrix(-.10671 0 0 .10671 152.926 -32.54)"/><circle cx="480.768" cy="1226.3" r="66.96" style="fill:#fff" transform="matrix(-.03405 0 0 .03405 114.234 52.683)"/><ellipse cx="713.566" cy="1492.58" rx="51.968" ry="26.115" style="fill:#f3932e" transform="matrix(-.35141 .08866 .06503 .25776 254.723 -333.945)"/><circle cx="480.768" cy="1226.3" r="66.96" style="fill:#fff" transform="matrix(-.26584 0 0 .26584 263.296 -233.28)"/><circle cx="480.768" cy="1226.3" r="66.96" transform="matrix(-.10671 0 0 .10671 195.886 -34.18)"/><circle cx="480.768" cy="1226.3" r="66.96" style="fill:#fff" transform="matrix(-.03405 0 0 .03405 157.194 51.044)"/><ellipse cx="713.566" cy="1492.58" rx="51.968" ry="26.115" style="fill:#f3932e" transform="matrix(-.3466 .10593 .0777 .25423 271.553 -341.572)"/><path d="M697.789 1253.71c-128.342 44.98-292.117 47.23-333.448 46.35-1.319-.03-.444-116.9 5.762-129.86 2.362-4.93 23.741-8.14 14.586-34.91-4.092-11.96-12.641-16.22-20.086-19.72-7.428-3.48-24.584-1.25-24.584-1.25s-24.421 9.28-28.854 11.59c-6.919 3.62-16.694 7.87-11.794 26.57 1.483 5.65 6.076 12.79 12.44 15.58 3.199 1.41 6.076 6.58 9.382 10.16 4.525 4.9 18.921 5.43 19.156 6.12 11.669 34.41-42.991 136.17-19.913 142.35 48.046 12.87 245.994 22.58 384.819-28.67 29.195-16.66 26.46-31.42-7.466-44.31z" style="fill:#181312;fill-rule:nonzero" transform="matrix(.07957 -.15134 -.20879 -.10893 278.183 380.743)"/><ellipse cx="713.566" cy="1492.58" rx="51.968" ry="26.115" style="fill:#f3932e" transform="matrix(-.22667 .2828 .20743 .16626 -71.277 -243.355)"/></svg>