<svg width="294.607" height="317.86" xml:space="preserve" style="clip-rule:evenodd;fill-rule:evenodd;stroke-linecap:round;stroke-linejoin:round;stroke-miterlimit:1.5" xmlns="http://www.w3.org/2000/svg"><path d="M699.834 1508.76c-128.342 44.98-463.697-329.19-457.413-342.31 2.363-4.94 23.962-4.16 14.807-30.93-1.042-3.04 15.637-26.16 6.305-35.89-11.245-11.73-22.895 19.17-22.895 19.17s3.861-60.19-13.372-58.56c-19.77 1.86-14.929 50.33-14.929 50.33s-12.289-51.32-32.907-39.59c-11.81 6.72 10.461 53.19 10.461 53.19s-20.038-37.75-36.065-31.61c-18.767 7.18 12.963 37.47 17.863 56.16 1.483 5.66 11.506 16.06 14.812 19.64 4.525 4.9 25.931 11.53 26.166 12.23 11.669 34.41 280.278 390.99 419.103 339.74z" style="fill:#181312;fill-rule:nonzero" transform="matrix(-.16068 -.00716 -.00848 .20496 304.562 -184.728)"/><ellipse cx="937.754" cy="1999.31" rx="449.149" ry="124.914" style="fill:#cdcdcd" transform="matrix(-.27817 0 0 .1484 430.522 2.612)"/><path d="M773.316 1818.39c-32.798 58.81-51.875 135.09-55.902 193.9-22.011 9.82-95.456-27.17-73.876 21.2 3.533 7.91 18.751 6.66 108.865 4.68-.687-69.89 16.432-139.79 55.376-209.69z" style="fill:#151515" transform="matrix(-.2331 0 0 .36722 354.192 -447.489)"/><path d="M719.37 1815.65c-32.797 58.8 44.435 141.62 40.407 200.43-22.011 9.82-103.85-28.28-82.27 20.08 3.533 7.92 30.846 4.22 120.961 2.24-.687-69.9-50.8-139.55-11.856-209.45z" style="fill:#151515" transform="matrix(.2331 0 0 .36722 -36.048 -447.395)"/><path d="M2431.7 792.132c-9.69 1.571-15.4 9.824-13.84 19.468l1.71 10.57-11.05 1.792-1.53-9.448c-1.57-9.644-9.6-15.669-19.28-14.098-9.69 1.571-15.45 9.831-13.88 19.475l1.53 9.448-.05.007c-15.63 2.534-25.3 15.947-22.78 31.501l24.51 151.173c2.52 15.56 15.93 25.18 31.56 22.64h.05l1.42 8.8c1.57 9.64 9.64 15.66 19.33 14.09 9.69-1.57 15.4-9.82 13.84-19.47l-1.43-8.8 11.05-1.79 1.25 7.68c1.56 9.64 9.59 15.67 19.28 14.1 9.69-1.57 15.4-9.83 13.83-19.47l-1.34-8.33c35.39-9.12 56.98-37.328 51.64-70.271-3.78-23.331-19.36-38.353-42.34-43.567 6.66-10.339 9.1-22.894 6.88-36.582-4.18-25.806-22.96-43.531-48.49-48.813l-2.59-16.007c-1.57-9.643-9.59-15.669-19.28-14.098z" style="fill:#f3932e" transform="translate(-2294.402 -791.884)"/><path d="M699.834 1508.76c-247.507-42.67-482.933-343.34-457.413-342.31 5.467.22 23.962-4.16 14.807-30.93-1.042-3.04 15.637-26.16 6.305-35.89-11.245-11.73-22.895 19.17-22.895 19.17s3.861-60.19-13.372-58.56c-19.77 1.86-14.929 50.33-14.929 50.33s-12.289-51.32-32.907-39.59c-11.81 6.72 10.461 53.19 10.461 53.19s-20.038-37.75-36.065-31.61c-18.767 7.18 12.963 37.47 17.863 56.16 1.483 5.66 11.506 16.06 14.812 19.64 4.525 4.9 25.931 11.53 26.166 12.23 11.669 34.41 280.948 364.58 452.782 367.05 3.422.05 5.753.23 9.402.14 24.161-.59 36.563-20.41 24.983-39.02z" style="fill:#181312;fill-rule:nonzero" transform="matrix(.1581 -.02958 .03708 .20176 -64.158 -164.228)"/><path d="M131.021 37.6c4.925-.927 10.591 1.841 9.23-3.1-.54-1.956-4.68-2.87-9.606-1.944-4.925.926-8.45 3.283-8.243 5.301.479 4.666 3.694.669 8.619-.258zm50.652 1.639c5.012.014 10.057 3.797 9.647-1.313-.162-2.021-4.058-3.698-9.07-3.712-5.011-.014-8.915 1.64-9.09 3.66-.407 4.673 3.501 1.35 8.513 1.365z"/><circle cx="480.768" cy="1226.3" r="66.96" style="fill:#fff" transform="scale(.26584 -.26584) rotate(-65.111 -731.23 427.567)"/><circle cx="480.768" cy="1226.3" r="66.96" transform="matrix(.04491 .0968 .0968 -.04491 .998 92.961)"/><circle cx="480.768" cy="1226.3" r="66.96" style="fill:#fff" transform="matrix(.01433 .03089 .03089 -.01433 94.59 92.192)"/><circle cx="480.768" cy="1226.3" r="66.96" style="fill:#fff" transform="matrix(.14978 .21963 .21963 -.14978 -162.024 168.464)"/><circle cx="480.768" cy="1226.3" r="66.96" transform="matrix(.06012 .08816 .08816 -.06012 48.882 115.752)"/><circle cx="480.768" cy="1226.3" r="66.96" style="fill:#fff" transform="matrix(.01918 .02813 .02813 -.01918 141.091 99.703)"/><ellipse cx="1957.4" cy="1856.01" rx="33.969" ry="31.925" transform="matrix(.18734 .02698 -.02596 .18028 -174.878 -240.628)"/></svg>