<svg width="0" height="0" xmlns="http://www.w3.org/2000/svg" xmlns:xlink="http://www.w3.org/1999/xlink">
<symbol id="logo-horizontal" viewBox="0 0 134 12"><g><path d="m133.83629 9.42089615c-.443181 1.77759655-2.24359 2.85941795-4.021394 2.41613355-1.777078-.4431808-2.858899-2.24369331-2.415511-4.02118615.442973-1.77780392 2.243382-2.85972904 4.020668-2.41654828 1.7777.44318074 2.859418 2.24390065 2.416237 4.02160088z" fill="#f7931a"/><path d="m132.080261 8.14548127c.066052-.44152167-.270118-.67887327-.729786-.83721136l.14911-.598097-.364064-.09073074-.145169.58233577c-.095708-.02384922-.194008-.04635044-.291687-.06864427l.146207-.58617239-.363857-.09073074-.149213.59788961c-.079221-.01804245-.15699-.03587751-.232478-.05464581l.000415-.00186647-.502078-.12536395-.096849.388846s.270119.06190429.264416.0657409c.14745.03681075.174099.13438518.16964.21173961-.408547 1.63844151 0 0-.408547 1.63844151-.018043.04479506-.063771.11198765-.166841.08647935.003629.0052883-.264623-.06605197-.264623-.06605197l-.180735.41673922.47377.11810549c.088138.02208645.174514.04520983.259541.06698521l-.150665.60494066.363649.0907308.149213-.59851181c.099338.02695999.195771.05184613.290131.07528059l-.148694.59571212.364063.0907307.150665-.6038001c.620806.1174834 1.087628.070096 1.284125-.49139764.158338-.45209828-.007881-.71288434-.334511-.88293965.23787-.05485322.41705-.21132484.464852-.53453364zm-.831819 1.16643431c-.112506.45209828-.873711.20769561-1.120499.14641348l.199919-.80143754c.246788.06159322 1.038167.18353532.92058.65502406zm.11261-1.17296693c-.102656.41124353-.736215.20230362-.941733.15107964l.181254-.72688279c.205518.05122398.867385.14682825.760479.57580315z" fill="#fff"/><path d="m7.63783784 11.9027027v-2.74054053h-4.8972973v-1.88108109h3.97297298v-2.74054054h-3.97297298v-1.8h4.8972973v-2.74054054l-7.63783784.01621621v11.88648649zm4.15135136.0162162v-11.9189189h-2.74054056v11.9189189zm4.3621621-.0162162v-6.94054054l3.8918919 6.94054054h2.9675677v-11.9027027h-2.7405407v6.95675676l-3.8756756-6.92432432h-2.9837838v11.87027026zm12.9405406.0162162c.6162162-.0108108 1.1972973-.1378378 1.7432432-.3810811.545946-.2432432 1.0216217-.5702702 1.4270271-.9810811.4054054-.4108107.7243243-.89189179.9567568-1.44324315.2324323-.55135136.3432431-1.13513518.3324324-1.75135139v-7.36216216h-2.7405406v7.37837838c0 .24864864-.0432432.48108108-.1297297.6972973s-.2108108.4054054-.372973.56756753c-.1621622.16216224-.3513513.29189191-.5675676.38918922-.2162162.0972973-.4432432.14594596-.681081.14594596-.4864866 0-.9081082-.16756761-1.2648649-.50270271-.3567568-.35675676-.5351352-.77297298-.5351352-1.24864865v-7.42702703h-2.7405405v7.44324325c.0108108.61621621.1324324 1.1945946.3648649 1.73513514.2324324.54054054.5648648 1.02702711.9972973 1.45945951.4216216.4108107.9027027.727027 1.4432433.9486486.5405405.2216216 1.1135134.3324324 1.7189189.3324324zm8.8378378-.0162162v-6.94054054l3.8918919 6.94054054h2.9675676v-11.9027027h-2.7405406v6.95675676l-3.8756756-6.92432432h-2.9837838v11.87027026zm10.7351352.0648649c.8108108-.0432433 1.5621621-.2243243 2.254054-.5432433.6918919-.3189189 1.2945946-.7432432 1.8081081-1.272973.5135135-.52972968.9162162-1.1432432 1.2081082-1.84054049.2918919-.69729729.4378377-1.44594595.4378377-2.24594594 0-.81081081-.1486486-1.57297297-.4459459-2.28648649-.2972973-.71351351-.7027027-1.34054054-1.2162162-1.88108108s-1.1189189-.97837838-1.8162162-1.31351351c-.6972973-.33513514-1.4405406-.52432432-2.2297297-.56756757v-.01621622h-2.7405406v11.9675676zm0-2.74978378v-6.4540541c.4216216.04324325.8108108.15945946 1.1675675.34864865.3567568.18918919.6702703.43243244.9405405.72972973.2702703.2972973.4810812.63783784.6324325 1.02162163.1513513.38378378.227027.78648648.227027 1.2081081 0 .41081082-.0756757.8-.227027 1.16756758-.1513513.36756756-.3594594.68918919-.6243243.96486486-.2648648.27567567-.5783784.5027027-.9405406.68108112-.3621621.17837833-.754054.28918914-1.1756756.33243243zm15.2918919 2.78221618v-2.74054053h-4.9135135l4.9783783-9.24324326-8.9189189-.01621621v2.75675676h4.3297297l-4.9783784 9.24324324zm7.0702702-.0162162 1.3621622-5.96756759 1.572973 5.96756759h2.708108l3.518919-11.9837838h-2.8702703l-1.9297297 6.60000001-1.7513513-6.60000001h-2.691892l-1.508108 6.63243243-2.2054055-6.63243243h-2.8864865l3.9567568 11.9837838zm10.5932433-.0810811.4864864-1.4432432h3.745946l.4702703 1.4432432h2.8864865l-3.8432433-11.9027027h-2.5945945l-4.0540541 11.9027027zm3.3567567-4.18970272h-1.9297297l.9891892-2.88648648zm7.7837838 4.18970272v-6.94054054l3.8918917 6.94054054h2.9675678v-11.9027027h-2.7405405v6.95675676l-3.8756757-6.92432432h-2.9837838v11.87027026zm17.3189192.0972973v-2.74054053h-4.913513l4.978377-9.24324326-8.918918-.01621621v2.75675676h4.32973l-4.978379 9.24324324zm3.81081-.0810811v-11.9189189h-2.74054v11.9189189zm7.281081.0324324c.313514 0 .62973-.0243243.948649-.072973.318919-.0486486.62973-.127027.932433-.2351351v.2918919h2.756756v-6.66486483h-5.14054v2.74054054h2.383784v.59999996c-.313514.22702708-.654054.38918923-1.021622.48648653-.367567.0972973-.737838.13243245-1.11081.10540544-.372974-.0270271-.735136-.11891895-1.086488-.27567573-.351351-.15675678-.667566-.37567566-.948648-.65675674-.313513-.31351351-.551351-.67027027-.713513-1.07027027-.162163-.4-.243243-.80540541-.243243-1.21621621 0-.41081082.08108-.81621623.243243-1.21621622.162162-.4.4-.75675676.713513-1.07027028.313513-.31351351.67027-.54864864 1.07027-.7054054.4-.15675675.805405-.23513513 1.216216-.23513513s.816217.07837838 1.216217.23513513c.4.15675676.756756.39189189 1.07027.7054054l1.945946-1.94594594c-.583784-.58378379-1.243243-1.02162162-1.978379-1.31351352-.735134-.29189188-1.486486-.43783783-2.254054-.43783783-.767567 0-1.518919.14594595-2.254054.43783783-.735134.2918919-1.394594.72972973-1.978377 1.31351352-.583784.58378379-1.01892 1.24324324-1.305407 1.97837838-.286486.73513513-.429729 1.48648649-.429729 2.25405406 0 .76756756.143243 1.51621621.429729 2.24594594.286487.72972975.721623 1.38648646 1.305407 1.97027027.583783.5837838 1.243243 1.0216216 1.978377 1.3135135.735135.2918919 1.486487.4378378 2.254054.4378378z" fill="currentColor"/></g></symbol>
<symbol id="logo-square" viewBox="0 0 1287 1287"><g><g transform="translate(664.886076, 1117.481013)"><path d="M165.818329,104.54021 C154.575409,149.635522 108.901379,177.079925 63.800805,165.834375 C18.7186452,154.591456 -8.72575752,108.914794 2.52242286,63.8221123 C13.7600811,18.7215388 59.4341119,-8.72549446 104.521533,2.51742484 C149.619476,13.7603441 177.061248,59.4422666 165.818329,104.54021 Z" fill="#f7931a"/><path d="M121.270168,72.1845926 C122.945821,60.9837619 114.417617,54.9624604 102.756442,50.945629 L106.539155,35.7726859 L97.3033366,33.4709652 L93.6205835,48.2440665 C91.1925969,47.6390427 88.6988469,47.068216 86.2208801,46.5026503 L89.9299387,31.6322191 L80.6993809,29.3304984 L76.9140368,44.4981804 C74.9043058,44.0404668 72.9314023,43.5880142 71.0163706,43.1118869 L71.0268928,43.0645372 L58.2898279,39.8842168 L55.8329055,49.7487342 C55.8329055,49.7487342 62.6854569,51.3191653 62.5407773,51.4164953 C66.2814023,52.3503362 66.9574506,54.8256725 66.8443374,56.7880538 C56.4800178,98.3531843 66.8443374,56.7880538 56.4800178,98.3531843 C56.0223042,99.4895767 54.8622369,101.194165 52.2474822,100.547053 C52.339551,100.68121 45.5343493,98.8714003 45.5343493,98.8714003 L40.9493216,109.443532 L52.9682496,112.439715 C55.2042069,113.00002 57.395445,113.58663 59.5524862,114.139043 L55.7303145,129.485601 L64.9556112,131.787322 L68.7409553,116.603857 C71.2610107,117.287797 73.707411,117.919126 76.1012006,118.513627 L72.3290091,133.626068 L81.5648279,135.927789 L85.3869996,120.610166 C101.13603,123.590566 112.978712,122.38841 117.963582,108.144047 C121.980413,96.6749011 117.763661,90.0590981 109.477466,85.7450158 C115.51192,84.3534612 120.05749,80.3839794 121.270168,72.1845926 L121.270168,72.1845926 Z M100.167992,101.775514 C97.3138588,113.24466 78.0030795,107.044482 71.7423991,105.489834 L76.8140763,85.1584059 C83.0747567,86.7209454 103.151023,89.8144581 100.167992,101.775514 Z M103.024757,72.0188687 C100.420524,82.4515823 84.3479371,77.1510483 79.1342108,75.8515625 L83.7323912,57.4114913 C88.9461175,58.7109771 105.736841,61.1363331 103.024757,72.0188687 Z" fill="#FFF"/></g><path fill="currentColor" d="M203.13768,300.399037 L203.13768,231.365531 L79.068373,231.365531 L79.068373,183.981585 L179.720625,183.981585 L179.720625,114.948079 L79.068373,114.948079 L79.068373,69.606545 L203.13768,69.606545 L203.13768,0.5730392 L9.63886,0.9815215 L9.63886,300.399037 L203.13768,300.399037 Z M308.309013,300.399037 L308.309013,0.164557 L238.8795,0.164557 L238.8795,300.399037 L308.309013,300.399037 Z M418.821077,300.399037 L418.821077,125.568619 L517.419202,300.399037 L592.600272,300.399037 L592.600272,0.5730392 L523.170759,0.5730392 L523.170759,175.81194 L424.98346,1.3900038 L349.391565,1.3900038 L349.391565,300.399037 L418.821077,300.399037 Z M130.010737,628.454758 C145.622107,628.182437 160.343355,624.982659 174.174481,618.855425 C188.005607,612.72819 200.056489,604.490464 210.327126,594.142246 C220.597764,583.794028 228.677333,571.675721 234.565832,557.787323 C240.454331,543.898925 243.261639,529.193563 242.987755,513.671236 L242.987755,328.220278 L173.558243,328.220278 L173.558243,514.079718 C173.558243,520.343113 172.462708,526.198026 170.271638,531.644457 C168.080569,537.090887 164.930907,541.856514 160.822651,545.941337 C156.714396,550.026159 151.921432,553.294018 146.443758,555.744911 C140.966085,558.195805 135.214527,559.421252 129.189086,559.421252 C116.864321,559.421252 106.182857,555.200268 97.144696,546.758301 C88.106535,537.771691 83.587454,527.287312 83.587454,515.305165 L83.587454,328.220278 L14.157941,328.220278 L14.157941,515.713647 C14.431825,531.235974 17.513016,545.805176 23.401515,559.421252 C29.290014,573.037328 37.711938,585.291797 48.667285,596.184658 C59.348748,606.532876 71.536572,614.49828 85.230756,620.080871 C98.92494,625.663463 113.440775,628.454758 128.778261,628.454758 L130.010737,628.454758 Z M353.910645,628.454758 L353.910645,453.62434 L452.50877,628.454758 L527.68984,628.454758 L527.68984,328.628761 L458.260327,328.628761 L458.260327,503.867661 L360.073028,329.445725 L284.481133,329.445725 L284.481133,628.454758 L353.910645,628.454758 Z M625.877139,628.454758 C646.418415,627.365472 665.453331,622.804087 682.981886,614.770602 C700.510442,606.737117 715.779457,596.048497 728.788932,582.704742 C741.798406,569.360988 752.000574,553.906741 759.395433,536.342003 C766.790292,518.777265 770.487722,499.918999 770.487722,479.767206 C770.487722,459.343092 766.721821,440.144425 759.19002,422.171204 C751.658219,404.197984 741.387581,388.403335 728.378106,374.787259 C715.368631,361.171183 700.031145,350.142161 682.365648,341.700194 C664.700151,333.258227 645.870648,328.4926 625.877139,327.403314 L625.877139,326.994832 L556.447626,326.994832 L556.447626,628.454758 L625.877139,628.454758 Z M625.877139,559.01277 L625.877139,396.43682 C636.558603,397.526106 646.418415,400.453563 655.456577,405.219189 C664.494738,409.984816 672.437365,416.11205 679.284457,423.600892 C686.131549,431.089734 691.47228,439.667862 695.306652,449.335276 C699.141023,459.00269 701.058209,469.146667 701.058209,479.767206 C701.058209,490.115424 699.141023,499.918999 695.306652,509.177931 C691.47228,518.436863 686.20002,526.538428 679.489869,533.482627 C672.779719,540.426826 664.837093,546.145578 655.661989,550.638883 C646.486886,555.132188 636.558603,557.923484 625.877139,559.01277 Z M240.933628,956.51048 L240.933628,887.476974 L116.453495,887.476974 L242.57693,654.642071 L16.622894,654.233589 L16.622894,723.675577 L126.313308,723.675577 L0.189873,956.51048 L240.933628,956.51048 Z M420.053554,956.51048 L454.562898,806.188999 L494.412973,956.51048 L563.020835,956.51048 L652.169972,654.642071 L579.453855,654.642071 L530.565619,820.894361 L486.196463,654.642071 L417.999426,654.642071 L379.792653,821.711326 L323.920383,654.642071 L250.79344,654.642071 L351.034867,956.51048 L420.053554,956.51048 Z M713.7938,956.51048 L726.118566,920.155556 L821.019261,920.155556 L832.933201,956.51048 L906.06014,956.51048 L808.694495,656.684482 L742.962412,656.684482 L640.256032,956.51048 L713.7938,956.51048 Z M798.834683,851.12205 L749.946446,851.12205 L775.006803,778.412203 L798.834683,851.12205 Z M996.03093,956.51048 L996.03093,781.680062 L1094.62906,956.51048 L1169.81013,956.51048 L1169.81013,656.684482 L1100.38061,656.684482 L1100.38061,831.923383 L1002.19331,657.501447 L926.60142,657.501447 L926.60142,956.51048 L996.03093,956.51048 Z M240.933628,1284.5662 L240.933628,1215.5327 L116.453495,1215.5327 L242.57693,982.69779 L16.622894,982.28931 L16.622894,1051.7313 L126.313308,1051.7313 L0.189873,1284.5662 L240.933628,1284.5662 Z M353.088994,1284.5662 L353.088994,984.33172 L283.659482,984.33172 L283.659482,1284.5662 L353.088994,1284.5662 Z M521.938283,1284.97468 C529.88091,1284.97468 537.892007,1284.36196 545.971576,1283.13651 C554.051144,1281.91107 561.9253,1279.93674 569.594043,1277.21352 L569.594043,1284.5662 L639.434381,1284.5662 L639.434381,1116.67998 L509.202692,1116.67998 L509.202692,1185.71349 L569.594043,1185.71349 L569.594043,1200.82733 C561.651416,1206.54608 553.02408,1210.63091 543.712035,1213.0818 C534.39999,1215.5327 525.019474,1216.41774 515.570487,1215.73694 C506.1215,1215.05613 496.946397,1212.7414 488.045177,1208.79274 C479.143958,1204.84408 471.13286,1199.32956 464.011885,1192.2492 C456.069258,1184.35188 450.043817,1175.36527 445.935562,1165.28937 C441.827307,1155.21348 439.773179,1145.00142 439.773179,1134.6532 C439.773179,1124.30498 441.827307,1114.09293 445.935562,1104.01703 C450.043817,1093.94113 456.069258,1084.95452 464.011885,1077.0572 C471.954511,1069.15988 480.992673,1063.23688 491.126369,1059.28822 C501.260065,1055.33956 511.530703,1053.36523 521.938283,1053.36523 C532.345863,1053.36523 542.616501,1055.33956 552.750197,1059.28822 C562.883893,1063.23688 571.922054,1069.15988 579.864681,1077.0572 L629.163743,1028.03933 C614.374025,1013.33396 597.66712,1002.30494 579.04303,994.95226 C560.41894,987.59958 541.384024,983.92324 521.938283,983.92324 C502.492542,983.92324 483.457626,987.59958 464.833536,994.95226 C446.209445,1002.30494 429.502541,1013.33396 414.712822,1028.03933 C399.923104,1042.74469 388.899286,1059.3563 381.641368,1077.87416 C374.38345,1096.39203 370.754492,1115.31837 370.754492,1134.6532 C370.754492,1153.98803 374.38345,1172.8463 381.641368,1191.228 C388.899286,1209.6097 399.923104,1226.15323 414.712822,1240.8586 C429.502541,1255.56396 446.209445,1266.59298 464.833536,1273.94566 C483.457626,1281.29834 502.492542,1284.97468 521.938283,1284.97468 L521.938283,1284.97468 Z"/></g></symbol>
<symbol id="github" viewBox="0 0 25 24"><path clip-rule="evenodd" d="M12.75.3c-6.6 0-12 5.4-12 12 0 5.325 3.45 9.825 8.175 11.4.6.075.825-.225.825-.6v-2.025C6.375 21.825 5.7 19.5 5.7 19.5c-.525-1.35-1.35-1.725-1.35-1.725-1.125-.75.075-.75.075-.75 1.2.075 1.875 1.2 1.875 1.2 1.05 1.8 2.775 1.275 3.525.975a2.59 2.59 0 0 1 .75-1.575c-2.7-.3-5.475-1.35-5.475-5.925 0-1.275.45-2.4 1.2-3.225-.15-.3-.525-1.5.15-3.15 0 0 .975-.3 3.3 1.2.975-.3 1.95-.375 3-.375s2.025.15 3 .375c2.325-1.575 3.3-1.275 3.3-1.275.675 1.65.225 2.85.15 3.15.75.825 1.2 1.875 1.2 3.225 0 4.575-2.775 5.625-5.475 5.925.45.375.825 1.125.825 2.25v3.3c0 .3.225.675.825.6a12.015 12.015 0 0 0 8.175-11.4c0-6.6-5.4-12-12-12z" fill="currentColor" fill-rule="evenodd"></path></symbol>
<symbol id="twitter" viewBox="0 0 37 37"><path d="M36 18c0 9.945-8.055 18-18 18S0 27.945 0 18 8.055 0 18 0s18 8.055 18 18zm-21.294 9.495c7.983 0 12.348-6.615 12.348-12.348 0-.189 0-.378-.009-.558a8.891 8.891 0 0 0 2.169-2.25 8.808 8.808 0 0 1-2.493.684 4.337 4.337 0 0 0 1.908-2.403 8.788 8.788 0 0 1-2.754 1.053 4.319 4.319 0 0 0-3.168-1.368 4.34 4.34 0 0 0-4.338 4.338c0 .342.036.675.117.99a12.311 12.311 0 0 1-8.946-4.536 4.353 4.353 0 0 0-.585 2.178 4.32 4.32 0 0 0 1.935 3.609 4.263 4.263 0 0 1-1.962-.54v.054a4.345 4.345 0 0 0 3.483 4.257 4.326 4.326 0 0 1-1.962.072 4.333 4.333 0 0 0 4.05 3.015 8.724 8.724 0 0 1-6.426 1.791 12.091 12.091 0 0 0 6.633 1.962z" fill="currentColor"></path></symbol>
<symbol id="mastodon" viewBox="0 0 512 512"><path d="M256 0a256 256 0 1 1 0 512 256 256 0 0 1 0-512zm106 213v86h-35v-83c0-19-7-27-21-27-17 0-25 11-25 31v47h-34v-47c0-20-8-31-24-31-15 0-22 8-22 27v83h-34v-86c0-17 4-31 13-42 9-10 22-16 36-16 18 0 31 7 39 21l9 14 8-14c9-14 23-21 39-21s27 6 37 16c8 11 14 25 14 42zm-33 136c40-5 77-31 81-53 7-37 6-89 6-89 0-70-47-92-47-92-22-11-63-15-104-15h-1c-42 0-82 4-106 15 0 0-46 22-46 92v56c1 69 13 138 77 155 30 7 55 10 75 9 38-3 58-14 58-14l-2-27s-25 8-55 8c-29-1-60-4-66-39v-11s28 7 65 9c22 0 44-1 65-4z" fill="currentColor" fill-rule="evenodd"/></symbol>
<symbol id="nostr" viewBox="0 0 533.31 533.31"><path d="M266.655 2.542C120.789 2.542 2.542 120.789 2.542 266.655c0 145.866 118.247 264.113 264.113 264.113 145.866 0 264.113-118.247 264.113-264.113 0-145.866-118.247-264.113-264.113-264.113Zm104.01 67.283c2.877.134 5.167 1.168 6.615 2.285 1.93 1.49 5.06 2.73 5.81 4.47.15.74-.6 2.83 3.58 3.58s6.971 1.811 6.971 1.811 6.8 1.87 1.35 3.36c-5.51.89-8.92-.31-10.56.74-1.64 1.05-3.13 4.38-4.17 4.83-1.04.45-3.13.15-5.21 1.79-2.08 1.64-4.171 2.979-5.511 6.259-1.34 3.28-2.379 6.851-1.489 11.621.89 4.77 3.72 13.71 6.26 18.77 2.53 5.07 8.79 17.73 10.58 20.71 1.79 2.98 6.85 12.81 7.3 23.39.45 10.58.45 19.219 0 23.839-.45 4.62-4.71 22.452-15.44 37.352-3.54 6.14-10.091 13.858-10.721 15.218-.63 1.36-1.31 2.12-.7 3.32 2.01 3.93 5.591 9.62 6.391 12.7 1 2.89 3.04 7.01 3.14 12.48h-.04c.1 5.47-5.19 22.37-16.81 35.33-11.62 12.96-24.341 9.06-25.391 8.76-1.05-.3-1.34-1.939-3.43-1.639-2.09.3-4.17 2.68-8.19 3.13-4.02.45-7.6.74-11.32-.6-1.94.3-2.229.31-3.129.97-.9.66-7.75 4.689-9.39 4.989 0 3.13-.6 19.37 0 24.29.6 4.92 1.64 11.171 3.28 15.641 1.64 4.47 1.19 4.619 3.28 4.319 2.09-.3 5.81.15 6.85 1.79 1.04 1.64.599 2.83 2.379 3.58s26.37 7.45 43.21 8.34c11.62.3 18.621 1.19 22.651 8.49.6 3.43 3.28 5.66 4.92 6.11 1.64.45 3.58.892 5.21 2.532 1.63 1.64.45 3.578 2.38 5.068 1.94 1.49 6.41 3.72 11.03 5.96 4.62 2.23 6.559 5.81 6.849 7 .29 1.19.74 4.77.74 4.77s-3.87 0-4.77-.89c-.9-.89-1.189-2.53-1.189-2.53s-2.681.45-3.281 1.49c-.6 1.04.3 1.191-3.43.301-3.73-.89-5.07-1.64-7.9-3.72s-7.15-7.451-10.88-7.301c1.79 3.58 2.53 3.581 4.62 4.771 2.09 1.19 3.58 2.53 3.58 2.53l-3.129 1.94s-1.94.89-6.41-.3c-4.47-1.19-5.07-1.94-5.51-4.62-.44-2.68 0-4.02-1.191-6.26-1.19-2.24-1.79-6.85-9.68-9.24-7.9-2.38-28.91-9.241-43.51-10.731-14.6-1.49-9.83-1.19-12.22-.6-2.39.59-6.849 1.94-11.469-.6-4.62-2.53-7.3-5.958-7.6-8.788-.3-2.83-.74-4.772 0-8.342.74-3.57 1.49-8.64.74-11.62-.75-2.98-6.11-24.289-8.64-27.859-5.66.45-22.05-.3-22.05-.3s-1.04-.301-7.6 2.529-15.85 5.98-20.32 8.66c-4.47 2.68-6.26 4.22-7 5.71.05 1.3-.53 3.35-1.21 3.94-.68.59-5.42 1.051-5.42 1.051s-2.54 2.54-3.58 4.33c-2.98 4.17-23.99 54.38-28.91 65.11-5.89 14.15-4.25 11.92-16.39 11.92s-3.5.13-3.5.13-5.361 2.55-7.301 2.55c-1.94 0-8.189-1.04-11.469 0-3.28 1.04-7.15 4.02-10.13 4.47-2.98.45-2.15-.581-3.64-1.631-1.74-.09-6.2-.049-6.2-.049s.759-2.83 3.439-4.73c3.58-2.53 11.03-7 15.05-9.24 4.02-2.23 7.601-3.43 10.131-4.02 2.53-.6 8.05-2.68 13.26-4.32 5.21-1.64 8.49-3.58 12.96-13.71 4.47-10.13 21.899-48.421 22.349-50.511.28-1.29 1.622-2.809 2.092-6.559.29-2.32-1.082-5.67.738-9.83 4.77-10.88 9.39-8.79 11.47-8.79s7.451.15 11.471-.6c4.02-.74 6.699-1.19 10.729-3.43 4.02-2.23 4.922-3.871 4.922-3.871l-8.641-1.488s-8.05.298-10.88-1.942c-2.83-2.24-6.7-6.85-6.7-6.85l-3.28-3.128.45 3.718s-2.23-3.868-2.83-4.468c-.6-.6-3.72-2.832-4.92-4.922-1.2-2.09-3.28-10.88-3.28-10.88l-2.681 5.661-.738-8.19-2.23 3.13-1.192-7-2.09 3.58-1.488-6.26-2.532 1.94-1.039-4.47-2.531-1.49s-6.108-4.02-7.148-4.17c-1.04-.15-1.942 1.49-1.942 1.49l.6 5.21-5.299-2.721-3.041-5.17s1.02 1.741-4.18 3.271c-8.93 0-9.51-.99-10.83-1.71-.57-2.85-2.42-4.391-2.42-4.391h-8.94l-.15-2.979-3.43 1.34.302-4.47h-6.112l.451-4.92h-3.87s1.34-4.02 11.17-9.98c9.83-5.96 10.88-7.15 20.11-7.45 9.24-.3 14.3 1.19 20.11 3.58 5.81 2.38 16.84 5.96 19.07 7.6 4.92-4.32 12.37-8.641 14.9-8.641.45-1.04 2.69-5.358 7.81-7.648 15.34-6.87 46.99-14.782 57.16-15.452 13.56-.89 3.43-.599 16.99.891 13.56 1.49 23.54 3.28 30.25 5.51 5.46 1.82 10.88 4.17 14.9.89 1.88-.79 5.13-.58 7.75-2.23 13.34-10.9 15.089-14.06 18.959-18.23 3.87-4.17 8.75-10.83 9.8-19.62 1.05-8.79 1.942-25.33-4.618-38.29-6.56-12.96-12.521-19.67-15.051-30.1-2.53-10.43-3.58-26.52-2.68-31.74.9-5.22 2.23-9.68 2.98-13.26s4.32-6.41 8.64-7.15c1.08-.186 2.105-.24 3.064-.196z" fill="currentColor"/></symbol>
<symbol id="telegram" viewBox="0 0 24 24"><path d="m12 24c6.629 0 12-5.371 12-12s-5.371-12-12-12-12 5.371-12 12 5.371 12 12 12zm-6.509-12.26 11.57-4.461c.537-.194 1.006.131.832.943l.001-.001-1.97 9.281c-.146.658-.537.818-1.084.508l-3-2.211-1.447 1.394c-.16.16-.295.295-.605.295l.213-3.053 5.56-5.023c.242-.213-.054-.333-.373-.121l-6.871 4.326-2.962-.924c-.643-.204-.657-.643.136-.953z" fill="currentColor"/></symbol>
<symbol id="instagram" viewBox="0 0 36 36"><path d="M18 0c9.945 0 18 8.055 18 18s-8.055 18-18 18S0 27.945 0 18 8.055 0 18 0zm4.732 6.016c-3.158-.029-6.322-.01-9.48-.01-1.205.005-2.361.242-3.426.798C7.38 8.09 6 10.067 6 12.896V23.29c0 1.31.363 2.519 1.122 3.582 1.447 2.021 3.464 3.046 5.916 3.094 3.256.063 6.516.02 9.772.015a7.57 7.57 0 003.004-.629c2.384-1.025 4.257-3.326 4.184-6.304-.044-1.682-.01-3.37-.01-5.052v-5.289c0-1.392-.406-2.659-1.248-3.761-1.509-1.973-3.555-2.91-6.008-2.93zM17.995 12A6.002 6.002 0 0124 17.995c0 3.308-2.683 6-5.995 6.005-3.322 0-6-2.682-6.005-6.02-.005-3.288 2.694-5.98 5.995-5.98zm.013 1.846a4.16 4.16 0 00-4.162 4.151 4.153 4.153 0 104.162-4.151zM23.998 11c.552 0 1.002.451 1.002 1.004A1 1 0 1123.998 11z" fill="currentColor" fill-rule="nonzero"/></symbol>
<symbol id="sphinx" viewBox="0 0 24 24"><path d="m12 0c6.627417 0 12 5.372583 12 12s-5.372583 12-12 12-12-5.372583-12-12 5.372583-12 12-12zm-.3531631 3.85324586c-2.39105997.17142-4.69307997 1.44204-6.17327997 3.4074-1.17684 1.56258-1.79454 3.38994004-1.91544 5.66700004-.04506.84876-.0417.85776.4449 1.19712.91422.63768 1.53258 1.58586 1.76358 2.70414.35928 1.73946 1.62276 2.82216 3.79428 3.25134.77285997.15276.97595997.1443 1.16879997-.0486.1423865-.1423865.1636427-.1102839.1666938-1.3209327l.0004662-2.9473473.06444.01674c.62328.16188 1.37952.17238 1.96878.02742l.21678-.05334.0001599 2.7887319c.0017234 1.3819183.0183716 1.3401509.1670001 1.4887281.19284.1929.39594.20136 1.1688.0486 2.17152-.42918 3.435-1.51188 3.79428-3.25134.2307-1.11678.85086-2.06748 1.76418-2.7045.48654-.33936.48948-.34734.44376-1.2036-.17166-3.21762004-1.4124-5.71932004-3.6702-7.40034004-1.51494-1.12794-3.54684-1.78338-5.16798-1.66722zm5.41302 3.31368c.00906 0 .1074.10284.21846.22848 1.30716 1.47924 2.04726 3.39408004 2.11734 5.47854004l.0126.375-.11916.08454c-1.01754.72168-1.79508 1.94226-2.06268 3.23802-.195.94404-.59814 1.47468-1.47804 1.94544-.35166.18822-1.29792.50934-1.5006.50934-.01458 0-.0228-.6876-.0228-1.90752v-1.90746l.16146-.13212c.75702-.61932 1.3509-1.65312 1.58592-2.76066.09534-.44946.10536-.60354.12984-2.00268l.0243-1.38624004.4584-.88134c.25212-.48474.46584-.88134.47496-.88134zm-10.07873997.00047616c.00738.00030384.21558.39840384.46278.88476384l.44934.88428.00996 1.40622004c.01074 1.51266.01692 1.6035.14706 2.14452.25296 1.05198.84102 2.02026 1.58094 2.60304l.1875.14772-.0003188 2.2528915c-.00156882.8717899-.00873768 1.5351802-.0172612 1.5349685-.25866-.0075-1.1376-.30828-1.54374-.5283-.84222-.45636-1.2489-1.0002-1.44012-1.926-.2676-1.29576-1.02726-2.4897-2.06016-3.23802l-.1167-.08454-.00069044-.2241c-.00482956-1.56522.57267044-3.46044004 1.45293044-4.76802004.2508-.3726.837-1.09134.88848-1.08942384zm8.04695997 2.19678384c.02922.05694-.02718 2.26080004-.06312 2.46648004-.35778 2.04684-1.737 3.24636-3.41094 2.96646-1.26792-.21204-2.22047997-1.28748-2.51291997-2.83722-.04398-.23328-.04968-.3699-.0594-1.43556l-.0108-1.17774004 3.65731867.00039052c1.3629343.00170517 2.3955831.00878948 2.3998613.01718948zm-2.40858-4.3977c1.11042.11346 2.3607.59526 3.38184 1.30314l.2178.15096-.07992.14466c-.04392.07956-.26172.49536-.48396.924l-.4041.7794-3.24516-.00594-3.24515997-.00594-.93588-1.83648.21756-.15084c1.42746-.98946 3.06989997-1.45704 4.57697997-1.30296z" fill="currentColor" fill-rule="evenodd"/></symbol>
<symbol id="youtube" viewBox="0 0 36 36"><path d="M18 0c9.945 0 18 8.055 18 18s-8.055 18-18 18S0 27.945 0 18 8.055 0 18 0zm.173 9.5h-.35c-1.11.003-7.19.043-8.824.47a2.931 2.931 0 00-2.027 2.033c-.43 1.62-.47 4.818-.473 5.403v.187c.003.588.044 3.8.473 5.403a2.873 2.873 0 002.027 2.014c1.621.436 7.502.484 8.76.489h.614c1.502-.008 7.072-.064 8.624-.47a2.873 2.873 0 002.027-2.014c.445-1.677.472-5.04.474-5.455v-.196c-.003-.72-.04-3.79-.474-5.361a2.873 2.873 0 00-2.027-2.014c-1.633-.444-7.713-.485-8.824-.49zm-2.675 4l7 4-7 4v-8z" fill="currentColor" fill-rule="nonzero"/></symbol>
<symbol id="soundcloud" viewBox="0 0 36 36"><path d="M18 0c9.945 0 18 8.055 18 18s-8.055 18-18 18S0 27.945 0 18 8.055 0 18 0Zm-1.5 11c-.207 0-.375.224-.375.5L16 19.333l.125 3.167c0 .276.168.5.375.5s.375-.224.375-.5L17 19.333l-.125-7.833c0-.276-.168-.5-.375-.5Zm-2 2c-.207 0-.375.224-.375.5L14 19.333l.125 3.167c0 .276.168.5.375.5s.375-.224.375-.5L15 19.333l-.125-5.833c0-.276-.168-.5-.375-.5Zm-2 0c-.207 0-.375.21-.375.469L12 19.563l.125 2.968c0 .259.168.469.375.469s.375-.21.375-.469L13 19.563l-.125-6.094c0-.259-.168-.469-.375-.469Zm-2 1c-.207 0-.375.216-.375.482L10 19.464l.125 3.054c0 .266.168.482.375.482s.375-.216.375-.482L11 19.464l-.125-4.982c0-.266-.168-.482-.375-.482Zm-2 2c-.207 0-.375.235-.375.525L8 19.15l.125 3.325c0 .29.168.525.375.525s.375-.235.375-.525L9 19.15l-.125-2.625c0-.29-.168-.525-.375-.525Zm-2 0c-.207 0-.375.214-.375.477L6 19.5l.125 3.023c0 .263.168.477.375.477s.375-.214.375-.477L7 19.5l-.125-3.023c0-.263-.168-.477-.375-.477ZM21 10s-3 0-3 1.625v10.4A.99.99 0 0 0 19 23h10c2.21 0 4-1.746 4-3.9s-1.79-3.9-4-3.9c-.5 0-.978.09-1.42.254C27.067 12.36 24.317 10 21 10ZM4.5 17c-.207 0-.375.24-.375.536L4 19.5l.125 1.964c0 .296.168.536.375.536s.375-.24.375-.536L5 19.5l-.125-1.964c0-.296-.168-.536-.375-.536Z" fill="currentColor" fill-rule="nonzero"/></symbol>
<symbol id="url" viewBox="0 0 24 24"><path d="m12 0c6.627417 0 12 5.372583 12 12s-5.372583 12-12 12-12-5.372583-12-12 5.372583-12 12-12zm1.329782 9.0323458c-.0667318-.04744337-.1733195-.04194992-.2358077.01157441-.3929297.33651004-.7775387.7680243-1.0313191 1.31869039-.039856.0864557-.0100125.1903023.0685346.2385976.2945239.1811073.5605079.4462613.7388753.7980766l.0458813.090899c.1205149.2630637.2198069.6859546.14089 1.1366062l-.0318931.1668805c-.1566542.6076256-.7340498 1.1681654-1.2008139 1.6776821l-.1196965.1295672c-.4424545.4787276-1.2897918 1.3937266-1.6486396 1.7820331-.70850482.7659092-1.87983297.7785705-2.60295448.0281429-.7231215-.7504277-.73507553-1.9910642-.02657066-2.7569734l1.08010589-1.1764779.03056112-.0440384c.02431195-.047604.02959038-.1044534.01326107-.1574857-.23982939-.7793931-.30553493-1.8290518-.15415424-2.63946662.0042158-.02259068-.02202204-.03701464-.03724886-.02056369l-2.25753587 2.44046891-.14769908.1689201c-1.32886698 1.6084784-1.26742081 4.0882066.17560106 5.6165848 1.5096465 1.5666591 3.95500755 1.5401907 5.43414495-.0587827l.0844852-.0971774c.602752-.678021 2.4443687-2.5054057 2.8436233-3.2389285l.0505873-.1061753.0042636-.0019012.1091501-.2291667c.3717884-.8497628.4323405-1.8001215.2304719-2.7275976l-.0010817-.0004994-.0544076-.2079177c-.2428287-.8299915-.784576-1.63245089-1.5006143-2.1415716zm4.5528854-2.84399015c-1.5092608-1.59595493-3.9662842-1.58267314-5.4600457.02946621l-2.347696 2.53377232-.0045784.00521156c-1.67658954 1.83444806-1.31173065 4.87020156.6035082 6.21500466.0631065.0443313.1470637.0355354.2012699-.0204651.4032052-.4166025.7443021-.8201284 1.0429768-1.3333391.045694-.0785179.0172739-.1804036-.0593911-.2243244-.2503981-.1434483-.4997369-.3944937-.6689195-.6720437l-.0777395-.140491-.06737-.1570582c-.122297-.3185258-.1689689-.662693-.1226219-1.0178318l.0313383-.1783571.0502283-.1822542c.1919467-.54292.7377411-1.05125446 1.1646833-1.52493933-.0009981-.00035183-.0019686-.00073299-.0029667-.00108482l1.7773804-1.91826552.1155026-.1144016c.7142057-.64859865 1.7955626-.61652266 2.4735565.10041614.7228969.74896972.7348472 1.98719595.0265624 2.75161713l-1.0765819 1.1706738-.0309666.0447917c-.0244734.0484392-.0291939.1062996-.0117051.1598886.2478789.7601111.3088504 1.8318899.1427383 2.6416392-.0046582.022664.0217934.0374998.0371264.0209342l2.2912993-2.4729341.1461554-.1668792c1.3149775-1.5890449 1.2541597-4.03882228-.1737437-5.54874635z" fill="currentColor" fill-rule="evenodd"/></symbol>
<symbol id="close" viewBox="0 0 24 24"><path d="M0,22.2739 L21.9971,0 M22.2738,22.2739 L0,0" stroke="currentColor" stroke-width="2"></path></symbol>
<symbol id="theme" viewBox="0 0 26 25"><path fill="currentColor" d="m12.0000207 0c-6.61683072 0-12.0000207 5.38318998-12.0000207 12.0000207 0 6.6168308 5.38318998 11.9999793 12.0000207 11.9999793 6.6168308 0 11.9999793-5.3831485 11.9999793-11.9999793 0-6.61683072-5.3831485-12.0000207-11.9999793-12.0000207zm-10.8149687 11.9999793c0-5.96351696 4.85145183-10.8149273 10.8149687-10.8149273v21.6299375c-5.96335089 0-10.8149687-4.8514518-10.8149687-10.8150102z"/></symbol>
<symbol id="pause" viewBox="0 0 75 75"><g fill="none" fill-rule="evenodd" transform="translate(1 1)"><circle cx="36.5" cy="36.5" r="36.5" stroke="currentColor"/><path d="m30.52 23h-4.32c-1.2150264 0-2.2.9849736-2.2 2.2v23.6c0 1.21.98 2.2 2.2 2.2h4.32c1.2111194-.0055051 2.19-.9888681 2.19-2.2v-23.6c0-1.2111319-.9788806-2.1944949-2.19-2.2zm16.38 0h-4.32c-1.2111194.0055051-2.19.9888681-2.19 2.2v23.6c0 1.21.98 2.2 2.19 2.2h4.33c1.2111194-.0055051 2.19-.9888681 2.19-2.2v-23.6c0-1.21-.98-2.2-2.2-2.2z" fill="currentColor"/></g></symbol>
<symbol id="play" viewBox="0 0 75 75"><g fill="none" fill-rule="evenodd" transform="translate(1 1)"><circle cx="36.5" cy="36.5" r="36.5" stroke="currentColor"/><path d="M48.2502142,35.8004595 L26.8384747,23.4304595 C25.2746358,22.4704595 24,23.1704595 24,24.9904595 L24,49.0004595 C24,50.8104595 25.2746358,51.5204595 26.8384747,50.5604595 L48.2502142,38.2004595 C48.2502142,38.2004595 49,37.7004595 49,37.0004595 C49,36.3004595 48.2502142,35.8004595 48.2502142,35.8004595 Z" fill="currentColor"/></g></symbol>
<symbol id="download" viewBox="0 0 490 490"><path fill="currentColor" d="M360.352 232.334l-36.008-28.531-56.375 71.165V0h-45.938v274.968l-56.375-71.165-36.008 28.531L245 377.923zM58.02 444.063h373.96v45.938H58.02z"/></symbol>
</svg>
